<?xml version="1.0" encoding="UTF-8"?>
<svg version="1.1" viewBox="0 0 3840 2160.9" xml:space="preserve" xmlns="http://www.w3.org/2000/svg"><rect x="-.086964" y=".461" width="3840.1" height="2160.5" ry="10.505" fill="#212a39" stroke-width="8"/><g fill="none" stroke="#000" stroke-width=".92659"><path d="m1187 2160.4c394.48-171.64 757.1-415.93 1066.3-725.17 403.42-403.44 697.69-897.08 862.06-1434.8h-6.8922c-164.18 535.98-457.62 1028-859.8 1430.2-312.21 312.2-678.84 558.22-1077.8 729.8z" opacity=".25"/><path d="m-0.086964 333.61c273.01-38.194 519.58-157.32 715.36-333.15h-715.36z" opacity=".25"/><path d="m-0.086964 340.21c277.18-38.59 527.3-160.24 725.07-339.76h-9.7142c-195.77 175.83-442.34 294.95-715.36 333.15z" opacity=".25"/><path d="m-0.086964 746.26c406.38-44.253 777.2-226.37 1057.6-506.77 73.554-73.554 139.38-154.05 198.75-239.04h-531.27c-197.77 179.52-447.89 301.16-725.07 339.76z" opacity=".25"/><path d="m-0.086964 752.88c408.16-44.282 780.63-227.16 1062.2-508.75 74.927-74.928 142.01-156.93 202.27-243.67h-8.147c-59.378 84.99-125.2 165.49-198.75 239.04-280.39 280.39-651.2 462.51-1057.6 506.77z" opacity=".25"/><path d="m-0.086964 764.36c411.14-44.314 786.47-228.42 1070.3-512.2 77.327-77.328 146.62-161.93 208.4-251.71h-14.164c-60.261 86.74-127.35 168.74-202.27 243.67-281.59 281.59-654.06 464.47-1062.2 508.75z" opacity=".25"/><path d="m-0.086964 770.97c412.91-44.341 789.9-229.2 1074.9-514.18 78.703-78.703 149.28-164.79 211.92-256.33h-8.1436c-61.774 89.78-131.07 174.38-208.4 251.71-283.78 283.78-659.12 467.88-1070.3 512.2z" opacity=".25"/><path d="m-0.086964 782.45c415.88-44.369 795.75-230.43 1082.9-517.62 81.108-81.102 153.92-169.78 218.04-264.38h-14.169c-62.637 91.54-133.21 177.63-211.92 256.33-284.98 284.98-661.97 469.84-1074.9 514.18z" opacity=".25"/><path d="m-0.086964 789.05c417.65-44.396 799.18-231.21 1087.6-519.6 82.485-82.477 156.6-172.63 221.56-269h-8.147c-64.118 94.598-136.93 183.28-218.04 264.38-287.17 287.19-667.05 473.25-1082.9 517.62z" opacity=".25"/><path d="m-0.086964 800.54c420.6-44.429 805.01-232.47 1095.6-523.05 84.798-84.799 160.7-177.7 227.06-277.04h-13.536c-64.963 96.37-139.08 186.53-221.56 269-288.37 288.39-669.9 475.21-1087.6 519.6z" opacity=".25"/><path d="m-0.086964 807.16c422.38-44.454 808.44-233.25 1100.2-525.03 86.107-86.106 162.92-180.64 230.07-281.67h-7.637c-66.363 99.334-142.27 192.24-227.06 277.04-290.58 290.58-674.98 478.62-1095.6 523.05z" opacity=".25"/><path d="m-0.086964 818.66c425.34-44.486 814.29-234.51 1108.3-528.48 88.392-88.398 166.8-185.77 235.31-289.73h-13.296c-67.153 101.03-143.96 195.56-230.07 281.67-291.78 291.78-677.84 480.58-1100.2 525.03z" opacity=".25"/><path d="m-0.086964 825.26c427.11-44.512 817.72-235.29 1112.9-530.46 89.698-89.705 169.03-188.69 238.31-294.36h-7.6336c-68.508 103.96-146.91 201.33-235.31 289.73-293.99 293.97-682.94 483.99-1108.3 528.48z" opacity=".25"/><path d="m-0.086964 836.75c430.08-44.542 823.57-236.54 1121-533.9 91.983-91.989 172.94-193.79 243.54-302.4h-13.271c-69.283 105.66-148.62 204.65-238.31 294.36-295.19 295.17-685.79 485.95-1112.9 530.46z" opacity=".25"/><path d="m-0.086964 843.37c431.84-44.568 827-237.33 1125.6-535.88 93.29-93.296 175.18-196.71 246.55-307.02h-7.6318c-70.607 108.61-151.56 210.41-243.54 302.4-297.38 297.36-690.87 489.36-1121 533.9z" opacity=".25"/><path d="m-0.086964 854.85c434.82-44.59 832.84-238.56 1133.6-539.33 95.583-95.583 179.12-201.79 251.79-315.07h-13.283c-71.369 110.32-153.26 213.73-246.55 307.02-298.58 298.56-693.73 491.32-1125.6 535.88z" opacity=".25"/><path d="m-0.086964 861.46c436.59-44.616 836.27-239.34 1138.2-541.31 96.889-96.89 181.38-204.7 254.79-319.69h-7.6302c-72.667 113.28-156.21 219.48-251.79 315.07-300.77 300.77-698.79 494.74-1133.6 539.33z" opacity=".25"/><path d="m-0.086964 872.96c439.55-44.651 842.12-240.62 1146.3-544.78 99.176-99.175 185.34-209.76 260.02-327.73h-13.268c-73.412 114.99-157.9 222.8-254.79 319.69-301.97 301.97-701.65 496.69-1138.2 541.31z" opacity=".25"/><path d="m-0.086964 879.58c441.32-44.673 845.55-241.39 1150.9-546.76 100.48-100.48 187.61-212.67 263.03-332.36h-7.6369c-74.687 117.97-160.85 228.55-260.02 327.73-304.16 304.16-706.72 500.13-1146.3 544.78z" opacity=".25"/><path d="m-0.086964 891.06c444.28-44.698 851.4-242.63 1159-550.2 102.78-102.77 191.6-217.72 268.26-340.4h-13.271c-75.417 119.69-162.55 231.88-263.03 332.36-305.36 305.36-709.59 502.08-1150.9 546.76z" opacity=".25"/><path d="m-0.086964 897.61c446.05-44.725 854.82-243.36 1163.6-552.13 104.08-104.08 193.89-220.62 271.27-345.02h-7.6319c-76.665 122.68-165.49 237.63-268.26 340.4-307.55 307.57-714.66 505.5-1159 550.2z" opacity=".25"/><path d="m-0.086964 908.98c449-44.753 860.68-244.48 1171.6-555.44 106.37-106.37 197.89-225.68 276.49-353.09h-13.29c-77.381 124.4-167.18 240.94-271.27 345.02-308.75 308.77-717.52 507.4-1163.6 552.13z" opacity=".25"/><path d="m-0.086964 915.53c450.76-44.779 864.11-245.2 1176.3-557.35 107.68-107.68 200.19-228.57 279.5-357.71h-7.6301c-78.604 127.41-170.12 246.72-276.49 353.09-310.96 310.95-722.64 510.68-1171.6 555.44z" opacity=".25"/><path d="m-0.086964 926.9c453.71-44.811 869.97-246.35 1184.3-560.69 109.97-109.97 204.22-233.6 284.72-365.76h-13.264c-79.304 129.14-171.82 250.03-279.5 357.71-312.15 312.15-725.5 512.58-1176.3 557.35z" opacity=".25"/><path d="m-0.086964 933.43c455.47-44.837 873.39-247.06 1188.9-562.6 111.28-111.28 206.53-236.49 287.72-370.38h-7.6285c-80.504 132.15-174.75 255.79-284.72 365.76-314.34 314.34-730.6 515.88-1184.3 560.69z" opacity=".25"/><path d="m-0.086964 944.83c458.42-44.869 879.25-248.22 1197-565.96 113.57-113.57 210.59-241.51 292.96-378.42h-13.276c-81.191 133.9-176.44 259.1-287.72 370.38-315.54 315.54-733.46 517.76-1188.9 562.6z" opacity=".25"/><path d="m-0.086964 951.38c460.18-44.894 882.68-248.94 1201.6-567.88 114.88-114.87 212.92-244.39 295.96-383.05h-7.6318c-82.372 136.91-179.39 264.85-292.96 378.42-317.72 317.74-738.54 521.09-1197 565.96z" opacity=".25"/><path d="m-0.086964 962.75c463.14-44.924 888.51-250.08 1209.6-571.21 117.17-117.17 216.98-249.4 301.18-391.09h-13.254c-83.045 138.66-181.08 268.18-295.96 383.05-318.92 318.94-741.41 522.98-1201.6 567.88z" opacity=".25"/><path d="m-0.086964 969.3c464.9-44.95 891.94-250.8 1214.3-573.13 118.48-118.48 219.32-252.28 304.18-395.71h-7.6285c-84.197 141.68-184.01 273.92-301.18 391.09-321.13 321.13-746.49 526.29-1209.6 571.21z" opacity=".25"/><path d="m-0.086964 980.67c467.85-44.975 897.8-251.92 1222.3-576.44 120.77-120.78 223.41-257.3 309.4-403.78h-13.284c-84.859 143.44-185.7 277.24-304.18 395.71-322.33 322.32-749.36 528.18-1214.3 573.13z" opacity=".25"/><path d="m-0.086964 987.21c469.61-45 901.22-252.64 1227-578.35 122.08-122.09 225.77-260.16 312.4-408.4h-7.6284c-85.987 146.48-188.63 283-309.4 403.78-324.53 324.51-754.47 531.46-1222.3 576.44z" opacity=".25"/><path d="m-0.086964 998.59c472.56-45.029 907.08-253.79 1235-581.68 124.37-124.38 229.88-265.16 317.62-416.45h-13.259c-86.636 148.24-190.32 286.32-312.4 408.4-325.73 325.71-757.34 533.35-1227 578.35z" opacity=".25"/><path d="m-0.086964 1005.1c474.32-45.054 910.5-254.5 1239.6-583.6 125.68-125.68 232.24-268.02 320.62-421.07h-7.6268c-87.744 151.29-193.25 292.07-317.62 416.45-327.92 327.9-762.43 536.65-1235 581.68z" opacity=".25"/><path d="m-0.086964 1016.5c477.27-45.084 916.36-255.66 1247.7-586.96 127.98-127.98 236.39-273 325.86-429.11h-13.274c-88.38 153.05-194.94 295.39-320.62 421.07-329.12 329.09-765.3 538.55-1239.6 583.6z" opacity=".25"/><path d="m-0.086964 1023.1c479.03-45.106 919.79-256.37 1252.3-588.87 129.29-129.28 238.76-275.86 328.86-433.74h-7.6302c-89.471 156.11-197.88 301.14-325.86 429.11-331.3 331.3-770.39 541.88-1247.7 586.96z" opacity=".25"/><path d="m-0.086964 1034.4c481.98-45.132 925.64-257.51 1260.3-592.21 131.59-131.58 242.92-280.83 334.08-441.78h-13.264c-90.095 157.88-199.57 304.46-328.86 433.74-332.5 332.5-773.26 543.77-1252.3 588.87z" opacity=".25"/><path d="m-0.086964 1041c483.74-45.155 929.06-258.22 1265-594.12 132.89-132.88 245.31-283.68 337.09-446.4h-7.6268c-91.162 160.94-202.5 310.2-334.08 441.78-334.68 334.71-778.35 547.08-1260.3 592.21z" opacity=".25"/><path d="m-0.086964 1052.4c486.7-45.182 934.92-259.36 1273-597.46 135.19-135.18 249.48-288.66 342.3-454.45h-13.259c-91.773 162.72-204.19 313.52-337.09 446.4-335.89 335.91-781.21 548.97-1265 594.12z" opacity=".25"/><path d="m-0.086964 1058.9c488.46-45.205 938.34-260.08 1277.6-599.38 136.5-136.49 251.88-291.5 345.31-459.07h-7.6302c-92.819 165.79-207.11 319.27-342.3 454.45-338.07 338.09-786.29 552.28-1273 597.46z" opacity=".25"/><path d="m-0.086964 1070.3c491.41-45.228 944.2-261.2 1285.7-602.68 138.79-138.79 256.08-296.48 350.52-467.14h-13.274c-93.422 167.57-208.81 322.58-345.31 459.07-339.27 339.3-789.16 554.17-1277.6 599.38z" opacity=".25"/><path d="m-0.086964 1076.8c493.17-45.251 947.63-261.92 1290.3-604.6 140.1-140.1 258.48-299.32 353.52-471.76h-7.6251c-94.442 170.66-211.72 328.34-350.52 467.14-341.48 341.48-794.28 557.46-1285.7 602.68z" opacity=".25"/><path d="m-0.086964 1088.2c496.11-45.282 953.48-263.09 1298.4-607.96 142.39-142.39 262.69-304.28 358.73-479.8h-13.256c-95.033 172.44-213.42 331.66-353.52 471.76-342.68 342.68-797.14 559.35-1290.3 604.6z" opacity=".25"/><path d="m-0.086964 1094.8c497.87-45.304 956.91-263.8 1303-609.87 143.7-143.7 265.12-307.12 361.74-484.43h-7.6352c-96.041 175.52-216.34 337.41-358.73 479.8-344.87 344.87-802.23 562.68-1298.4 607.96z" opacity=".25"/><path d="m-0.086964 1106.1c500.82-45.327 962.76-264.93 1311-613.21 146-146 269.35-312.06 366.96-492.47h-13.257c-96.622 177.32-218.03 340.73-361.74 484.43-346.07 346.07-805.11 564.57-1303 609.87z" opacity=".25"/><path d="m-0.086964 1112.7c502.58-45.349 966.18-265.65 1315.6-615.12 147.32-147.3 271.78-314.89 369.96-497.1h-7.6268c-97.606 180.41-220.95 346.47-366.96 492.47-348.25 348.27-810.2 567.88-1311 613.21z" opacity=".25"/><path d="m-0.086964 1124c505.52-45.376 972.02-266.8 1323.7-618.46 149.55-149.55 275.53-319.92 374.66-505.14h-12.741c-98.176 182.2-222.64 349.79-369.96 497.1-349.46 349.48-813.07 569.77-1315.6 615.12z" opacity=".25"/><path d="m-0.086964 1130.6c507.28-45.396 975.44-267.51 1328.3-620.37 150.81-150.81 277.6-322.82 377.27-509.76h-7.2367c-99.125 185.21-225.11 355.59-374.66 505.14-351.66 351.66-818.16 573.08-1323.7 618.46z" opacity=".25"/><path d="m-0.086964 1142c510.22-45.418 981.3-268.63 1336.4-623.68 153.03-153.04 281.21-327.88 381.81-517.83h-12.606c-99.67 186.94-226.46 358.95-377.27 509.76-352.87 352.87-821.04 574.98-1328.3 620.37z" opacity=".25"/><path d="m-0.086964 1148.5c511.98-45.439 984.73-269.34 1341-625.6 154.3-154.31 283.29-330.78 384.42-522.45h-7.235c-100.59 189.94-228.78 364.79-381.81 517.83-355.07 355.05-826.15 578.26-1336.4 623.68z" opacity=".25"/><path d="m-0.086964 1159.9c514.94-45.468 990.58-270.52 1349-628.96 156.52-156.53 286.93-335.81 388.97-530.49h-12.592c-101.13 191.68-230.12 368.15-384.42 522.45-356.27 356.25-829.02 580.16-1341 625.6z" opacity=".25"/><path d="m-0.086964 1166.4c516.7-45.488 994-271.22 1353.7-630.87 157.78-157.79 289.01-338.7 391.58-535.12h-7.2401c-102.05 194.68-232.46 373.96-388.97 530.49-358.46 358.44-834.1 583.49-1349 628.96z" opacity=".25"/><path d="m-0.086964 1177.8c519.64-45.51 999.86-272.36 1361.7-634.2 160.01-160.01 292.67-343.73 396.14-543.16h-12.592c-102.57 196.42-233.8 377.33-391.58 535.12-359.67 359.64-836.97 585.38-1353.7 630.87z" opacity=".25"/><path d="m-0.086964 1184.4c521.4-45.53 1003.3-273.07 1366.3-636.12 161.28-161.28 294.76-346.62 398.75-547.78h-7.2366c-103.47 199.42-236.13 383.14-396.14 543.16-361.85 361.85-842.06 588.7-1361.7 634.2z" opacity=".25"/><path d="m-0.086964 1195.7c524.34-45.55 1009.1-274.2 1374.4-639.45 163.51-163.5 298.43-351.65 403.3-555.82h-12.592c-103.98 201.17-237.47 386.51-398.75 547.78-363.06 363.06-844.93 590.59-1366.3 636.12z" opacity=".25"/><path d="m-0.086964 1202.3c526.1-45.571 1012.6-274.91 1379-641.37 164.77-164.76 300.53-354.53 405.91-560.45h-7.2384c-104.86 204.18-239.79 392.33-403.3 555.82-365.24 365.26-850.03 593.9-1374.4 639.45z" opacity=".25"/><path d="m-0.086964 1213.7c529.05-45.598 1018.4-276.07 1387.1-644.7 166.98-166.99 304.2-359.57 410.44-568.52h-12.595c-105.38 205.92-241.14 395.69-405.91 560.45-366.44 366.46-852.9 595.8-1379 641.37z" opacity=".25"/><path d="m-0.086964 1220.2c530.8-45.618 1021.8-276.79 1391.7-646.62 168.25-168.26 306.31-362.45 413.05-573.14h-7.2366c-106.24 208.94-243.46 401.52-410.44 568.52-368.65 368.63-858.02 599.1-1387.1 644.7z" opacity=".25"/><path d="m-0.086964 1231.6c533.75-45.639 1027.7-277.92 1399.7-649.96 170.48-170.48 310.01-367.47 417.6-581.18h-12.59c-106.74 210.7-244.8 404.88-413.05 573.14-369.85 369.83-860.89 601-1391.7 646.62z" opacity=".25"/><path d="m-0.086964 1238.1c535.5-45.657 1031.1-278.62 1404.4-651.86 171.75-171.75 312.12-370.34 420.21-585.81h-7.2384c-107.59 213.71-247.12 410.7-417.6 581.18-372.04 372.04-865.98 604.32-1399.7 649.96z" opacity=".25"/><path d="m-0.086964 1249.5c538.46-45.68 1037-279.78 1412.4-655.2 173.97-173.97 315.83-375.36 424.75-593.85h-12.578c-108.09 215.47-248.46 414.06-420.21 585.81-373.25 373.24-868.86 606.21-1404.4 651.86z" opacity=".25"/><path d="m-0.086964 1256c540.21-45.699 1040.4-280.48 1417-657.12 175.24-175.24 317.96-378.23 427.36-598.48h-7.2367c-108.92 218.49-250.78 419.88-424.75 593.85-375.43 375.43-873.94 609.52-1412.4 655.2z" opacity=".25"/><path d="m-0.086964 1267.4c543.16-45.718 1046.2-281.61 1425.1-660.45 177.47-177.46 321.68-383.24 431.91-606.52h-12.59c-109.41 220.24-252.12 423.24-427.36 598.48-376.64 376.64-876.81 611.42-1417 657.12z" opacity=".25"/><path d="m-0.086964 1274c544.91-45.736 1049.7-282.32 1429.7-662.37 178.74-178.72 323.82-386.11 434.52-611.14h-7.2367c-110.23 223.28-254.44 429.06-431.91 606.52-378.82 378.84-881.9 614.73-1425.1 660.45z" opacity=".25"/><path d="m-0.086964 1285.4c547.86-45.763 1055.5-283.49 1437.7-665.72 180.95-180.96 327.54-391.12 439.06-619.18h-12.582c-110.7 225.03-255.79 432.42-434.52 611.14-380.03 380.05-884.78 616.63-1429.7 662.37z" opacity=".25"/><path d="m-0.086964 1291.9c549.61-45.782 1058.9-284.2 1442.4-667.64 182.22-182.22 329.68-393.99 441.67-623.81h-7.2367c-111.52 228.06-258.11 438.23-439.06 619.18-382.23 382.23-889.88 619.96-1437.7 665.72z" opacity=".25"/><path d="m-0.086964 1303.3c552.55-45.801 1064.8-285.33 1450.4-670.95 184.45-184.46 333.42-399.01 446.2-631.87h-12.589c-111.99 229.82-259.45 441.59-441.67 623.81-383.44 383.44-892.75 621.86-1442.4 667.64z" opacity=".25"/><path d="m-0.086964 1309.8c554.31-45.819 1068.2-286.04 1455-672.87 185.71-185.72 335.57-401.88 448.81-636.5h-7.2401c-112.78 232.86-261.76 447.41-446.2 631.87-385.64 385.62-897.86 625.15-1450.4 670.95z" opacity=".25"/><path d="m-0.086964 1321.2c557.25-45.84 1074-287.18 1463.1-676.2 187.94-187.95 339.33-406.88 453.35-644.54h-12.573c-113.24 234.62-263.1 450.78-448.81 636.5-386.85 386.83-900.74 627.05-1455 672.87z" opacity=".25"/><path d="m-0.086964 1327.7c559-45.859 1077.5-287.9 1467.7-678.12 189.2-189.21 341.48-409.74 455.96-649.16h-7.2367c-114.02 237.66-265.41 456.59-453.35 644.54-389.03 389.01-905.84 630.36-1463.1 676.2z" opacity=".25"/><path d="m-0.086964 1339.1c561.95-45.876 1083.3-289.02 1475.8-681.44 191.44-191.44 345.26-414.73 460.5-657.2h-12.585c-114.48 239.43-266.75 459.95-455.96 649.16-390.24 390.22-908.71 632.26-1467.7 678.12z" opacity=".25"/><path d="m-0.086964 1345.6c563.7-45.894 1086.8-289.73 1480.4-683.36 192.7-192.7 347.42-417.59 463.11-661.83h-7.2367c-115.24 242.47-269.06 465.77-460.5 657.2-392.43 392.43-913.81 635.57-1475.8 681.44z" opacity=".25"/><path d="m-0.086964 1357c566.66-45.914 1092.6-290.88 1488.4-686.72 194.94-194.93 351.22-422.59 467.67-669.87h-12.597c-115.69 244.24-270.4 469.13-463.11 661.83-393.64 393.64-916.68 637.47-1480.4 683.36z" opacity=".25"/><path d="m-0.086964 1363.6c568.41-45.931 1096-291.59 1493-688.64 196.21-196.2 353.39-425.44 470.27-674.5h-7.235c-116.45 247.29-272.72 474.94-467.67 669.87-395.82 395.84-921.76 640.81-1488.4 686.72z" opacity=".25"/><path d="m-0.086964 1375c571.36-45.953 1101.9-292.74 1501.1-691.95 198.43-198.44 357.16-430.45 474.79-682.56h-12.577c-116.89 249.06-274.06 478.3-470.27 674.5-397.03 397.05-924.64 642.7-1493 688.64z" opacity=".25"/><path d="m-0.086964 1381.5c573.11-45.969 1105.3-293.44 1505.7-693.86 199.69-199.7 359.34-433.31 477.4-687.19h-7.2384c-117.63 252.11-276.36 484.12-474.79 682.56-399.23 399.21-929.75 646-1501.1 691.95z" opacity=".25"/><path d="m-0.086964 1392.9c576.05-45.987 1111.2-294.57 1513.8-697.2 201.93-201.93 363.15-438.29 481.94-695.23h-12.58c-118.06 253.88-277.71 487.49-477.4 687.19-400.44 400.42-932.63 647.89-1505.7 693.86z" opacity=".25"/><path d="m-0.086964 1399.4c577.8-46.003 1114.6-295.28 1518.4-699.11 203.2-203.2 365.34-441.14 484.55-699.85h-7.2349c-118.79 256.94-280.01 493.3-481.94 695.23-402.62 402.63-937.72 651.21-1513.8 697.2z" opacity=".25"/><path d="m-0.086964 1410.8c580.75-46.023 1120.4-296.42 1526.4-702.44 205.42-205.42 369.15-446.13 489.08-707.9h-12.574c-119.22 258.71-281.36 496.66-484.55 699.85-403.84 403.83-940.6 653.11-1518.4 699.11z" opacity=".25"/><path d="m-0.086964 1417.3c582.5-46.04 1123.8-297.14 1531.1-704.36 206.69-206.69 371.34-448.98 491.69-712.52h-7.2349c-119.94 261.77-283.66 502.47-489.08 707.9-406.02 406.02-945.7 656.42-1526.4 702.44z" opacity=".25"/><path d="m-0.086964 1428.7c585.44-46.06 1129.7-298.28 1539.1-707.71 208.93-208.92 375.17-453.96 496.24-720.57h-12.592c-120.36 263.54-285 505.83-491.69 712.52-407.23 407.23-948.57 658.32-1531.1 704.36z" opacity=".25"/><path d="m-0.086964 1435.3c587.19-46.077 1133.1-298.99 1543.7-709.63 210.2-210.19 377.37-456.81 498.85-725.19h-7.2367c-121.07 266.6-287.31 511.65-496.24 720.57-409.41 409.43-953.67 661.65-1539.1 707.71z" opacity=".25"/><path d="m-0.086964 1446.6c590.13-46.096 1139-300.14 1551.8-712.97 212.42-212.42 381.2-461.79 503.38-733.23h-12.562c-121.48 268.38-288.66 515-498.85 725.19-410.62 410.64-956.54 663.56-1543.7 709.63z" opacity=".25"/><path d="m-0.086964 1453.2c591.88-46.113 1142.4-300.85 1556.4-714.88 213.69-213.69 383.4-464.64 505.98-737.85h-7.235c-122.18 271.43-290.96 520.81-503.38 733.23-412.82 412.82-961.64 666.87-1551.8 712.97z" opacity=".25"/><path d="m-0.086964 1464.6c594.84-46.127 1148.2-301.97 1564.5-718.19 215.92-215.93 387.25-469.63 510.51-745.92h-12.592c-122.58 273.21-292.3 524.16-505.98 737.85-414.04 414.04-964.52 668.77-1556.4 714.88z" opacity=".25"/><path d="m-0.086964 1471.1c596.59-46.143 1151.6-302.68 1569.1-720.11 217.19-217.2 389.46-472.48 513.12-750.55h-7.2316c-123.26 276.28-294.59 529.99-510.51 745.92-416.24 416.22-969.63 672.06-1564.5 718.19z" opacity=".25"/><path d="m-0.086964 1482.5c599.53-46.162 1157.5-303.83 1577.1-723.46 219.43-219.43 393.33-477.45 517.67-758.59h-12.594c-123.66 278.06-295.93 533.35-513.12 750.55-417.45 417.43-972.5 673.96-1569.1 720.11z" opacity=".25"/><path d="m-0.086964 1489c601.28-46.178 1160.9-304.53 1581.8-725.38 220.7-220.69 395.54-480.3 520.28-763.21h-7.2333c-124.34 281.13-298.24 539.16-517.67 758.59-419.64 419.64-977.6 677.3-1577.1 723.46z" opacity=".25"/><path d="m-0.086964 1500.4c604.23-46.197 1166.8-305.68 1589.8-728.71 222.92-222.92 399.41-485.27 524.81-771.25h-12.572c-124.73 282.91-299.58 542.52-520.28 763.21-420.84 420.84-980.48 679.2-1581.8 725.38z" opacity=".25"/><path d="m-0.086964 1507c605.98-46.212 1170.2-306.39 1594.4-730.63 224.19-224.19 401.63-488.11 527.41-775.88h-7.2316c-125.4 285.98-301.88 548.33-524.81 771.25-423.03 423.03-985.58 682.51-1589.8 728.71z" opacity=".25"/><path d="m-0.086964 1518.3c608.92-46.228 1176-307.52 1602.5-733.96 226.43-226.42 405.51-493.08 531.95-783.92h-12.577c-125.78 287.77-303.22 551.69-527.41 775.88-424.24 424.24-988.45 684.41-1594.4 730.63z" opacity=".25"/><path d="m-0.086964 1524.9c610.67-46.243 1179.5-308.22 1607.1-735.88 227.7-227.69 407.74-495.92 534.56-788.54h-7.2333c-126.44 290.84-305.52 557.5-531.95 783.92-426.42 426.45-993.55 687.74-1602.5 733.96z" opacity=".25"/><path d="m-0.086964 1536.2c613.61-46.261 1185.3-309.37 1615.2-739.19 229.92-229.93 411.61-500.9 539.07-796.61h-12.575c-126.82 292.62-306.86 560.86-534.56 788.54-427.63 427.66-996.42 689.64-1607.1 735.88z" opacity=".25"/><path d="m-0.086964 1542.8c615.36-46.276 1188.7-310.08 1619.8-741.11 231.19-231.2 413.84-503.74 541.68-801.24h-7.2333c-127.46 295.7-309.15 566.68-539.07 796.61-429.84 429.82-1001.6 692.93-1615.2 739.19z" opacity=".25"/><path d="m-0.086964 1554.2c618.32-46.293 1194.6-311.22 1627.8-744.46 233.43-233.43 417.76-508.71 546.23-809.28h-12.59c-127.84 297.49-310.49 570.04-541.68 801.24-431.05 431.03-1004.4 694.83-1619.8 741.11z" opacity=".25"/><path d="m-0.086964 1560.7c620.07-46.308 1198-311.93 1632.4-746.38 234.7-234.7 419.99-511.55 548.84-813.9h-7.2367c-128.47 300.57-312.8 575.84-546.23 809.28-433.24 433.24-1009.5 698.17-1627.8 744.46z" opacity=".25"/><path d="m-0.086964 1572.1c623.01-46.325 1203.9-313.08 1640.5-749.7 236.93-236.93 423.9-516.51 553.36-821.94h-12.567c-128.84 302.36-314.14 579.2-548.84 813.9-434.45 434.45-1012.4 700.07-1632.4 746.38z" opacity=".25"/><path d="m-0.086964 1578.6c624.76-46.34 1207.3-313.78 1645.1-751.62 238.2-238.2 426.14-519.35 555.97-826.57h-7.235c-129.46 305.44-316.43 585.01-553.36 821.94-436.63 436.63-1017.5 703.38-1640.5 749.7z" opacity=".25"/><path d="m-0.086964 1590c627.7-46.355 1213.1-314.92 1653.2-754.96 240.44-240.43 430.06-524.3 560.51-834.61h-12.573c-129.83 307.22-317.77 588.37-555.97 826.57-437.84 437.84-1020.4 705.28-1645.1 751.62z" opacity=".25"/><path d="m-0.086964 1596.6c629.45-46.369 1216.6-315.62 1657.8-756.88 241.71-241.7 432.31-527.14 563.11-839.24h-7.2333c-130.44 310.3-320.07 594.18-560.51 834.61-440.03 440.05-1025.5 708.61-1653.2 754.96z" opacity=".25"/><path d="m-0.086964 1607.9c632.38-46.386 1222.4-316.77 1665.8-760.21 243.94-243.94 436.23-532.1 567.63-847.28h-12.562c-130.8 312.09-321.4 597.54-563.11 839.24-441.24 441.26-1028.3 710.51-1657.8 756.88z" opacity=".25"/><path d="m-0.086964 1614.5c634.13-46.4 1225.8-317.47 1670.4-762.12 245.19-245.19 438.28-534.97 570.04-851.9h-7.034c-131.4 315.17-323.7 603.34-567.63 847.28-443.44 443.44-1033.4 713.82-1665.8 760.21z" opacity=".25"/><path d="m-0.086964 1627.7c637.19-46.352 1231.6-320.33 1678.5-767.24 247.37-247.38 441.73-540.02 574.08-859.97h-12.1c-131.76 316.93-324.85 606.72-570.04 851.9-444.65 444.66-1036.3 715.72-1670.4 762.12z" opacity=".25"/><path d="m-0.086964 1634.2c638.94-46.365 1235-321.05 1683.1-769.17 248.61-248.62 443.7-542.89 576.39-864.6h-6.9445c-132.35 319.95-326.71 612.58-574.08 859.97-446.93 446.91-1041.3 720.89-1678.5 767.24z" opacity=".25"/><path d="m-0.086964 1645.6c641.88-46.378 1240.9-322.21 1691.2-772.53 250.81-250.81 447.16-547.92 580.44-872.64h-12.084c-132.7 321.7-327.78 615.97-576.39 864.6-448.14 448.12-1044.2 722.81-1683.1 769.17z" opacity=".25"/><path d="m-0.086964 1652.2c643.63-46.391 1244.3-322.93 1695.8-774.47 252.05-252.05 449.13-550.8 582.76-877.26h-6.9446c-133.28 324.72-329.63 621.83-580.44 872.64-450.33 450.33-1049.3 726.16-1691.2 772.53z" opacity=".25"/><path d="m-0.086964 1663.6c646.59-46.406 1250.1-324.1 1703.8-777.83 254.24-254.24 452.59-555.81 586.79-885.3h-12.074c-133.62 326.47-330.7 625.21-582.75 877.26-451.54 451.54-1052.2 728.08-1695.8 774.47z" opacity=".25"/><path d="m-0.086964 1670.1c648.34-46.419 1253.5-324.82 1708.5-779.76 255.48-255.48 454.57-558.69 589.11-889.92h-6.9445c-134.2 329.48-332.56 631.06-586.79 885.3-453.72 453.72-1057.3 731.42-1703.8 777.83z" opacity=".25"/><path d="m-0.086964 1681.5c651.28-46.431 1259.4-325.98 1716.5-783.12 257.68-257.66 458.05-563.71 593.15-897.96h-12.082c-134.54 331.23-333.63 634.45-589.11 889.92-454.94 454.94-1060.1 733.34-1708.5 779.76z" opacity=".25"/><path d="m-0.086964 1688.1c653.02-46.444 1262.8-326.7 1721.2-785.06 258.92-258.9 460.03-566.59 595.47-902.59h-6.9445c-135.11 334.25-335.48 640.3-593.15 897.96-457.12 457.14-1065.2 736.69-1716.5 783.12z" opacity=".25"/><path d="m-0.086964 1699.5c655.97-46.462 1268.7-327.89 1729.2-788.41 261.09-261.1 463.49-571.63 599.49-910.66h-12.087c-135.44 336.01-336.55 643.69-595.47 902.59-458.34 458.36-1068.1 738.61-1721.2 785.06z" opacity=".25"/><path d="m-0.086964 1706.1c657.72-46.475 1272.1-328.61 1733.8-790.34 262.33-262.34 465.48-574.5 601.81-915.28h-6.9445c-136 339.03-338.4 649.56-599.49 910.66-460.54 460.52-1073.2 741.95-1729.2 788.41z" opacity=".25"/><path d="m-0.086964 1717.5c660.66-46.487 1277.9-329.76 1741.9-793.7 264.53-264.53 468.97-579.52 605.85-923.32h-12.082c-136.33 340.78-339.48 652.94-601.81 915.28-461.76 461.74-1076.1 743.87-1733.8 790.34z" opacity=".25"/><path d="m-0.086964 1724c662.4-46.499 1281.3-330.48 1746.5-795.63 265.77-265.77 470.96-582.39 608.17-927.95h-6.9445c-136.88 343.81-341.32 658.8-605.85 923.32-463.94 463.94-1081.2 747.22-1741.9 793.7z" opacity=".25"/><path d="m-0.086964 1735.4c665.35-46.515 1287.2-331.66 1754.5-799 267.96-267.96 474.45-587.41 612.2-935.99h-12.07c-137.21 345.56-342.4 662.18-608.17 927.95-465.16 465.16-1084.1 749.14-1746.5 795.63z" opacity=".25"/><path d="m-0.086964 1742c667.09-46.527 1290.6-332.38 1759.2-800.93 269.32-269.32 477.82-590.09 615.89-940.62h-8.3176c-137.75 348.58-344.24 668.03-612.2 935.99-467.34 467.34-1089.2 752.48-1754.5 799z" opacity=".25"/><path d="m-0.086964 1753.4c670.05-46.537 1296.5-333.53 1767.2-804.29 271.53-271.52 481.45-595.09 620.06-948.66h-12.205c-138.07 350.52-346.57 671.29-615.89 940.62-468.55 468.55-1092.1 754.4-1759.2 800.93z" opacity=".25"/><path d="m-0.086964 1760c671.8-46.549 1299.9-334.24 1771.8-806.22 272.78-272.77 483.52-597.95 622.44-953.28h-7.0121c-138.6 353.56-348.52 677.14-620.06 948.66-470.74 470.76-1097.2 757.75-1767.2 804.29z" opacity=".25"/><path d="m-0.086964 1771.4c674.74-46.564 1305.7-335.42 1779.9-809.6 274.99-274.98 487.16-602.96 626.61-961.32h-12.21c-138.92 355.33-349.66 680.51-622.44 953.28-471.95 471.98-1100 759.67-1771.8 806.22z" opacity=".25"/><path d="m-0.086964 1777.9c676.48-46.576 1309.1-336.14 1784.5-811.54 276.24-276.22 489.23-605.82 629-965.95h-7.0138c-139.45 358.36-351.62 686.35-626.61 961.32-474.16 474.18-1105.1 763.04-1779.9 809.6z" opacity=".25"/><path d="m-0.086964 1789.3c679.43-46.59 1315-337.31 1792.6-814.87 278.42-278.44 492.84-610.84 633.13-974.02h-12.193c-139.76 360.13-352.76 689.73-629 965.95-475.37 475.4-1108 764.96-1784.5 811.54z" opacity=".25"/><path d="m-0.086964 1795.9c681.17-46.602 1318.4-338.03 1797.2-816.81 279.67-279.68 494.92-613.7 635.52-978.64h-7.0155c-140.28 363.18-354.7 695.58-633.13 974.02-477.58 477.56-1113.1 768.28-1792.6 814.87z" opacity=".25"/><path d="m-0.086964 1807.3c684.11-46.613 1324.2-339.19 1805.2-820.17 281.88-281.88 498.57-618.69 639.67-986.68h-12.193c-140.59 364.94-355.84 698.96-635.52 978.64-478.8 478.77-1116 770.2-1797.2 816.81z" opacity=".25"/><path d="m-0.086964 1813.9c685.86-46.625 1327.7-339.91 1809.8-822.1 283.13-283.13 500.66-621.55 642.06-991.3h-7.0154c-141.1 367.98-357.79 704.8-639.67 986.68-480.98 480.98-1121.1 773.55-1805.2 820.17z" opacity=".25"/><path d="m-0.086964 1825.3c688.8-46.642 1333.5-341.11 1817.9-825.48 285.33-285.33 504.3-626.55 646.22-999.35h-12.204c-141.41 369.75-358.93 708.18-642.06 991.3-482.19 482.19-1124 775.48-1809.8 822.1z" opacity=".25"/><path d="m-0.086964 1831.8c690.55-46.653 1336.9-341.82 1822.5-827.41 286.58-286.58 506.39-629.4 648.61-1004h-7.012c-141.92 372.8-360.9 714.02-646.22 999.35-484.38 484.38-1129.1 778.84-1817.9 825.48z" opacity=".25"/><path d="m-0.086964 1843.2c693.49-46.664 1342.8-342.98 1830.6-830.77 288.79-288.78 510.05-634.4 652.76-1012h-12.198c-142.22 374.57-362.03 717.4-648.61 1004-485.59 485.59-1132 780.76-1822.5 827.41z" opacity=".25"/><path d="m-0.086964 1849.8c695.23-46.675 1346.2-343.69 1835.2-832.7 290.04-290.03 512.14-637.26 655.15-1016.6h-7.0138c-142.72 377.61-363.98 723.24-652.76 1012-487.78 487.8-1137.1 784.11-1830.6 830.77z" opacity=".25"/><path d="m-0.086964 1861.2c698.19-46.688 1352-344.86 1843.2-836.04 292.23-292.24 515.78-642.27 659.28-1024.7h-12.195c-143.01 379.38-365.11 726.62-655.15 1016.6-488.99 489.01-1140 786.03-1835.2 832.7z" opacity=".25"/><path d="m-0.086964 1867.8c699.94-46.699 1355.5-345.58 1847.9-837.97 293.48-293.49 517.88-645.13 661.67-1029.3h-7.012c-143.5 382.43-367.06 732.46-659.28 1024.7-491.2 491.18-1145.1 789.35-1843.2 836.04z" opacity=".25"/><path d="m-0.086964 1879.2c702.88-46.71 1361.3-346.74 1855.9-841.33 295.69-295.69 521.55-650.12 665.83-1037.4h-12.195c-143.79 384.2-368.19 735.84-661.67 1029.3-492.41 492.39-1147.9 791.27-1847.9 837.97z" opacity=".25"/><path d="m-0.086964 1885.7c704.62-46.72 1364.7-347.45 1860.5-843.27 296.94-296.94 523.65-652.97 668.21-1042h-7.0121c-144.28 387.25-370.14 741.68-665.83 1037.4-494.6 494.6-1153 794.62-1855.9 841.33z" opacity=".25"/><path d="m-0.086964 1897.1c707.56-46.737 1370.6-348.65 1868.6-846.65 299.14-299.14 527.32-657.96 672.37-1050h-12.204c-144.57 389.02-371.28 745.06-668.21 1042-495.82 495.81-1155.9 796.54-1860.5 843.27z" opacity=".25"/><path d="m-0.086964 1903.7c709.31-46.748 1374-349.37 1873.2-848.58 300.39-300.39 529.42-660.82 674.76-1054.7h-7.0137c-145.05 392.07-373.24 750.9-672.37 1050-498 498-1161 799.91-1868.6 846.65z" opacity=".25"/><path d="m-0.086964 1915.1c712.25-46.758 1379.9-350.52 1881.2-851.94 302.6-302.59 533.1-665.81 678.91-1062.7h-12.194c-145.34 393.84-374.38 754.28-674.76 1054.7-499.21 499.21-1163.9 801.84-1873.2 848.58z" opacity=".25"/><path d="m-0.086964 1921.7c713.99-46.768 1383.3-351.24 1885.9-853.88 303.85-303.84 535.22-668.67 681.3-1067.3h-7.0155c-145.81 396.89-376.31 760.12-678.91 1062.7-501.4 501.42-1169 805.18-1881.2 851.94z" opacity=".25"/><path d="m-0.086964 1933.1c716.93-46.779 1389.1-352.39 1893.9-857.23 306.06-306.04 538.9-673.66 685.45-1075.4h-12.187c-146.09 398.66-377.45 763.49-681.3 1067.3-502.61 502.64-1171.9 807.11-1885.9 853.88z" opacity=".25"/><path d="m-0.086964 1939.6c718.68-46.789 1392.5-353.11 1898.5-859.17 307.31-307.3 541.01-676.52 687.84-1080h-7.0171c-146.55 401.71-379.4 769.32-685.45 1075.4-504.82 504.84-1177 810.45-1893.9 857.23z" opacity=".25"/><path d="m-0.086964 1951c721.63-46.801 1398.4-354.29 1906.6-862.51 309.5-309.51 544.68-681.52 691.97-1088.1h-12.193c-146.83 403.48-380.53 772.7-687.84 1080-506.04 506.06-1179.9 812.38-1898.5 859.17z" opacity=".25"/><path d="m-0.086964 1957.6c723.38-46.812 1401.8-355 1911.2-864.44 310.75-310.76 546.8-684.38 694.36-1092.7h-7.0104c-147.29 406.53-382.47 778.55-691.97 1088.1-508.24 508.22-1185 815.7-1906.6 862.51z" opacity=".25"/><path d="m-0.086964 1969c726.32-46.824 1407.6-356.18 1919.3-867.82 312.96-312.96 550.5-689.37 698.52-1100.7h-12.209c-147.56 408.31-383.61 781.92-694.36 1092.7-509.46 509.44-1187.9 817.62-1911.2 864.44z" opacity=".25"/><path d="m-0.086964 1975.6c728.06-46.834 1411-356.89 1923.9-869.75 314.21-314.2 552.54-692.23 700.82-1105.4h-6.9276c-148.02 411.36-385.56 787.76-698.52 1100.7-511.64 511.64-1193 820.99-1919.3 867.82z" opacity=".25"/><path d="m-0.086964 1987c731-46.847 1416.9-358.07 1932-873.11 316.39-316.39 556.02-697.25 704.76-1113.4h-11.979c-148.29 413.12-386.62 791.15-700.82 1105.4-512.86 512.86-1195.8 822.92-1923.9 869.75z" opacity=".25"/><path d="m-0.086964 1993.5c732.75-46.857 1420.3-358.78 1936.6-875.04 317.63-317.63 558.02-700.12 707.03-1118h-6.8905c-148.74 416.15-388.37 797.01-704.76 1113.4-515.04 515.04-1200.9 826.26-1932 873.11z" opacity=".25"/><path d="m-0.086964 2004.9c735.69-46.867 1426.2-359.94 1944.6-878.4 319.82-319.81 561.52-705.13 710.97-1126.1h-11.984c-149.01 417.9-389.4 800.39-707.03 1118-516.26 516.26-1203.8 828.18-1936.6 875.04z" opacity=".25"/><path d="m-0.086964 2011.5c737.43-46.876 1429.6-360.65 1949.2-880.34 321.06-321.05 563.52-708 713.24-1130.7h-6.8955c-149.45 420.93-391.15 806.25-710.97 1126.1-518.44 518.46-1208.9 831.54-1944.6 878.4z" opacity=".25"/><path d="m-0.086964 2022.9c740.37-46.889 1435.4-361.83 1957.3-883.67 323.23-323.25 567-713.03 717.15-1138.8h-11.974c-149.71 422.69-392.17 809.64-713.24 1130.7-519.66 519.68-1211.8 833.46-1949.2 880.34z" opacity=".25"/><path d="m-0.086964 2029.4c742.11-46.899 1438.8-362.54 1961.9-885.61 324.48-324.49 569.01-715.9 719.42-1143.4h-6.8922c-150.15 425.72-393.92 815.5-717.15 1138.8-521.86 521.84-1216.9 836.78-1957.3 883.67z" opacity=".25"/><path d="m-0.086964 2040.9c745.05-46.91 1444.7-363.72 1970-888.98 326.67-326.67 572.52-720.91 723.37-1151.4h-11.999c-150.41 427.48-394.94 818.89-719.42 1143.4-523.08 523.06-1219.8 838.71-1961.9 885.61z" opacity=".25"/><path d="m-0.086964 2047.4c746.8-46.921 1448.1-364.44 1974.6-890.92 327.91-327.91 574.54-723.78 725.64-1156h-6.8922c-150.85 430.5-396.7 824.74-723.37 1151.4-525.26 525.26-1224.9 842.07-1970 888.98z" opacity=".25"/><path d="m-0.086964 2058.8c749.75-46.931 1454-365.61 1982.6-894.28 330.1-330.1 578.04-728.79 729.58-1164.1h-11.979c-151.11 432.26-397.73 828.13-725.64 1156-526.48 526.48-1227.8 844-1974.6 890.92z" opacity=".25"/><path d="m-0.086964 2065.4c751.5-46.941 1457.4-366.32 1987.3-896.21 331.34-331.34 580.06-731.66 731.84-1168.7h-6.8922c-151.54 435.29-399.48 833.99-729.58 1164.1-528.67 528.67-1232.9 847.34-1982.6 894.28z" opacity=".25"/><path d="m-0.086964 2076.8c754.44-46.95 1463.2-367.48 1995.3-899.57 333.54-333.52 583.58-736.67 735.79-1176.8h-11.982c-151.79 437.05-400.51 837.37-731.84 1168.7-529.88 529.88-1235.8 849.27-1987.3 896.21z" opacity=".25"/><path d="m-0.086964 2083.3c756.18-46.959 1466.6-368.19 1999.9-901.5 334.78-334.76 585.59-739.54 738.05-1181.4h-6.8922c-152.21 440.08-402.26 843.23-735.79 1176.8-532.07 532.09-1240.9 852.62-1995.3 899.57z" opacity=".25"/><path d="m-0.086964 2094.8c759.12-46.971 1472.5-369.37 2008-904.86 336.96-336.97 589.1-744.58 741.99-1189.4h-11.996c-152.46 441.84-403.28 846.62-738.05 1181.4-533.29 533.31-1243.8 854.54-1999.9 901.5z" opacity=".25"/><path d="m-0.086964 2101.3c760.86-46.98 1475.9-370.08 2012.6-906.79 338.2-338.21 591.12-747.44 744.25-1194.1h-6.8905c-152.88 444.86-405.03 852.47-741.99 1189.4-535.51 535.49-1248.9 857.89-2008 904.86z" opacity=".25"/><path d="m-0.086964 2112.7c763.8-46.992 1481.7-371.26 2020.7-910.15 340.38-340.4 594.64-752.45 748.19-1202.1h-11.977c-153.13 446.62-406.05 855.85-744.25 1194.1-536.73 536.71-1251.8 859.81-2012.6 906.79z" opacity=".25"/><path d="m-0.086964 2119.3c765.54-47.002 1485.2-371.98 2025.3-912.09 341.62-341.64 596.66-755.32 750.45-1206.7h-6.8922c-153.54 449.65-407.8 861.71-748.19 1202.1-538.91 538.89-1256.9 863.16-2020.7 910.15z" opacity=".25"/><path d="m-0.086964 2130.7c768.48-47.01 1491-373.13 2033.3-915.44 343.82-343.82 600.2-760.33 754.39-1214.8h-11.981c-153.79 451.41-408.83 865.1-750.45 1206.7-540.13 540.11-1259.7 865.09-2025.3 912.09z" opacity=".25"/><path d="m-0.086964 2137.2c770.22-47.019 1494.4-373.84 2038-917.38 345.06-345.06 602.22-763.2 756.66-1219.4h-6.8922c-154.19 454.44-410.57 870.95-754.39 1214.8-542.32 542.32-1264.8 868.43-2033.3 915.44z" opacity=".25"/><path d="m-0.086964 2148.6c773.16-47.03 1500.3-375.02 2046-920.74 347.25-347.25 605.75-768.2 760.59-1227.4h-11.97c-154.43 456.2-411.59 874.34-756.66 1219.4-543.53 543.53-1267.7 870.36-2038 917.38z" opacity=".25"/><path d="m-0.086964 2155.2c774.9-47.039 1503.7-375.73 2050.6-922.67 348.49-348.49 607.78-771.07 762.86-1232.1h-6.8972c-154.84 459.23-413.34 880.19-760.59 1227.4-545.72 545.72-1272.8 873.71-2046 920.74z" opacity=".25"/><path d="m82.497 2160.4c746.94-64.695 1446.4-390.22 1976.1-919.89 350.69-350.68 611.34-776.08 766.82-1240.1h-11.996c-155.08 461-414.37 883.58-762.86 1232.1-546.94 546.94-1275.7 875.63-2050.6 922.67v5.2599z" opacity=".25"/><path d="m151.91 2160.4c722.56-78.378 1396.9-400.8 1911.4-915.26 351.93-351.92 613.37-778.94 769.08-1244.7h-6.8921c-155.48 464.03-416.13 889.43-766.82 1240.1-529.65 529.67-1229.2 855.2-1976.1 919.89z" opacity=".25"/><path d="m243.78 2160.4c690.65-94.952 1332.8-412.47 1827.5-907.2 354.1-354.12 616.89-783.97 773-1252.8h-11.979c-155.71 465.79-417.15 892.81-769.08 1244.7-514.45 514.47-1188.8 836.89-1911.4 915.26z" opacity=".25"/><path d="m292.76 2160.4c673.79-103.04 1298.9-418.31 1783.2-902.57 355.34-355.36 618.92-786.84 775.26-1257.4h-6.8888c-156.11 468.82-418.9 898.68-773 1252.8-494.75 494.72-1136.8 812.25-1827.5 907.2z" opacity=".25"/><path d="m358.79 2160.4c651.49-113.19 1254.7-423.96 1725.3-894.53 357.54-357.54 622.47-791.85 779.2-1265.5h-11.982c-156.34 470.58-419.91 902.06-775.26 1257.4-484.28 484.26-1109.4 799.54-1783.2 902.57z" opacity=".25"/><path d="m396.62 2160.4c638.71-118.62 1229.3-427.24 1692-889.9 358.79-358.79 624.51-794.71 781.46-1270.1h-6.8887c-156.73 473.62-421.66 907.92-779.2 1265.5-470.57 470.58-1073.8 781.34-1725.3 894.53z" opacity=".25"/><path d="m458.43 2160.4c618-126.82 1188.3-431.95 1638.2-881.87 360.98-360.97 628.07-799.72 785.4-1278.1h-11.981c-156.96 475.38-422.68 911.3-781.46 1270.1-462.66 462.66-1053.2 771.29-1692 889.9z" opacity=".25"/><path d="m488.16 2160.4c608.29-130.52 1169.3-433.32 1613.2-877.24 362.23-362.21 630.1-802.58 787.67-1282.8h-6.8922c-157.34 478.41-424.42 917.16-785.4 1278.1-449.9 449.92-1020.2 755.05-1638.2 881.87z" opacity=".25"/><path d="m539.67 2160.4c591.36-136.53 1136.1-435.71 1569.6-869.2 364.41-364.4 633.67-807.59 791.62-1290.8h-11.989c-157.56 480.17-425.44 920.55-787.67 1282.8-443.9 443.92-1004.9 746.72-1613.2 877.24z" opacity=".25"/><path d="m569.39 2160.4c581.69-139.74 1117.1-437.09 1544.6-864.57 365.65-365.64 635.7-810.46 793.88-1295.4h-6.8904c-157.95 483.21-427.21 926.4-791.62 1290.8-433.47 433.49-978.26 732.67-1569.6 869.2z" opacity=".25"/><path d="m618.37 2160.4c565.76-144.67 1085.9-438.87 1503.6-856.51 367.84-367.86 639.25-815.49 797.8-1303.5h-11.982c-158.18 484.97-428.23 929.78-793.88 1295.4-427.46 427.48-962.9 724.83-1544.6 864.57z" opacity=".25"/><path d="m642.85 2160.4c558.02-147 1071-439.06 1483.8-851.88 369.08-369.1 641.3-818.35 800.07-1308.1h-6.8922c-158.55 488-429.96 935.63-797.8 1303.5-417.65 417.64-937.82 711.84-1503.6 856.51z" opacity=".25"/><path d="m685.24 2160.4c544.57-150.74 1044.9-439.34 1449.5-843.84 371.27-371.28 644.86-823.36 804-1316.2h-11.972c-158.77 489.76-430.98 939.02-800.07 1308.1-412.84 412.83-925.79 704.89-1483.8 851.88z" opacity=".25"/><path d="m709.56 2160.4c536.86-152.74 1030-439.52 1429.7-839.22 372.51-372.53 646.9-826.22 806.26-1320.8h-6.8905c-159.14 492.8-432.73 944.87-804 1316.2-404.52 404.5-904.89 693.1-1449.5 843.84z" opacity=".25"/><path d="m752.12 2160.4c523.48-155.93 1003.9-439.8 1395.3-831.18 374.71-374.71 650.48-831.23 810.2-1328.8h-11.977c-159.36 494.56-433.75 948.26-806.26 1320.8-399.71 399.69-892.82 686.47-1429.7 839.22z" opacity=".25"/><path d="m776.1 2160.4c515.95-157.6 989.26-439.9 1375.9-826.55 375.96-375.95 652.53-834.09 812.47-1333.4h-6.8939c-159.72 497.59-435.49 954.11-810.2 1328.8-391.38 391.38-871.82 675.24-1395.3 831.18z" opacity=".25"/><path d="m812.24 2160.4c504.85-159.98 968.07-438.78 1347.8-818.51 378.14-378.14 656.11-839.1 816.42-1341.5h-11.989c-159.94 499.36-436.51 957.5-812.47 1333.4-386.65 386.65-859.95 668.94-1375.9 826.55z" opacity=".25"/><path d="m833.02 2160.4c498.51-161.24 955.91-438.14 1331.7-813.88 379.38-379.38 658.15-841.96 818.68-1346.1h-6.8888c-160.31 502.39-438.28 963.34-816.42 1341.5-379.73 379.73-842.94 658.52-1347.8 818.51z" opacity=".25"/><path d="m869.16 2160.4c487.48-163.23 934.74-437 1303.6-805.84 381.58-381.57 661.74-846.97 822.62-1354.2h-11.981c-160.53 504.15-439.3 966.73-818.68 1346.1-375.74 375.74-833.14 652.64-1331.7 813.88z" opacity=".25"/><path d="m889.93 2160.4c481.18-164.27 922.59-436.37 1287.4-801.22 382.83-382.81 663.79-849.83 824.88-1358.8h-6.8904c-160.88 507.19-441.03 972.58-822.62 1354.2-368.82 368.84-816.08 642.61-1303.6 805.84z" opacity=".25"/><path d="m926.07 2160.4c470.24-165.89 901.44-435.23 1259.4-793.15 385-385.01 667.35-854.86 828.79-1366.8h-11.976c-161.09 508.95-442.05 975.97-824.88 1358.8-364.83 364.85-806.24 636.94-1287.4 801.22z" opacity=".25"/><path d="m946.68 2160.4c464.03-166.72 889.4-434.56 1243.4-788.52 386.24-386.26 669.4-857.72 831.05-1371.5h-6.8871c-161.44 511.99-443.79 981.83-828.79 1366.8-357.93 357.92-789.13 627.26-1259.4 793.15z" opacity=".25"/><path d="m978.26 2160.4c454.72-167.9 871.79-432.41 1219.9-780.49 388.44-388.45 673-862.72 835-1379.5h-11.984c-161.65 513.75-444.81 985.22-831.05 1371.5-353.97 353.96-779.34 621.81-1243.4 788.52z" opacity=".25"/><path d="m996.33 2160.4c449.4-168.5 861.69-431.18 1206.4-775.86 389.69-389.69 675.06-865.59 837.26-1384.1h-6.8939c-162 516.79-446.56 991.06-835 1379.5-348.08 348.08-765.16 612.59-1219.9 780.49z" opacity=".25"/><path d="m1027.9 2160.4c440.14-169.41 844.08-429.03 1182.8-767.82 391.89-391.88 678.66-870.59 841.21-1392.2h-11.989c-162.21 518.55-447.57 994.45-837.26 1384.1-344.68 344.68-756.97 607.35-1206.4 775.86z" opacity=".25"/><path d="m1046 2160.4c434.85-169.87 833.96-427.81 1169.3-763.19 393.14-393.12 680.72-873.45 843.48-1396.8h-6.8921c-162.56 521.59-449.32 1000.3-841.22 1392.2-338.78 338.79-742.71 598.4-1182.8 767.82z" opacity=".25"/><path d="m1077.6 2160.4c425.67-170.51 816.39-425.66 1145.9-755.15 395.32-395.32 684.3-878.46 847.41-1404.8h-11.969c-162.76 523.35-450.35 1003.7-843.48 1396.8-335.37 335.39-734.49 593.32-1169.3 763.19z" opacity=".25"/><path d="m1095.6 2160.4c420.42-170.82 806.28-424.44 1132.4-750.53 396.56-396.56 686.37-881.33 849.68-1409.5h-6.8938c-163.1 526.38-452.09 1009.5-847.41 1404.8-329.49 329.49-720.21 584.64-1145.9 755.15z" opacity=".25"/><path d="m1126.7 2160.4c411.45-171.2 789.03-422.18 1109.3-742.46 398.75-398.77 689.95-886.35 853.58-1417.5h-11.976c-163.31 528.14-453.11 1012.9-849.68 1409.5-326.09 326.09-711.95 579.71-1132.4 750.53z" opacity=".25"/><path d="m1142.9 2160.4c406.9-171.38 780.49-420.51 1097.8-737.83 400-400.01 692.02-889.22 855.85-1422.2h-6.8921c-163.64 531.18-454.84 1018.8-853.58 1417.5-320.3 320.28-697.88 571.26-1109.3 742.46z" opacity=".25"/><path d="m1171 2160.4c399-171.58 765.63-417.6 1077.8-729.8 402.18-402.2 695.62-894.22 859.8-1430.2h-11.987c-163.84 532.95-455.86 1022.2-855.85 1422.2-317.34 317.33-690.93 566.46-1097.8 737.83z" opacity=".25"/><path d="m1215 2160.4c386.63-171.65 742.22-413.01 1046.3-717.13 405.63-405.63 701.3-902.08 866-1442.9h-11.977c-164.38 537.75-458.64 1031.4-862.06 1434.8-309.25 309.24-671.86 553.52-1066.3 725.17z" opacity=".25"/><path d="m1231.2 2160.4c382.15-171.6 733.69-411.34 1034.8-712.5 406.86-406.86 703.26-904.96 868.16-1447.5h-6.7857c-164.71 540.78-460.38 1037.2-866 1442.9-304.12 304.12-659.71 545.48-1046.3 717.13z" opacity=".25"/><path d="m1259.3 2160.4c374.36-171.41 718.83-408.43 1014.9-704.46 409.04-409.04 706.69-909.98 871.92-1455.5h-11.8c-164.9 542.54-461.3 1040.6-868.16 1447.5-301.16 301.16-652.7 540.9-1034.8 712.5z" opacity=".25"/><path d="m1275.3 2160.4c369.91-171.25 710.3-406.77 1003.4-699.84 410.28-410.28 708.66-912.86 874.09-1460.2h-6.7908c-165.23 545.55-462.88 1046.5-871.92 1455.5-296.03 296.03-640.5 533.05-1014.9 704.46z" opacity=".25"/><path d="m1303.4 2160.4c362.18-170.87 695.44-403.85 983.37-691.79 412.46-412.45 712.09-917.88 877.85-1468.2h-11.8c-165.43 547.31-463.81 1049.9-874.09 1460.2-293.07 293.07-633.46 528.58-1003.4 699.84z" opacity=".25"/><path d="m1318.4 2160.4c358.11-170.65 687.77-401.94 972.99-687.17 413.7-413.69 714.06-920.76 880.01-1472.8h-6.7909c-165.75 550.32-465.38 1055.8-877.85 1468.2-287.93 287.95-621.19 520.92-983.37 691.79z" opacity=".25"/><path d="m1343.7 2160.4c351.31-170.21 675.07-398.43 955.76-679.11 415.86-415.88 717.48-925.8 883.76-1480.9h-11.812c-165.94 552.07-466.31 1059.1-880.01 1472.8-285.22 285.23-614.87 516.52-972.99 687.17z" opacity=".25"/><path d="m1358.2 2160.4c347.42-169.92 667.76-396.42 945.83-674.48 417.1-417.11 719.46-928.68 885.92-1485.5h-6.7926c-166.28 555.09-467.9 1065-883.76 1480.9-280.69 280.68-604.45 508.9-955.76 679.11z" opacity=".25"/><path d="m1383.6 2160.4c340.66-169.33 655.06-392.91 928.59-666.44 419.29-419.29 722.9-933.7 889.68-1493.6h-11.8c-166.47 556.84-468.82 1068.4-885.92 1485.5-278.07 278.06-598.42 504.56-945.83 674.48z" opacity=".25"/><path d="m1398.1 2160.4c336.8-168.95 647.75-390.9 918.66-661.81 420.52-420.52 724.88-936.57 891.85-1498.2h-6.7891c-166.78 559.86-470.4 1074.3-889.68 1493.6-273.53 273.53-587.92 497.11-928.59 666.44z" opacity=".25"/><path d="m1423.4 2160.4c330.09-168.22 635.04-387.39 901.41-653.77 422.72-422.7 728.33-941.6 895.61-1506.2h-11.805c-166.97 561.61-471.32 1077.7-891.85 1498.2-270.91 270.91-581.87 492.86-918.66 661.81z" opacity=".25"/><path d="m1438 2160.4c326.26-167.76 627.74-385.38 891.49-649.15 423.95-423.94 730.3-944.47 897.77-1510.8h-6.7875c-167.28 564.63-472.9 1083.5-895.61 1506.2-266.37 266.38-571.31 485.55-901.41 653.77z" opacity=".25"/><path d="m1463.1 2160.4c319.6-166.89 615.03-381.88 874.26-641.1 426.13-426.13 733.74-949.5 901.53-1518.9h-11.798c-167.47 566.38-473.82 1086.9-897.77 1510.8-263.75 263.76-565.23 481.38-891.49 649.15z" opacity=".25"/><path d="m1477.6 2160.4c315.8-166.35 607.73-379.87 864.34-636.48 427.36-427.36 735.72-952.37 903.69-1523.5h-6.7875c-167.78 569.39-475.4 1092.8-901.53 1518.9-259.22 259.22-554.65 474.21-874.26 641.1z" opacity=".25"/><path d="m1503 2160.4c309.23-165.35 595.1-376.34 847.19-628.42 429.54-429.56 739.17-957.42 907.45-1531.6h-11.818c-167.97 571.15-476.33 1096.2-903.69 1523.5-256.6 256.6-548.54 470.13-864.34 636.48z" opacity=".25"/><path d="m1516.2 2160.4c305.83-164.81 588.8-374.06 838.54-623.79 430.78-430.79 741.15-960.29 909.61-1536.2h-6.7892c-168.28 574.16-477.91 1102-907.45 1531.6-252.09 252.08-537.96 463.07-847.19 628.42z" opacity=".25"/><path d="m1539.3 2160.4c299.95-163.82 577.84-370.09 823.51-615.75 432.95-432.97 744.6-965.31 913.37-1544.2h-11.796c-168.46 575.92-478.83 1105.4-909.61 1536.2-249.74 249.73-532.71 458.97-838.54 623.79z" opacity=".25"/><path d="m1552.6 2160.4c296.58-163.22 571.54-367.81 814.86-611.12 434.19-434.2 746.58-968.18 915.53-1548.9h-6.7909c-168.77 578.93-480.42 1111.3-913.37 1544.2-245.67 245.66-523.57 451.93-823.51 615.75z" opacity=".25"/><path d="m1575.6 2160.4c290.74-162.12 560.57-363.84 799.82-603.08 436.38-436.38 750.04-973.21 919.29-1556.9h-11.8c-168.95 580.69-481.34 1114.7-915.53 1548.9-243.32 243.31-518.28 447.9-814.86 611.12z" opacity=".25"/><path d="m1588.9 2160.4c287.39-161.46 554.27-361.56 791.17-598.45 437.62-437.62 752.02-976.08 921.45-1561.5h-6.7909c-169.25 583.7-482.91 1120.5-919.29 1556.9-239.25 239.25-509.08 440.96-799.82 603.08z" opacity=".25"/><path d="m1611.9 2160.4c281.59-160.25 543.3-357.59 776.13-590.41 439.79-439.79 755.47-981.11 925.21-1569.6h-11.793c-169.43 585.46-483.84 1123.9-921.45 1561.5-236.9 236.9-503.77 437-791.17 598.45z" opacity=".25"/><path d="m1625.2 2160.4c278.28-159.53 537-355.31 767.48-585.79 441.03-441.03 757.46-983.98 927.37-1574.2h-6.7908c-169.73 588.48-485.41 1129.8-925.21 1569.6-232.83 232.83-494.54 430.16-776.13 590.41z" opacity=".25"/><path d="m1648.4 2160.4c272.51-158.21 526.02-351.34 752.42-577.75 443.22-443.21 760.94-989 931.15-1582.2h-11.82c-169.91 590.23-486.34 1133.2-927.37 1574.2-230.48 230.48-489.21 426.26-767.48 585.79z" opacity=".25"/><path d="m1661.7 2160.4c269.22-157.43 519.71-349.06 743.76-573.12 444.46-444.45 762.93-991.87 933.32-1586.9h-6.7891c-170.21 593.25-487.93 1139-931.15 1582.2-226.4 226.41-479.91 419.54-752.42 577.75z" opacity=".25"/><path d="m1684.7 2160.4c263.5-156 508.74-345.08 728.71-565.06 446.64-446.64 766.38-996.92 937.06-1594.9h-11.805c-170.38 595-488.86 1142.4-933.32 1586.9-224.05 224.06-474.54 415.69-743.76 573.12z" opacity=".25"/><path d="m1698 2160.4c260.24-155.16 502.44-342.8 720.07-560.43 447.87-447.87 768.37-999.79 939.22-1599.6h-6.7841c-170.67 598.02-490.42 1148.3-937.06 1594.9-219.98 219.98-465.21 409.06-728.71 565.06z" opacity=".25"/><path d="m1720 2160.4c254.92-153.74 492.42-338.59 706.23-552.39 450.05-450.05 771.83-1004.8 942.97-1607.6h-11.796c-170.85 599.78-491.34 1151.7-939.22 1599.6-217.63 217.63-459.83 405.27-720.07 560.43z" opacity=".25"/><path d="m1732.2 2160.4c251.97-152.94 486.94-336.09 698.61-547.76 451.29-451.29 773.82-1007.7 945.13-1612.2h-6.7874c-171.14 602.79-492.92 1157.6-942.97 1607.6-213.8 213.8-451.31 398.65-706.23 552.39z" opacity=".25"/><path d="m1753.4 2160.4c246.86-151.49 477.4-331.74 685.38-539.72 453.48-453.46 777.3-1012.7 948.89-1620.3h-11.803c-171.31 604.55-493.84 1160.9-945.13 1612.2-211.67 211.67-446.64 394.83-698.61 547.76z" opacity=".25"/><path d="m1765.6 2160.4c243.93-150.64 471.92-329.25 677.76-535.1 454.72-454.7 779.29-1015.6 951.05-1624.9h-6.7875c-171.6 607.56-495.41 1166.8-948.89 1620.3-207.97 207.98-438.52 388.23-685.38 539.72z" opacity=".25"/><path d="m1786.9 2160.4c238.86-149.11 462.39-324.91 664.55-527.06 456.89-456.89 782.77-1020.6 954.83-1632.9h-11.81c-171.76 609.32-496.34 1170.2-951.05 1624.9-205.84 205.85-433.83 384.46-677.76 535.1z" opacity=".25"/><path d="m1799.2 2160.4c235.96-148.21 456.91-322.41 656.93-522.43 458.13-458.13 784.76-1023.5 956.99-1637.6h-6.7909c-172.06 612.32-497.93 1176-954.83 1632.9-202.15 202.15-425.68 377.95-664.55 527.06z" opacity=".25"/><path d="m1820.5 2160.4c230.92-146.59 447.37-318.05 643.7-514.37 460.31-460.32 788.22-1028.5 960.72-1645.6h-11.798c-172.23 614.08-498.86 1179.4-956.99 1637.6-200.02 200.02-420.97 374.22-656.93 522.43z" opacity=".25"/><path d="m1832.6 2160.4c228.04-145.64 441.89-315.56 636.08-509.74 461.54-461.56 790.22-1031.4 962.89-1650.2h-6.7892c-172.5 617.1-500.42 1185.3-960.72 1645.6-196.32 196.32-412.77 367.78-643.7 514.37z" opacity=".25"/><path d="m1853.9 2160.4c223.05-143.95 432.36-311.21 622.85-501.7 463.72-463.74 793.69-1036.4 966.64-1658.3h-11.797c-172.67 618.85-501.34 1188.7-962.89 1650.2-194.19 194.19-408.04 364.1-636.08 509.74z" opacity=".25"/><path d="m1866.2 2160.4c220.19-142.96 426.88-308.72 615.24-497.08 464.96-464.98 795.69-1039.3 968.81-1662.9h-6.7925c-172.95 621.87-502.92 1194.6-966.64 1658.3-190.49 190.49-399.8 357.75-622.85 501.7z" opacity=".25"/><path d="m1887.5 2160.4c215.23-141.18 417.33-304.38 601.99-489.03 467.15-467.16 799.19-1044.3 972.58-1671h-11.817c-173.12 623.63-503.84 1197.9-968.81 1662.9-188.36 188.36-395.05 354.12-615.24 497.07z" opacity=".25"/><path d="m1899.7 2160.4c212.4-140.14 411.85-301.88 594.38-484.41 468.39-468.39 801.19-1047.2 974.75-1675.6h-6.7875c-173.39 626.64-505.43 1203.8-972.58 1671-184.66 184.66-386.76 347.85-601.99 489.03z" opacity=".25"/><path d="m1921 2160.4c207.49-138.3 402.32-297.54 581.15-476.37 470.57-470.57 804.67-1052.2 978.5-1683.6h-11.795c-173.56 628.4-506.35 1207.2-974.75 1675.6-182.53 182.53-381.98 344.26-594.38 484.41z" opacity=".25"/><path d="m1932.4 2160.4c204.87-137.3 397.43-294.89 574.28-471.74 471.81-471.81 806.67-1055.1 980.66-1688.3h-6.7875c-173.83 631.42-507.93 1213-978.5 1683.6-178.83 178.83-373.67 338.07-581.15 476.37z" opacity=".25"/><path d="m1952.2 2160.4c200.39-135.54 389.09-290.24 562.55-463.7 474-473.98 810.16-1060.1 984.42-1696.3h-11.802c-173.99 633.17-508.85 1216.4-980.66 1688.3-176.85 176.85-369.41 334.44-574.28 471.74z" opacity=".25"/><path d="m1963.7 2160.4c197.83-134.52 384.3-287.57 555.81-459.08 475.24-475.22 812.16-1063 986.58-1700.9h-6.7857c-174.26 636.19-510.42 1222.3-984.42 1696.3-173.45 173.46-362.16 328.16-562.55 463.7z" opacity=".25"/><path d="m1983.5 2160.4c193.38-132.7 375.96-282.9 544.06-451.01 477.42-477.42 815.64-1068 990.32-1709h-11.803c-174.42 637.94-511.34 1225.7-986.58 1700.9-171.5 171.51-357.98 324.56-555.81 459.08z" opacity=".25"/><path d="m1994.8 2160.4c190.83-131.64 371.17-280.23 537.32-446.38 478.65-478.65 817.64-1070.9 992.48-1713.6h-6.7892c-174.68 640.96-512.91 1231.6-990.32 1709-168.11 168.11-350.69 318.31-544.06 451.01z" opacity=".25"/><path d="m2014.5 2160.4c186.43-129.76 362.84-275.58 525.59-438.34 480.83-480.83 821.14-1075.9 996.25-1721.6h-11.81c-174.84 642.72-513.83 1235-992.48 1713.6-166.15 166.15-346.49 314.75-537.32 446.38z" opacity=".25"/><path d="m2026 2160.4c183.9-128.66 358.04-272.91 518.85-433.72 482.07-482.07 823.14-1078.8 998.42-1726.3h-6.7892c-175.11 645.73-515.42 1240.8-996.25 1721.6-162.76 162.76-339.17 308.59-525.59 438.34z" opacity=".25"/><path d="m2045.8 2160.4c179.52-126.72 349.7-268.26 507.11-425.68 484.27-484.25 826.65-1083.8 1002.2-1734.3h-11.798c-175.27 647.49-516.34 1244.2-998.42 1726.3-160.81 160.8-334.95 305.06-518.85 433.72z" opacity=".25"/><path d="m2057.1 2160.4c177.02-125.58 344.91-265.59 500.36-421.05 485.5-485.49 828.65-1086.7 1004.3-1739h-6.7942c-175.53 650.51-517.91 1250.1-1002.2 1734.3-157.41 157.42-327.59 298.96-507.11 425.68z" opacity=".25"/><path d="m2076.8 2160.4c172.68-123.58 336.58-260.94 488.65-413.01 487.68-487.68 832.14-1091.7 1008.1-1747h-11.788c-175.69 652.26-518.84 1253.5-1004.3 1739-155.46 155.46-323.35 295.46-500.36 421.05z" opacity=".25"/><path d="m2088.2 2160.4c170.19-122.41 331.79-258.27 481.9-408.38 488.92-488.92 834.16-1094.6 1010.3-1751.6h-6.7909c-175.95 655.27-520.41 1259.3-1008.1 1747-152.07 152.07-315.98 289.43-488.65 413.01z" opacity=".25"/><path d="m2108.1 2160.4c165.88-120.34 323.45-253.61 470.16-400.32 491.1-491.12 837.64-1099.6 1014-1759.7h-11.802c-176.1 657.02-521.34 1262.7-1010.3 1751.6-150.11 150.11-311.71 285.97-481.9 408.38z" opacity=".25"/><path d="m2119.4 2160.4c163.41-119.14 318.65-250.94 463.41-395.7 492.34-492.35 839.65-1102.5 1016.2-1764.3h-6.7874c-176.36 660.04-522.89 1268.6-1014 1759.7-146.72 146.71-304.28 279.98-470.16 400.32z" opacity=".25"/><path d="m2139.2 2160.4c159.14-117.02 310.32-246.29 451.68-387.65 494.52-494.53 843.16-1107.5 1019.9-1772.3h-11.812c-176.51 661.8-523.82 1272-1016.2 1764.3-144.76 144.76-300 276.55-463.41 395.7z" opacity=".25"/><path d="m2150.6 2160.4c156.69-115.78 305.53-243.62 444.94-383.03 495.75-495.77 845.16-1110.4 1022.1-1777h-6.7874c-176.77 664.82-525.41 1277.8-1019.9 1772.3-141.37 141.36-292.55 270.63-451.68 387.65z" opacity=".25"/><path d="m2169.4 2160.4c152.7-113.74 297.99-238.78 434.2-374.99 497.95-497.95 848.68-1115.4 1025.8-1785h-11.798c-176.92 666.57-526.33 1281.2-1022.1 1777-139.41 139.41-288.25 267.24-444.94 383.03z" opacity=".25"/><path d="m2180 2160.4c150.44-112.56 293.78-235.95 428.18-370.36 499.19-499.19 850.69-1118.3 1028-1789.6h-6.7875c-177.17 669.58-527.9 1287.1-1025.8 1785-136.22 136.22-281.5 261.25-434.2 374.99z" opacity=".25"/><path d="m2198.4 2160.4c146.55-110.5 286.45-231.05 417.72-362.32 501.38-501.37 854.2-1123.3 1031.8-1797.7h-11.803c-177.32 671.34-528.82 1290.4-1028 1789.6-134.41 134.41-277.74 257.8-428.18 370.36z" opacity=".25"/><path d="m2209.1 2160.4c144.32-109.3 282.25-228.24 411.7-357.7 502.62-502.61 856.22-1126.2 1033.9-1802.3h-6.7908c-177.57 674.36-530.39 1296.3-1031.8 1797.7-131.26 131.27-271.17 251.82-417.72 362.32z" opacity=".25"/><path d="m2227.7 2160.4c140.45-107.19 274.93-223.33 401.25-349.65 504.8-504.78 859.72-1131.2 1037.7-1810.3h-11.79c-177.72 676.12-531.31 1299.7-1033.9 1802.3-129.46 129.46-267.39 248.39-411.7 357.7z" opacity=".25"/><path d="m2238.3 2160.4c138.23-105.97 270.72-220.52 395.23-345.03 506.04-506.02 861.74-1134.1 1039.8-1815h-6.7925c-177.96 679.13-532.88 1305.6-1037.7 1810.3-126.32 126.32-260.8 242.46-401.25 349.65z" opacity=".25"/><path d="m2256.9 2160.4c134.39-103.8 263.39-215.6 384.76-336.96 508.22-508.22 865.24-1139.1 1043.6-1823h-11.812c-178.11 680.89-533.81 1308.9-1039.8 1815-124.51 124.51-257 239.06-395.23 345.03z" opacity=".25"/><path d="m2267.5 2160.4h18.489c128.38-100.34 251.87-207.88 368.29-324.3 511.64-511.64 870.77-1147 1049.5-1835.7h-11.793c-178.5 685.66-536.3 1318.2-1045.8 1827.7-119.55 119.55-246.55 229.79-378.74 332.34z" opacity=".25"/><path d="m2267.5 2160.4c132.19-102.55 259.19-212.78 378.74-332.34 509.46-509.46 867.26-1142 1045.8-1827.7h-6.7908c-178.36 683.91-535.38 1314.8-1043.6 1823-121.36 121.36-250.37 233.16-384.76 336.96z" opacity=".25"/><path d="m3710.5 0.45025h-6.7891c-178.75 688.68-537.88 1324.1-1049.5 1835.7-116.41 116.41-239.91 223.96-368.29 324.3h10.652c126.2-99.06 247.66-205.06 362.27-319.67 512.88-512.88 872.79-1149.9 1051.7-1840.3z" opacity=".25"/><path d="m3710.5 0.45025c-178.89 690.43-538.8 1327.4-1051.7 1840.3-114.6 114.6-236.07 220.61-362.27 319.67h1543.4v-2160z" opacity=".25"/></g></svg>
