<?xml version="1.0" encoding="UTF-8"?>
<svg version="1.1" viewBox="0 0 512 512" xml:space="preserve" xmlns="http://www.w3.org/2000/svg" xmlns:cc="http://creativecommons.org/ns#" xmlns:dc="http://purl.org/dc/elements/1.1/" xmlns:rdf="http://www.w3.org/1999/02/22-rdf-syntax-ns#"><defs><style id="c" type="text/css">
   .ColorScheme-Text { color:#ffffff; } .ColorScheme-Highlight { color:#4285f4; } .ColorScheme-NeutralText { color:#ff9800; } .ColorScheme-PositiveText { color:#4caf50; } .ColorScheme-NegativeText { color:#f44336; }
  </style><style type="text/css">
   .ColorScheme-Text { color:#ffffff; } .ColorScheme-Highlight { color:#4285f4; } .ColorScheme-NeutralText { color:#ff9800; } .ColorScheme-PositiveText { color:#4caf50; } .ColorScheme-NegativeText { color:#f44336; }
  </style><style type="text/css">.ColorScheme-Text { color:#ffffff; } .ColorScheme-Highlight { color:#4285f4; } .ColorScheme-NeutralText { color:#ff9800; } .ColorScheme-PositiveText { color:#4caf50; } .ColorScheme-NegativeText { color:#f44336; }</style></defs><metadata><rdf:RDF><cc:Work rdf:about=""><dc:format>image/svg+xml</dc:format><dc:type rdf:resource="http://purl.org/dc/dcmitype/StillImage"/></cc:Work></rdf:RDF></metadata><g transform="translate(0 -540.362)"><path d="m101.806 553.252 290.123 0.21824 4.8742 2.18248 2.40071 4.65595v244.073l27.4264 28.0812 0.21825 126.438-6.91116 4.72868-318.277 2.32798z" style="fill:#ffb800"/><path d="m101.806 553.263 110.702 90.7426 0.41153 253.091-8.64215 13.169 0.2058 127.78-6.99604 3.9095-95.8514-76.106z" style="fill:#faec6d"/><path d="m112.427 959.992 0.582-380.623" style="fill:none;stroke-linecap:round;stroke-width:2.30457px;stroke:#ffb800"/><path d="m120.137 965.531 0.582-380.623" style="fill:none;stroke-linecap:round;stroke-width:2.30457px;stroke:#ffb800"/></g><g transform="matrix(12.4943 0 0 12.4943 215 218.517)" style="fill-opacity:.976471;fill:#2c5aa0"><path d="m18.8688 11.1251c-0.02868 0-0.05736 8e-3 -0.08604 0.0092 8e-3 -0.0849 0.02524-0.167492 0.02524-0.25468a3.05616 3.05616 0 0 0-3.0573-3.05618 3.02862 3.02862 0 0 0-1.79423 0.591958 3.694 3.694 0 0 0-3.25577-1.96402 3.7135 3.7135 0 0 0-3.7135 3.7135c0 0.02639 0.00688 0.04933 0.00803 0.07571a2.7074 2.7074 0 0 0-0.411843-0.0413 2.76935 2.76935 0 0 0-2.71429 3.32919 2.9965 2.9965 0 0 0 2.94373 2.44125h12.282v-0.0218a2.41601 2.41601 0 0 0-0.226-4.82285z" style="fill-opacity:.976471;fill:#2c5aa0;stroke-width:1.1472;stroke:#fff"/><path d="m6.429 9.847a4.47 4.47 0 0 1 7.573-2.012 4.186 4.186 0 0 1 1.136-0.21v-0.13c0-2.482-1.845-4.495-4.12-4.495-1.626 0-3.02 1.038-3.69 2.531a3.01 3.01 0 0 0-1.694-0.535c-1.785 0-3.231 1.577-3.231 3.523 0 0.21 0.024 0.414 0.057 0.613-1.377 0.136-2.455 1.544-2.455 3.08 0 0.016 4e-3 0.029 4e-3 0.045-1e-3 0.014-9e-3 0.028-9e-3 0.042 0 0.615 0.214 1.177 0.561 1.631a2.638 2.638 0 0 0 2.14 1.07h1.261a3.574 3.574 0 0 1-0.398-1.615 3.62 3.62 0 0 1 2.865-3.538z" style="fill-opacity:.976471;fill:#045;stroke:#fff"/></g></svg>
