<?xml version="1.0" encoding="UTF-8"?>
<svg width="512" height="512" version="1.1" xml:space="preserve" xmlns="http://www.w3.org/2000/svg"><defs><filter id="filter30" x="-.0029996" y="-.0030004" width="1.006" height="1.006" style="color-interpolation-filters:sRGB"><feGaussianBlur stdDeviation="0.008362504"/></filter></defs><g transform="translate(0 -540.36)"><path d="m101.81 553.25 290.12 0.21824 4.8742 2.1825 2.4007 4.656v244.07l27.426 28.081 0.21825 126.44-6.9112 4.7287-318.28 2.328z" style="fill:#ffb800"/><path d="m101.81 553.26 110.7 90.743 0.41153 253.09-8.6422 13.169 0.2058 127.78-6.996 3.9095-95.851-76.106z" style="fill:#faec6d"/><path d="m112.43 959.99 0.582-380.62" style="fill:none;stroke-linecap:round;stroke-width:2.3046px;stroke:#ffb800"/><path d="m120.14 965.53 0.582-380.62" style="fill:none;stroke-linecap:round;stroke-width:2.3046px;stroke:#ffb800"/><rect transform="matrix(.70844 -.70577 .70598 .70823 0 0)" x="-462.55" y="790.44" width="180.38" height="180.38" rx="15.764" style="fill:#fff"/><g transform="matrix(36.259 0 0 36.259 -878.18 674.61)" style="fill:#00aad4"><g fill="#5e4aa6" stroke-width=".26458" style="fill:#00aad4"><circle cx="-330.35" cy="-328.38" r="0" style="fill:#00aad4"/><circle cx="-312.11" cy="-326.25" r="0" style="fill:#00aad4"/><circle cx="-306.02" cy="-333.07" r="0" style="fill:#00aad4"/><circle cx="-308.84" cy="-326.01" r="0" style="fill:#00aad4"/></g><g transform="translate(2.95e-4,-3.2978e-4)" fill="#5e4aa6" stroke-width=".26458" style="fill:#00aad4"><circle cx="-330.35" cy="-328.38" r="0" style="fill:#00aad4"/><circle cx="-312.11" cy="-326.25" r="0" style="fill:#00aad4"/><circle cx="-306.02" cy="-333.07" r="0" style="fill:#00aad4"/><circle cx="-308.84" cy="-326.01" r="0" style="fill:#00aad4"/><circle cx="-328.8" cy="-330.45" r="0" style="fill:#00aad4"/></g><path d="m33.979 9.1754c-0.0317-0.0092-0.08357-0.03338-0.11525-0.05383-0.08394-0.05421-3.0255-3.0031-3.0633-3.0709-0.06519-0.11697-0.0724-0.26398-0.01923-0.3917 0.02301-0.05527 0.15394-0.19119 1.0404-1.08 0.55774-0.55924 1.0244-1.0225 1.037-1.0294 0.01998-0.011014 0.07033 0.034778 0.39335 0.3578l0.37044 0.37043-0.01593 0.084425c-0.03799 0.20133 0.01016 0.36578 0.14294 0.48826 0.03935 0.036296 0.09006 0.077024 0.11269 0.090508l0.04115 0.024513v1.8431l-0.05956 0.03897c-0.0924 0.06045-0.15952 0.13334-0.20348 0.22089-0.03859 0.07687-0.04024 0.0859-0.04024 0.21967 0 0.13204 0.0021 0.14394 0.03916 0.22218 0.15289 0.3228 0.5759 0.39553 0.82904 0.14252 0.22395-0.22383 0.19505-0.59137-0.06117-0.77795l-0.0731-0.05322v-0.89497c0-0.70814 0.0032-0.89487 0.01515-0.89451 0.0083 2.524e-4 0.16203 0.14375 0.34154 0.31887l0.32637 0.31841-0.01563 0.08288c-0.04703 0.24923 0.06473 0.47587 0.28939 0.58691 0.08812 0.04355 0.09566 0.04508 0.21927 0.04474 0.12025-3.44e-4 0.13313-0.0028 0.21259-0.04133 0.33376-0.16166 0.4-0.58172 0.13268-0.84142-0.06375-0.06193-0.17444-0.11421-0.27905-0.13179-0.07262-0.01217-0.09819-0.01141-0.16377 0.0049l-0.07772 0.01932-0.73769-0.73533 0.01458-0.090357c0.03611-0.22386-0.07753-0.44254-0.28233-0.54336-0.07042-0.034665-0.09948-0.041772-0.18815-0.046016-0.05768-0.00275-0.12649 9.776e-4 -0.15293 0.00825l-0.04806 0.013277-0.36805-0.36676c-0.20242-0.20172-0.37372-0.37706-0.38066-0.38965-0.01098-0.019933 0.02949-0.064922 0.31321-0.34807 0.26887-0.26834 0.33767-0.3306 0.39359-0.35618 0.12776-0.058455 0.27851-0.053085 0.39929 0.014217 0.07358 0.041011 3.0062 2.9676 3.0687 3.0623 0.08226 0.12482 0.09344 0.28266 0.02992 0.42247-0.02658 0.05852-0.21803 0.25449-1.5372 1.5736-1.6755 1.6755-1.5541 1.5653-1.7344 1.5751-0.05286 3e-3 -0.11078-0.0018-0.14547-0.01179z" style="fill:#00aad4;filter:url(#filter30)"/></g></g></svg>
