<?xml version="1.0" encoding="UTF-8"?>
<svg version="1.1" viewBox="0 0 240 240" xmlns="http://www.w3.org/2000/svg">
 <g transform="matrix(25.1968 0 0 25.1968 13.3594 -7256.82)" style="opacity:.5;stroke-width:.0396875">
  <path transform="matrix(.264583 0 0 .264583 0 288.533)" d="m10.4629 16.0703c-5.53841 2.20746-9.4668 7.61253-9.4668 13.9297a1.0001 1.0001 0 0 0 1.00391 1.00391h28a1.0001 1.0001 0 0 0 0.996094-1.00391c5e-6 -6.31651-3.92733-11.7218-9.46484-13.9297-1.53131 1.2008-3.45244 1.92578-5.53516 1.92578-2.08313 0-4.00326-0.724556-5.5332-1.92578z" style="color-rendering:auto;color:#000000;dominant-baseline:auto;font-feature-settings:normal;font-variant-alternates:normal;font-variant-caps:normal;font-variant-ligatures:normal;font-variant-numeric:normal;font-variant-position:normal;image-rendering:auto;isolation:auto;mix-blend-mode:normal;opacity:1;paint-order:stroke fill markers;shape-padding:0;shape-rendering:auto;solid-color:#000000;text-decoration-color:#000000;text-decoration-line:none;text-decoration-style:solid;text-indent:0;text-orientation:mixed;text-transform:none;white-space:normal"/>
  <path transform="matrix(.264583 0 0 .264583 0 288.533)" d="m15.9961 1.00391c-4.40643 0-7.99414 3.58774-7.99414 7.99414 4.2e-6 4.40644 3.58771 8.00195 7.99414 8.00195s8.00195-3.59552 8.00195-8.00195c-4e-6 -4.4064-3.59552-7.99414-8.00195-7.99414z" style="color-rendering:auto;color:#000000;dominant-baseline:auto;font-feature-settings:normal;font-variant-alternates:normal;font-variant-caps:normal;font-variant-ligatures:normal;font-variant-numeric:normal;font-variant-position:normal;image-rendering:auto;isolation:auto;mix-blend-mode:normal;opacity:1;paint-order:stroke fill markers;shape-padding:0;shape-rendering:auto;solid-color:#000000;text-decoration-color:#000000;text-decoration-line:none;text-decoration-style:solid;text-indent:0;text-orientation:mixed;text-transform:none;white-space:normal"/>
 </g>
</svg>
