<?xml version="1.0" encoding="UTF-8"?>
<svg version="1.1" viewBox="0 0 3840 2160.93" xml:space="preserve" xmlns="http://www.w3.org/2000/svg"><path d="m1187 2160.44c394.481-171.644 757.095-415.929 1066.34-725.166 403.425-403.44 697.687-897.081 862.065-1434.83h-6.8922c-164.182 535.98-457.623 1028-859.804 1430.2-312.207 312.197-678.841 558.216-1077.84 729.797z" style="fill:none;opacity:.25;stroke-width:.926594;stroke:#000"/><path d="m-0.086964 333.608c273.013-38.194 519.583-157.321 715.355-333.147h-715.355z" style="fill:none;opacity:.25;stroke-width:.926594;stroke:#000"/><path d="m-0.086964 340.211c277.179-38.5903 527.298-160.241 725.07-339.756h-9.7142c-195.772 175.827-442.343 294.954-715.355 333.147z" style="fill:none;opacity:.25;stroke-width:.926594;stroke:#000"/><path d="m-0.086964 746.259c406.384-44.2532 777.196-226.374 1057.59-506.767 73.554-73.5537 139.377-154.051 198.754-239.04h-531.274c-197.772 179.515-447.89 301.164-725.07 339.756z" style="fill:none;opacity:.25;stroke-width:.926594;stroke:#000"/><path d="m-0.086964 752.879c408.159-44.2819 780.626-227.161 1062.22-508.751 74.9271-74.9281 142.013-156.928 202.274-243.668h-8.147c-59.3779 84.9899-125.2 165.487-198.754 239.04-280.393 280.393-651.205 462.512-1057.59 506.767z" style="fill:none;opacity:.25;stroke-width:.926594;stroke:#000"/><path d="m-0.086964 764.363c411.136-44.314 786.474-228.416 1070.26-512.196 77.3269-77.3281 146.623-161.929 208.398-251.708h-14.1643c-60.2612 86.7398-127.347 168.739-202.274 243.668-281.59 281.59-654.057 464.47-1062.22 508.751z" style="fill:none;opacity:.25;stroke-width:.926594;stroke:#000"/><path d="m-0.086964 770.967c412.91-44.3412 789.904-229.199 1074.88-514.179 78.7033-78.7026 149.278-164.793 211.916-256.334h-8.1436c-61.7744 89.7796-131.071 174.379-208.398 251.708-283.783 283.781-659.12 467.883-1070.26 512.196z" style="fill:none;opacity:.25;stroke-width:.926594;stroke:#000"/><path d="m-0.086964 782.451c415.875-44.3694 795.754-230.432 1082.92-517.623 81.1082-81.1023 153.924-169.777 218.043-264.376h-14.1693c-62.6374 91.5402-133.212 177.631-211.916 256.334-284.978 284.98-661.973 469.837-1074.88 514.179z" style="fill:none;opacity:.25;stroke-width:.926594;stroke:#000"/><path d="m-0.086964 789.054c417.647-44.3959 799.183-231.214 1087.55-519.602 82.4846-82.4772 156.601-172.633 221.564-269.004h-8.147c-64.1185 94.5985-136.934 183.275-218.043 264.376-287.17 287.191-667.05 473.254-1082.92 517.623z" style="fill:none;opacity:.25;stroke-width:.926594;stroke:#000"/><path d="m-0.086964 800.538c420.604-44.429 805.008-232.474 1095.59-523.052 84.7984-84.7987 160.702-177.705 227.064-277.039h-13.536c-64.9629 96.3703-139.079 186.526-221.564 269.004-288.368 288.39-669.904 475.206-1087.55 519.602z" style="fill:none;opacity:.25;stroke-width:.926594;stroke:#000"/><path d="m-0.086964 807.158c422.377-44.454 808.439-233.251 1100.22-525.028 86.1072-86.106 162.917-180.643 230.071-281.67h-7.637c-66.3629 99.3337-142.266 192.241-227.064 277.039-290.578 290.578-674.982 478.622-1095.59 523.052z" style="fill:none;opacity:.25;stroke-width:.926594;stroke:#000"/><path d="m-0.086964 818.659c425.341-44.4861 814.289-234.507 1108.28-528.475 88.3922-88.3976 166.798-185.766 235.306-289.731h-13.2962c-67.1534 101.026-143.964 195.563-230.071 281.67-291.778 291.778-677.84 480.575-1100.22 525.028z" style="fill:none;opacity:.25;stroke-width:.926594;stroke:#000"/><path d="m-0.086964 825.263c427.111-44.5122 817.716-235.293 1112.91-530.46 89.6976-89.7049 169.029-188.692 238.312-294.356h-7.6336c-68.5078 103.965-146.914 201.332-235.306 289.731-293.988 293.968-682.936 483.989-1108.28 528.475z" style="fill:none;opacity:.25;stroke-width:.926594;stroke:#000"/><path d="m-0.086964 836.747c430.075-44.5418 823.568-236.542 1120.95-533.9 91.9827-91.9894 172.936-193.786 243.543-302.397h-13.2709c-69.283 105.664-148.615 204.652-238.312 294.356-295.189 295.167-685.794 485.947-1112.91 530.46z" style="fill:none;opacity:.25;stroke-width:.926594;stroke:#000"/><path d="m-0.086964 843.367c431.845-44.5676 826.995-237.326 1125.57-535.884 93.2898-93.2962 175.178-196.706 246.547-307.024h-7.6318c-70.607 108.612-151.56 210.409-243.543 302.397-297.378 297.357-690.871 489.358-1120.95 533.9z" style="fill:none;opacity:.25;stroke-width:.926594;stroke:#000"/><path d="m-0.086964 854.851c434.822-44.5904 832.843-238.557 1133.61-539.328 95.5833-95.5829 179.122-201.786 251.789-315.067h-13.2828c-71.3686 110.319-153.257 213.728-246.547 307.024-298.579 298.558-693.728 491.316-1125.57 535.884z" style="fill:none;opacity:.25;stroke-width:.926594;stroke:#000"/><path d="m-0.086964 861.455c436.59-44.6161 836.27-239.339 1138.24-541.31 96.8888-96.8899 181.38-204.698 254.792-319.692h-7.6302c-72.6674 113.28-156.206 219.483-251.789 315.067-300.771 300.771-698.791 494.737-1133.61 539.328z" style="fill:none;opacity:.25;stroke-width:.926594;stroke:#000"/><path d="m-0.086964 872.956c439.553-44.6506 842.118-240.617 1146.28-544.778 99.1755-99.1751 185.335-209.764 260.022-327.73h-13.2675c-73.4122 114.994-157.903 222.802-254.792 319.692-301.971 301.971-701.65 496.693-1138.24 541.31z" style="fill:none;opacity:.25;stroke-width:.926594;stroke:#000"/><path d="m-0.086964 879.576c441.323-44.6734 845.546-241.394 1150.91-546.757 100.483-100.483 187.612-212.671 263.028-332.36h-7.6369c-74.6873 117.967-160.847 228.554-260.022 327.73-304.16 304.16-706.725 500.128-1146.28 544.778z" style="fill:none;opacity:.25;stroke-width:.926594;stroke:#000"/><path d="m-0.086964 891.06c444.283-44.6985 851.395-242.632 1158.95-550.204 102.776-102.77 191.597-217.722 268.262-340.398h-13.2709c-75.4168 119.691-162.546 231.878-263.028 332.36-305.363 305.363-709.586 502.084-1150.91 546.757z" style="fill:none;opacity:.25;stroke-width:.926594;stroke:#000"/><path d="m-0.086964 897.613c446.046-44.7247 854.822-243.357 1163.57-552.127 104.085-104.077 193.889-220.618 271.27-345.023h-7.6319c-76.6649 122.675-165.486 237.628-268.262 340.398-307.551 307.572-714.663 505.505-1158.95 550.204z" style="fill:none;opacity:.25;stroke-width:.926594;stroke:#000"/><path d="m-0.086964 908.979c448.998-44.7531 860.682-244.483 1171.64-555.439 106.373-106.374 197.888-225.681 276.492-353.089h-13.2895c-77.381 124.404-167.185 240.945-271.27 345.023-308.749 308.771-717.524 507.404-1163.57 552.127z" style="fill:none;opacity:.25;stroke-width:.926594;stroke:#000"/><path d="m-0.086964 915.531c450.76-44.7789 864.108-245.201 1176.26-557.354 107.682-107.682 200.193-228.571 279.498-357.713h-7.6301c-78.6037 127.408-170.119 246.716-276.492 353.089-310.956 310.954-722.639 510.685-1171.64 555.439z" style="fill:none;opacity:.25;stroke-width:.926594;stroke:#000"/><path d="m-0.086964 926.897c453.71-44.811 869.967-246.349 1184.31-560.686 109.969-109.97 204.215-233.605 284.718-365.757h-13.2642c-79.3045 129.144-171.816 250.033-279.498 357.713-312.153 312.153-725.502 512.575-1176.26 557.354z" style="fill:none;opacity:.25;stroke-width:.926594;stroke:#000"/><path d="m-0.086964 933.433c455.472-44.8367 873.394-247.064 1188.93-562.6 111.278-111.278 206.532-236.488 287.723-370.383h-7.6285c-80.5036 132.152-174.749 255.787-284.718 365.757-314.339 314.337-730.596 515.875-1184.31 560.686z" style="fill:none;opacity:.25;stroke-width:.926594;stroke:#000"/><path d="m-0.086964 944.833c458.422-44.8693 879.247-248.221 1196.97-565.962 113.573-113.566 210.59-241.507 292.961-378.418h-13.276c-81.191 133.895-176.445 259.104-287.723 370.383-315.536 315.536-733.458 517.765-1188.93 562.6z" style="fill:none;opacity:.25;stroke-width:.926594;stroke:#000"/><path d="m-0.086964 951.385c460.184-44.8943 882.677-248.937 1201.6-567.878 114.882-114.874 212.917-244.389 295.962-383.049h-7.6318c-82.3715 136.911-179.389 264.854-292.961 378.418-317.72 317.742-738.545 521.093-1196.97 565.962z" style="fill:none;opacity:.25;stroke-width:.926594;stroke:#000"/><path d="m-0.086964 962.751c463.144-44.924 888.509-250.083 1209.64-571.21 117.17-117.169 216.982-249.403 301.179-391.086h-13.254c-83.0453 138.661-181.081 268.176-295.962 383.049-318.921 318.941-741.414 522.983-1201.6 567.878z" style="fill:none;opacity:.25;stroke-width:.926594;stroke:#000"/><path d="m-0.086964 969.304c464.904-44.9495 891.936-250.803 1214.26-573.13 118.477-118.477 219.321-252.276 304.18-395.714h-7.6285c-84.1971 141.684-184.009 273.918-301.179 391.086-321.126 321.126-746.491 526.286-1209.64 571.21z" style="fill:none;opacity:.25;stroke-width:.926594;stroke:#000"/><path d="m-0.086964 980.67c467.853-44.9752 897.796-251.924 1222.33-576.435 120.769-120.778 223.413-257.296 309.401-403.778h-13.2845c-84.8591 143.438-185.703 277.237-304.18 395.714-322.327 322.325-749.359 528.18-1214.26 573.13z" style="fill:none;opacity:.25;stroke-width:.926594;stroke:#000"/><path d="m-0.086964 987.206c469.614-45.0002 901.222-252.642 1226.95-578.352 122.078-122.086 225.766-260.162 312.402-408.405h-7.6284c-85.9873 146.483-188.632 283.001-309.401 403.778-324.531 324.509-754.474 531.459-1222.33 576.435z" style="fill:none;opacity:.25;stroke-width:.926594;stroke:#000"/><path d="m-0.086964 998.588c472.563-45.0292 907.079-253.789 1234.99-581.682 124.368-124.376 229.876-265.156 317.62-416.446h-13.2591c-86.6358 148.242-190.324 286.319-312.402 408.405-325.732 325.71-757.34 533.353-1226.95 578.352z" style="fill:none;opacity:.25;stroke-width:.926594;stroke:#000"/><path d="m-0.086964 1005.12c474.323-45.0536 910.504-254.505 1239.62-583.601 125.677-125.685 232.239-268.019 320.62-421.073h-7.6268c-87.7437 151.289-193.252 292.07-317.62 416.446-327.915 327.895-762.432 536.653-1234.99 581.682z" style="fill:none;opacity:.25;stroke-width:.926594;stroke:#000"/><path d="m-0.086964 1016.52c477.271-45.0839 916.358-255.662 1247.66-586.961 127.977-127.976 236.387-273.001 325.858-429.111h-13.2743c-88.3803 153.054-194.943 295.388-320.62 421.073-329.118 329.094-765.3 538.547-1239.62 583.601z" style="fill:none;opacity:.25;stroke-width:.926594;stroke:#000"/><path d="m-0.086964 1023.06c479.031-45.1064 919.788-256.371 1252.29-588.872 129.286-129.285 238.763-275.86 328.858-433.741h-7.6302c-89.4714 156.109-197.881 301.135-325.858 429.111-331.3 331.3-770.386 541.878-1247.66 586.961z" style="fill:none;opacity:.25;stroke-width:.926594;stroke:#000"/><path d="m-0.086964 1034.44c481.98-45.132 925.641-257.506 1260.33-592.212 131.586-131.576 242.923-280.834 334.085-441.777h-13.2641c-90.0946 157.881-199.572 304.457-328.858 433.741-332.5 332.502-773.257 543.766-1252.29 588.871z" style="fill:none;opacity:.25;stroke-width:.926594;stroke:#000"/><path d="m-0.086964 1040.98c483.738-45.1546 929.063-258.217 1264.95-594.125 132.893-132.885 245.312-283.685 337.086-446.403h-7.6268c-91.1619 160.943-202.499 310.199-334.085 441.777-334.684 334.706-778.346 547.079-1260.33 592.212z" style="fill:none;opacity:.25;stroke-width:.926594;stroke:#000"/><path d="m-0.086964 1052.36c486.702-45.1818 934.922-259.364 1272.99-597.458 135.188-135.179 249.484-288.657 342.302-454.447h-13.2591c-91.7732 162.718-204.192 313.518-337.086 446.403-335.888 335.909-781.213 548.971-1264.95 594.125z" style="fill:none;opacity:.25;stroke-width:.926594;stroke:#000"/><path d="m-0.086964 1058.9c488.46-45.2051 938.345-260.081 1277.62-599.378 136.497-136.487 251.885-291.502 345.307-459.071h-7.6302c-92.8186 165.79-207.114 319.267-342.302 454.447-338.072 338.094-786.292 552.276-1272.99 597.458z" style="fill:none;opacity:.25;stroke-width:.926594;stroke:#000"/><path d="m-0.086964 1070.28c491.409-45.228 944.203-261.204 1285.68-602.684 138.792-138.791 256.076-296.481 350.517-467.137h-13.2743c-93.4216 167.57-208.81 322.584-345.307 459.071-339.274 339.296-789.159 554.173-1277.62 599.378z" style="fill:none;opacity:.25;stroke-width:.926594;stroke:#000"/><path d="m-0.086964 1076.82c493.167-45.2506 947.628-261.919 1290.31-604.601 140.099-140.1 258.482-299.323 353.515-471.762h-7.6251c-94.4416 170.656-211.725 328.344-350.517 467.137-341.48 341.48-794.275 557.456-1285.68 602.685z" style="fill:none;opacity:.25;stroke-width:.926594;stroke:#000"/><path d="m-0.086964 1088.22c496.114-45.2822 953.48-263.091 1298.35-607.957 142.393-142.393 262.692-304.277 358.733-479.799h-13.2557c-95.0327 172.439-213.415 331.663-353.515 471.762-342.683 342.683-797.144 559.352-1290.31 604.601z" style="fill:none;opacity:.25;stroke-width:.926594;stroke:#000"/><path d="m-0.086964 1094.75c497.872-45.3038 956.909-263.802 1302.98-609.872 143.703-143.703 265.116-307.116 361.738-484.43h-7.6352c-96.041 175.525-216.34 337.407-358.733 479.799-344.868 344.866-802.234 562.676-1298.35 607.957z" style="fill:none;opacity:.25;stroke-width:.926594;stroke:#000"/><path d="m-0.086964 1106.13c500.819-45.3268 962.762-264.932 1311.02-613.206 146.005-145.996 269.351-312.06 366.958-492.467h-13.2574c-96.6219 177.315-218.034 340.729-361.738 484.43-346.07 346.07-805.107 564.567-1302.98 609.872z" style="fill:none;opacity:.25;stroke-width:.926594;stroke:#000"/><path d="m-0.086964 1112.67c502.575-45.3492 966.185-265.646 1315.64-615.124 147.316-147.305 271.783-314.894 369.959-497.095h-7.6268c-97.6065 180.407-220.953 346.472-366.958 492.467-348.254 348.274-810.197 567.879-1311.02 613.206z" style="fill:none;opacity:.25;stroke-width:.926594;stroke:#000"/><path d="m-0.086964 1124.05c505.519-45.3756 972.022-266.795 1323.68-618.457 149.547-149.548 275.533-319.925 374.657-505.135h-12.7406c-98.1756 182.199-222.643 349.789-369.959 497.095-349.456 349.478-813.067 569.774-1315.64 615.124z" style="fill:none;opacity:.25;stroke-width:.926594;stroke:#000"/><path d="m-0.086964 1130.59c507.275-45.3964 975.445-267.506 1328.31-620.372 150.812-150.812 277.596-322.82 377.267-509.763h-7.2367c-99.1247 185.212-225.11 355.589-374.657 505.135-351.662 351.662-818.165 573.081-1323.68 618.457z" style="fill:none;opacity:.25;stroke-width:.926594;stroke:#000"/><path d="m-0.086964 1141.97c510.222-45.4183 981.304-268.632 1336.38-623.682 153.032-153.041 281.214-327.883 381.808-517.827h-12.6055c-99.6702 186.943-226.455 358.951-377.267 509.763-352.866 352.866-821.036 574.976-1328.31 620.372z" style="fill:none;opacity:.25;stroke-width:.926594;stroke:#000"/><path d="m-0.086964 1148.51c511.979-45.4389 984.727-269.343 1341-625.597 154.298-154.306 283.289-330.775 384.417-522.454h-7.235c-100.594 189.944-228.775 364.786-381.808 517.827-355.072 355.05-826.154 578.264-1336.38 623.682z" style="fill:none;opacity:.25;stroke-width:.926594;stroke:#000"/><path d="m-0.086964 1159.91c514.939-45.4682 990.577-270.517 1349.04-628.956 156.517-156.526 286.927-335.811 388.974-530.488h-12.592c-101.128 191.68-230.12 368.149-384.417 522.454-356.274 356.254-829.023 580.157-1341 625.597z" style="fill:none;opacity:.25;stroke-width:.926594;stroke:#000"/><path d="m-0.086964 1166.44c516.697-45.4876 994.004-271.223 1353.67-630.866 157.783-157.792 289.01-338.702 391.581-535.122h-7.2401c-102.046 194.678-232.457 373.963-388.974 530.488-358.46 358.439-834.098 583.487-1349.04 628.956z" style="fill:none;opacity:.25;stroke-width:.926594;stroke:#000"/><path d="m-0.086964 1177.83c519.643-45.5097 999.856-272.356 1361.7-634.205 160.011-160.011 292.671-343.733 396.138-543.158h-12.592c-102.572 196.419-233.798 377.331-391.581 535.122-359.666 359.644-836.972 585.379-1353.67 630.866z" style="fill:none;opacity:.25;stroke-width:.926594;stroke:#000"/><path d="m-0.086964 1184.36c521.399-45.5301 1003.28-273.069 1366.33-636.124 161.276-161.276 294.762-346.618 398.747-547.784h-7.2366c-103.467 199.425-236.127 383.145-396.138 543.158-361.849 361.849-842.062 588.696-1361.7 634.205z" style="fill:none;opacity:.25;stroke-width:.926594;stroke:#000"/><path d="m-0.086964 1195.73c524.344-45.5504 1009.13-274.195 1374.37-639.454 163.507-163.497 298.433-351.647 403.298-555.824h-12.592c-103.985 201.166-237.471 386.508-398.747 547.784-363.055 363.055-844.933 590.594-1366.33 636.124z" style="fill:none;opacity:.25;stroke-width:.926594;stroke:#000"/><path d="m-0.086964 1202.28c526.099-45.5709 1012.56-274.908 1379-641.372 164.772-164.762 300.534-354.528 405.909-560.452h-7.2384c-104.865 204.177-239.792 392.328-403.298 555.824-365.239 365.259-850.029 593.904-1374.37 639.454z" style="fill:none;opacity:.25;stroke-width:.926594;stroke:#000"/><path d="m-0.086964 1213.66c529.046-45.598 1018.42-276.071 1387.06-644.698 166.984-166.994 304.199-359.571 410.44-568.516h-12.5954c-105.375 205.924-241.138 395.69-405.909 560.452-366.444 366.465-852.901 595.801-1379 641.372z" style="fill:none;opacity:.25;stroke-width:.926594;stroke:#000"/><path d="m-0.086964 1220.21c530.801-45.6182 1021.84-276.786 1391.69-646.618 168.249-168.26 306.307-362.449 413.05-573.143h-7.2366c-106.242 208.945-243.456 401.522-410.44 568.516-368.648 368.626-858.019 599.099-1387.06 644.698z" style="fill:none;opacity:.25;stroke-width:.926594;stroke:#000"/><path d="m-0.086964 1231.6c533.746-45.6387 1027.69-277.917 1399.73-649.955 170.48-170.482 310.008-367.468 417.603-581.181h-12.5903c-106.743 210.695-244.801 404.884-413.05 573.143-369.854 369.832-860.891 600.999-1391.69 646.618z" style="fill:none;opacity:.25;stroke-width:.926594;stroke:#000"/><path d="m-0.086964 1238.13c535.501-45.6571 1031.11-278.621 1404.36-651.865 171.747-171.747 312.125-370.344 420.21-585.811h-7.2384c-107.594 213.713-247.123 410.699-417.603 581.181-372.04 372.038-865.983 604.318-1399.73 649.955z" style="fill:none;opacity:.25;stroke-width:.926594;stroke:#000"/><path d="m-0.086964 1249.5c538.461-45.6802 1036.97-279.775 1412.4-655.204 173.969-173.971 315.83-375.358 424.752-593.849h-12.5785c-108.086 215.467-248.464 414.065-420.21 585.811-373.246 373.244-868.859 606.209-1404.36 651.865z" style="fill:none;opacity:.25;stroke-width:.926594;stroke:#000"/><path d="m-0.086964 1256.05c540.214-45.699 1040.39-280.483 1417.02-657.117 175.237-175.236 317.956-378.231 427.363-598.476h-7.2367c-108.922 218.49-250.783 419.878-424.752 593.848-375.431 375.429-873.936 609.524-1412.4 655.204z" style="fill:none;opacity:.25;stroke-width:.926594;stroke:#000"/><path d="m-0.086964 1267.42c543.161-45.7181 1046.24-281.611 1425.07-660.451 177.468-177.458 321.682-383.242 431.911-606.516h-12.5903c-109.406 220.245-252.125 423.239-427.363 598.476-376.635 376.635-876.809 611.419-1417.02 657.118z" style="fill:none;opacity:.25;stroke-width:.926594;stroke:#000"/><path d="m-0.086964 1273.97c544.914-45.7365 1049.66-282.32 1429.69-662.368 178.735-178.725 323.82-386.109 434.523-611.141h-7.2367c-110.229 223.275-254.442 429.057-431.911 606.516-378.82 378.841-881.904 614.734-1425.07 660.451z" style="fill:none;opacity:.25;stroke-width:.926594;stroke:#000"/><path d="m-0.086964 1285.35c547.856-45.7633 1055.5-283.49 1437.73-665.72 180.954-180.956 327.544-391.125 439.061-619.184h-12.5818c-110.704 225.031-255.788 432.416-434.523 611.141-380.026 380.048-884.775 616.631-1429.69 662.368z" style="fill:none;opacity:.25;stroke-width:.926594;stroke:#000"/><path d="m-0.086964 1291.91c549.609-45.7819 1058.92-284.203 1442.36-667.641 182.222-182.222 329.685-393.989 441.672-623.809h-7.2367c-111.518 228.059-258.107 438.229-439.061 619.184-382.232 382.232-889.877 619.958-1437.73 665.72z" style="fill:none;opacity:.25;stroke-width:.926594;stroke:#000"/><path d="m-0.086964 1303.27c552.553-45.8007 1064.77-285.328 1450.42-670.949 184.447-184.457 333.424-399.01 446.202-631.869h-12.5886c-111.987 229.819-259.45 441.588-441.672 623.809-383.438 383.439-892.75 621.86-1442.36 667.641z" style="fill:none;opacity:.25;stroke-width:.926594;stroke:#000"/><path d="m-0.086964 1309.82c554.306-45.8186 1068.2-286.036 1455.05-672.866 185.713-185.723 335.574-401.876 448.811-636.5h-7.2401c-112.777 232.861-261.755 447.414-446.202 631.869-385.643 385.623-897.865 625.149-1450.42 670.949z" style="fill:none;opacity:.25;stroke-width:.926594;stroke:#000"/><path d="m-0.086964 1321.19c557.251-45.8405 1074.05-287.184 1463.09-676.198 187.938-187.948 339.327-406.875 453.347-644.537h-12.5734c-113.237 234.624-263.098 450.777-448.811 636.5-386.851 386.829-900.743 627.048-1455.05 672.866z" style="fill:none;opacity:.25;stroke-width:.926594;stroke:#000"/><path d="m-0.086964 1327.74c559.004-45.8588 1077.47-287.895 1467.71-678.117 189.202-189.214 341.482-409.738 455.956-649.165h-7.2367c-114.02 237.664-265.41 456.591-453.347 644.537-389.034 389.014-905.835 630.358-1463.09 676.198z" style="fill:none;opacity:.25;stroke-width:.926594;stroke:#000"/><path d="m-0.086964 1339.11c561.948-45.8758 1083.33-289.02 1475.75-681.445 191.438-191.438 345.26-414.734 460.501-657.205h-12.5852c-114.475 239.427-266.754 459.951-455.956 649.165-390.244 390.222-908.709 632.258-1467.71 678.117z" style="fill:none;opacity:.25;stroke-width:.926594;stroke:#000"/><path d="m-0.086964 1345.65c563.701-45.8937 1086.75-289.729 1480.38-683.364 192.705-192.705 347.422-417.593 463.11-661.833h-7.2367c-115.241 242.472-269.063 465.767-460.501 657.205-392.427 392.426-913.806 635.57-1475.75 681.445z" style="fill:none;opacity:.25;stroke-width:.926594;stroke:#000"/><path d="m-0.086964 1357.04c566.66-45.9144 1092.6-290.881 1488.42-686.721 194.943-194.933 351.218-422.587 467.667-669.873h-12.597c-115.689 244.238-270.405 469.128-463.11 661.833-393.635 393.635-916.68 637.47-1480.38 683.364z" style="fill:none;opacity:.25;stroke-width:.926594;stroke:#000"/><path d="m-0.086964 1363.6c568.413-45.9311 1096.02-291.587 1493.05-688.635 196.21-196.199 353.386-425.444 470.274-674.501h-7.235c-116.449 247.287-272.724 474.941-467.667 669.873-395.82 395.84-921.762 640.807-1488.42 686.721z" style="fill:none;opacity:.25;stroke-width:.926594;stroke:#000"/><path d="m-0.086964 1374.96c571.357-45.9528 1101.88-292.737 1501.11-691.948 198.427-198.437 357.163-430.45 474.792-682.562h-12.5768c-116.888 249.057-274.065 478.301-470.274 674.501-397.029 397.05-924.636 642.705-1493.05 688.635z" style="fill:none;opacity:.25;stroke-width:.926594;stroke:#000"/><path d="m-0.086964 1381.5c573.108-45.9687 1105.3-293.438 1505.74-693.858 199.694-199.705 359.34-433.309 477.4-687.192h-7.2384c-117.629 252.11-276.365 484.125-474.792 682.562-399.232 399.211-929.752 645.995-1501.11 691.948z" style="fill:none;opacity:.25;stroke-width:.926594;stroke:#000"/><path d="m-0.086964 1392.88c576.052-45.9866 1111.15-294.571 1513.78-697.195 201.93-201.93 363.151-438.293 481.943-695.23h-12.5802c-118.06 253.883-277.706 487.487-477.4 687.192-400.441 400.421-932.632 647.89-1505.74 693.858z" style="fill:none;opacity:.25;stroke-width:.926594;stroke:#000"/><path d="m-0.086964 1399.42c577.803-46.0029 1114.57-295.277 1518.4-699.112 203.196-203.198 365.335-441.145 484.552-699.854h-7.2349c-118.791 256.937-280.013 493.3-481.943 695.23-402.625 402.626-937.725 651.21-1513.78 697.195z" style="fill:none;opacity:.25;stroke-width:.926594;stroke:#000"/><path d="m-0.086964 1410.8c580.748-46.0234 1120.43-296.424 1526.44-702.443 205.424-205.424 369.147-446.131 489.083-707.898h-12.5735c-119.217 258.708-281.356 496.657-484.552 699.854-403.835 403.834-940.599 653.108-1518.4 699.112z" style="fill:none;opacity:.25;stroke-width:.926594;stroke:#000"/><path d="m-0.086964 1417.34c582.498-46.0403 1123.84-297.136 1531.07-704.364 206.69-206.69 371.335-448.98 491.692-712.522h-7.2349c-119.936 261.767-283.659 502.474-489.083 707.898-406.017 406.017-945.696 656.418-1526.44 702.443z" style="fill:none;opacity:.25;stroke-width:.926594;stroke:#000"/><path d="m-0.086964 1428.74c585.441-46.0597 1129.7-298.281 1539.11-707.713 208.93-208.918 375.174-453.962 496.242-720.566h-12.592c-120.357 263.542-285.002 505.831-491.692 712.522-407.228 407.228-948.572 658.323-1531.07 704.364z" style="fill:none;opacity:.25;stroke-width:.926594;stroke:#000"/><path d="m-0.086964 1435.27c587.193-46.0766 1133.12-298.992 1543.74-709.634 210.196-210.186 377.373-456.811 498.853-725.19h-7.2367c-121.068 266.602-287.312 511.648-496.242 720.566-409.41 409.432-953.671 661.654-1539.11 707.714z" style="fill:none;opacity:.25;stroke-width:.926594;stroke:#000"/><path d="m-0.086964 1446.65c590.131-46.0964 1138.95-300.141 1551.78-712.966 212.421-212.421 381.2-461.793 503.377-733.227h-12.5616c-121.48 268.379-288.656 515.005-498.853 725.19-410.621 410.641-956.545 663.557-1543.74 709.634z" style="fill:none;opacity:.25;stroke-width:.926594;stroke:#000"/><path d="m-0.086964 1453.19c591.881-46.1127 1142.37-300.848 1556.4-714.883 213.687-213.689 383.402-464.642 505.985-737.854h-7.235c-122.177 271.434-290.957 520.806-503.377 733.227-412.825 412.825-961.644 666.869-1551.78 712.966z" style="fill:none;opacity:.25;stroke-width:.926594;stroke:#000"/><path d="m-0.086964 1464.56c594.842-46.1271 1148.23-301.97 1564.47-718.189 215.92-215.93 387.248-469.634 510.513-745.918h-12.592c-122.583 273.212-292.298 524.165-505.985 737.854-414.036 414.036-964.522 668.771-1556.4 714.883z" style="fill:none;opacity:.25;stroke-width:.926594;stroke:#000"/><path d="m-0.086964 1471.11c596.591-46.1432 1151.64-302.677 1569.09-720.108 217.188-217.198 389.455-472.482 513.119-750.546h-7.2316c-123.265 276.284-294.593 529.988-510.513 745.918-416.242 416.22-969.626 672.064-1564.47 718.189z" style="fill:none;opacity:.25;stroke-width:.926594;stroke:#000"/><path d="m-0.086964 1482.51c599.533-46.1624 1157.5-303.831 1577.14-723.465 219.426-219.428 393.328-477.454 517.67-758.586h-12.5937c-123.664 278.062-295.93 533.347-513.119 750.546-417.451 417.431-972.502 673.965-1569.09 720.108z" style="fill:none;opacity:.25;stroke-width:.926594;stroke:#000"/><path d="m-0.086964 1489.04c601.284-46.1776 1160.92-304.533 1581.76-725.379 220.696-220.694 395.543-480.299 520.278-763.214h-7.2333c-124.342 281.133-298.244 539.159-517.67 758.586-419.636 419.635-977.602 677.303-1577.14 723.465z" style="fill:none;opacity:.25;stroke-width:.926594;stroke:#000"/><path d="m-0.086964 1500.43c604.226-46.1967 1166.77-305.682 1589.8-728.711 222.924-222.924 399.407-485.268 524.807-771.254h-12.5717c-124.734 282.914-299.582 542.518-520.278 763.214-420.845 420.845-980.476 679.203-1581.76 725.379z" style="fill:none;opacity:.25;stroke-width:.926594;stroke:#000"/><path d="m-0.086964 1506.96c605.976-46.2116 1170.19-306.386 1594.43-730.626 224.192-224.192 401.628-488.114 527.413-775.882h-7.2316c-125.4 285.985-301.884 548.331-524.807 771.254-423.029 423.029-985.577 682.514-1589.8 728.711z" style="fill:none;opacity:.25;stroke-width:.926594;stroke:#000"/><path d="m-0.086964 1518.33c608.918-46.2276 1176.04-307.516 1602.47-733.961 226.431-226.419 405.514-493.079 531.952-783.919h-12.5768c-125.785 287.768-303.221 551.69-527.413 775.882-424.24 424.24-988.453 684.414-1594.43 730.626z" style="fill:none;opacity:.25;stroke-width:.926594;stroke:#000"/><path d="m-0.086964 1524.88c610.668-46.2427 1179.46-308.224 1607.09-735.88 227.7-227.689 407.74-495.919 534.56-788.543h-7.2333c-126.438 290.84-305.521 557.498-531.952 783.919-426.424 426.446-993.548 687.735-1602.47 733.961z" style="fill:none;opacity:.25;stroke-width:.926594;stroke:#000"/><path d="m-0.086964 1536.25c613.61-46.2607 1185.32-309.37 1615.16-739.188 229.919-229.93 411.611-500.903 539.071-796.607h-12.5751c-126.82 292.625-306.86 560.855-534.56 788.543-427.634 427.657-996.424 689.636-1607.09 735.88z" style="fill:none;opacity:.25;stroke-width:.926594;stroke:#000"/><path d="m-0.086964 1542.8c615.359-46.2763 1188.73-310.078 1619.78-741.107 231.187-231.199 413.84-503.744 541.677-801.235h-7.2333c-127.46 295.704-309.152 566.678-539.071 796.607-429.84 429.818-1001.55 692.928-1615.16 739.188z" style="fill:none;opacity:.25;stroke-width:.926594;stroke:#000"/><path d="m-0.086964 1554.18c618.318-46.2926 1194.59-311.224 1627.82-744.459 233.43-233.43 417.755-508.707 546.227-809.275h-12.5903c-127.837 297.489-310.49 570.036-541.677 801.235-431.051 431.029-1004.42 694.829-1619.78 741.107z" style="fill:none;opacity:.25;stroke-width:.926594;stroke:#000"/><path d="m-0.086964 1560.74c620.066-46.3078 1198-311.932 1632.45-746.379 234.698-234.7 419.994-511.546 548.836-813.903h-7.2367c-128.472 300.568-312.797 575.845-546.227 809.275-433.235 433.235-1009.51 698.166-1627.82 744.459z" style="fill:none;opacity:.25;stroke-width:.926594;stroke:#000"/><path d="m-0.086964 1572.1c623.008-46.3248 1203.86-313.075 1640.49-749.705 236.929-236.929 423.897-516.508 553.362-821.943h-12.5667c-128.842 302.356-314.138 579.203-548.836 813.903-434.447 434.447-1012.39 700.072-1632.45 746.379z" style="fill:none;opacity:.25;stroke-width:.926594;stroke:#000"/><path d="m-0.086964 1578.65c624.756-46.3399 1207.28-313.783 1645.12-751.625 238.197-238.197 426.14-519.347 555.97-826.571h-7.235c-129.465 305.437-316.433 585.014-553.362 821.943-436.631 436.629-1017.48 703.38-1640.49 749.705z" style="fill:none;opacity:.25;stroke-width:.926594;stroke:#000"/><path d="m-0.086964 1590.02c627.698-46.3546 1213.13-314.915 1653.16-754.962 240.438-240.428 430.063-524.302 560.506-834.608h-12.5734c-129.83 307.224-317.772 588.373-555.97 826.571-437.842 437.842-1020.36 705.285-1645.12 751.625z" style="fill:none;opacity:.25;stroke-width:.926594;stroke:#000"/><path d="m-0.086964 1596.57c629.446-46.3688 1216.55-315.617 1657.78-756.876 241.71-241.697 432.313-527.141 563.113-839.235h-7.2333c-130.443 310.304-320.067 594.18-560.506 834.608-440.026 440.046-1025.46 708.607-1653.16 754.962z" style="fill:none;opacity:.25;stroke-width:.926594;stroke:#000"/><path d="m-0.086964 1607.94c632.384-46.3862 1222.38-316.767 1665.82-760.209 243.936-243.936 436.227-532.104 567.633-847.276h-12.5616c-130.801 312.094-321.403 597.539-563.113 839.235-441.236 441.258-1028.34 710.507-1657.78 756.876z" style="fill:none;opacity:.25;stroke-width:.926594;stroke:#000"/><path d="m-0.086964 1614.47c634.132-46.4003 1225.8-317.468 1670.45-762.121 245.187-245.186 438.283-534.969 570.041-851.903h-7.034c-131.405 315.171-323.697 603.34-567.633 847.276-443.442 443.442-1033.44 713.824-1665.82 760.209z" style="fill:none;opacity:.25;stroke-width:.926594;stroke:#000"/><path d="m-0.086964 1627.66c637.189-46.3519 1231.58-320.334 1678.51-767.243 247.371-247.383 441.726-540.015 574.077-859.967h-12.1005c-131.758 316.933-324.854 606.716-570.041 851.903-444.653 444.655-1036.32 715.722-1670.45 762.121z" style="fill:none;opacity:.25;stroke-width:.926594;stroke:#000"/><path d="m-0.086964 1634.22c638.937-46.3649 1235-321.052 1683.14-769.174 248.612-248.624 443.695-542.893 576.394-864.595h-6.9445c-132.351 319.951-326.706 612.584-574.077 859.967-446.93 446.908-1041.33 720.891-1678.51 767.243z" style="fill:none;opacity:.25;stroke-width:.926594;stroke:#000"/><path d="m-0.086964 1645.62c641.881-46.3777 1240.86-322.207 1691.19-772.533 250.81-250.808 447.156-547.919 580.437-872.635h-12.0836c-132.699 321.7-327.782 615.969-576.394 864.595-448.144 448.122-1044.2 722.81-1683.14 769.174z" style="fill:none;opacity:.25;stroke-width:.926594;stroke:#000"/><path d="m-0.086964 1652.19c643.629-46.3911 1244.27-322.926 1695.81-774.467 252.051-252.049 449.132-550.795 582.755-877.261h-6.9446c-133.282 324.717-329.628 621.828-580.437 872.635-450.326 450.327-1049.3 726.156-1691.19 772.533z" style="fill:none;opacity:.25;stroke-width:.926594;stroke:#000"/><path d="m-0.086964 1663.59c646.588-46.4059 1250.12-324.105 1703.84-777.831 254.236-254.236 452.591-555.814 586.793-885.297h-12.0736c-133.623 326.468-330.704 625.212-582.754 877.261-451.54 451.54-1052.18 728.076-1695.81 774.467z" style="fill:none;opacity:.25;stroke-width:.926594;stroke:#000"/><path d="m-0.086964 1670.14c648.336-46.4193 1253.53-324.825 1708.46-779.764 255.478-255.478 454.57-558.69 589.11-889.924h-6.9445c-134.202 329.483-332.556 631.062-586.793 885.297-453.725 453.725-1057.26 731.425-1703.84 777.831z" style="fill:none;opacity:.25;stroke-width:.926594;stroke:#000"/><path d="m-0.086964 1681.54c651.279-46.4308 1259.39-325.975 1716.52-783.12 257.675-257.663 458.046-563.711 593.151-897.965h-12.0819c-134.54 331.234-333.632 634.447-589.11 889.924-454.94 454.94-1060.14 733.345-1708.46 779.764z" style="fill:none;opacity:.25;stroke-width:.926594;stroke:#000"/><path d="m-0.086964 1688.11c653.025-46.444 1262.8-326.696 1721.15-785.056 258.916-258.904 460.03-566.586 595.468-902.592h-6.9445c-135.106 334.254-335.476 640.303-593.151 897.965-457.123 457.145-1065.23 736.689-1716.52 783.12z" style="fill:none;opacity:.25;stroke-width:.926594;stroke:#000"/><path d="m-0.086964 1699.52c655.969-46.462 1268.66-327.89 1729.2-788.411 261.09-261.101 463.489-571.627 599.491-910.656h-12.087c-135.438 336.007-336.552 643.688-595.468 902.592-458.338 458.36-1068.12 738.611-1721.15 785.056z" style="fill:none;opacity:.25;stroke-width:.926594;stroke:#000"/><path d="m-0.086964 1706.08c657.715-46.4752 1272.07-328.609 1733.83-790.343 262.333-262.344 465.478-574.499 601.81-915.284h-6.9445c-136.002 339.03-338.401 649.555-599.491 910.656-460.543 460.521-1073.24 741.948-1729.2 788.411z" style="fill:none;opacity:.25;stroke-width:.926594;stroke:#000"/><path d="m-0.086964 1717.48c660.659-46.4872 1277.93-329.763 1741.87-793.704 264.53-264.53 468.967-579.519 605.849-923.324h-12.082c-136.332 340.784-339.477 652.939-601.81 915.284-461.756 461.736-1076.12 743.868-1733.83 790.343z" style="fill:none;opacity:.25;stroke-width:.926594;stroke:#000"/><path d="m-0.086964 1724.05c662.405-46.4989 1281.34-330.479 1746.5-795.634 265.773-265.773 470.962-582.391 608.168-927.952h-6.9445c-136.882 343.806-341.32 658.795-605.849 923.324-463.941 463.941-1081.21 747.217-1741.87 793.704z" style="fill:none;opacity:.25;stroke-width:.926594;stroke:#000"/><path d="m-0.086964 1735.45c665.347-46.5148 1287.2-331.659 1754.54-798.999 267.958-267.958 474.448-587.407 612.201-935.989h-12.0701c-137.206 345.56-342.395 662.179-608.168 927.952-465.156 465.155-1084.09 749.136-1746.5 795.634z" style="fill:none;opacity:.25;stroke-width:.926594;stroke:#000"/><path d="m-0.086964 1742c667.093-46.5267 1290.61-332.377 1759.16-800.931 269.321-269.321 477.822-590.094 615.891-940.615h-8.3176c-137.754 348.582-344.243 668.031-612.201 935.989-467.338 467.339-1089.19 752.483-1754.54 798.999z" style="fill:none;opacity:.25;stroke-width:.926594;stroke:#000"/><path d="m-0.086964 1753.4c670.052-46.5372 1296.47-333.529 1767.2-804.29 271.533-271.52 481.451-595.093 620.056-948.657h-12.2052c-138.069 350.52-346.57 671.294-615.891 940.615-468.553 468.553-1092.07 754.403-1759.16 800.931z" style="fill:none;opacity:.25;stroke-width:.926594;stroke:#000"/><path d="m-0.086964 1759.95c671.8-46.549 1299.88-334.245 1771.83-806.222 272.782-272.768 483.522-597.952 622.441-953.281h-7.0121c-138.605 353.562-348.522 677.137-620.056 948.657-470.737 470.759-1097.15 757.752-1767.2 804.29z" style="fill:none;opacity:.25;stroke-width:.926594;stroke:#000"/><path d="m-0.086964 1771.38c674.739-46.5641 1305.71-335.422 1779.87-809.603 274.989-274.975 487.158-602.961 626.61-961.325h-12.2103c-138.919 355.329-349.659 680.513-622.441 953.281-471.953 471.975-1100.03 759.672-1771.83 806.222z" style="fill:none;opacity:.25;stroke-width:.926594;stroke:#000"/><path d="m-0.086964 1777.94c676.485-46.5762 1309.13-336.142 1784.5-811.538 276.237-276.225 489.233-605.821 628.997-965.951h-7.0138c-139.453 358.363-351.622 686.348-626.61 961.325-474.157 474.181-1105.13 763.038-1779.87 809.603z" style="fill:none;opacity:.25;stroke-width:.926594;stroke:#000"/><path d="m-0.086964 1789.34c679.427-46.59 1314.98-337.312 1792.57-814.869 278.422-278.436 492.842-610.84 633.126-974.015h-12.1934c-139.763 360.13-352.76 689.726-628.997 965.951-475.373 475.395-1108.01 764.962-1784.5 811.538z" style="fill:none;opacity:.25;stroke-width:.926594;stroke:#000"/><path d="m-0.086964 1795.91c681.173-46.6018 1318.39-338.033 1797.2-816.806 279.672-279.684 494.925-613.697 635.516-978.641h-7.0155c-140.284 363.177-354.704 695.581-633.126 974.015-477.579 477.557-1113.14 768.28-1792.57 814.869z" style="fill:none;opacity:.25;stroke-width:.926594;stroke:#000"/><path d="m-0.086964 1807.31c684.114-46.6132 1324.25-339.188 1805.23-820.167 281.881-281.881 498.569-618.693 639.672-986.678h-12.1934c-140.591 364.943-355.844 698.957-635.516 978.641-478.795 478.773-1116.02 770.204-1797.2 816.806z" style="fill:none;opacity:.25;stroke-width:.926594;stroke:#000"/><path d="m-0.086964 1813.86c685.86-46.625 1327.66-339.906 1809.85-822.1 283.131-283.131 500.655-621.551 642.062-991.305h-7.0154c-141.103 367.985-357.791 704.797-639.672 986.678-480.978 480.978-1121.11 773.553-1805.23 820.167z" style="fill:none;opacity:.25;stroke-width:.926594;stroke:#000"/><path d="m-0.086964 1825.28c688.8-46.6425 1333.52-341.107 1817.9-825.483 285.328-285.328 504.301-626.546 646.223-999.346h-12.2036c-141.406 369.753-358.931 708.175-642.062 991.305-482.192 482.193-1123.99 775.475-1809.85 822.1z" style="fill:none;opacity:.25;stroke-width:.926594;stroke:#000"/><path d="m-0.086964 1831.85c690.546-46.6533 1336.93-341.82 1822.53-827.412 286.579-286.578 506.39-629.405 648.609-1003.97h-7.012c-141.922 372.8-360.895 714.018-646.223 999.346-484.376 484.376-1129.09 778.841-1817.9 825.483z" style="fill:none;opacity:.25;stroke-width:.926594;stroke:#000"/><path d="m-0.086964 1843.24c693.488-46.6642 1342.79-342.976 1830.57-830.774 288.788-288.776 510.048-634.399 652.765-1012.01h-12.1985c-142.219 374.568-362.03 717.396-648.609 1003.97-485.592 485.592-1131.97 780.759-1822.53 827.412z" style="fill:none;opacity:.25;stroke-width:.926594;stroke:#000"/><path d="m-0.086964 1849.8c695.233-46.6753 1346.2-343.691 1835.19-832.703 290.04-290.026 512.142-637.257 655.153-1016.64h-7.0138c-142.717 377.614-363.977 723.237-652.765 1012.01-487.776 487.798-1137.07 784.11-1830.57 830.774z" style="fill:none;opacity:.25;stroke-width:.926594;stroke:#000"/><path d="m-0.086964 1861.2c698.192-46.6877 1352.05-344.863 1843.25-836.04 292.228-292.24 515.78-642.269 659.284-1024.71h-12.1951c-143.011 379.383-365.114 726.615-655.153 1016.64-488.992 489.014-1139.96 786.028-1835.19 832.703z" style="fill:none;opacity:.25;stroke-width:.926594;stroke:#000"/><path d="m-0.086964 1867.75c699.938-46.6987 1355.47-345.579 1847.88-837.97 293.476-293.49 517.876-645.127 661.669-1029.33h-7.012c-143.504 382.434-367.056 732.465-659.284 1024.71-491.197 491.176-1145.06 789.352-1843.25 836.04z" style="fill:none;opacity:.25;stroke-width:.926594;stroke:#000"/><path d="m-0.086964 1879.15c702.878-46.7096 1361.32-346.737 1855.92-841.334 295.689-295.687 521.548-650.117 665.827-1037.37h-12.1951c-143.793 384.204-368.192 735.843-661.669 1029.33-492.413 492.391-1147.94 791.272-1847.88 837.97z" style="fill:none;opacity:.25;stroke-width:.926594;stroke:#000"/><path d="m-0.086964 1885.72c704.623-46.7204 1364.73-347.452 1860.54-843.266 296.937-296.937 523.647-652.971 668.213-1041.99h-7.0121c-144.279 387.251-370.138 741.681-665.827 1037.37-494.597 494.597-1153.04 794.624-1855.92 841.334z" style="fill:none;opacity:.25;stroke-width:.926594;stroke:#000"/><path d="m-0.086964 1897.14c707.565-46.737 1370.59-348.651 1868.58-846.646 299.136-299.136 527.32-657.965 672.374-1050.04h-12.2036c-144.566 389.023-371.276 745.057-668.213 1041.99-495.815 495.813-1155.92 796.545-1860.54 843.267z" style="fill:none;opacity:.25;stroke-width:.926594;stroke:#000"/><path d="m-0.086964 1903.71c709.309-46.748 1374-349.37 1873.21-848.585 300.386-300.387 529.424-660.819 674.762-1054.66h-7.0137c-145.054 392.071-373.239 750.9-672.374 1050.04-497.997 497.997-1161.02 799.909-1868.58 846.646z" style="fill:none;opacity:.25;stroke-width:.926594;stroke:#000"/><path d="m-0.086964 1915.1c712.25-46.7575 1379.86-350.519 1881.25-851.937 302.6-302.586 533.104-665.813 678.914-1062.7h-12.1935c-145.338 393.843-374.377 754.276-674.762 1054.66-499.214 499.214-1163.9 801.836-1873.21 848.585z" style="fill:none;opacity:.25;stroke-width:.926594;stroke:#000"/><path d="m-0.086964 1921.66c713.994-46.7683 1383.26-351.24 1885.88-853.876 303.849-303.836 535.215-668.666 681.303-1067.33h-7.0155c-145.809 396.893-376.314 760.12-678.914 1062.7-501.396 501.418-1169 805.18-1881.25 851.937z" style="fill:none;opacity:.25;stroke-width:.926594;stroke:#000"/><path d="m-0.086964 1933.06c716.931-46.7788 1389.1-352.393 1893.92-857.233 306.058-306.045 538.899-673.661 685.453-1075.37h-12.1866c-146.088 398.664-377.454 763.494-681.303 1067.33-502.614 502.636-1171.88 807.107-1885.88 853.876z" style="fill:none;opacity:.25;stroke-width:.926594;stroke:#000"/><path d="m-0.086964 1939.61c718.676-46.7886 1392.51-353.109 1898.54-859.167 307.31-307.296 541.011-676.517 687.839-1080h-7.0171c-146.554 401.706-379.395 769.321-685.453 1075.37-504.818 504.84-1176.98 810.454-1893.92 857.233z" style="fill:none;opacity:.25;stroke-width:.926594;stroke:#000"/><path d="m-0.086964 1951.03c721.633-46.8013 1398.36-354.287 1906.6-862.506 309.5-309.512 544.685-681.523 691.973-1088.06h-12.1934c-146.828 403.481-380.529 772.702-687.839 1080-506.036 506.058-1179.87 812.378-1898.54 859.167z" style="fill:none;opacity:.25;stroke-width:.926594;stroke:#000"/><path d="m-0.086964 1957.58c723.377-46.8115 1401.77-354.999 1911.23-864.436 310.75-310.763 546.796-684.377 694.356-1092.69h-7.0104c-147.289 406.534-382.473 778.547-691.973 1088.06-508.241 508.219-1184.97 815.705-1906.6 862.506z" style="fill:none;opacity:.25;stroke-width:.926594;stroke:#000"/><path d="m-0.086964 1969c726.318-46.8242 1407.63-356.178 1919.27-867.819 312.964-312.962 550.504-689.366 698.524-1100.73h-12.2087c-147.561 408.307-383.606 781.923-694.356 1092.69-509.459 509.437-1187.86 817.625-1911.23 864.436z" style="fill:none;opacity:.25;stroke-width:.926594;stroke:#000"/><path d="m-0.086964 1975.57c728.062-46.8341 1411.04-356.891 1923.89-869.751 314.207-314.205 552.536-692.232 700.825-1105.35h-6.9276c-148.02 411.359-385.56 787.764-698.524 1100.73-511.641 511.641-1192.96 820.994-1919.27 867.819z" style="fill:none;opacity:.25;stroke-width:.926594;stroke:#000"/><path d="m-0.086964 1986.97c731.003-46.8467 1416.9-358.068 1931.95-873.11 316.389-316.387 556.022-697.248 704.763-1113.39h-11.9789c-148.289 413.122-386.618 791.147-700.825 1105.35-512.858 512.858-1195.84 822.916-1923.89 869.751z" style="fill:none;opacity:.25;stroke-width:.926594;stroke:#000"/><path d="m-0.086964 1993.52c732.747-46.8567 1420.31-358.781 1936.58-875.039 317.629-317.629 558.02-700.115 707.026-1118.02h-6.8905c-148.741 416.147-388.374 797.006-704.763 1113.39-515.04 515.042-1200.94 826.263-1931.95 873.11z" style="fill:none;opacity:.25;stroke-width:.926594;stroke:#000"/><path d="m-0.086964 2004.92c735.687-46.8667 1426.16-359.939 1944.6-878.403 319.824-319.811 561.522-705.13 710.973-1126.06h-11.984c-149.006 417.905-389.398 800.394-707.026 1118.02-516.26 516.26-1203.82 828.184-1936.58 875.039z" style="fill:none;opacity:.25;stroke-width:.926594;stroke:#000"/><path d="m-0.086964 2011.47c737.43-46.8765 1429.58-360.652 1949.24-880.335 321.065-321.052 563.524-708.001 713.238-1130.69h-6.8955c-149.45 420.928-391.149 806.249-710.973 1126.06-518.442 518.464-1208.92 831.536-1944.6 878.403z" style="fill:none;opacity:.25;stroke-width:.926594;stroke:#000"/><path d="m-0.086964 2022.87c740.371-46.8886 1435.43-361.829 1957.3-883.672 323.232-323.247 566.999-713.032 717.152-1138.75h-11.9738c-149.714 422.69-392.172 809.638-713.238 1130.69-519.659 519.681-1211.81 833.458-1949.24 880.335z" style="fill:none;opacity:.25;stroke-width:.926594;stroke:#000"/><path d="m-0.086964 2029.44c742.113-46.8989 1438.84-362.545 1961.93-885.606 324.475-324.487 569.007-715.899 719.419-1143.38h-6.8922c-150.153 425.716-393.92 815.5-717.152 1138.75-521.865 521.843-1216.93 836.783-1957.3 883.672z" style="fill:none;opacity:.25;stroke-width:.926594;stroke:#000"/><path d="m-0.086964 2040.86c745.054-46.9104 1444.7-363.719 1969.96-888.985 326.671-326.671 572.524-720.913 723.374-1151.42h-11.9992c-150.412 427.476-394.944 818.886-719.419 1143.38-523.083 523.061-1219.81 838.707-1961.93 885.606z" style="fill:none;opacity:.25;stroke-width:.926594;stroke:#000"/><path d="m-0.086964 2047.41c746.797-46.9206 1448.11-364.435 1974.59-890.919 327.912-327.912 574.535-723.781 725.642-1156.04h-6.8922c-150.851 430.502-396.703 824.745-723.374 1151.42-525.265 525.265-1224.91 842.074-1969.96 888.985z" style="fill:none;opacity:.25;stroke-width:.926594;stroke:#000"/><path d="m-0.086964 2058.81c749.754-46.9308 1453.96-365.608 1982.63-894.276 330.096-330.097 578.043-728.792 729.579-1164.08h-11.9789c-151.107 432.262-397.73 828.131-725.642 1156.04-526.482 526.484-1227.79 843.998-1974.59 890.919z" style="fill:none;opacity:.25;stroke-width:.926594;stroke:#000"/><path d="m-0.086964 2065.38c751.498-46.9406 1457.37-366.323 1987.26-896.21 331.339-331.337 580.056-731.66 731.845-1168.71h-6.8922c-151.536 435.292-399.483 833.986-729.579 1164.08-528.668 528.668-1232.88 847.345-1982.63 894.276z" style="fill:none;opacity:.25;stroke-width:.926594;stroke:#000"/><path d="m-0.086964 2076.78c754.437-46.9504 1463.23-367.483 1995.3-899.572 333.536-333.521 583.579-736.669 735.79-1176.75h-11.9823c-151.79 437.052-400.507 837.372-731.845 1168.71-529.885 529.885-1235.76 849.269-1987.26 896.21z" style="fill:none;opacity:.25;stroke-width:.926594;stroke:#000"/><path d="m-0.086964 2083.33c756.18-46.9587 1466.64-368.191 1999.92-901.499 334.777-334.762 585.592-739.538 738.052-1181.38h-6.8922c-152.212 440.078-402.255 843.228-735.79 1176.75-532.067 532.089-1240.86 852.623-1995.3 899.572z" style="fill:none;opacity:.25;stroke-width:.926594;stroke:#000"/><path d="m-0.086964 2094.76c759.117-46.9713 1472.47-369.373 2007.98-904.864 336.957-336.971 589.105-744.578 741.987-1189.44h-11.9958c-152.46 441.839-403.275 846.617-738.052 1181.38-533.287 533.309-1243.75 854.541-1999.92 901.499z" style="fill:none;opacity:.25;stroke-width:.926594;stroke:#000"/><path d="m-0.086964 2101.32c760.86-46.9803 1475.88-370.082 2012.61-906.794 338.199-338.212 591.123-747.443 744.25-1194.07h-6.8905c-152.882 444.862-405.029 852.467-741.987 1189.44-535.513 535.491-1248.87 857.892-2007.98 904.864z" style="fill:none;opacity:.25;stroke-width:.926594;stroke:#000"/><path d="m-0.086964 2112.72c763.798-46.9921 1481.74-371.261 2020.66-910.153 340.382-340.396 594.644-752.454 748.186-1202.11h-11.9772c-153.127 446.624-406.051 855.853-744.25 1194.07-536.732 536.71-1251.75 859.812-2012.61 906.794z" style="fill:none;opacity:.25;stroke-width:.926594;stroke:#000"/><path d="m-0.086964 2119.27c765.541-47.0016 1485.15-371.977 2025.29-912.088 341.624-341.637 596.664-755.32 750.451-1206.73h-6.8922c-153.542 449.654-407.804 861.71-748.186 1202.11-538.914 538.892-1256.86 863.161-2020.66 910.153z" style="fill:none;opacity:.25;stroke-width:.926594;stroke:#000"/><path d="m-0.086964 2130.67c768.481-47.0097 1491.01-373.126 2033.33-915.442 343.822-343.821 600.199-760.331 754.391-1214.77h-11.9806c-153.788 451.413-408.828 865.096-750.451 1206.73-540.133 540.111-1259.74 865.086-2025.29 912.088z" style="fill:none;opacity:.25;stroke-width:.926594;stroke:#000"/><path d="m-0.086964 2137.24c770.223-47.0189 1494.42-373.842 2037.96-917.378 345.062-345.064 602.222-763.197 756.656-1219.4h-6.8922c-154.193 454.443-410.569 870.953-754.391 1214.77-542.315 542.315-1264.84 868.432-2033.33 915.442z" style="fill:none;opacity:.25;stroke-width:.926594;stroke:#000"/><path d="m-0.086964 2148.64c773.163-47.0301 1500.27-375.02 2045.98-920.739 347.246-347.248 605.753-768.204 760.591-1227.44h-11.9705c-154.434 456.205-411.594 874.339-756.656 1219.4-543.534 543.534-1267.73 870.359-2037.96 917.378z" style="fill:none;opacity:.25;stroke-width:.926594;stroke:#000"/><path d="m-0.086964 2155.19c774.904-47.0389 1503.68-375.73 2050.62-922.666 348.489-348.489 607.78-771.074 762.856-1232.07h-6.8972c-154.838 459.233-413.345 880.19-760.591 1227.44-545.718 545.718-1272.82 873.708-2045.98 920.739z" style="fill:none;opacity:.25;stroke-width:.926594;stroke:#000"/><path d="m82.4973 2160.44c746.94-64.6954 1446.45-390.225 1976.09-919.891 350.689-350.676 611.338-776.078 766.816-1240.11h-11.9958c-155.076 460.996-414.367 883.581-762.856 1232.07-546.938 546.938-1275.71 875.626-2050.62 922.666v5.2599z" style="fill:none;opacity:.25;stroke-width:.926594;stroke:#000"/><path d="m151.909 2160.44c722.56-78.3782 1396.93-400.796 1911.38-915.263 351.932-351.917 613.368-778.942 769.082-1244.73h-6.8921c-155.478 464.027-416.127 889.429-766.816 1240.11-529.646 529.666-1229.15 855.195-1976.09 919.891z" style="fill:none;opacity:.25;stroke-width:.926594;stroke:#000"/><path d="m243.782 2160.44c690.651-94.9518 1332.75-412.474 1827.49-907.199 354.102-354.116 616.889-783.973 772.997-1252.8h-11.979c-155.714 465.789-417.15 892.814-769.082 1244.73-514.448 514.468-1188.82 836.886-1911.38 915.263z" style="fill:none;opacity:.25;stroke-width:.926594;stroke:#000"/><path d="m292.758 2160.44c673.788-103.035 1298.89-418.309 1783.18-902.572 355.345-355.359 618.919-786.837 775.259-1257.42h-6.8888c-156.108 468.824-418.895 898.679-772.997 1252.8-494.746 494.725-1136.84 812.248-1827.49 907.199z" style="fill:none;opacity:.25;stroke-width:.926594;stroke:#000"/><path d="m358.792 2160.44c651.494-113.191 1254.7-423.956 1725.27-894.531 357.544-357.544 622.474-791.846 779.2-1265.46h-11.9823c-156.339 470.585-419.913 902.065-775.259 1257.42-484.282 484.263-1109.38 799.537-1783.18 902.572z" style="fill:none;opacity:.25;stroke-width:.926594;stroke:#000"/><path d="m396.622 2160.44c638.714-118.616 1229.3-427.243 1691.96-889.904 358.786-358.786 624.506-794.711 781.462-1270.09h-6.8887c-156.726 473.618-421.656 907.92-779.2 1265.46-470.573 470.575-1073.78 781.34-1725.27 894.531z" style="fill:none;opacity:.25;stroke-width:.926594;stroke:#000"/><path d="m458.433 2160.44c618.001-126.816 1188.31-431.948 1638.21-881.868 360.984-360.969 628.068-799.718 785.405-1278.13h-11.9806c-156.956 475.38-422.676 911.305-781.462 1270.09-462.661 462.661-1053.25 771.288-1691.96 889.904z" style="fill:none;opacity:.25;stroke-width:.926594;stroke:#000"/><path d="m488.157 2160.44c608.291-130.52 1169.3-433.322 1613.19-877.238 362.227-362.212 630.104-802.584 787.666-1282.76h-6.8922c-157.337 478.41-424.421 917.158-785.405 1278.13-449.902 449.92-1020.21 755.052-1638.21 881.868z" style="fill:none;opacity:.25;stroke-width:.926594;stroke:#000"/><path d="m539.666 2160.44c591.362-136.534 1136.14-435.709 1569.62-869.199 364.413-364.398 633.666-807.59 791.618-1290.8h-11.989c-157.562 480.174-425.439 920.546-787.667 1282.76-443.896 443.915-1004.9 746.717-1613.19 877.238z" style="fill:none;opacity:.25;stroke-width:.926594;stroke:#000"/><path d="m569.39 2160.44c581.686-139.745 1117.12-437.092 1544.58-864.573 365.654-365.641 635.703-810.456 793.881-1295.42h-6.8904c-157.952 483.206-427.206 926.398-791.618 1290.8-433.474 433.491-978.256 732.666-1569.62 869.199z" style="fill:none;opacity:.25;stroke-width:.926594;stroke:#000"/><path d="m618.366 2160.44c565.758-144.671 1085.93-438.87 1503.58-856.509 367.841-367.855 639.253-815.488 797.8-1303.49h-11.9823c-158.178 484.967-428.227 929.784-793.882 1295.42-427.464 427.479-962.896 724.828-1544.58 864.573z" style="fill:none;opacity:.25;stroke-width:.926594;stroke:#000"/><path d="m642.854 2160.44c558.018-146.995 1070.96-439.056 1483.81-851.883 369.082-369.098 641.298-818.351 800.066-1308.11h-6.8922c-158.547 487.999-429.958 935.633-797.8 1303.49-417.654 417.637-937.825 711.838-1503.58 856.509z" style="fill:none;opacity:.25;stroke-width:.926594;stroke:#000"/><path d="m685.244 2160.44c544.566-150.739 1044.94-439.336 1449.46-843.841 371.27-371.283 644.856-823.36 803.996-1316.16h-11.9722c-158.768 489.762-430.984 939.015-800.066 1308.11-412.844 412.827-925.788 704.888-1483.81 851.883z" style="fill:none;opacity:.25;stroke-width:.926594;stroke:#000"/><path d="m709.564 2160.44c536.865-152.742 1029.97-439.521 1429.68-839.215 372.512-372.526 646.903-826.221 806.262-1320.78h-6.8905c-159.139 492.795-432.726 944.872-803.996 1316.16-404.519 404.504-904.892 693.102-1449.46 843.841z" style="fill:none;opacity:.25;stroke-width:.926594;stroke:#000"/><path d="m752.122 2160.44c523.481-155.934 1003.93-439.801 1395.31-831.178 374.713-374.711 650.479-831.227 810.202-1328.82h-11.9773c-159.359 494.56-433.75 948.255-806.262 1320.78-399.708 399.694-892.815 686.473-1429.68 839.215z" style="fill:none;opacity:.25;stroke-width:.926594;stroke:#000"/><path d="m776.104 2160.44c515.954-157.604 989.255-439.899 1375.9-826.547 375.956-375.954 652.527-834.093 812.466-1333.45h-6.8939c-159.724 497.591-435.489 954.107-810.202 1328.82-391.375 391.377-871.825 675.244-1395.31 831.178z" style="fill:none;opacity:.25;stroke-width:.926594;stroke:#000"/><path d="m812.245 2160.44c504.852-159.985 968.067-438.781 1347.8-818.51 378.141-378.14 656.106-839.097 816.417-1341.49h-11.9891c-159.938 499.356-436.509 957.495-812.466 1333.45-386.648 386.65-859.949 668.943-1375.9 826.547z" style="fill:none;opacity:.25;stroke-width:.926594;stroke:#000"/><path d="m833.018 2160.44c498.513-161.244 955.914-438.142 1331.66-813.882 379.383-379.383 658.153-841.961 818.679-1346.11h-6.8888c-160.311 502.388-438.276 963.345-816.417 1341.49-379.729 379.731-842.944 658.524-1347.8 818.51z" style="fill:none;opacity:.25;stroke-width:.926594;stroke:#000"/><path d="m869.159 2160.44c487.485-163.23 934.743-437.004 1303.57-805.842 381.585-381.57 661.738-846.967 822.619-1354.15h-11.9807c-160.526 504.153-439.296 966.729-818.679 1346.11-375.742 375.742-833.142 652.639-1331.66 813.882z" style="fill:none;opacity:.25;stroke-width:.926594;stroke:#000"/><path d="m889.932 2160.44c481.184-164.273 922.588-436.368 1287.42-801.216 382.828-382.813 663.79-849.829 824.882-1358.78h-6.8904c-160.881 507.186-441.034 972.584-822.619 1354.15-368.824 368.838-816.081 642.612-1303.57 805.842z" style="fill:none;opacity:.25;stroke-width:.926594;stroke:#000"/><path d="m926.073 2160.44c470.239-165.89 901.437-435.233 1259.37-793.15 385-385.013 667.35-854.857 828.793-1366.85h-11.9755c-161.092 508.951-442.054 975.967-824.882 1358.78-364.833 364.847-806.237 636.943-1287.42 801.216z" style="fill:none;opacity:.25;stroke-width:.926594;stroke:#000"/><path d="m946.677 2160.44c464.031-166.718 889.399-434.564 1243.37-788.524 386.243-386.256 669.4-857.72 831.053-1371.47h-6.8871c-161.443 511.987-443.793 981.831-828.793 1366.85-357.931 357.918-789.129 627.26-1259.37 793.15z" style="fill:none;opacity:.25;stroke-width:.926594;stroke:#000"/><path d="m978.258 2160.44c454.717-167.896 871.794-432.407 1219.87-780.487 388.445-388.447 672.999-862.722 835-1379.51h-11.984c-161.652 513.752-444.81 985.215-831.053 1371.47-353.972 353.959-779.34 621.806-1243.37 788.524z" style="fill:none;opacity:.25;stroke-width:.926594;stroke:#000"/><path d="m996.329 2160.44c449.395-168.502 861.688-431.178 1206.37-775.856 389.69-389.69 675.055-865.586 837.263-1384.14h-6.8939c-162 516.787-446.555 991.064-835 1379.51-348.08 348.08-765.158 612.591-1219.87 780.487z" style="fill:none;opacity:.25;stroke-width:.926594;stroke:#000"/><path d="m1027.91 2160.44c440.139-169.414 844.076-429.03 1182.85-767.819 391.89-391.875 678.659-870.59 841.214-1392.18h-11.989c-162.208 518.553-447.573 994.45-837.263 1384.14-344.677 344.677-756.97 607.354-1206.37 775.856z" style="fill:none;opacity:.25;stroke-width:.926594;stroke:#000"/><path d="m1045.98 2160.44c434.851-169.869 833.964-427.808 1169.34-763.194 393.135-393.12 680.722-873.451 843.483-1396.8h-6.8921c-162.556 521.586-449.324 1000.3-841.215 1392.18-338.776 338.788-742.713 598.403-1182.85 767.819z" style="fill:none;opacity:.25;stroke-width:.926594;stroke:#000"/><path d="m1077.56 2160.44c425.672-170.512 816.389-425.657 1145.88-755.151 395.319-395.32 684.304-878.465 847.408-1404.84h-11.9688c-162.76 523.351-450.348 1003.68-843.483 1396.8-335.373 335.387-734.487 593.325-1169.34 763.194z" style="fill:none;opacity:.25;stroke-width:.926594;stroke:#000"/><path d="m1095.63 2160.44c420.422-170.816 806.278-424.436 1132.37-750.526 396.563-396.563 686.37-881.326 849.677-1409.47h-6.8938c-163.103 526.379-452.089 1009.53-847.408 1404.84-329.494 329.494-720.211 584.639-1145.88 755.151z" style="fill:none;opacity:.25;stroke-width:.926594;stroke:#000"/><path d="m1126.71 2160.44c411.45-171.198 789.034-422.176 1109.33-742.461 398.749-398.766 689.949-886.354 853.585-1417.53h-11.9755c-163.308 528.144-453.114 1012.91-849.677 1409.47-326.09 326.09-711.946 579.711-1132.37 750.526z" style="fill:none;opacity:.25;stroke-width:.926594;stroke:#000"/><path d="m1142.92 2160.44c406.901-171.377 780.494-420.508 1097.83-737.834 399.995-400.008 692.016-889.215 855.853-1422.16h-6.8921c-163.637 531.181-454.837 1018.77-853.585 1417.53-320.299 320.285-697.883 571.264-1109.33 742.461z" style="fill:none;opacity:.25;stroke-width:.926594;stroke:#000"/><path d="m1170.95 2160.44c398.997-171.583 765.63-417.601 1077.84-729.797 402.18-402.196 695.621-894.219 859.804-1430.2h-11.9874c-163.838 532.947-455.858 1022.15-855.853 1422.16-317.338 317.326-690.932 566.459-1097.83 737.834z" style="fill:none;opacity:.25;stroke-width:.926594;stroke:#000"/><path d="m1215.03 2160.44c386.631-171.647 742.222-413.011 1046.34-717.129 405.629-405.629 701.299-902.082 866.005-1442.87h-11.9773c-164.378 537.747-458.64 1031.39-862.065 1434.83-309.248 309.238-671.863 553.522-1066.34 725.166z" style="fill:none;opacity:.25;stroke-width:.926594;stroke:#000"/><path d="m1231.25 2160.44c382.147-171.598 733.688-411.344 1034.85-712.503 406.865-406.865 703.262-904.956 868.163-1447.49h-6.7857c-164.706 540.783-460.376 1037.24-866.005 1442.87-304.118 304.118-659.708 545.484-1046.34 717.129z" style="fill:none;opacity:.25;stroke-width:.926594;stroke:#000"/><path d="m1259.28 2160.44c374.364-171.409 718.834-408.432 1014.86-704.462 409.04-409.039 706.688-909.982 871.923-1455.53h-11.8c-164.902 542.536-461.298 1040.63-868.163 1447.49-301.159 301.159-652.7 540.905-1034.85 712.503z" style="fill:none;opacity:.25;stroke-width:.926594;stroke:#000"/><path d="m1275.32 2160.44c369.91-171.252 710.297-406.766 1003.37-699.835 410.275-410.275 708.656-912.857 874.086-1460.16h-6.7908c-165.234 545.551-462.882 1046.49-871.923 1455.53-296.03 296.03-640.501 533.052-1014.86 704.462z" style="fill:none;opacity:.25;stroke-width:.926594;stroke:#000"/><path d="m1303.36 2160.44c362.18-170.873 695.436-403.849 983.369-691.793 412.465-412.45 712.094-917.883 877.846-1468.2h-11.7999c-165.43 547.306-463.811 1049.89-874.086 1460.16-293.07 293.07-633.457 528.583-1003.37 699.835z" style="fill:none;opacity:.25;stroke-width:.926594;stroke:#000"/><path d="m1318.39 2160.44c358.114-170.65 687.77-401.94 972.986-687.167 413.702-413.686 714.064-920.756 880.009-1472.83h-6.7909c-165.751 550.32-465.38 1055.75-877.846 1468.2-287.934 287.946-621.189 520.921-983.369 691.793z" style="fill:none;opacity:.25;stroke-width:.926594;stroke:#000"/><path d="m1343.72 2160.44c351.309-170.21 675.066-398.429 955.755-679.106 415.86-415.875 717.485-925.8 883.76-1480.89h-11.8118c-165.945 552.073-466.307 1059.14-880.009 1472.83-285.216 285.226-614.873 516.516-972.986 687.167z" style="fill:none;opacity:.25;stroke-width:.926594;stroke:#000"/><path d="m1358.25 2160.44c347.418-169.918 667.764-396.416 945.833-674.475 417.096-417.113 719.456-928.676 885.922-1485.52h-6.7926c-166.275 555.09-467.9 1065.01-883.76 1480.89-280.689 280.677-604.446 508.896-955.755 679.106z" style="fill:none;opacity:.25;stroke-width:.926594;stroke:#000"/><path d="m1383.58 2160.44c340.663-169.328 655.057-392.909 928.587-666.438 419.287-419.288 722.905-933.699 889.684-1493.56h-11.8c-166.466 556.844-468.825 1068.41-885.922 1485.52-278.069 278.059-598.415 504.558-945.833 674.475z" style="fill:none;opacity:.25;stroke-width:.926594;stroke:#000"/><path d="m1398.1 2160.44c336.797-168.953 647.751-390.902 918.663-661.812 420.524-420.524 724.879-936.57 891.849-1498.18h-6.7891c-166.78 559.859-470.398 1074.27-889.684 1493.56-273.53 273.53-587.924 497.11-928.587 666.438z" style="fill:none;opacity:.25;stroke-width:.926594;stroke:#000"/><path d="m1423.44 2160.44c330.092-168.219 635.039-387.394 901.406-653.772 422.715-422.698 728.331-941.596 895.614-1506.22h-11.805c-166.97 561.614-471.325 1077.66-891.849 1498.18-270.912 270.912-581.866 492.861-918.663 661.812z" style="fill:none;opacity:.25;stroke-width:.926594;stroke:#000"/><path d="m1437.96 2160.44c326.257-167.761 627.738-385.385 891.49-649.146 423.951-423.936 730.303-944.469 897.774-1510.85h-6.7875c-167.283 564.628-472.899 1083.52-895.614 1506.22-266.367 266.377-571.314 485.553-901.406 653.772z" style="fill:none;opacity:.25;stroke-width:.926594;stroke:#000"/><path d="m1463.12 2160.44c319.604-166.889 615.033-381.884 874.255-641.104 426.126-426.126 733.745-949.498 901.528-1518.89h-11.7983c-167.47 566.383-473.823 1086.92-897.774 1510.85-263.751 263.761-565.233 481.384-891.49 649.146z" style="fill:none;opacity:.25;stroke-width:.926594;stroke:#000"/><path d="m1477.65 2160.44c315.801-166.351 607.734-379.874 864.336-636.476 427.363-427.363 735.723-952.371 903.692-1523.52h-6.7875c-167.783 569.394-475.402 1092.76-901.528 1518.89-259.222 259.22-554.65 474.214-874.255 641.104z" style="fill:none;opacity:.25;stroke-width:.926594;stroke:#000"/><path d="m1502.98 2160.44c309.227-165.347 595.105-376.339 847.191-628.417 429.54-429.555 739.168-957.415 907.449-1531.58h-11.8185c-167.969 571.147-476.329 1096.16-903.692 1523.52-256.602 256.602-548.535 470.126-864.336 636.476z" style="fill:none;opacity:.25;stroke-width:.926594;stroke:#000"/><path d="m1516.15 2160.44c305.832-164.811 588.802-374.058 838.539-623.786 430.776-430.791 741.146-960.29 909.608-1536.21h-6.7892c-168.281 574.165-477.91 1102.03-907.449 1531.58-252.086 252.076-537.965 463.07-847.191 628.417z" style="fill:none;opacity:.25;stroke-width:.926594;stroke:#000"/><path d="m1539.29 2160.44c299.948-163.822 577.845-370.089 823.514-615.749 432.951-432.966 744.596-965.312 913.367-1544.25h-11.7965c-168.462 575.92-478.832 1105.42-909.608 1536.21-249.737 249.729-532.708 458.974-838.54 623.786z" style="fill:none;opacity:.25;stroke-width:.926594;stroke:#000"/><path d="m1552.63 2160.44c296.579-163.223 571.541-367.809 814.862-611.122 434.187-434.204 746.579-968.185 915.53-1548.87h-6.7909c-168.771 578.934-480.416 1111.28-913.367 1544.25-245.669 245.66-523.566 451.927-823.514 615.749z" style="fill:none;opacity:.25;stroke-width:.926594;stroke:#000"/><path d="m1575.6 2160.44c290.736-162.12 560.572-363.835 799.818-603.081 436.379-436.379 750.038-973.211 919.29-1556.91h-11.7999c-168.952 580.689-481.343 1114.67-915.53 1548.87-243.321 243.313-518.283 447.899-814.862 611.122z" style="fill:none;opacity:.25;stroke-width:.926594;stroke:#000"/><path d="m1588.94 2160.44c287.392-161.459 554.267-361.555 791.166-598.454 437.616-437.616 752.022-976.082 921.453-1561.54h-6.7909c-169.252 583.704-482.91 1120.54-919.29 1556.91-239.246 239.246-509.082 440.961-799.818 603.081z" style="fill:none;opacity:.25;stroke-width:.926594;stroke:#000"/><path d="m1611.91 2160.44c281.594-160.249 543.305-357.586 776.132-590.413 439.792-439.792 755.474-981.108 925.206-1569.58h-11.7931c-169.431 585.458-483.838 1123.93-921.453 1561.54-236.899 236.899-503.774 436.996-791.166 598.454z" style="fill:none;opacity:.25;stroke-width:.926594;stroke:#000"/><path d="m1625.25 2160.44c278.275-159.526 537.002-355.307 767.482-585.786 441.029-441.029 757.46-983.981 927.369-1574.21h-6.7908c-169.732 588.476-485.413 1129.79-925.206 1569.58-232.827 232.827-494.538 430.164-776.132 590.413z" style="fill:none;opacity:.25;stroke-width:.926594;stroke:#000"/><path d="m1648.39 2160.44c272.513-158.213 526.018-351.343 752.419-577.75 443.223-443.207 760.942-988.997 931.152-1582.25h-11.8202c-169.909 590.229-486.34 1133.18-927.369 1574.21-230.479 230.479-489.206 426.26-767.482 585.786z" style="fill:none;opacity:.25;stroke-width:.926594;stroke:#000"/><path d="m1661.73 2160.44c269.22-157.428 519.712-349.061 743.762-573.118 444.462-444.447 762.932-991.874 933.317-1586.88h-6.7891c-170.21 593.247-487.93 1139.04-931.152 1582.25-226.401 226.408-479.906 419.538-752.419 577.75z" style="fill:none;opacity:.25;stroke-width:.926594;stroke:#000"/><path d="m1684.7 2160.44c263.505-156.003 508.738-345.082 728.714-565.059 446.637-446.636 766.384-996.916 937.058-1594.94h-11.805c-170.385 595.002-488.855 1142.43-933.317 1586.88-224.05 224.058-474.542 415.691-743.762 573.118z" style="fill:none;opacity:.25;stroke-width:.926594;stroke:#000"/><path d="m1698.04 2160.44c260.24-155.159 502.437-342.804 720.066-560.433 447.874-447.874 768.368-999.788 939.215-1599.56h-6.7841c-170.674 598.02-490.42 1148.3-937.058 1594.94-219.976 219.976-465.21 409.056-728.714 565.059z" style="fill:none;opacity:.25;stroke-width:.926594;stroke:#000"/><path d="m1720 2160.44c254.919-153.745 492.422-338.587 706.226-552.391 450.05-450.051 771.834-1004.81 942.97-1607.6h-11.7965c-170.846 599.775-491.341 1151.69-939.215 1599.56-217.629 217.629-459.826 405.273-720.066 560.433z" style="fill:none;opacity:.25;stroke-width:.926594;stroke:#000"/><path d="m1732.16 2160.44c251.972-152.939 486.94-336.091 698.614-547.765 451.287-451.288 773.821-1007.69 945.131-1612.23h-6.7874c-171.137 602.791-492.92 1157.55-942.971 1607.6-213.804 213.804-451.307 398.647-706.226 552.391z" style="fill:none;opacity:.25;stroke-width:.926594;stroke:#000"/><path d="m1753.44 2160.44c246.858-151.492 477.401-331.742 685.375-539.723 453.481-453.464 777.299-1012.71 948.893-1620.27h-11.8033c-171.309 604.546-493.844 1160.94-945.131 1612.23-211.674 211.674-446.642 394.826-698.614 547.765z" style="fill:none;opacity:.25;stroke-width:.926594;stroke:#000"/><path d="m1765.6 2160.44c243.934-150.637 471.921-329.246 677.765-535.097 454.717-454.702 779.29-1015.58 951.053-1624.9h-6.7875c-171.595 607.564-495.413 1166.81-948.893 1620.27-207.974 207.981-438.517 388.232-685.375 539.723z" style="fill:none;opacity:.25;stroke-width:.926594;stroke:#000"/><path d="m1786.87 2160.44c238.864-149.111 462.394-324.906 664.548-527.06 456.892-456.892 782.767-1020.61 954.826-1632.94h-11.8101c-171.764 609.318-496.337 1170.2-951.053 1624.9-205.844 205.851-433.831 384.459-677.765 535.097z" style="fill:none;opacity:.25;stroke-width:.926594;stroke:#000"/><path d="m1799.2 2160.44c235.958-148.208 456.909-322.408 656.93-522.429 458.13-458.13 784.76-1023.49 956.986-1637.57h-6.7909c-172.059 612.324-497.934 1176.04-954.826 1632.94-202.154 202.152-425.684 377.949-664.548 527.06z" style="fill:none;opacity:.25;stroke-width:.926594;stroke:#000"/><path d="m1820.48 2160.44c230.924-146.591 447.37-318.052 643.695-514.368 460.307-460.322 788.222-1028.53 960.724-1645.63h-11.7982c-172.226 614.081-498.856 1179.44-956.986 1637.57-200.021 200.021-420.972 374.22-656.93 522.429z" style="fill:none;opacity:.25;stroke-width:.926594;stroke:#000"/><path d="m1832.64 2160.44c228.044-145.643 441.892-315.558 636.083-509.742 461.545-461.56 790.218-1031.4 962.889-1650.25h-6.7892c-172.502 617.099-500.417 1185.31-960.724 1645.63-196.324 196.316-412.771 367.777-643.695 514.368z" style="fill:none;opacity:.25;stroke-width:.926594;stroke:#000"/><path d="m1853.92 2160.44c223.05-143.95 432.358-311.213 622.853-501.7 463.723-463.74 793.694-1036.42 966.641-1658.3h-11.7966c-172.67 618.853-501.344 1188.69-962.889 1650.25-194.191 194.186-408.039 364.1-636.083 509.742z" style="fill:none;opacity:.25;stroke-width:.926594;stroke:#000"/><path d="m1866.25 2160.44c220.193-142.956 426.88-308.718 615.241-497.075 464.963-464.978 795.692-1039.29 968.808-1662.92h-6.7925c-172.947 621.873-502.918 1194.56-966.641 1658.3-190.494 190.488-399.802 357.75-622.853 501.7z" style="fill:none;opacity:.25;stroke-width:.926594;stroke:#000"/><path d="m1887.53 2160.44c215.231-141.185 417.329-304.376 601.987-489.032 467.153-467.155 799.19-1044.32 972.583-1670.96h-11.8168c-173.116 623.628-503.845 1197.94-968.808 1662.92-188.361 188.356-395.048 354.119-615.241 497.074z" style="fill:none;opacity:.25;stroke-width:.926594;stroke:#000"/><path d="m1899.69 2160.44c212.397-140.145 411.849-301.88 594.375-484.407 468.393-468.393 801.189-1047.19 974.746-1675.59h-6.7875c-173.393 626.644-505.429 1203.81-972.583 1670.96-184.658 184.658-386.756 347.847-601.987 489.032z" style="fill:none;opacity:.25;stroke-width:.926594;stroke:#000"/><path d="m1920.97 2160.44c207.486-138.298 402.324-297.542 581.152-476.371 470.57-470.57 804.672-1052.21 978.504-1683.62h-11.7949c-173.557 628.4-506.353 1207.2-974.746 1675.59-182.526 182.526-381.978 344.262-594.375 484.407z" style="fill:none;opacity:.25;stroke-width:.926594;stroke:#000"/><path d="m1932.45 2160.44c204.868-137.295 397.431-294.892 574.278-471.74 471.808-471.808 806.668-1055.08 980.66-1688.26h-6.7875c-173.832 631.415-507.934 1213.05-978.504 1683.62-178.828 178.828-373.666 338.072-581.152 476.371z" style="fill:none;opacity:.25;stroke-width:.926594;stroke:#000"/><path d="m1952.21 2160.44c200.389-135.544 389.094-290.242 562.548-463.701 474.002-473.985 810.164-1060.11 984.425-1696.29h-11.8016c-173.993 633.171-508.852 1216.45-980.66 1688.26-176.847 176.847-369.41 334.444-574.278 471.74z" style="fill:none;opacity:.25;stroke-width:.926594;stroke:#000"/><path d="m1963.7 2160.44c197.827-134.52 384.304-287.569 555.806-459.076 475.24-475.223 812.163-1062.98 986.583-1700.92h-6.7857c-174.261 636.186-510.423 1222.31-984.425 1696.29-173.454 173.459-362.158 328.158-562.548 463.701z" style="fill:none;opacity:.25;stroke-width:.926594;stroke:#000"/><path d="m1983.46 2160.44c193.377-132.697 375.959-282.904 544.065-451.011 477.416-477.416 815.639-1068.02 990.322-1708.99h-11.8033c-174.42 637.941-511.344 1225.7-986.583 1700.92-171.502 171.507-357.978 324.556-555.806 459.076z" style="fill:none;opacity:.25;stroke-width:.926594;stroke:#000"/><path d="m1994.77 2160.44c190.834-131.635 371.168-280.231 537.321-446.384 478.654-478.654 817.64-1070.9 992.484-1713.62h-6.7892c-174.684 640.96-512.906 1231.57-990.322 1708.99-168.106 168.106-350.688 318.314-544.065 451.011z" style="fill:none;opacity:.25;stroke-width:.926594;stroke:#000"/><path d="m2014.53 2160.44c186.426-129.757 362.835-275.583 525.594-438.344 480.833-480.833 821.139-1075.92 996.254-1721.65h-11.8101c-174.844 642.715-513.83 1234.96-992.484 1713.62-166.153 166.153-346.487 314.749-537.321 446.384z" style="fill:none;opacity:.25;stroke-width:.926594;stroke:#000"/><path d="m2026.01 2160.44c183.901-128.659 358.042-272.91 518.849-433.716 482.071-482.071 823.142-1078.79 998.415-1726.28h-6.7892c-175.114 645.731-515.42 1240.82-996.253 1721.65-162.759 162.759-339.168 308.587-525.594 438.344z" style="fill:none;opacity:.25;stroke-width:.926594;stroke:#000"/><path d="m2045.77 2160.44c179.522-126.718 349.703-268.264 507.113-425.679 484.266-484.251 826.647-1083.81 1002.18-1734.32h-11.7982c-175.273 647.486-516.344 1244.21-998.415 1726.28-160.806 160.805-334.948 305.057-518.849 433.716z" style="fill:none;opacity:.25;stroke-width:.926594;stroke:#000"/><path d="m2057.09 2160.44c177.016-125.584 344.907-265.589 500.363-421.048 485.504-485.489 828.653-1086.69 1004.34-1738.95h-6.7942c-175.53 650.506-517.91 1250.07-1002.18 1734.32-157.41 157.415-327.591 298.962-507.113 425.679z" style="fill:none;opacity:.25;stroke-width:.926594;stroke:#000"/><path d="m2076.85 2160.44c172.679-123.582 336.584-260.943 488.654-413.011 487.681-487.681 832.144-1091.72 1008.09-1746.99h-11.7882c-175.687 652.262-518.835 1253.46-1004.34 1738.95-155.456 155.46-323.347 295.464-500.363 421.048z" style="fill:none;opacity:.25;stroke-width:.926594;stroke:#000"/><path d="m2088.16 2160.44c170.194-122.414 331.791-258.273 481.905-408.385 488.921-488.921 834.155-1094.58 1010.26-1751.61h-6.7909c-175.947 655.27-520.409 1259.3-1008.09 1746.99-152.07 152.068-315.975 289.428-488.654 413.011z" style="fill:none;opacity:.25;stroke-width:.926594;stroke:#000"/><path d="m2108.09 2160.44c165.88-120.344 323.447-253.608 470.163-400.319 491.1-491.115 837.638-1099.63 1013.99-1759.67h-11.8016c-176.102 657.025-521.336 1262.69-1010.26 1751.61-150.114 150.114-311.711 285.973-481.905 408.385z" style="fill:none;opacity:.25;stroke-width:.926594;stroke:#000"/><path d="m2119.41 2160.44c163.412-119.141 318.652-250.938 463.414-395.695 492.337-492.353 839.647-1102.5 1016.15-1764.3h-6.7874c-176.356 660.043-522.894 1268.56-1013.99 1759.67-146.716 146.712-304.283 279.976-470.163 400.319z" style="fill:none;opacity:.25;stroke-width:.926594;stroke:#000"/><path d="m2139.17 2160.44c159.138-117.02 310.319-246.289 451.685-387.651 494.516-494.531 843.155-1107.53 1019.92-1772.34h-11.8117c-176.507 661.799-523.817 1271.95-1016.15 1764.3-144.762 144.757-300.002 276.554-463.414 395.695z" style="fill:none;opacity:.25;stroke-width:.926594;stroke:#000"/><path d="m2150.65 2160.44c156.692-115.783 305.526-243.618 444.94-383.027 495.754-495.771 845.165-1110.4 1022.09-1776.96h-6.7874c-176.769 664.815-525.408 1277.81-1019.92 1772.34-141.366 141.362-292.548 270.632-451.685 387.651z" style="fill:none;opacity:.25;stroke-width:.926594;stroke:#000"/><path d="m2169.4 2160.44c152.696-113.736 297.986-238.775 434.201-374.99 497.948-497.948 848.678-1115.42 1025.85-1785h-11.7983c-176.921 666.57-526.332 1281.2-1022.09 1776.96-139.414 139.409-288.248 267.244-444.94 383.027z" style="fill:none;opacity:.25;stroke-width:.926594;stroke:#000"/><path d="m2180.04 2160.44c150.445-112.564 293.775-235.953 428.182-370.359 499.187-499.187 850.686-1118.3 1028-1789.63h-6.7875c-177.169 669.585-527.899 1287.06-1025.85 1785-136.215 136.215-281.504 261.253-434.201 374.99z" style="fill:none;opacity:.25;stroke-width:.926594;stroke:#000"/><path d="m2198.44 2160.44c146.546-110.503 286.454-231.054 417.718-362.322 501.383-501.368 854.204-1123.31 1031.77-1797.67h-11.8033c-177.318 671.343-528.816 1290.45-1028 1789.63-134.406 134.406-277.736 257.795-428.182 370.359z" style="fill:none;opacity:.25;stroke-width:.926594;stroke:#000"/><path d="m2209.08 2160.44c144.315-109.304 282.247-228.235 411.704-357.695 502.622-502.607 856.218-1126.18 1033.93-1802.3h-6.7908c-177.566 674.361-530.387 1296.31-1031.77 1797.67-131.263 131.268-271.172 251.818-417.718 362.322z" style="fill:none;opacity:.25;stroke-width:.926594;stroke:#000"/><path d="m2227.66 2160.44c140.449-107.194 274.933-223.334 401.248-349.654 504.801-504.784 859.721-1131.21 1037.68-1810.34h-11.7898c-177.715 676.117-531.311 1299.69-1033.93 1802.3-129.456 129.46-267.389 248.39-411.704 357.695z" style="fill:none;opacity:.25;stroke-width:.926594;stroke:#000"/><path d="m2238.3 2160.44c138.232-105.967 270.724-220.515 395.232-345.027 506.041-506.024 861.737-1134.08 1039.85-1814.96h-6.7925c-177.962 679.132-532.881 1305.56-1037.68 1810.34-126.315 126.32-260.799 242.46-401.248 349.654z" style="fill:none;opacity:.25;stroke-width:.926594;stroke:#000"/><path d="m2256.88 2160.44c134.386-103.802 263.393-215.601 384.755-336.962 508.218-508.219 865.24-1139.13 1043.6-1823.04h-11.8118c-178.11 680.888-533.807 1308.94-1039.85 1814.96-124.508 124.511-257.001 239.059-395.232 345.027z" style="fill:none;opacity:.25;stroke-width:.926594;stroke:#000"/><path d="m2267.52 2160.44h18.4894c128.381-100.343 251.874-207.884 368.287-324.298 511.637-511.637 870.769-1147.02 1049.52-1835.7h-11.7932c-178.5 685.661-536.301 1318.2-1045.76 1827.66-119.553 119.553-246.55 229.787-378.739 332.335z" style="fill:none;opacity:.25;stroke-width:.926594;stroke:#000"/><path d="m2267.52 2160.44c132.189-102.548 259.186-212.782 378.739-332.335 509.459-509.459 867.26-1142 1045.76-1827.66h-6.7908c-178.355 683.906-535.378 1314.81-1043.6 1823.04-121.362 121.361-250.369 233.16-384.755 336.962z" style="fill:none;opacity:.25;stroke-width:.926594;stroke:#000"/><path d="m3710.46 0.450247h-6.7891c-178.747 688.675-537.879 1324.06-1049.52 1835.7-116.414 116.413-239.906 223.955-368.287 324.298h10.6515c126.199-99.0601 247.663-205.064 362.266-319.667 512.877-512.877 872.786-1149.9 1051.67-1840.33z" style="fill:none;opacity:.25;stroke-width:.926594;stroke:#000"/><path d="m3710.46 0.450247c-178.889 690.433-538.797 1327.45-1051.67 1840.33-114.603 114.604-236.068 220.606-362.266 319.667h1543.39v-2159.99z" style="fill:none;opacity:.25;stroke-width:.926594;stroke:#000"/></svg>
