<?xml version="1.0" encoding="UTF-8"?>
<svg fill="none" version="1.1" viewBox="0 0 22 22" xmlns="http://www.w3.org/2000/svg">
 <defs>
  <style id="current-color-scheme" type="text/css">.ColorScheme-Text { color:#8a8a8a; }</style>
 </defs>
 <path class="ColorScheme-Text" d="m11.0096 2.0625c0.672851 0.00733 1.34295 0.085253 2.00022 0.231923a0.687519 0.687519 0 0 1 0.533515 0.594933l0.155837 1.39979a1.2687 1.2687 0 0 0 1.76647 1.02303l1.28429-0.563766a0.687519 0.687519 0 0 1 0.779187 0.159504 8.97625 8.97625 0 0 1 2.02039 3.4761 0.687519 0.687519 0 0 1-0.248424 0.756271l-1.13853 0.83969a1.26595 1.26595 0 0 0 0 2.04056l1.13945 0.838773a0.687519 0.687519 0 0 1 0.249341 0.757188 8.98083 8.98083 0 0 1-2.02039 3.4761 0.687519 0.687519 0 0 1-0.777353 0.160421l-1.28979-0.565599a1.26504 1.26504 0 0 0-1.76555 1.0212l-0.154922 1.39887a0.687519 0.687519 0 0 1-0.524348 0.5931 8.72508 8.72508 0 0 1-4.03895 0 0.687519 0.687519 0 0 1-0.524348-0.5931l-0.154004-1.39704a1.26687 1.26687 0 0 0-1.76555-1.01753l-1.28887 0.564682a0.687519 0.687519 0 0 1-0.778272-0.160421 8.98175 8.98175 0 0 1-2.02039-3.47976 0.687519 0.687519 0 0 1 0.24934-0.757188l1.13945-0.839689a1.26504 1.26504 0 0 0 0-2.04056l-1.13945-0.837857a0.687519 0.687519 0 0 1-0.248424-0.757188 8.97717 8.97717 0 0 1 2.02039-3.4761 0.687519 0.687519 0 0 1 0.779188-0.159504l1.28337 0.563766a1.27145 1.27145 0 0 0 1.76922-1.02486l0.155838-1.39887a0.687519 0.687519 0 0 1 0.534432-0.59585c0.657268-0.145754 1.3292-0.222756 2.01764-0.231006zm0 1.37504a8.37398 8.37398 0 0 0-1.2412 0.107253l-0.0999193 0.895608a2.64557 2.64557 0 0 1-3.68877 2.13223l-0.82319-0.361177a7.60213 7.60213 0 0 0-1.2357 2.12398l0.73152 0.538098a2.64099 2.64099 0 0 1 0 4.2562l-0.732437 0.539016c0.293342 0.771855 0.711353 1.49054 1.2357 2.12856l0.829606-0.363926a2.64191 2.64191 0 0 1 3.68235 2.12489l0.100836 0.902024c0.814939 0.137504 1.64821 0.137504 2.46315 0l0.100835-0.902024a2.64099 2.64099 0 0 1 3.68327-2.12856l0.829606 0.36301a7.60488 7.60488 0 0 0 1.23478-2.12489l-0.73152-0.539013a2.64099 2.64099 0 0 1 0-4.2562l0.729689-0.538098a7.60213 7.60213 0 0 0-1.2357-2.12398l-0.821356 0.36026a2.64374 2.64374 0 0 1-3.68785-2.13039l-0.100836-0.894692a8.23923 8.23923 0 0 0-1.22195-0.107253zm-0.011 4.12511a3.4376 3.4376 0 1 1 0 6.87519 3.4376 3.4376 0 0 1 0-6.87519zm0 1.37504a2.06256 2.06256 0 1 0 0 4.12512 2.06256 2.06256 0 0 0 0-4.12512z" fill="currentColor"/>
</svg>
