<?xml version="1.0" encoding="UTF-8"?>
<svg xmlns="http://www.w3.org/2000/svg"
     xmlns:cc="http://web.resource.org/cc/"
     xmlns:dc="http://purl.org/dc/elements/1.1/"
     xmlns:inkscape="http://www.inkscape.org/namespaces/inkscape"
     xmlns:rdf="http://www.w3.org/1999/02/22-rdf-syntax-ns#"
     xmlns:sodipodi="http://sodipodi.sourceforge.net/DTD/sodipodi-0.dtd"
     xmlns:spdx="http://spdx.org/rdf/terms#"
     xmlns:xlink="http://www.w3.org/1999/xlink"
     width="144" height="56"
     viewBox="0 0 144 56">
 <sodipodi:namedview
     inkscape:current-layer="layer1">
  <inkscape:grid
     color="#0099e5"
     opacity=".15"
     spacingx="1"
     spacingy="1"
     units="px"/>
 </sodipodi:namedview>
 <metadata>
  <rdf:RDF>
   <cc:Work rdf:about="Plasma theme element">
    <dc:source>https://github.com/ekaaty/vinyl-theme</dc:source>
    <dc:description>Part of Vinyl Plasma theme</dc:description>
    <spdx:FileCopyrightText>2025 Ekaaty KDE SIG</spdx:FileCopyrightText>
    <spdx:LicenseIdentifier>GPL-3.0</spdx:LicenseIdentifier>
   </cc:Work>
  </rdf:RDF>
 </metadata>
 <defs>
  <style id="current-color-scheme" type="text/css">
   .ColorScheme-Background { color: #eff0f1; }
   .ColorScheme-Text       { color: #7d7d7d; }
  </style>
  <linearGradient id="shadow-corner" gradientUnits="userSpaceOnUse">
   <stop offset="0"/>
   <stop style="stop-opacity:.2" offset=".28571"/>
   <stop style="stop-opacity:.1" offset=".52381"/>
   <stop style="stop-opacity:.05" offset=".64286"/>
   <stop style="stop-opacity:.025" offset=".70238"/>
   <stop style="stop-opacity:0" offset="1"/>
  </linearGradient>
  <linearGradient id="shadow-side" gradientUnits="userSpaceOnUse">
   <stop style="stop-opacity:.2" offset="0"/>
   <stop style="stop-opacity:.1" offset=".33333"/>
   <stop style="stop-opacity:.05" offset=".5"/>
   <stop style="stop-opacity:.025" offset=".58333"/>
   <stop style="stop-opacity:0" offset="1"/>
  </linearGradient>
  <linearGradient id="linearGradient19" x1="24" x2="20" y1="36" y2="36" gradientUnits="userSpaceOnUse" inkscape:collect="always" xlink:href="#shadow-side"/>
  <radialGradient id="radialGradient23" cx="100.5" cy="47.5" r="4" gradientTransform="matrix(0 -1.75 1.75 0 15.875 222.88)" gradientUnits="userSpaceOnUse" inkscape:collect="always" xlink:href="#shadow-corner"/>
  <radialGradient id="radialGradient25" cx="133" cy="47" r="4" gradientTransform="matrix(1.75 3.75e-7 -4.0042e-7 1.75 -171.75 -63.25)" gradientUnits="userSpaceOnUse" inkscape:collect="always" xlink:href="#shadow-corner"/>
  <radialGradient id="radialGradient26" cx="132.5" cy="79" r="4" gradientTransform="matrix(0 1.75 -1.75 0 199.25 -178.88)" gradientUnits="userSpaceOnUse" inkscape:collect="always" xlink:href="#shadow-corner"/>
  <radialGradient id="radialGradient24" cx="100.5" cy="79.5" r="4" gradientTransform="matrix(-1.75 0 0 -1.75 202.88 192.12)" gradientUnits="userSpaceOnUse" inkscape:collect="always" xlink:href="#shadow-corner"/>
  <linearGradient id="linearGradient8" x1="44" x2="44" y1="16" y2="12" gradientUnits="userSpaceOnUse" inkscape:collect="always" xlink:href="#shadow-side"/>
  <linearGradient id="linearGradient16" x1="64" x2="68.172" y1="36" y2="36" gradientUnits="userSpaceOnUse" inkscape:collect="always" xlink:href="#shadow-side"/>
  <linearGradient id="linearGradient10" x1="44" x2="44" y1="56" y2="60" gradientUnits="userSpaceOnUse" inkscape:collect="always" xlink:href="#shadow-side"/>
 </defs>
 <g id="normal" transform="translate(-20,-8)">
  <g id="center" class="ColorScheme-Background" fill="currentColor" opacity=".75">
   <rect x="28" y="20" width="32" height="32"/>
  </g>
  <g id="topleft" class="ColorScheme-Background" fill="currentColor" opacity=".75">
   <path d="m26 17a1 1 0 0 0-1 1v2h3v-3h-1z"/>
   <path d="m26 16a2 2 0 0 0-2 2v2h1v-2a1 1 0 0 1 1-1h2v-1z"/>
  </g>
  <g id="topright" class="ColorScheme-Background" fill="currentColor" opacity=".75">
   <path d="m63 18a1 1 0 0 0-1-1h-2v3h3v-1z"/>
   <path d="m64 18a2 2 0 0 0-2-2h-2v1h2a1 1 0 0 1 1 1v2h1z"/>
  </g>
  <g id="bottomright" class="ColorScheme-Background" fill="currentColor" opacity=".75">
   <path d="m62 55a1 1 0 0 0 1-1v-2h-3v3h1z"/>
   <path d="m62 56a2 2 0 0 0 2-2v-2h-1v2a1 1 0 0 1-1 1h-2v1z"/>
  </g>
  <g id="bottomleft" class="ColorScheme-Background" fill="currentColor" opacity=".75">
   <path d="m25 54a1 1 0 0 0 1 1h2v-3h-3v1z"/>
   <path d="m24 54a2 2 0 0 0 2 2h2v-1h-2a1 1 0 0 1-1-1v-2h-1z"/>
  </g>
  <g id="top" class="ColorScheme-Background" fill="currentColor" opacity=".75">
   <rect x="28" y="17" width="32" height="3"/>
   <rect x="28" y="16" width="32" height="1"/>
  </g>
  <g id="left" class="ColorScheme-Background" fill="currentColor" opacity=".75">
   <rect x="25" y="20" width="3" height="32"/>
   <rect x="24" y="20" width="1" height="32"/>
  </g>
  <g id="right" class="ColorScheme-Background" fill="currentColor" opacity=".75">
   <rect x="60" y="20" width="3" height="32"/>
   <rect x="63" y="20" width="1" height="32"/>
  </g>
  <g id="bottom" class="ColorScheme-Background" fill="currentColor" opacity=".75">
   <rect x="28" y="52" width="32" height="3"/>
   <rect x="28" y="55" width="32" height="1"/>
  </g>
  <rect id="hint-tile-center" x="42" y="34" width="4" height="4" fill="#f60"/>
  <rect id="hint-top-margin" x="42" y="16" width="4" height="4" fill="#800080"/>
  <rect id="hint-bottom-margin" x="42" y="52" width="4" height="4" fill="#800080"/>
  <rect id="hint-left-margin" x="24" y="34" width="4" height="4" fill="#800080"/>
  <rect id="hint-right-margin" x="60" y="34" width="4" height="4" fill="#800080"/>
  <rect id="hint-left-inset" x="28.9" y="34" width=".1" height="4" fill="#00f"/>
  <rect id="hint-right-inset" x="59.1" y="34" width=".1" height="4" fill="#00f"/>
  <rect id="hint-top-inset" transform="rotate(90)" x="20.9" y="-46" width=".1" height="4" fill="#00f"/>
  <rect id="hint-bottom-inset" transform="rotate(90)" x="51.1" y="-46" width=".1" height="4" fill="#00f"/>
 </g>
 <g id="mask" transform="translate(20,-8)">
  <g id="mask-center" transform="translate(56)">
   <rect x="28" y="20" width="32" height="32"/>
  </g>
  <g id="mask-topleft" transform="translate(56)">
   <path d="m26 17a1 1 0 0 0-1 1v2h3v-3h-1z"/>
  </g>
  <g id="mask-topright" transform="translate(56)">
   <path d="m63 18a1 1 0 0 0-1-1h-2v3h3v-1z"/>
  </g>
  <g id="mask-bottomright" transform="translate(56)">
   <path d="m62 55a1 1 0 0 0 1-1v-2h-3v3h1z"/>
  </g>
  <g id="mask-bottomleft" transform="translate(56)">
   <path d="m25 54a1 1 0 0 0 1 1h2v-3h-3v1z"/>
  </g>
  <g id="mask-top" transform="translate(56)">
   <rect x="28" y="17" width="32" height="3"/>
   <rect x="28" y="16" width="32" height="1"/>
  </g>
  <g id="mask-left" transform="translate(56)">
   <rect x="25" y="20" width="3" height="32"/>
   <rect x="24" y="20" width="1" height="32"/>
  </g>
  <g id="mask-right" transform="translate(56)">
   <rect x="60" y="20" width="3" height="32"/>
   <rect x="63" y="20" width="1" height="32"/>
  </g>
  <g id="mask-bottom" transform="translate(56)">
   <rect x="28" y="52" width="32" height="3"/>
   <rect x="28" y="55" width="32" height="1"/>
  </g>
 </g>
 <g id="shadow" transform="translate(0,-39)">
  <g id="shadow-center" transform="translate(28,31)">
   <rect x="28" y="20" width="32" height="32" fill="none"/>
  </g>
  <g id="shadow-topleft" transform="translate(28,31)">
   <path transform="translate(-72,-28)" d="m95.131 40c-1.7343 0-3.1309 1.3966-3.1309 3.1309v4.8691h4v-2c0-1.108 0.892-2 2-2h2v-4z" fill="url(#radialGradient23)"/>
   <path d="m26 17a1 1 0 0 0-1 1v2h3v-3h-1z" fill="none"/>
   <path d="m26 16a2 2 0 0 0-2 2v2h1v-2a1 1 0 0 1 1-1h2v-1z" fill="none"/>
  </g>
  <g id="shadow-topright" transform="translate(28,31)">
   <path d="m60 12v4h2c1.108 0 2 0.892 2 2v2h4v-4.8691c0-1.7343-1.3966-3.1309-3.1309-3.1309z" fill="url(#radialGradient25)"/>
   <path d="m63 18a1 1 0 0 0-1-1h-2v3h3v-1z" fill="none"/>
   <path d="m64 18a2 2 0 0 0-2-2h-2v1h2a1 1 0 0 1 1 1v2h1z" fill="none"/>
  </g>
  <g id="shadow-bottomright" transform="translate(28,31)">
   <path d="m64 52v2c0 1.108-0.892 2-2 2h-2v4h4.8691c1.7343 0 3.1309-1.3966 3.1309-3.1309v-4.8691z" fill="url(#radialGradient26)"/>
   <path d="m62 55a1 1 0 0 0 1-1v-2h-3v3h1z" fill="none"/>
   <path d="m62 56a2 2 0 0 0 2-2v-2h-1v2a1 1 0 0 1-1 1h-2v1z" fill="none"/>
  </g>
  <g id="shadow-bottomleft" transform="translate(28,31)">
   <path d="m20 52v4.8691c0 1.7343 1.3966 3.1309 3.1309 3.1309h4.8691v-4h-2c-1.108 0-2-0.892-2-2v-2z" fill="url(#radialGradient24)"/>
   <path d="m25 54a1 1 0 0 0 1 1h2v-3h-3v1z" fill="none"/>
   <path d="m24 54a2 2 0 0 0 2 2h2v-1h-2a1 1 0 0 1-1-1v-2h-1z" fill="none"/>
  </g>
  <g id="shadow-top" transform="translate(28,31)">
   <rect x="28" y="12" width="32" height="4" fill="url(#linearGradient8)" opacity=".8"/>
   <rect x="28" y="17" width="32" height="3" fill="none"/>
   <rect x="28" y="16" width="32" height="1" fill="none"/>
  </g>
  <g id="shadow-left" transform="translate(28,31)">
   <rect x="25" y="20" width="3" height="32" fill="none"/>
   <rect x="24" y="20" width="1" height="32" fill="none"/>
   <rect x="20" y="20" width="4" height="32" fill="url(#linearGradient19)" opacity=".8"/>
  </g>
  <g id="shadow-right" transform="translate(28,31)">
   <rect x="60" y="20" width="3" height="32" fill="none"/>
   <rect x="63" y="20" width="1" height="32" fill="none"/>
   <rect x="64" y="20" width="4.1718" height="32" fill="url(#linearGradient16)" opacity=".8"/>
  </g>
  <g id="shadow-bottom" transform="translate(28,31)">
   <rect x="28" y="52" width="32" height="3" fill="none"/>
   <rect x="28" y="55" width="32" height="1" fill="none"/>
   <rect x="28" y="56" width="32" height="4" fill="url(#linearGradient10)" opacity=".8"/>
  </g>
  <rect id="panel-placeholder" class="ColorScheme-Background" x="52" y="47" width="40" height="40" ry="2.0513" fill="currentColor"/>
  <rect id="shadow-hint-top-margin" x="70" y="43" width="4" height="4" fill="#800080"/>
  <rect id="shadow-hint-bottom-margin" x="70" y="87" width="4" height="4" fill="#800080"/>
  <rect id="shadow-hint-right-margin" x="92.086" y="65" width="4" height="4" fill="#800080"/>
  <rect id="shadow-hint-left-margin" x="48" y="65" width="4" height="4" fill="#800080"/>
  <rect id="shadow-hint-top-inset" x="70" y="47" width="4" height="4" fill="#0f0"/>
  <rect id="shadow-hint-bottom-inset" x="70" y="83" width="4" height="4" fill="#0f0"/>
  <rect id="shadow-hint-right-inset" x="88" y="65" width="4" height="4" fill="#0f0"/>
  <rect id="shadow-hint-left-inset" x="52" y="65" width="4" height="4" fill="#0f0"/>
 </g>
</svg>
