<?xml version="1.0" encoding="UTF-8"?>
<svg fill="none" version="1.1" viewBox="0 0 24 24" xmlns="http://www.w3.org/2000/svg">
 <defs>
  <style id="current-color-scheme" type="text/css">.ColorScheme-Text { color:#8a8a8a; }</style>
 </defs>
 <path class="ColorScheme-Text" d="m12.0105 2.25c0.73402 8e-3 1.46504 0.093003 2.18206 0.253007a0.750021 0.750021 0 0 1 0.582016 0.649018l0.170005 1.52704a1.38404 1.38404 0 0 0 1.92705 1.11603l1.40104-0.615017a0.750021 0.750021 0 0 1 0.850023 0.174005 9.79227 9.79227 0 0 1 2.20406 3.79211 0.750021 0.750021 0 0 1-0.271008 0.825023l-1.24203 0.916026a1.38104 1.38104 0 0 0 0 2.22606l1.24303 0.915025a0.750021 0.750021 0 0 1 0.272008 0.826023 9.79727 9.79727 0 0 1-2.20406 3.79211 0.750021 0.750021 0 0 1-0.848023 0.175005l-1.40704-0.617017a1.38004 1.38004 0 0 0-1.92605 1.11403l-0.169005 1.52604a0.750021 0.750021 0 0 1-0.572015 0.647018 9.51826 9.51826 0 0 1-4.40612 0 0.750021 0.750021 0 0 1-0.572016-0.647018l-0.168005-1.52404a1.38204 1.38204 0 0 0-1.92605-1.11003l-1.40604 0.616017a0.750021 0.750021 0 0 1-0.849024-0.175005 9.79827 9.79827 0 0 1-2.20406-3.79611 0.750021 0.750021 0 0 1 0.272008-0.826023l1.24303-0.916025a1.38004 1.38004 0 0 0 0-2.22606l-1.24303-0.914026a0.750021 0.750021 0 0 1-0.271008-0.826023 9.79327 9.79327 0 0 1 2.20406-3.79211 0.750021 0.750021 0 0 1 0.850024-0.174005l1.40004 0.615017a1.38704 1.38704 0 0 0 1.93005-1.11803l0.170005-1.52604a0.750021 0.750021 0 0 1 0.583016-0.650018c0.71702-0.159004 1.45004-0.243007 2.20106-0.252007zm0 1.50004a9.13525 9.13525 0 0 0-1.35404 0.117003l-0.109003 0.977027a2.88608 2.88608 0 0 1-4.02411 2.32606l-0.898025-0.394011a8.29323 8.29323 0 0 0-1.34804 2.31706l0.798022 0.587016a2.88108 2.88108 0 0 1 0 4.64313l-0.799022 0.588016c0.320009 0.842023 0.776022 1.62604 1.34804 2.32206l0.905025-0.397011a2.88208 2.88208 0 0 1 4.01711 2.31806l0.110003 0.984027c0.889025 0.150004 1.79805 0.150004 2.68708 0l0.110003-0.984027a2.88108 2.88108 0 0 1 4.01811-2.32206l0.905026 0.396011a8.29623 8.29623 0 0 0 1.34704-2.31806l-0.798022-0.588016a2.88108 2.88108 0 0 1 0-4.64313l0.796022-0.587016a8.29323 8.29323 0 0 0-1.34804-2.31706l-0.896024 0.393011a2.88408 2.88408 0 0 1-4.02311-2.32406l-0.110003-0.976027a8.98825 8.98825 0 0 0-1.33304-0.117003zm-0.012 4.50013a3.7501 3.7501 0 1 1 0 7.50021 3.7501 3.7501 0 0 1 0-7.50021zm0 1.50004a2.25006 2.25006 0 1 0 0 4.50013 2.25006 2.25006 0 0 0 0-4.50013z" fill="currentColor"/>
</svg>
