<?xml version="1.0" encoding="UTF-8"?>
<svg fill="none" version="1.1" viewBox="0 0 32 32" xmlns="http://www.w3.org/2000/svg">
 <defs>
  <style id="current-color-scheme" type="text/css">.ColorScheme-Text { color:#8a8a8a; }</style>
 </defs>
 <path class="ColorScheme-Text" d="m16.014 3c0.978692 0.010662 1.95339 0.124004 2.90941 0.337343a1.00003 1.00003 0 0 1 0.776022 0.865357l0.226672 2.03606a1.84538 1.84538 0 0 0 2.56941 1.48804l1.86805-0.820023a1.00003 1.00003 0 0 1 1.13336 0.232006 13.0564 13.0564 0 0 1 2.93875 5.05614 1.00003 1.00003 0 0 1-0.361344 1.10003l-1.65605 1.22137a1.84138 1.84138 0 0 0 0 2.96808l1.65738 1.22003a1.00003 1.00003 0 0 1 0.362678 1.10136 13.063 13.063 0 0 1-2.93875 5.05614 1.00003 1.00003 0 0 1-1.1307 0.23334l-1.87605-0.82269a1.84005 1.84005 0 0 0-2.56807 1.48538l-0.225341 2.03472a1.00003 1.00003 0 0 1-0.762688 0.862691 12.691 12.691 0 0 1-5.87483 0 1.00003 1.00003 0 0 1-0.762688-0.862691l-0.224006-2.03206a1.84272 1.84272 0 0 0-2.56807-1.48004l-1.87472 0.821356a1.00003 1.00003 0 0 1-1.13203-0.23334 13.0644 13.0644 0 0 1-2.93875-5.06147 1.00003 1.00003 0 0 1 0.362677-1.10136l1.65738-1.22137a1.84005 1.84005 0 0 0 0-2.96808l-1.65738-1.2187a1.00003 1.00003 0 0 1-0.361343-1.10136 13.0577 13.0577 0 0 1 2.93875-5.05614 1.00003 1.00003 0 0 1 1.13336-0.232006l1.86672 0.820022a1.84938 1.84938 0 0 0 2.5734-1.49071l0.226673-2.03472a1.00003 1.00003 0 0 1 0.777355-0.86669c0.956027-0.212006 1.93339-0.324009 2.93475-0.33601zm0 2.00006a12.1803 12.1803 0 0 0-1.80538 0.156004l-0.145338 1.3027a3.84811 3.84811 0 0 1-5.36548 3.10142l-1.19737-0.525348a11.0576 11.0576 0 0 0-1.79738 3.08942l1.06403 0.782688a3.84144 3.84144 0 0 1 0 6.19084l-1.06536 0.784023c0.426679 1.1227 1.0347 2.16806 1.79738 3.09609l1.2067-0.529347a3.84277 3.84277 0 0 1 5.35615 3.09075l0.14667 1.31204c1.18537 0.200005 2.3974 0.200005 3.58277 0l0.146669-1.31204a3.84144 3.84144 0 0 1 5.35748-3.09609l1.2067 0.528014a11.0616 11.0616 0 0 0 1.79605-3.09075l-1.06403-0.784019a3.84144 3.84144 0 0 1 0-6.19084l1.06136-0.782689a11.0576 11.0576 0 0 0-1.79738-3.08942l-1.1947 0.524015a3.84544 3.84544 0 0 1-5.36415-3.09875l-0.146671-1.30137a11.9843 11.9843 0 0 0-1.77738-0.156004zm-0.016 6.00017a5.00014 5.00014 0 1 1 0 10.0003 5.00014 5.00014 0 0 1 0-10.0003zm0 2.00006a3.00008 3.00008 0 1 0 0 6.00017 3.00008 3.00008 0 0 0 0-6.00017z" fill="currentColor"/>
</svg>
