<?xml version="1.0" encoding="UTF-8"?>
<svg width="1280" height="853" version="1.0" viewBox="0 0 1280 853" xmlns="http://www.w3.org/2000/svg">
 <defs>
  <style id="current-color-scheme" type="text/css">
    .ColorScheme-Text             { color: #7d7d7d; }
    .ColorScheme-PositiveText     { color: #00aa88; }
    .ColorScheme-NeutralText      { color: #ff6644; }
    .ColorScheme-NegativeText     { color: #ff5577; }
    .ColorScheme-Background       { color: #eff0f1; }
    .ColorScheme-Highlight        { color: #00aaff; }
    .ColorScheme-ViewText         { color: #7d7d7d; }
    .ColorScheme-ViewBackground   { color: #eff0f1; }
    .ColorScheme-ViewHover        { color: #00aaff; }
    .ColorScheme-ViewFocus        { color: #00aaff; }
    .ColorScheme-ButtonText       { color: #7d7d7d; }
    .ColorScheme-ButtonBackground { color: #eff0f1; }
    .ColorScheme-ButtonHover      { color: #00aaff; }
    .ColorScheme-ButtonFocus      { color: #00aaff; }
  </style>
 </defs>
 <path  class="ColorScheme-Text" fill="currentColor" opacity=".15" d="m1130-0.09961v4.7988c0.1 16.4 11.2 37.001 25.9 47.701 11.8 8.7 24.4 12.8 39.1 12.9 18.6 0 32.6-5.9008 46-19.301 11.8-11.8 17.7-24.001 19.5-40.301l0.5996-5.6992h-22.799l-1.2012 6.6992c-3.4 18.7-17.3 32.4-36 35.4-22.2 3.5-45.1-13.5-47.9-35.6l-0.6992-6-11.301-0.30078zm-1114 0.09961 2.4004 4.6992c7.4 14.7 26.1 35.602 41.4 46.602 17 12.2 38.199 21.299 59.199 25.299 14.2 2.7 38.001 2.4996 52.801-0.40039 36.5-7.3 68.399-27.599 89.799-57.199 4.3-5.9 11.4-17.4 11.4-18.4 0-0.3-13.8-0.59961-30.6-0.59961h-30.6l-5.2012 4.6992c-9.7 8.8-22.499 15.8-36.299 19.9-6.7 2-11.801 2.6996-21.801 3.0996-15.3 0.6-27.1-1.3992-40-6.6992-8.6-3.7-23.3-13-27.9-17.9l-3-3.0996zm403.7 0 0.60156 7.6992c1.5 22.4 16.198 39.4 37.898 43.9 12.5 2.6 26.202-0.40001 36.602-8 11.8-8.7 18.2-20.399 19-34.699l0.5-8.9004zm224.1 0 0.69922 2.6992c1.2 5.1 10.399 22.302 16.699 31.602 16.3 23.8 44.301 44.799 72.201 54.199 16.1 5.4 25.6 6.9004 45.6 6.9004 20 0.1 28.6-1.0996 44.4-6.0996 40.1-12.6 75.2-45.301 90.6-84.301l2-5h-55.699l-3.9004 5.6992c-8.5 12.3-23.601 24.901-37.801 31.301-13.5 6.1-20.5 7.5-38.6 7.5-19.2 0-25-1.1996-39.9-8.0996-15.3-7.2-27.7-17.401-37.5-31.201l-3.7988-5.1992zm347.7 0 3.0996 3c4.1 4.2 8.9008 4.8008 13.301 1.8008 6.1-4.1 5.3-4.8008-6-4.8008zm-399.19 14.047c-2.4356 0.01799-4.7856 0.51211-6.8106 1.5527-7.2 3.7-10.801 9.3004-10.801 16.9 0 10.8 7.9004 18.5 18.9 18.5 14.7 0 23.3-16.4 15.1-28.9-3.3781-5.0312-10.164-8.0987-16.389-8.0527zm0.22265 2.4609c2.9367-0.0663 6.0106 0.70821 8.9668 2.3926 4.7 2.7 7.5 7.5988 7.5 13.299 0 5.9-1.9008 9.8012-6.3008 13.201-7.8 6-18.998 3.3996-23.398-5.4004-2.8-5.5-2.9008-9.2004-0.30078-14.4 2.8219-5.775 7.9268-8.9652 13.533-9.0918zm424.66 1.7012c-4.2141 0.04688-6.8395 0.51524-9.6895 1.4902-19.8 7.2-30.6 28.302-24.6 48.102 4.8 15.8 18.099 26.698 34.299 27.898 30.3 2.3 51.301-28.599 38.201-56.299-3.2-6.7-10.301-13.801-17.801-17.701-5.3-2.7-7.2996-3.0984-15.6-3.3984-1.825-0.075-3.4059-0.10742-4.8105-0.0918zm-698.85 0.99219c-1.8037-0.01601-3.6602 0.23633-5.5352 0.79883-7.8 2.3-12.801 9.4996-12.801 18.1 0 9.1 6.1992 16.3 15.699 18.4 7 1.4 17-4.0992 19.9-11.199 5.3375-12.687-4.6377-25.988-17.264-26.1zm0.57617 2.8945c3.1892 0.02403 6.3633 0.92969 8.9883 2.8047 13.1 9.4 5.1 30.4-11 28.9-12.4-1.2-18.5-14.5-11.6-24.9 2.9375-4.4375 8.2959-6.8447 13.611-6.8047zm626.26 2.0176c-2.675-0.0625-5.2758 0.63594-8.1758 2.0859-11.7 6-14.8 20.501-6.4004 29.801 12.2 13.5 33.701 5.6 33.801-12.5 0-7.4-3.7996-13.5-10.6-16.9-3.2-1.6-5.95-2.4238-8.625-2.4863zm74.553 7.2812c3.9381-0.09316 7.9957 0.79258 11.971 2.7051 7.7 3.7 14.301 14.1 14.301 22.6 0 9-5.9996 18.601-14.1 22.701-16.6 8.3-36.8-3.6008-36.9-21.801 0-7.4 1.9-12.399 7-17.799 4.9375-5.375 11.165-8.251 17.728-8.4062zm-634.91 7.7402c-4.1884-0.08108-8.3637 0.64726-12.92 2.166-31.2 10.6-33.6 53.198-3.9004 68.398 4.9 2.5 6.5 2.8008 15.5 2.8008 8.7 0 10.699-0.29922 15.699-2.6992 7.9-3.7 14.202-9.8012 18.102-17.701 3-6.1 3.1996-7.2996 3.0996-16.1 0-7.4-0.49961-10.5-2.0996-14-5-10.8-12.7-17.799-23.5-21.199-3.4562-1.05-6.7228-1.603-9.9805-1.666zm147.84 9.6973c-1.7703 0.02793-3.5555 0.11758-5.3555 0.26758-21.4 2-41.802 15.9-51.102 34.9-5.5 11.1-7.1992 18.4-7.1992 30 0 11.5 1.7004 18.9 6.9004 29.5 9.6 19.4 28.199 32.6 50.299 35.5 33.8 4.5 65.7-18.8 72.4-52.9 2.8-14.1 0.9996-26.7-5.9004-41.1-3.2-6.9-5.4996-9.9996-12.1-16.6-4.4-4.4-10.6-9.3996-13.6-11.1-10.325-5.8625-21.952-8.6643-34.344-8.4688zm116.72 13.15c-4.8152-0.01816-9.4926 0.60547-13.58 1.918-7.7 2.5-14.701 7.0992-20.701 13.699-24.9 27.2-9.1988 71.4 27.701 77.6 23.3 3.9 46.599-11.399 52.799-34.699 2.9-10.9 1.1004-25.1-4.5996-35-3.5-6.1-13-15.401-18.5-18.301-6.6875-3.375-15.094-5.1865-23.119-5.2168zm469.9 6.0469c-5.6562-0.07969-11.257 0.27031-16.682 1.0703-37.4 5.5-71.299 31.4-86.299 66-13 30.1-12.1 65.4 2.5 94.4 24.9 49.8 81.999 73.601 135.2 56.301 16.3-5.3 33.999-16.602 46.199-29.602 51.2-54.5 35.401-142.9-31.699-176.4-14.775-7.425-32.25-11.532-49.219-11.771zm-896.35 0.23047c-6.1383 0.01289-11.932 0.41523-16.432 1.2402-15.9 3-31.999 9.5992-45.199 18.699-8.5 5.8-23.201 20.901-28.801 29.301-8.8 13.3-15.1 29.499-17.5 44.699-2 12.3-0.79961 35.101 2.4004 46.701 20.5 74.1 106.4 106 170.4 63.4 59-39.2 66.2-124.3 14.6-173.2-14.4-13.7-30.701-22.699-50.301-27.799-7.75-2-18.938-3.0625-29.168-3.041zm97.635 2.0781c-1.8023-0.0062-3.6 0.50625-5.2656 1.5625-3.9 2.5-5.3008 4.8996-5.3008 9.5996 0 5 5.2992 10.5 10.199 10.5 10.1 0 15-11.6 7.9004-18.4-2.2562-2.1375-4.8991-3.2527-7.5332-3.2617zm214.35 1.252c3.8285 0.03047 7.5965 0.55938 11.084 1.6094 11.1 3.3 21.5 12.1 26.4 22 8.1 16.5 4.7992 35.7-8.3008 48.9-20.8 20.7-55.199 14.801-68.299-11.799-3.2-6.5-3.3008-7.2008-3.3008-18.301 0-10.9 0.19922-11.8 3.1992-18.1 3.9-7.9 13.002-16.9 20.602-20.4 5.6875-2.625 12.234-3.9609 18.615-3.9102zm698.74 3.5039c-2.1927 0.05978-4.4375 0.53711-6.6562 1.5059-7.3 3.2-11.2 9.0004-11.4 16.9-0.1 9 6.2996 16.7 15.6 18.9 7.7 1.8 18.401-4.9996 20.801-13.1 3.7969-12.656-6.503-24.53-18.344-24.207zm0.7969 2.8672c2.381 0.0079 4.8028 0.54492 7.1465 1.6387 5 2.4 7.7012 6.8008 8.2012 13.301 0.4 6.1-1.7004 10.5-6.9004 14.4-6.4 4.7-16.401 2.7984-21.701-4.1016-3.5-4.7-3.7996-13.498-0.5996-17.898 3.575-4.8125 8.6154-7.3573 13.854-7.3398zm-1198.5 5.957c-2.5642-0.02344-5.118 0.53437-7.4805 1.7812-4.4 2.3-7.3996 5.3-9.5996 9.5-5.8 11.3 2.4996 25.9 15.6 27.4 4.2 0.5 5.8 0.10117 10.5-2.2988 4.4-2.3 6.0008-3.9008 8.3008-8.3008 2.4-4.7 2.7988-6.3 2.2988-10.5-1.1719-10-10.461-17.498-19.619-17.582zm63.824 3.5918c-1.8012 0.03727-3.5984 0.35586-5.3047 0.99023-2.2 0.8-5.2008 2.8992-6.8008 4.6992-9.5 11.3-1.8996 27.801 12.9 27.801 12.4 0 20.201-13.099 14.701-24.699-2.5781-5.4687-9.0632-8.9242-15.496-8.791zm0.48242 4.6152c1.5625-0.025 3.1129 0.47461 5.2129 1.4746 11.5 5.4 7.6 22.4-5 22.4-5.6 0-11-4.2996-11.9-9.5996-1-4.8 1.9004-10.4 6.4004-12.6 2.15-1.1 3.7246-1.6508 5.2871-1.6758zm816.04 7.3613c-1.8927-0.02118-3.7812 0.17578-5.625 0.61328-12.3 2.9-20.498 12.2-21.398 24.4-0.9 11.1 3.6 20.1 13 25.9 6.7 4.1 17 4.7996 24.5 1.5996 5.8-2.5 12.498-9.2008 14.898-14.801 2.3-5.4 2.1016-15.599-0.39844-21.299-4.3875-9.7875-14.756-16.3-24.977-16.414zm61.365 2.5078c-2.784 0.057-5.6684 0.72735-8.4902 2.1055-6.5 3.2-9.6992 8.7004-9.6992 16.4 0 5 0.50078 6.9008 2.8008 10.301 6.2 9.5 19.9 11.098 28 3.3984 4.2-4 6-7.9992 6-13.699 0-11.094-8.6683-18.709-18.611-18.506zm-0.043 2.5527c3.0629-0.0204 6.1996 0.79961 9.0527 2.5527 3.7 2.3 7.3008 9.1 7.3008 14-0.09997 7.6-8.4 15.9-16 15.9-4 0-11.299-4.2004-13.699-7.9004-2.7-4-3.1004-11.7-0.90039-15.9 2.8219-5.5125 8.3988-8.6133 14.246-8.6523zm139.52 2.6406c4.2471-0.0806 8.5383 0.21836 12.832 0.91211 16.1 2.6 27.7 8.6004 40 20.9 14.5 14.4 21 30.201 21 50.801 0 12.2-1.8 20.499-6.5 30.699-11.8 25.6-37.1 41.5-65.9 41.5-12.8 0-20.7-1.8996-32.5-7.5996-7.6-3.7-10.9-6.1012-17.6-12.701-18.3-18.2-25.7-41-21.1-65.1 2.9-15 9.3992-27.2 20.199-38 13.569-13.569 31.164-21.063 49.568-21.412zm-896.59 0.19727c8.3625-0.19688 18.918 0.81523 24.918 2.6152 24.9 7.7 43.899 27.2 50.199 51.5 2.8 11 2.4016 29.699-0.89844 39.699-4.1 12.2-9.1012 20.401-18.701 29.801-14.5 14.4-30.4 21-50.6 21-40.5 0-72.5-31.699-72.5-71.699 0-36 24.899-65.901 60.199-72.301 2.05-0.35 4.5953-0.54961 7.3828-0.61523zm1058.7 5.6152c-0.5 0-3.2 1.3008-6 2.8008-16.2 8.4-25.5 23.899-25.5 42.199 0.1 13.6 4.9996 24.901 15.1 34.301 4.5 4.2 13.6 9.6992 16.1 9.6992 0.7 0 1-14.5 1-44.5 0-24.5-0.2992-44.5-0.6992-44.5zm-512.38 6.127c-0.94063-0.0226-1.8242 0.17852-2.918 0.57227-2.8 1-6.9 5.6008-7.5 8.3008-0.9 4 1.8004 9.6004 5.4004 11.4 5 2.6 8.7992 2.0992 12.699-1.8008 5.8-5.8 4.2008-14.099-3.1992-17.199-1.9688-0.84375-3.273-1.2444-4.4824-1.2734zm-412.4 2.4512c-1.384 9e-3 -2.8066 0.29688-4.2129 0.92188-3.7 1.6-6.3008 5.9996-6.3008 10.6 0 4.7 5.5992 9.9004 10.699 9.9004 4.6 0 7.7004-1.9992 9.9004-6.1992 3.7125-7.1719-2.6125-15.27-10.086-15.223zm475.92 3.623c-3.1158-5e-3 -6.273 0.28594-9.4356 0.89844-16.2 3.2-31.1 17.6-35.5 34.4-6.4 24.9 9.6996 51.7 34.6 57.4 11.2 2.6 25.4 0.49882 35.1-5.2012 5.4-3.1 14.902-12.999 17.602-18.199 4.9-9.7 6.4996-23 4.0996-33.4-4.9-21.262-24.654-35.863-46.465-35.898zm-390.58 0.95508c-2.3186-0.0182-4.5555 0.38164-6.3555 1.2441-7.4 3.4-11.8 12.3-9.5996 19.6 3.2 10.9 14.3 16 24.1 11 5.3-2.7 8.3008-7.2004 8.8008-13.4 0.5-6.6-1.5008-11.5-6.3008-15.1-2.6875-2.125-6.7803-3.3135-10.645-3.3438zm0.65234 4.7949c1.7713 0.0627 3.6172 0.57383 5.4922 1.5488 4.2 2.2 6 5.2996 6 10.6 0 3.8-0.60078 5.3012-2.8008 7.7012-5.1 5.5-13.1 5.4996-17.6 0.0996-4.9-5.8-4.5996-11.1 0.90039-16.6 2.3125-2.3125 5.0557-3.4541 8.0078-3.3496zm-379.26 3.0098c-2.5348-0.0457-4.9961 0.26445-7.2461 0.93945-8.5 2.6-16.1 10.4-18.6 18.9-6.4 21.8 16.099 41.499 37.199 32.699 4.6-1.9 11.2-8.2004 13.6-12.9 3.2-6.2 3.6004-16.1 0.90039-22.1-3.4-7.6-6.5992-11.1-13.199-14.4-4-2-8.4297-3.0625-12.654-3.1387zm654.55 10.377c-2.3672 0.0375-4.7496 0.3875-7.0996 1.0625-9.1 2.5-17.799 11.8-19.699 21.1-2.7 12.9 4 26 16 31.4 6.8 3.1 17.101 2.9 23.801-0.5 17.4-8.7 20.899-32.201 6.6992-45.301-5.625-5.175-12.6-7.8742-19.701-7.7617zm-331.4 7.6621c-2.2 0.1-5.0996 0.69961-6.5996 1.5996-7.6 4.1-7.4008 15.9 0.19922 19.9 5 2.6 9.6996 1.9996 13.6-1.9004 2.9-2.9 3.4004-4.0996 3.4004-8.0996s-0.50039-5.1996-3.4004-8.0996c-2.7-2.7-4.1992-3.4004-7.1992-3.4004zm-1.0352 1.4844c2.127-0.0605 4.3223 0.72851 6.6348 2.416 5.7 4.1 4.6 13.099-2 16.299-6.9 3.3-14-1.0996-14-8.5996 0.1-4.7 1.3996-6.8996 5.5996-9.0996 1.2375-0.6375 2.4894-0.9793 3.7656-1.0156zm333.13 0.51562c1.7 0 4.8 0.90039 7 1.9004 16.1 7.3 14 30.3-3.0996 34.1-13 2.9-25.2-9.5996-21.5-22.1 2.3-7.5 10.3-13.9 17.6-13.9zm250.14 1.0684c-2.5213 0.1043-5.1172 0.84492-7.7422 2.2324-11.6 6.1-11.8 22.898-0.40039 29.398 13.8 7.8 30.3-6.6 24.1-21-0.7-1.8-2.5992-4.3984-4.1992-5.8984-3.5625-3.3125-7.5557-4.9062-11.758-4.7324zm0.46289 4.9394c2.6585 0.091 5.2008 1.1664 7.3945 3.1914 10.6 9.8-0.70001 25.901-13.5 19.301-7.7-4-7.8992-16.8-0.19922-20.9 2.1-1.1375 4.237-1.6626 6.3047-1.5918zm-345.15 1.1953c-2.67 0.0352-5.3527 0.45313-7.959 1.2969-15.1 4.8-22.7 23.4-15.6 37.9 4.9 10 13.2 15 24.6 15.1 6.5 0 8.2008-0.40039 12.801-2.9004 12-6.7 17.199-20.499 12.699-33.699-3.6562-10.806-14.971-17.85-26.541-17.697zm-136.27 26.02c-2.3004-0.0553-4.6613 0.31523-6.9863 1.1777-13.8 5.1-16.999 23.4-5.7988 32.9 12.6 10.5 31.6 1.5992 31.6-14.801 0-10.806-8.8461-19.038-18.814-19.277zm71.092 4.8066c-3.3803 0.0483-6.7766 0.8957-9.4766 2.4707-6.1 3.7-8.8008 8.5996-8.8008 16.1 0 4.9 0.49922 6.7996 2.6992 10.1 4.7 7.1 15.102 10.3 23.102 6.9004 5.7-2.3 11.699-11.1 11.699-17.1s-5.9992-14.8-11.699-17.1c-2.275-0.9625-4.8943-1.4087-7.5234-1.3711zm-0.0351 2.375c2.9072-0.0736 5.8328 0.75234 8.7578 2.4961 1.6 0.9 3.9992 3.4992 5.1992 5.6992 6.1 10.7-1.4992 23.801-13.699 23.801-9.1 0-15.101-5.7996-15.801-15.1-0.5-7.2 2.1008-11.702 8.8008-15.102 2.2312-1.1375 4.481-1.7377 6.7422-1.7949zm-162.89 1.7207c-2.55 0.05-5.0996 0.47539-8.3496 1.2754-11.2 2.7-21.7 11.099-26.5 21.299-9.1 19.4-1.3 42.001 18 51.701 23.7 11.8 51.4-2.2 56-28.5 3.6-20.4-10.201-40.501-30.801-44.801-3.25-0.7-5.7996-1.0246-8.3496-0.97461zm-298.85 0.875c-2 0-5.6 1.0008-8 2.3008-5.1 2.7-9 8.9992-9 14.699 0 8.7 8.3 17 17 17 8.7 0 17-8.3 17-17s-8.3-17-17-17zm593.54 3.0254c-2.5284 0.0111-5.0547 0.54883-7.3359 1.6738-4.7 2.3-8.3984 7.5012-8.8984 12.701-1.5 12.9 10.7 22.8 22.5 18.1 10.6-4.3 14.298-16.2 7.8984-25.5-3.025-4.4688-8.6015-6.999-14.164-6.9746zm252.13 1.1113c-6.0625 0.0125-12.012 0.51289-15.662 1.4629-23 6.1-41.2 24.3-47 47-2.4 9.4-2.6 23.5-0.5 31.9 2.4 9.6 8.8004 21.399 15.4 28.699 31.7 34.5 87.5 26.002 107.6-16.398 3.7-7.8 6.5-19.8 6.5-27.9 0-8.3-2.8992-19.9-7.1992-28.9-3.3-7-5.6012-10-12.701-17-9.6-9.5-18.6-14.7-30.1-17.4-4.1-1-10.275-1.4754-16.338-1.4629zm-845.26 0.87695c1.9246 0.0419 3.8496 0.55469 5.5996 1.5859 10.5 6.3 6.2 22.4-6 22.4-9 0-14.9-10.2-10.4-17.9 2.3375-3.9875 6.5668-6.178 10.801-6.0859zm592.82 3.0742c2.375-0.0125 4.8754 0.46211 6.7754 1.4121 8.7 4.5 7.4004 17.6-2.0996 21.5-6.8 2.9-15.9-3.1996-15.9-10.6 0-4.2 2.1992-8.7008 5.1992-10.801 1.4-1 3.6504-1.4992 6.0254-1.5117zm-294.33 5.2852c4.2373 0.0996 8.8301 0.99023 11.705 2.4277 9 4.7 13.801 12.599 13.801 22.699 0 7.8-1.5008 11.801-6.8008 17.301-5.1 5.5-10.1 7.5992-18.1 7.6992-8.2 0-13-1.9992-18.6-7.6992-12.8-13.3-6.6008-36.301 11.199-41.701 1.8375-0.5625 4.2525-0.78633 6.7949-0.72656zm543.52 13.918c1.6055-0.0586 3.2945-0.0527 5.082 0.01 8.8 0.2 10.801 0.59844 16.801 3.3984 17.1 8.1 27.1 26.8 24 44.9-3.2 18.6-17.201 32.5-35.701 35.6-17.7 2.9-36.499-6.9988-44.699-23.799-2.9-5.8-3.4012-8.0004-3.7012-15.9-0.6-13.7 2.5012-22.201 11.701-31.801 8.1375-8.4875 15.279-11.998 26.518-12.408zm-907.72 1.8438c-2.3142 0.0417-4.5578 0.22695-6.6953 0.56445-6 0.9-11.899 2.6-17.199 5l-5.8008 2.6016v28.898l4.0996-3.6992c5.3-4.8 13.3-8.4008 21.5-9.8008 17.9-3.1 36.601 7 44.701 24 3 6.4 3.1992 7.4008 3.1992 18.301 0 10.7-0.20039 11.9-2.9004 17.5-8.1 16.4-23.2 25.201-41.5 24.301-9.8-0.5-15.499-2.6004-23.799-8.9004l-5.3008-4v28.199l5.3008 2.4004c18.2 8.5 42.598 7.0008 60.398-3.6992 7.3-4.3 17.901-14.902 22.201-22.102 6.2-10.5 8.2988-17.899 8.7988-30.699 0.9-21.1-4.2992-34.7-18.699-49.1-7-7-10.2-9.4012-17-12.701-9.9125-4.7125-21.277-7.2454-31.305-7.0644zm1219.7 0.0371c-1.2717 0.0293-2.5746 0.19921-3.8965 0.52734-1.1 0.3-3.1992 1.4-4.6992 2.5-10.4 7.3-10.001 22.1 0.7988 28.4 8.5 5 19.701 1.6996 23.801-6.9004 5.6187-11.872-3.7109-24.811-16.004-24.527zm-516.31 4.7754c-3.6784 0.0943-7.3621 1.0969-10.287 2.9531-15.8 10-8.8015 35.1 9.8984 35.1 6.8 0 11-1.8008 15-6.3008 2.9-3.3 5.3008-8.9992 5.3008-12.699 0-6.5-5.7992-15.2-11.699-17.6-2.4938-1.05-5.3519-1.5264-8.2129-1.4531zm516.71 0.05274c1.3 0 3.8988 0.69961 5.7988 1.5996 4.2 2 6.4004 5.9 6.4004 11.5 0 3.3-0.6004 4.7-3.4004 7.5s-4.2 3.4004-7.5 3.4004c-2.3 0-5.5-0.7-7-1.5-3-1.5-6.0996-6.9-6.0996-10.5 0-5.4 6.5008-12 11.801-12zm-647.85 5.3008c-10.6-0.1-21.349 0.44922-27.949 1.6992-37.6 6.8-71.5 28.7-93 60.1-23.7 34.6-31.4 76.301-21.4 116.8 13.6 55.3 59.001 97.499 115.7 107.8 12.6 2.3 37.199 2.2004 49.199-0.0996 30.3-5.8 56.2-19.3 77.5-40.6 19.8-19.7 33.1-44.1 39.5-72.5 2.5-10.8 3.0992-38.8 1.1992-51.1-3.4-21-10.4-39.5-21.6-56.6-21.8-33.1-53.2-54.701-92.1-63.301-6-1.35-16.451-2.0992-27.051-2.1992zm202.76 7.8535c-5.0422-0.0369-8.018 0.43359-11.605 1.7461-6.7 2.6-12.9 7.3-17.5 13.5-5 6.8-6.9004 14-6.4004 24 0.3 6.8 1.0012 9.1004 3.7012 14.4 4.1 7.5 10.3 13.5 17.9 17 4.8 2.2 7.0992 2.6992 14.699 2.6992 8 0 9.6992-0.29922 15.699-3.1992 8.4-4 14.202-9.7016 18.102-18.102 2.8-5.9 3.1996-7.6992 3.0996-15.199 0-15.2-7.0012-26.699-20.201-33.199-5.7-2.8-7.8992-3.3016-15.199-3.6016-0.8125-0.025-1.5746-0.0396-2.2949-0.0449zm-342.83 5.3457c-1.4812-0.0375-2.9996 0.25039-4.4746 0.90039-4.2 1.9-6.4004 5.2004-6.4004 9.9004 0 5.1 5.2004 10.699 9.9004 10.699 7.7 0 13.3-6.8004 11.1-13.4-1.575-4.95-5.6812-7.9871-10.125-8.0996zm-335.88 15.5c-4.7 0-6.3992 0.50039-9.6992 2.9004-4.2 3-7.3008 9.0004-7.3008 13.9 0 1.5 0.90039 4.4988 1.9004 6.7988 4.8 10.6 17.6 13.2 26.5 5.4004 4.5-4 6.0004-7.8996 5.4004-14.1-0.9-9.1-7.4008-14.9-16.801-14.9zm1153.3 4c-0.5 0-4.2008 1.8996-8.3008 4.0996-38.6 21-65.2 58-73.6 102.4-2.3 12-2.3996 36.599-0.1 49.199 5.5 30.1 18.9 55.601 40.6 77.301 11.9 11.8 20.7 18.5 34.4 26l7.6992 4.1992v-60l-3.4004-2.5996c-5.5-4.1-15.9-17.9-20.4-26.9-6.2-12.3-9.1984-24.099-9.8984-37.699-1.2-26.6 7.3992-50.001 25.699-69.301l8-8.5v-29.1c4e-4 -16-0.2988-29.1-0.6988-29.1zm-1153.4 0.5c1.1875 0.025 2.5117 0.35 4.7617 1 1.2 0.3 3.4008 1.9996 4.8008 3.5996 7.7 9.2-2.7008 23.2-13.801 18.6-4.3-1.8-7.6992-6.7988-7.6992-11.299 0-4.3 3.9-9.6996 8-11.1 1.7-0.55 2.75-0.82578 3.9375-0.80078zm908.1 5.4785c-1.5984 0.0188-3.2254 0.45976-4.8379 1.3223-6.1 3.4-7.3992 11.799-2.6992 16.699 7 7.4 18.5 2.7992 18.5-7.3008 0-3.1-0.7004-4.5988-3.4004-7.2988-2.3125-2.3125-4.8984-3.4531-7.5625-3.4219zm-679.67 3.9785c-2.4042 0.0501-4.8941 0.57383-7.3691 1.6426-7.7 3.3-11.401 9.6996-10.801 18.6 0.7 9.8 8.3008 16.801 18.301 16.801 10.1 0 17.601-6.9008 18.301-16.801 0.8125-11.781-8.0132-20.459-18.432-20.242zm-0.53906 2.6133c2.6781-0.064 5.4883 0.5918 8.2695 2.0293 9.9 5 11.4 18.101 3 25.701-6.9 6.3-16.1 5.7988-22.4-1.2012-4.6-5.1-5.5984-10.399-2.8984-16.299 2.8875-6.4625 8.1375-10.09 14.029-10.23zm247.63 4.7285c3.4098 0.0736 6.8277 0.33828 10.24 0.80078 22 2.9 39.701 11.901 55.301 27.801 10.2 10.5 17 21.5 21.6 34.9 11.3 32.8 3.5 69-20 94-9.5 9.9-17.199 15.699-28.699 21.199-14.3 6.8-21.9 8.4004-40.4 8.4004-14.5-0.1-16.8-0.30078-25-2.8008-32.4-9.9-55.4-32.8-65.1-65.1-2.5-8.2-2.7008-10.5-2.8008-25 0-18.5 1.6004-26.1 8.4004-40.4 5.6-11.6 11.4-19.399 21.4-28.799 17.762-16.625 41.19-25.517 65.059-25.002zm586.8 7.7988c-1.9339-0.0699-3.8176 0.55234-5.9551 1.9023-6.9 4.2-6.3 15.1 1 18.6s15.699-1.6 15.699-9.5c0-4.3-2-7.4996-6-9.5996-1.7062-0.875-3.2401-1.348-4.7441-1.4023zm-145.26 12.965c-3.2848-0.0645-6.5367 0.55-9.1992 1.9375-10.8 5.7-13.3 20.7-5 30 8.8 9.9 25.199 7.8 31.199-4 3.5-6.9 2.2996-16.5-2.9004-22.4-3.0625-3.4375-8.625-5.4297-14.1-5.5371zm-625.94 0.0195c-3.2135-0.0393-6.5356 0.41836-8.5606 1.3184-3.9 1.8-8.0004 6.1988-9.9004 10.799-5.2 12.4 4.2004 26.102 17.9 26.102 10.9 0 19.6-8.8012 19.5-19.701-0.1-6.6-6.1008-15.2-12.301-17.5-1.7062-0.65625-4.1393-0.98699-6.6387-1.0176zm-238.36 0.0547c-6.075 0.0125-12.049 0.51289-15.699 1.4629-22.9 6-41.7 24.9-47.5 47.9-1.9 7.6-1.9 23.4 0 31 10.4 41 56 62 93.5 43 21.2-10.7 36-34.8 36-58.6 0-8.3-2.8992-19.9-7.1992-28.9-3.3-6.8-5.7012-10-12.701-17-9.6-9.5-18.5-14.7-30.1-17.4-4.05-1-10.226-1.4754-16.301-1.4629zm100.86 4.9668c-2.9369-0.0736-5.9262 0.75234-9.3574 2.4961-18.1 9-11.099 36.5 9.2012 36.4 6.6-0.1 15.2-6.1008 17.5-12.301 0.6-1.6 1.0996-4.7992 1.0996-7.1992 0-8.1-3.9-14.1-11.5-17.6-2.4062-1.1375-4.6591-1.7396-6.9434-1.7969zm845.3 4.0449c-3.3281-0.0547-6.6781 0.35195-9.9531 1.252-6.4 1.7-12.8 5.7004-17.6 10.9-5.5 6-8 11.2-9.5 19.5-2.9 17 7.1984 33.899 23.898 40.199 8.2 3.1 20.5 2.6008 28.5-1.1992 22.5-10.5 28.3-40.302 11.4-58.602-6.975-7.575-16.762-11.887-26.746-12.051zm-349.36 0.83398c-3.1897 0.0547-6.3828 0.86133-9.1953 2.5176-4.7 2.8-9.3008 10.8-9.3008 15.9 0.1 7.5 7.6 16.899 14.5 18.199 9.4 1.7 16.999-2.0004 21.199-10.4 2.9-5.9 2.8012-10.199-0.29883-16.699-2.8875-6.1187-9.887-9.6379-16.904-9.5176zm0.74219 2.1543c2.0625 0.0375 4.1117 0.7125 6.7617 2.0625 6.5 3.4 8.5 6.7016 8.5 14.102 0 4.9-0.50078 6.9-2.3008 9.5-3.1 4.3-7.6992 6.5996-13.199 6.5996s-10.099-2.2996-13.199-6.5996c-1.8-2.6-2.3008-4.6008-2.3008-9.3008 0-7.3 2.7004-11.8 8.9004-14.6 2.7-1.2 4.7754-1.8012 6.8379-1.7637zm88.625 9.2812c-1.4482-0.0149-2.825 0.16953-4.0625 0.58203-14.6 4.6-19.3 20.499-9.5 31.699 3.9 4.4 8.1992 6.3008 14.199 6.3008s10.299-1.9008 14.199-6.3008c5.9-6.7 6.8012-15.999 2.2012-23.299-3.1688-5.1187-10.762-8.918-17.037-8.9824zm-685.45 1.457c6.3375 0.1 12.739 1.475 18.389 4.125 20.8 9.7 29.798 35.099 19.898 56.199-7.7 16.5-26.398 26.7-43.898 24-14.6-2.2-26.6-10.898-33-23.898-3.2-6.5-3.3008-7.2008-3.3008-18.301 0-10.9 0.19922-11.8 3.1992-18.1 3.9-8 13.001-16.9 20.701-20.5 5.4-2.45 11.674-3.6254 18.012-3.5254zm726.53 13.322c-1.6567-0.0168-3.3871 0.28984-5.4434 0.90234-10.6 3.1-14.9 17.4-8 26.4 3.6 4.8 8.4996 6.8008 15.1 6.3008 6.4-0.5 11-3.7012 13.5-9.2012 4.3-9.4 0.90038-18.299-8.5996-22.699-2.4188-1.125-4.4266-1.6816-6.5566-1.7031zm-563.81 1.0957c-2.1082-0.0233-4.1094 0.16992-5.8281 0.60742-20 5.2-27.801 30-14.201 45.5 5.5 6.2 10.801 8.8004 19.201 9.4004s14.3-1.5012 20.5-7.2012c5.7-5.2 8.4-10.599 9-18.199 0.9-11.5-4.9016-21.9-15.102-27.1-3.7812-1.8562-8.9324-2.9565-13.57-3.0078zm651.15 3.377c-1.0178 7e-3 -2.0527 0.14844-3.084 0.42969-3.9 1.2-7.1992 6.0012-7.1992 10.701 0 5.1 5.4008 10.199 10.801 10.199 7.5 0 13.2-8.2 10.1-14.5-2.1125-4.3875-6.2065-6.8615-10.617-6.8301zm-87.754 0.39844c2.1348-0.0152 4.3359 0.7293 6.5703 2.2324 10.6 7.1 6.0012 21.699-6.7988 21.699-9.6 0-14.902-11.6-8.6016-19 2.7312-3.2656 5.7099-4.9094 8.8301-4.9316zm-562.92 6.1445c2.6057-0.0437 5.2895 0.48438 7.8926 1.6875 7.2 3.3 10.5 8.5988 10.5 16.799 0 9.7-7.8004 17.301-17.9 17.301-10.5 0-18.1-7.5996-18.1-18.1 0-10.078 8.3015-17.531 17.607-17.688zm447.87 12.361c-1.0688 0.0187-2.0805 0.12617-2.9805 0.32617-10.6 2.6-16.301 10.499-15.301 21.199 1.6 16.7 23.202 22.9 34.102 9.9004 2.5-2.9 4.6992-8.6 4.6992-12 0-6.1-5.4004-14.6-10.9-17.4-2.7-1.35-6.4129-2.0816-9.6191-2.0254zm156.31 2.877c-2.3812-8e-3 -4.7422 0.29922-6.9922 0.94922-12.5 3.4-19.801 13.3-19.801 26.5 0 28.8 38.9 37.5 51.5 11.6 2.4-4.8 2.7008-6.3992 2.3008-12.699-0.4-8.4-2.6016-13.502-7.6016-18.602-4.95-4.875-12.263-7.7246-19.406-7.748zm94.848 2.8398c-2.2478 0.0457-4.5398 0.37226-6.8398 1.0098-9.4 2.7-16.5 9.6988-19.4 19.299s-0.8004 18.501 6.0996 26.201c6.2 6.9 12.6 9.5 21.9 9 15.2-0.8 25.4-10.7 26.4-25.5 1.1375-16.887-12.425-30.33-28.16-30.01zm-776.98 0.94336c-1.6656 0.0156-3.3344 0.41562-4.8594 1.2656-3.1 1.7-5.8008 6.2-5.8008 9.5 0 5.4 5.6992 11 11.199 11 6.2 0 11.6-6.9008 10.4-13.301-0.975-5.1-5.9426-8.5117-10.939-8.4648zm-241.12 2.2852c-1.4945 0.0301-3.0199 0.28125-4.5449 0.78125-7.7 2.5-12 8.3-12 16 0 8 4.9992 14.5 12.699 16.6 8.2 2.3 18.001-3.5 20.301-12 2.975-11.025-5.9934-21.591-16.455-21.381zm0.20508 5.0625c2.4548 0.0377 5.0305 0.83008 7.4492 2.5176 3.2 2.3 5.2008 7.8004 4.3008 11.9-0.9 3.9-5.6 8.6004-9.5 9.4004-6.9 1.3-14-4.5996-14-11.6 0-7.475 5.4765-12.315 11.75-12.219zm1018.1 1.5059c2.5-0.0375 5.0004 0.5625 7.6504 1.8125 4.6 2.1 7.9004 5.4004 9.4004 9.4004 1.6 4.2 1.3 11.398-0.5 15.398-3.4 7-12.9 11.301-20.5 9.3008-5.1-1.4-11.4-7.0992-13-11.699-2.7-8.3 1.3988-18.301 9.2988-22.201 2.65-1.3 5.1504-1.9742 7.6504-2.0117zm-969.15 2.8379c-3.525-0.075-6.9992 0.57461-9.1992 1.9746-9.2 5.7-12.7 15.7-8.5996 24.6 3.5 7.6 9.4996 11.5 17.6 11.5 5.5 0 9.2004-1.4008 12.9-4.8008 9.7-9.1 8.1988-23.998-3.2012-30.898-2.4-1.5-5.975-2.3-9.5-2.375zm326.31 2.4902c-1.5019-1e-3 -3.0324 0.30937-4.5137 0.98437-4.2 1.8-6.5 5.7004-6.5 10.9 0 5.4 2.6 9.0992 7.5 10.699 7.1 2.3 14.2-2.1996 15.1-9.5996 0.89375-7.15-5.0777-12.981-11.586-12.984zm447.81 0.91601c-2.3219 0.0234-4.6469 0.34375-6.9219 0.96875-5.3 1.5-9.4008 4.2992-13.801 9.1992-4.6 5.3-6.4004 10.1-6.4004 17.5-0.1 11.7 6.3016 21.399 17.102 26.199 6.5 2.9 18.1 2.2 24.5-1.5 9.1-5.4 13.599-13.399 13.699-24.199 0-8.7-2.9008-15.299-8.8008-20.699-5.475-4.95-12.411-7.5391-19.377-7.4688zm-448.94 0.77539c0.66406-8e-3 1.4391 0.0684 2.4141 0.19336 2.8 0.4 4.8984 1.3992 6.3984 3.1992 3.4 3.9 3.1004 9.7996-0.59961 13.6-6.4 6.3-17.1 1.6008-17.1-7.6992 0-1.6 1.3-3.8996 3.5-6.0996 2.4-2.4 3.3945-3.1699 5.3867-3.1934zm506.11 7.8926c-4.3 0-5.2 0.39922-8 3.6992-2.8 3.2-3.1992 4.1012-2.6992 7.7012 1.2 8.7 11 12.6 17.6 7 3.2-2.6 4.7992-7.6012 3.6992-11.201-0.4-1.1-1.7988-3.1996-3.2988-4.5996-2-2.1-3.5008-2.5996-7.3008-2.5996zm-57.383 1.1445c2.5711-0.058 5.2203 0.51836 7.8828 1.7559 6.2 2.8 11.5 10.4 11.5 16.6 0 2.9-2.3992 8.8-4.6992 11.5-6.8 8.2-19.8 8.6008-27 0.80078-7-7.4-6.8016-18.001 0.39844-25.201 3.5625-3.5 7.6328-5.3584 11.918-5.4551zm-585.97 23.99c-1.3756 0.0139-2.8047 0.28711-4.2422 0.86523-3.5 1.4-6.4004 5.8996-6.4004 10.1 0 11.5 16.199 14.801 20.699 4.2012 3.2062-7.7625-2.6287-15.241-10.057-15.166zm50.684 1.877c-4.0674-0.0131-8.1766 0.50039-12.227 1.5879-12.9 3.4-23.999 12.701-29.699 24.801-6.6 14-6.5008 27.6 0.19922 41.4 16.9 34.7 66.401 34.898 83.701 0.39844 6.9-13.9 6.9992-27.9 0.19922-42-7.7187-16.169-24.549-26.131-42.174-26.188zm817.36 2.2383c-2.3812 0.0188-4.2574 0.6-7.4824 2.25-6.8 3.5-10.5 9.3008-10.5 16.801-0.2 17.9 21.101 26.299 33.201 13.199 10.9-11.9 3.7004-30.3-12.6-32.1-0.975-0.1-1.8254-0.15664-2.6192-0.15039zm-1128.7 2.4492v39.301h4.8008c2.7 0 8.2996 0.9 12.6 2 24.4 6.2 43.5 23.9 51.5 47.6 11.1 33.1-4.6004 71.4-35.9 87.4-7.6 3.8-18 6.8996-26.1 7.5996l-6.9004 0.70117v39l8.6992-0.60156c53.4-4 96.5-46.299 102.4-100.3 3.6-33.6-9.9996-69.501-35.1-92.701-18.6-17.2-42.599-27.898-66.199-29.398zm1019.8 8.2734c-5.2688-0.12012-10.466 0.50273-15.004 1.9277-21.6 6.9-35.601 29.7-31.801 52 4.3 25.5 28.399 43.299 53.199 39.199 43.4-7.1 54.901-63.2 17.801-86.6-6.4375-4.0625-15.414-6.3272-24.195-6.5273zm-101.5 9.1406c-1.5 0.0375-2.9504 0.53633-4.9004 1.4863-6.5 3.2-8.4008 11.801-3.8008 17.301 3.7 4.4 9.1008 5.7996 13.801 3.5996 8.7-4.2 8.7996-17.4 0.0996-21.1-2.15-0.9-3.6992-1.3246-5.1992-1.2871zm-489.77 1.1602c-2.6948 0.0674-5.4316 0.55859-8.1348 1.5273-11.5 4.1-18.401 13.799-18.301 25.699 0.1 10.6 5.0008 19.1 13.801 23.9 18.6 10 40.4-2.8 40.5-24 0-15.525-13.313-27.491-27.865-27.127zm352.31 0.28711c-2.6391-0.0385-5.3262 0.13593-8.0449 0.53906-13.7 2-27.901 12.3-34.201 24.9-19 38 17.101 79.601 57.301 65.801 18.9-6.4 31.4-24.101 31.4-44.301 0-26.281-20.944-46.567-46.455-46.939zm137.66 0.46679c2.2564 0.0645 4.5953 0.99805 6.6953 2.873 2.7 2.4 3.3008 3.5996 3.3008 7.0996s-0.60078 4.6996-3.3008 7.0996c-5.6 5-12.899 3.3008-15.799-3.6992-1.2-2.9-1.2-3.9008 0-6.8008 1.8125-4.375 5.3428-6.6797 9.1035-6.5723zm-773.09 8.0234c-3.1125 0.025-6.2121 0.64961-8.4121 1.8496-5.9 3.2-9.3008 8.3004-9.8008 14.9-0.6 9 3.2016 15.399 11.102 18.699 13.2 5.5 26.5-4.1992 25.5-18.699-0.5-6.6-4.0004-12.1-9.9004-15-2.25-1.2-5.3758-1.775-8.4883-1.75zm0.0762 2.1797c1.9119-9e-3 3.875 0.35742 5.8125 1.1699 4.4 1.8 9.2996 7.6 10.1 12 1.5 8.1-3.7996 16.2-12.1 18.5-7.5 2.1-15.601-2.2996-18.701-10.1-4.3031-10.547 4.5642-21.522 14.889-21.57zm724.21 3.0156c-1.0359 0.0109-1.9742 0.15313-2.6992 0.45313-3.1 1.2-6.9996 5.8008-7.5996 8.8008-0.7 4.1 1.7 9.8 5 12 1.4 1 4.3996 1.6992 6.5996 1.6992 10.8-0.2 15.5-12.7 7.5996-20.1-1.8-1.725-5.7926-2.8863-8.9004-2.8535zm1.3008 1.7539c3.3 0 4.7996 0.60039 7.0996 2.9004 4.6 4.7 3.6004 12.1-2.0996 15.4-10 6-20.3-7.1004-12.1-15.4 2.3-2.3 3.7996-2.9004 7.0996-2.9004zm69.301 12c-0.4 0-2.4008 0.80078-4.3008 1.8008-4.9 2.4-7.6 7.9992-6 12.699 2.2 6.5 9 9.3008 15.5 6.3008 5.1-2.3 7.2004-10.901 3.9004-15.701-1.5-2-6.8996-5.0996-9.0996-5.0996zm-723.82 9.1484c-1.9754 0.0203-3.9766 0.26445-5.9766 0.75195-7.9 2-15.3 7.9004-19.1 15.4-1 1.7-1.9012 6.5-2.2012 10.5-0.4 6.6-0.19922 7.7988 2.8008 13.799 5 10.3 13.1 15.201 25 15.301 16.3 0.2 29.5-14.301 27.6-30.301-1.75-14.787-14.295-25.593-28.123-25.451zm0.42383 9.8516c1.9 0 5.4004 0.99961 7.9004 2.0996 10.4 5.1 13.4 19 6 27.5-4.1 4.7-8.2008 6.5996-13.801 6.5996-9.9 0-17.001-6.2992-17.801-15.699-0.2-3-0.19883-6.5004 0.20117-7.9004 1.5-6.2 10.4-12.5 17.5-12.6zm985.29 4.0781c-3.5807 8e-3 -7.2281 0.43477-10.891 1.3223-23.4 5.7-39.202 29-35.602 52.5 5.4 34.6 44.101 51.5 73.301 32 12.8-8.6 20-22.5 20-39.1 0-26.337-21.744-46.78-46.809-46.723zm-92.268 3.0547c-4.1062-0.0475-8.1984 0.53008-12.023 1.7676-27.8 8.9-36.5 44.199-15.9 64.799 2.7 2.7 7.4992 6.3004 10.699 7.9004 5.4 2.7 6.6008 2.9004 16.801 2.9004 9.8 0 11.6-0.29961 16.5-2.5996 8.5-4.1 14.399-9.9012 18.699-18.701 3.6-7.1 3.8008-8.1996 3.8008-16.6-0.1-7.1-0.6004-10.399-2.4004-14.799-2.6-6.7-10.399-15.7-16.699-19.4-5.75-3.375-12.633-5.1885-19.477-5.2676zm-957.97 1.9922c-1.85 0-3.7 0.625-5.75 1.875-11.6 7.1-1.9 24.5 10.5 18.6 7.3-3.5 7.9-14.4 1-18.6-2.05-1.25-3.9-1.875-5.75-1.875zm755.63 4.1328c-4.2394 9e-3 -8.5043 0.25469-12.779 0.74219-59.2 7-103.9 62.2-97.801 121.1 2.9 28.9 13.8 51.001 34.9 71.201 16.8 16 36.699 25.699 59.799 29.199 22.9 3.5 43.601 0.2996 64.801-9.9004 37.5-18 61.299-53.799 63.199-95.199 1.5-32.4-9.7992-61.6-32.699-84.4-21.35-21.262-49.744-32.802-79.42-32.742zm-209.07 0.32031c-1.384 9e-3 -2.8066 0.29688-4.2129 0.92188-3.7 1.6-6.3008 5.9996-6.3008 10.6 0 4.7 5.5992 9.9004 10.699 9.9004 4.6 0 7.7004-1.9992 9.9004-6.1992 3.7125-7.1719-2.6125-15.27-10.086-15.223zm-291.02 7.0078c-1.5174 3e-3 -3.0297 0.20078-4.4922 0.61328-11.1 3.1-16.8 15.101-12.1 25.301 3.1 6.8 10.2 11.5 17.1 11.5 3.9 0 9.8008-2.4008 12.801-5.3008 6.1-5.6 7.3992-14.999 3.1992-22.699-3.25-5.7687-9.9323-9.4258-16.508-9.4141zm701.26 0.38672c3.9144-0.12976 7.9316 0.64648 11.744 2.4277 9.8 4.5 15.201 13.8 14.301 24.9-0.6 7.1-2.3004 11.1-6.9004 15.6-10.3 10.4-25.7 10.4-35.9 0.0996-8.5-8.4-10.101-19.6-4.3008-30.1 4.3313-7.975 12.445-12.642 21.057-12.928zm-701.36 2.2891c3.5684 0.0234 7.3418 1.1016 9.9043 3.0391 9.3 7.1 8.6992 19.698-1.3008 26.398-6.2 4.3-16.699 2.3016-21.199-3.8984-2.2-3.2-3.4004-10.101-2.4004-14.201 0.8-3.4 5.3996-8.5992 9.0996-10.199 1.6875-0.7875 3.7555-1.1527 5.8965-1.1387zm-251.35 22.895c-2.4826-9e-3 -4.8258 0.35703-6.5508 1.1445-4.2 1.9-9.1996 7.8988-10.6 12.799-2.3 7.5 1.4004 16 8.9004 20.6 11.8 7.3 28.199-2.3992 28.199-16.699 0-4.2-4.5996-12.3-8.5996-14.9-2.6875-1.875-7.2119-2.9287-11.35-2.9434zm114.06 0.0996c-4.3031 0.075-7.1148 0.54414-10.715 1.7441-17 5.5-28.4 18.599-32.1 36.699-2 9.8-0.70078 18.9 4.1992 28.9 14 28.8 52.2 35.201 74.9 12.701 20.2-20.1 18.3-53.4-4.0996-70.5-8.8-6.6-15.701-9-27.301-9.5-1.85-0.05-3.4504-0.0699-4.8848-0.0449zm408.86 0.28906c-3.0708-0.038-6.1684 0.14219-9.2715 0.55469-20.6 2.7-40.6 17.3-49.6 36.1-5.1 10.8-6.5 17.201-6.5 28.801s1.3996 18.001 6.5996 28.801c4.6 9.8 15.301 21.7 24.201 27.1 25.8 15.5 57.5 12.2 79.5-8.4004 16.8-15.7 23.999-40 18.699-62.9-6.7062-28.909-33.945-49.688-63.629-50.055zm-522.53 2.0156c2.7697-0.11133 5.7125 0.50156 8.6562 2.0391 9.9 5 10.4 20.7 0.90039 27.1-7 4.8-16.5 3.4008-21.6-3.1992-8.6937-11.375 0.0408-25.457 12.043-25.939zm418.49 3.4277c-3.7771-0.0707-7.7008 0.81133-10.738 2.6113-6.7 4-10.199 12.801-8.1992 20.301 2.8 10.7 15.301 16.899 25.301 12.699 4.1-1.7 9.0992-7.3996 10.699-12.1 2.6-7.8-1.6-17.7-9-21.6-2.275-1.225-5.1248-1.8571-8.0625-1.9121zm334.83 0.57617c5.1812 0.12969 10.381 0.83477 15.531 2.1348 14.6 3.6 25.3 9.9008 36 21.301 8.2 8.7 14.199 19.5 17.299 31 2.4 8.8 2.4996 27.1 0.0996 36-5.3 20-19.099 36.999-37.799 46.699-10.4 5.4-20.6 7.7012-33.4 7.7012-12-0.1-20.1-2.0008-31-7.3008-19.7-9.7-34-27.599-39.1-48.799-2.6-11.2-1.6012-29.1 2.2988-40 5.3-14.7 14.001-26.401 25.801-34.801 13.35-9.525 28.726-14.325 44.27-13.936zm-335.25 1.7598c3.137-0.0149 6.1852 0.8 8.3789 2.375 9.5 7.1 9.5 20.7 0 27-3.3 2.2-4.7012 2.5016-9.7012 2.1016-6.7-0.5-10.099-2.5016-13.299-8.1016-4.3-7.7-0.79999-17.999 7.5-21.799 2.1875-1.05 4.6812-1.5646 7.1211-1.5762zm-71.268 7.0156c-3.0172-0.0328-6.0035 0.31055-8.8535 1.0606-18.5 4.7-30.9 23.7-27.5 42.1 2.2 11.8 8.7988 20.9 19.299 26.6 6 3.3 6.7008 3.4004 16.801 3.4004 9.3 0 11.199-0.29922 16.199-2.6992 23.8-11.1 28.502-43.101 9.1016-60.801-6.675-6.075-15.995-9.5617-25.047-9.6602zm-138.48 3.8691c-2.9344-0.0475-5.7 0.3043-7.875 1.0918-12.5 4.7-19.201 13.999-19.201 26.699 0 10.9 5.5016 19.899 15.602 25.199 6 3.2 18.398 3.2 24.398 0 10.1-5.3 15.602-14.299 15.602-25.199 0-10.8-5.1004-19.4-14.4-24.4-3.875-2.125-9.2344-3.3115-14.125-3.3906zm314.75 4.5332c3.9125 0.0766 7.9246 0.65781 11.975 1.7578 10.5 2.9 20.501 11.6 25.801 22.5 3 6.1 3.1992 7 3.1992 18 0 11.1-0.10078 11.801-3.3008 18.301-8.3 16.8-27.398 26.899-44.898 23.799-34.4-6.3-47.802-46.999-23.602-71.799 8.25-8.475 19.089-12.788 30.826-12.559zm-484.89 1.2129c-2.543 0.0381-4.9883 1.1953-7.2383 3.4453-4.6 4.6-4.8 10.099-0.5 14.799 2.5 2.8 3.5996 3.3008 7.5996 3.3008s5.0996-0.50078 7.5996-3.3008c4.9-5.5 3.6012-13.8-2.7988-17.1-1.575-0.7875-3.1363-1.1674-4.6621-1.1445zm170.71 4.1074c3.075-0.01249 6.1504 0.63751 8.6504 1.9375 12.9 6.6 12.701 25.6-0.19922 31.9-5.6 2.7-11.002 2.7-16.602 0-12.8-6.2-13.1-25.201-0.5-31.801 2.5-1.35 5.5754-2.0246 8.6504-2.0371zm700.3 11.285c-1.8237-0.022-3.5429 0.18359-4.9492 0.65234-4.6 1.4-9.7988 6.0004-11.799 10.4-7.4 16.3 9.2996 33.099 25.6 25.699 13.8-6.2 15.2-25.299 2.5-33.699-2.8187-1.8562-7.3394-3.0044-11.352-3.0527zm-288.12 1.8105c-1.352-0.0164-2.7168 0.21719-4.0293 0.74219-5.4 2.3-7.8996 9.5004-5.0996 14.9 1.7 3.4 6.0996 6.1992 9.5996 6.1992 5.3 0 11-5.7 11-11 0-6.0125-5.6118-10.771-11.471-10.842zm501.97 0.84181c-0.3 0-1.7 1.1996-3 2.5996-4 4.3-3.7004 10.5 0.5996 14.9l2.9004 3v-10.301c0-5.6-0.2-10.199-0.5-10.199zm-1144.8 8.0625c-2.4625-0.0375-4.8879 0.53828-6.3379 1.7383-8.2 6.6-4.2004 19.099 6.0996 19.199 5 0 8.2992-2.1992 10.199-6.6992 1.8-4.3 0.40156-9.3008-3.3984-12.301-1.6-1.25-4.1-1.9-6.5625-1.9375zm1089.1 8.3887c-2.3813-8e-3 -4.7422 0.29922-6.9922 0.94922-12.5 3.5-19.801 13.4-19.801 27 0 28.3 39 36.7 51.5 11.1 2.4-4.8 2.7008-6.3992 2.3008-12.699-0.4-8.4-2.6016-13.502-7.6016-18.602-4.95-4.875-12.262-7.7246-19.406-7.748zm-1039 6.9863c-3.9875-0.0875-7.8879 0.2625-10.838 1.0625-11.5 3.3-20.2 10.7-25.4 21.5-2.8 5.9-3.0996 7.4-3.0996 16.5 0 8.8 0.29922 10.699 2.6992 15.699 7.5 16.1 25.402 25.801 42.102 22.801 28.5-5.2 41.999-37.2 25.799-61.1-4-5.9-13.6-13.1-19.9-14.9-3.3-0.95-7.3738-1.475-11.361-1.5625zm947.53 0.55664c-4.3411 0.0305-8.6016 0.65625-12.57 1.9062-11 3.6-19.301 9.6996-25.301 18.6-7.2 10.8-9.5996 23.201-7.0996 35.301 7.7 37 52.4 50.9 79 24.5 14.2-14.1 18-35.101 9.5-53.201-3.9-8.6-8.6-14-16-19-8.0438-5.3625-17.979-8.1726-27.529-8.1055zm-947.81 13.111c3.3578 0.0578 6.7394 0.79492 9.9394 2.2949 9.4 4.3 14.801 12.9 14.801 23.1-0.1 7.6-3.1 14.3-8.5 19-16.8 14.3-41.801 2.9004-41.801-19.1 0-3.4 0.7-7.8012 1.5-9.7012 4.125-9.825 13.987-15.767 24.061-15.594zm582.83 0.0195c-1.0125 0-1.9867 0.42539-3.8867 1.2754-5.9 2.6-8.3 7.4996-6.5 13.1 1.6 4.7 5.2992 7.5 10.199 7.5 5.2 0 10.801-5.1004 10.801-9.9004 0-4.7-2.7-9.0992-6.5-10.699-2.05-0.85-3.1008-1.2754-4.1133-1.2754zm-186.38 4.957c-2.7104 0.0306-5.3492 0.36133-7.0117 1.0176-6 2.4-11 10.1-11 17 0 17.7 22.8 25.5 33.5 11.4 3-3.8 4.3996-11.7 3.0996-16.9-0.8-3.2-6.0992-9.2992-9.6992-11.199-1.8-0.9-5.4038-1.3577-8.8887-1.3184zm-157.05 0.0937c-1.1625-0.025-2.3129 0.22461-4.4629 0.72461-6.6 1.6-12.6 7.3988-14.4 13.799-1.3 4.7-1.2996 5.9-0.0996 10.5 2.2 7.9 10.2 13.801 18.6 13.801 22.6 0 26.7-31.9 4.9004-37.9-2.2-0.6-3.3746-0.89883-4.5371-0.92383zm157.24 1.9727c2.4926 0.0123 5.0949 0.70078 7.7949 2.0508 8.9 4.5 11.501 16.501 5.3008 23.801-1.4 1.7-3.8004 3.7-5.4004 4.5-3.6 1.9-11.2 1.9-14.9 0-9-4.6-11.201-17.399-4.3008-24.699 3.5-3.8125 7.3516-5.6728 11.506-5.6523zm174.16 23.002c-1.3625-0.025-2.6625 0.24961-4.5625 0.84961-8.6 2.6001-13.801 9.3005-13.801 17.9 0 9.9 6.5008 17.399 16.301 18.699 6 0.9 14.1-2.8996 17.6-8.0996 2.8-4.2 3.7992-11.801 2.1992-16.801-1.5-4.5-7.7988-10.2-12.799-11.6-2.15-0.6-3.575-0.92422-4.9375-0.94922zm-488.05 0.1582c-1.6024 0.0171-3.2969 0.41602-5.0156 1.291-10.2 5.1001-6.1004 20.4 5.5996 20.4 2.4 0 4.1992-0.90039 6.6992-3.4004 7.3406-7.3406 1.3698-18.383-7.2832-18.291zm-164.36 0.63868c-2.6096-0.0436-5.1738 0.42187-7.4551 1.4531-3.8 1.7-9.0004 7.2004-10.4 10.9-5.4 14.2 8.3008 29.599 22.801 25.699 13.6-3.6 19.3-20.5 10.4-31-3.6438-4.4-9.6046-6.9569-15.346-7.0527zm651.9 2.0898c2.634-0.0425 5.377 0.58477 8.0488 1.9629 10.2 5.2 11.4 20.4 2 27.1-3.8 2.7-10.401 3.5004-15.201 1.9004-7.2-2.3-11.998-11.6-9.8984-18.9 2.3-7.475 8.3193-11.954 15.051-12.062zm294.13 3.9766c-2.1378-0.0443-4.2367 0.45157-5.8867 1.5859-3.6 2.6-5.3996 7.9-4.0996 12 1.6 4.8 5.2992 7.4004 10.699 7.4004 8.1 0 12.602-7.8 9.1016-15.5-1.5094-3.3469-5.7332-5.4017-9.8145-5.4863zm-741.6 13.938c-2.9718-0.0122-5.9297 0.64258-8.5859 2.0488-15.1 8-12.801 30.6 3.6992 35.5 16.9 5.1 31.1-13.699 21.6-28.699-3.575-5.5687-10.175-8.8228-16.713-8.8496zm226.12 1.0664c-5.1336 0.0611-10.332 0.73828-15.504 2.082-23.7 6.1-41.9 24.601-47.5 48.201-1.9 8-1.9004 22.499 0.0996 30.699 2.7 11.5 7.9004 20.5 17.4 30.1 6.9 7 10.1 9.4008 17 12.801 11.1 5.4 20.8 7.4988 32.5 6.7988 27.7-1.6 49.9-18.599 59.1-45.199 2.4-7 2.8008-9.5 2.8008-20 0-10.6-0.40039-13-2.9004-20.5-9.45-27.675-35.274-45.312-62.996-44.982zm-387.84 3.9785c-1.8891-2e-3 -3.8883 0.50352-5.8633 1.6035-3.5 1.9-4.8008 4.3008-4.8008 9.3008 0 4.6 3.4996 9.5 7.5996 10.5 6.2 1.6 13.4-3.8 13.4-10 0-6.825-4.6688-11.4-10.336-11.404zm-114.82 4.5938c-1.5826 0.0309-3.1711 0.19727-4.7461 0.50977-12.7 2.5001-22.1 14.101-22.1 27.201 0 6.9 1.6004 11.699 5.9004 17.299 12.5 16.5 38.6 13.4 47.5-5.5996 2.8-6.2 2.8-16.8 0-23.1-4.6375-10.062-15.476-16.527-26.555-16.311zm1218.3 2.7734c-1.7056-0.01-3.4441 0.22383-5.1816 0.73633-10.9 3.3-17 15.901-12.6 26.201 1.7 3.9 7.1004 9.1996 10.9 10.6 10.4 4 22.899-2.3996 25.799-13.1 3.325-12.337-6.9783-24.369-18.918-24.438zm-875.04 1.8984c-3.7078 0.0703-6.8938 0.46367-8.8438 1.1387-18.6 6-30.201 24.799-27.201 43.699 2 12.6 10.801 24.201 22.701 29.701 5 2.4 6.8992 2.6992 16.199 2.6992 9.6 0 11-0.30039 16.5-2.9004 7.9-3.9 14.901-11 18.801-19.4 2.9-6.1 3.1992-7.5992 3.1992-16.199 0-8.8-0.30078-10.099-3.3008-16.199-4.3-8.8-10.6-15.202-19-19.102-5.5-2.6-8.0992-3.1984-15.199-3.3984-1.325-0.05-2.6195-0.0625-3.8555-0.0391zm-342.86 5.1074c2.9555-0.0352 6.0441 0.66836 9.1191 2.1309 5.8 2.8 9.0996 8.5 9.0996 16s-3.1992 13.2-9.1992 16.1c-4.7 2.3-12.6 2.3996-17 0.0996-9.9-5.2-12.5-19.6-5-28.1 3.5-4.0625 8.0547-6.1719 12.98-6.2305zm504.32 4.6152c3.8848 0.13637 7.8445 0.79687 11.801 2.0156 14.9 4.6 25.999 17.7 28.799 33.9 4.1 23.7-14.399 46.999-38.699 48.799-18.1 1.4-34.299-8.2988-42.199-25.299-2.5-5.3-2.8008-7.0004-2.8008-16.9 0-10.3 0.19922-11.399 3.1992-17.699 7.6375-16.169 23.066-25.407 39.9-24.816zm102.53 0.0664c-2.3158 0.0155-4.623 0.44961-6.7324 1.3496-1.7 0.8-4.4004 2.9996-5.9004 5.0996-6.4 8.3-3.4992 20.9 5.8008 25.4 5.3 2.6 8.9992 2.5992 14.199 0.19922 10.1-4.6 13.3-15.199 7.4004-24.799-2.875-4.6-8.8495-7.2897-14.768-7.25zm-261.98 3.9102c2.8943-0.0724 5.9043 0.3164 8.9512 1.2383 12.3 3.6 19.701 18.7 15.701 32-1.6 5.3-8.8 13.201-14 15.301-14.5 6-31.5-2.8-34.9-18-3.6281-16.284 8.6189-30.148 24.248-30.539zm686.42 0.32617c-3.4501-0.0263-6.8176 0.39375-9.2676 1.3125-14.9 5.5-22.001 23.8-14.701 38 8.4 16.5 30.301 20.201 43.301 7.3008 13.4-13.3 9.5996-36.2-7.4004-44.4-2.925-1.4062-7.4958-2.179-11.932-2.2129zm-424.24 0.61328c2.1616-0.0574 4.4461 0.44649 6.668 1.5996 5.3 2.7 7.4992 10 4.6992 15.5-1.6 3.2-7.2984 7-10.398 7-7.5 0-13-6.4996-12-14.1 0.79063-6.0375 5.5073-9.8534 11.031-10zm148.34 1.8457c-1.0827-5e-3 -2.2109 0.14063-3.3672 0.45313-4.6 1.2-7.3008 5.1-7.3008 10.5 0 6.2 4.2 10.301 10.5 10.301 3.4 0 5.0004-0.60039 7.4004-2.9004 2.6-2.4 3.0996-3.7004 3.0996-7.4004 0-6.4969-4.4854-10.928-10.332-10.953zm-612.61 6.5332c-3.8742 0.0762-7.7625 0.31445-11.656 0.7207-63.1 6.7-113.9 52.199-127.3 114.2-1.1 5.3-2.3992 14.201-2.6992 19.701l-0.70117 10.1h51l0.60156-8.8008c2.7-38.9 32.499-72.998 72.299-82.898 9.5-2.3 32.4-2.3 41.6 0 36.9 9.2 63.601 36.5 71.301 73 0.8 3.8 1.5 8.5 1.5 10.5s0.29961 4.7 0.59961 6l0.59961 2.1992h49.801v-5.9004c0-14-4.5-34.199-11-49.799-22.875-54.75-77.83-90.164-135.94-89.021zm554.29 0.54101c-2.1371-0.0322-4.3219 0.0914-6.5469 0.37891-16.5 2.1-30.1 15.601-32.9 32.701-3.9 24.2 16.7 46.699 41 44.799 10.6-0.8 17.599-3.9996 25.199-11.6 8.7-8.7 11.201-14.899 11.301-27.699 0.1-8.5-0.10117-9.4996-3.7012-16.6-6.825-13.825-19.392-21.755-34.352-21.98zm392.62 11.156c-3.2872-0.0752-6.4145 0.51172-8.4707 1.8242-4 2.5-8.2996 7.6988-9.0996 10.799-0.4 1.4-0.4012 4.9004-0.2012 7.9004 0.8 10.1 9.6004 17.301 19.9 16.301 16.8-1.6 22.8-23.1 9.4004-33.4-2.8125-2.1375-7.3029-3.3272-11.529-3.4238zm0.7715 2.1445c2.8686-0.0243 5.7113 0.77813 8.1582 2.5781 9.9 7.4 9.6004 21.602-0.5996 27.602-11.3 6.5-26.3-3.9016-23.9-16.602 1.5094-8.05 9.011-13.516 16.342-13.578zm-393.38 0.27344c3.6814 0.05985 7.3328 0.91805 10.633 2.6056 5 2.5 11.401 9.9008 12.801 14.801 5.1 16.9-6.9008 33.199-24.301 33.199-23.5 0-34.201-29.1-16.301-44.4 4.8125-4.1875 11.032-6.3047 17.168-6.2051zm490.64 9.0078c-5.5125 0.0234-10.912 0.39805-14.512 0.99805-35.8 5.9-66.899 28.5-82.699 60.1-8.3 16.4-11.801 31.2-11.801 49.1v11.4h38.699l0.5-12.301c0.4-9.7 1.1012-13.799 3.2012-20.199 7-20.6 22.3-37 42.1-44.9 3.7-1.5 11.001-3.3988 16.301-4.2988 8.2-1.4 10.999-1.4004 18.699-0.40039 17.4 2.3 31.5 9.1992 43.5 21.199l7 7v-51.799l-8.1992-4.1016c-16-7.8-29.301-11.199-47.301-11.699-1.8-0.075-3.6508-0.10547-5.4883-0.0977zm-382.99 8.502c-3.4864 0.0395-6.9309 0.93867-9.8184 2.7949-5 3.2-9.1992 10.801-9.1992 16.201 0.1 7.1 5.9008 15.6 12.301 18 3.9 1.5 11.1 1.3992 15-0.30078 4.1-1.7 9.0992-7.3996 10.699-12.1 1.6-4.7 0.70039-11.7-2.0996-16.1-3.4125-5.5125-10.227-8.5715-16.883-8.4961zm119.66 0.35351c-4.2178-0.0273-8.1 0.44258-10.375 1.1426-10.4 3.4-18.501 10.6-23.201 20.5-2.2 4.8-2.5996 6.8996-2.5996 15.1 0 8.7 0.29922 10.1 3.1992 16.1 3.9 7.9 10.202 14.001 18.102 17.701 4.9 2.3 6.9992 2.6992 15.199 2.6992s10.299-0.39922 15.199-2.6992c7.9-3.7 14.202-9.8012 18.102-17.701 2.9-6 3.1992-7.3996 3.1992-16.1s-0.29922-10.1-3.1992-16.1c-6.3-12.8-17.601-20-31.801-20.6-0.6125-0.025-1.2217-0.0391-1.8242-0.043zm-954.68 21.742c-0.7 0-1 11.6-1 35 0 27.3 0.30078 35 1.3008 35 2.3 0 11.198-5.7992 14.898-9.6992 2-2.1 4.9-6.3008 6.5-9.3008 2.6-5 2.8008-6.4 2.8008-16-0.1-12.5-1.7992-17.2-9.1992-25.1-4.3-4.6-12.501-9.9004-15.301-9.9004zm647.9 0.21289c-4.0172 0.0562-6.5285 0.5625-9.6035 1.6875-18.3 6.8-28.3 26.699-22.9 45.299 6.1 21.2 30.299 32.5 50.199 23.4 7.5-3.4 11.701-6.9004 15.801-12.9 12.6-18.6 6.4004-42.999-13.6-53.799-5.6-2.9-7.3008-3.2996-15.301-3.5996-1.75-0.075-3.2566-0.10664-4.5957-0.0879zm-229.65 9.1328c-2.1002 0.057-4.2285 0.36758-6.3535 0.95508-12.7 3.6-20.601 15.1-19.701 28.6 1.1 15.7 13.501 26.1 29.201 24.9 14.5-1.2 25-12.7 24.9-27.4-0.0875-15.487-13.346-27.454-28.047-27.055zm662.36 1.8594c-2.6857-0.0595-5.4453 0.48594-8.1172 1.6953-12 5.4-14.8 20.8-5.5 30.1 14.5 14.5 38.7-2 30.1-20.5-3.2344-7.0437-9.6189-11.143-16.482-11.295zm-0.1641 2.7559c2.381 8e-3 4.8028 0.54492 7.1465 1.6387 5 2.4 7.7012 6.8008 8.2012 13.301 0.3 4.6 0 6.2-2 9-3.9 5.8-7.2008 7.5996-13.801 7.5996-6.3 0-9.5004-1.6004-13.4-6.9004-2.9-3.9-2.9-13.299 0-17.299 3.575-4.8125 8.6154-7.3573 13.854-7.3398zm-253.38 27.334c-4.5359-0.0219-9.0703 0.24219-13.57 0.80469-23.6 3-46.501 13.901-63.301 30.201-6.8 6.7-15.199 16.6-15.199 18 0 0.4 12.2 0.69922 27 0.69922h27.1l5.7012-2.9004c12.3-6.2 27.099-8.7996 40.699-7.0996 8.4 1 22.5 5.4 27.1 8.5 1.9 1.2 7.0004 1.5 29.9 1.5 31.9 0 29.801 1.2 18.801-11.5-20.65-23.887-52.479-38.052-84.23-38.205zm209.02 10.779c-3.7686-0.0974-7.4063 0.32617-10.594 1.3262-15.2 4.8-26.399 17.8-28.199 32.5l-0.60156 5.0996h7.2012c6.6 0 7.0996-0.19961 7.0996-2.0996 0-7.6 6.6-17.1 14.5-20.9 6.8-3.3 17.4-2.6 24.1 1.5 5.6 3.5 10.801 11.1 11.801 17.5l0.5996 4h13v-4c0-9-6.5-20.301-15.5-27.301-6.1875-4.675-15.115-7.4107-23.406-7.625zm-453.43 0.67187c-1.0827-5e-3 -2.2109 0.14063-3.3672 0.45313-7.5 2-10 12.2-4.4004 17.9 4.2 4.1 10.6 4.1 15 0 2.6-2.4 3.0996-3.7004 3.0996-7.4004 0-6.4969-4.4854-10.928-10.332-10.953zm-213.44 4.1289c-2.7393 0.0202-5.5199 1.2191-7.8262 3.5254-4 4-4.5004 8.2988-1.4004 13.299 4.6 7.5 16.8 5.4 19.5-3.5 0.9-3.1-1.1992-8.7992-4.1992-11.199-1.8375-1.4438-3.9436-2.1407-6.0742-2.125zm143.32 12.58c-2.5202 0.0111-5.0449 0.22265-7.5449 0.64453-8.9 1.5-18.8 6.8996-25.6 14.1l-5.9004 6.3008 19.699 0.30078c10.8 0.1 28.701 0.1 39.701 0l20.1-0.30078-4.5-5.0996c-8.8594-10.209-22.346-16.005-35.955-15.945z" stroke-width="0"/>
</svg>
