<?xml version="1.0" encoding="UTF-8"?>
<svg width="128" height="128" version="1.0" xml:space="preserve" xmlns="http://www.w3.org/2000/svg" xmlns:cc="http://creativecommons.org/ns#" xmlns:dc="http://purl.org/dc/elements/1.1/" xmlns:rdf="http://www.w3.org/1999/02/22-rdf-syntax-ns#" xmlns:xlink="http://www.w3.org/1999/xlink"><defs><style id="current-color-scheme" type="text/css">
      .ColorScheme-Text {
        color:#31363b;
        stop-color:#31363b;
      }
      .ColorScheme-Background {
        color:#eff0f1;
        stop-color:#eff0f1;
      }
      .ColorScheme-Highlight {
        color:#3daee9;
        stop-color:#3daee9;
      }
      .ColorScheme-ViewText {
        color:#31363b;
        stop-color:#31363b;
      }
      .ColorScheme-ViewBackground {
        color:#fcfcfc;
        stop-color:#fcfcfc;
      }
      .ColorScheme-ViewHover {
        color:#93cee9;
        stop-color:#93cee9;
      }
      .ColorScheme-ViewFocus{
        color:#3daee9;
        stop-color:#3daee9;
      }
      .ColorScheme-ButtonText {
        color:#31363b;
        stop-color:#31363b;
      }
      .ColorScheme-ButtonBackground {
        color:#eff0f1;
        stop-color:#eff0f1;
      }
      .ColorScheme-ButtonHover {
        color:#93cee9;
        stop-color:#93cee9;
      }
      .ColorScheme-ButtonFocus{
        color:#3daee9;
        stop-color:#3daee9;
      }
      </style><radialGradient id="radialGradient27900-3" cx="16.545" cy="48" r="12" gradientTransform="matrix(0 .1819 -.1819 0 12.965 -69.585)" gradientUnits="userSpaceOnUse"><stop offset="0"/><stop stop-opacity=".64" offset=".54545"/><stop stop-opacity=".639" offset=".63636"/><stop stop-opacity=".361" offset=".72727"/><stop stop-opacity=".161" offset=".81818"/><stop stop-opacity=".039" offset=".90909"/><stop stop-opacity="0" offset="1"/></radialGradient><radialGradient id="radialGradient27900-3-1" cx="16" cy="48" r="12" gradientTransform="translate(-60 6.5)" gradientUnits="userSpaceOnUse"><stop offset="0"/><stop offset=".58333"/><stop stop-opacity=".639" offset=".66667"/><stop stop-opacity=".361" offset=".75"/><stop stop-opacity=".161" offset=".83333"/><stop stop-opacity=".039" offset=".91667"/><stop stop-opacity="0" offset="1"/></radialGradient><radialGradient id="radialGradient73799" cx="16.545" cy="48" r="12" gradientTransform="matrix(0 .1819 -.1819 0 12.965 -69.585)" gradientUnits="userSpaceOnUse"><stop offset="0"/><stop stop-opacity=".2" offset=".54545"/><stop stop-opacity=".639" offset=".63636"/><stop stop-opacity=".361" offset=".72727"/><stop stop-opacity=".161" offset=".81818"/><stop stop-opacity=".039" offset=".90909"/><stop stop-opacity="0" offset="1"/></radialGradient></defs><metadata><rdf:RDF><cc:Work rdf:about=""><dc:format>image/svg+xml</dc:format><dc:type rdf:resource="http://purl.org/dc/dcmitype/StillImage"/></cc:Work></rdf:RDF></metadata><rect id="hint-tile-center" x="-4.0329" y="-4" width="2.0329" height="2.0771" rx="0" ry="2.0771" fill="#4e9a06"/><g><rect x="-32" width="32" height="32" rx="0" ry="0" opacity=".58407"/><rect x="-32" y="32" width="32" height="32" rx="0" ry="0" opacity=".58407"/><rect x="-32" y="64" width="32" height="32" rx="0" ry="0" opacity=".58407"/></g><rect id="invisibleMarginLeft" x="-31" y="8" width="6" height="6" fill="#fff" opacity=".003"/><rect id="invisibleMarginTop" x="-24" y="1" width="6" height="6" fill="#fff" opacity=".003"/><rect id="invisibleMarginTopLeft" x="-31" y="1" width="6" height="6" fill="#fff" opacity=".003"/><path id="grooveBaseTop" class="ColorScheme-Text" d="m-24 6v1h6v-1z" fill="currentColor" opacity=".5" stroke-width=".70711"/><path id="grooveBaseCorner" class="ColorScheme-Text" d="m-25 6c-0.56072 0-1 0.43928-1 1h1z" fill="currentColor" opacity=".5" stroke-width=".5"/><path id="grooveBaseLeft" class="ColorScheme-Text" d="m-26 8v6h1v-6z" fill="currentColor" opacity=".5" stroke-width=".70711"/><path id="grooveBase" class="ColorScheme-Text" d="m-24 8v6h6v-6h-6z" fill="currentColor" opacity=".5"/><g id="grooveBaseFillTop"><path class="ColorScheme-Highlight" d="m-24 22v2h6v-2z" fill="currentColor" stroke-width=".8165"/></g><g id="grooveBaseFillCorner"><path class="ColorScheme-Highlight" d="m-25 22c-1.1214 0-2 0.87856-2 2h2z" fill="currentColor" stroke-width=".66667"/></g><g id="grooveBaseFillLeft"><path class="ColorScheme-Highlight" d="m-27 25v6h2v-6z" fill="currentColor" stroke-width=".8165"/></g><path id="grooveBaseFill" class="ColorScheme-Highlight" d="m-24 25v6h6v-6h-6z" fill="currentColor"/><g id="groove-top"><use transform="translate(37,5)" width="128" height="128" xlink:href="#invisibleMarginTop"/><use transform="translate(37,5)" width="128" height="128" xlink:href="#grooveBaseTop"/></g><g id="groove-topleft"><use transform="translate(37,5)" width="128" height="128" xlink:href="#invisibleMarginTopLeft"/><use transform="translate(37,5)" width="128" height="128" xlink:href="#grooveBaseCorner"/></g><g id="groove-left"><use transform="translate(37,5)" width="128" height="128" xlink:href="#invisibleMarginLeft"/><use transform="translate(37,5)" width="128" height="128" xlink:href="#grooveBaseLeft"/></g><use id="groove-center" transform="translate(37,5)" width="128" height="128" xlink:href="#grooveBase"/><use id="groove-topright" transform="matrix(-1,0,0,1,32,0)" width="128" height="128" xlink:href="#groove-topleft"/><use id="groove-right" transform="matrix(-1,0,0,1,32,0)" width="128" height="128" xlink:href="#groove-left"/><use id="groove-bottom" transform="matrix(1,0,0,-1,0,32)" width="128" height="128" xlink:href="#groove-top"/><use id="groove-bottomleft" transform="matrix(1,0,0,-1,0,32)" width="128" height="128" xlink:href="#groove-topleft"/><use id="groove-bottomright" transform="matrix(-1,0,0,-1,32,32)" width="128" height="128" xlink:href="#groove-topleft"/><g id="groove-highlight-top"><use transform="translate(69,5)" width="128" height="128" xlink:href="#invisibleMarginTop"/><use transform="translate(69,-12)" width="128" height="128" xlink:href="#grooveBaseFillTop"/></g><g id="groove-highlight-topleft"><use transform="translate(69,5)" width="128" height="128" xlink:href="#invisibleMarginTopLeft"/><use transform="translate(69,-12)" width="128" height="128" xlink:href="#grooveBaseFillCorner"/></g><g id="groove-highlight-left"><use transform="translate(69,5)" width="128" height="128" xlink:href="#invisibleMarginLeft"/><use transform="translate(69,-12)" width="128" height="128" xlink:href="#grooveBaseFillLeft"/></g><use id="groove-highlight-center" transform="translate(69,-12)" width="128" height="128" xlink:href="#grooveBaseFill"/><use id="groove-highlight-topright" transform="matrix(-1,0,0,1,96,0)" width="128" height="128" xlink:href="#groove-highlight-topleft"/><use id="groove-highlight-right" transform="matrix(-1,0,0,1,96,0)" width="128" height="128" xlink:href="#groove-highlight-left"/><use id="groove-highlight-bottom" transform="matrix(1,0,0,-1,0,32)" width="128" height="128" xlink:href="#groove-highlight-top"/><use id="groove-highlight-bottomleft" transform="matrix(1,0,0,-1,0,32)" width="128" height="128" xlink:href="#groove-highlight-topleft"/><use id="groove-highlight-bottomright" transform="matrix(-1,0,0,-1,96,32)" width="128" height="128" xlink:href="#groove-highlight-topleft"/><g id="horizontal-slider-handle" transform="matrix(-5.0394 0 0 -5.0394 37.333 384)"><rect transform="scale(-1)" x="-7.0115" y="-69.453" width="5.5563" height="5.5563" opacity=".003"/><rect transform="scale(1,-1)" x="1.8521" y="-69.056" width="4.7625" height="4.7625" fill="url(#radialGradient27900-3)" opacity=".35" stroke-linecap="round" stroke-linejoin="round" stroke-width=".24309"/><circle class="ColorScheme-ButtonBackground" cx="4.2333" cy="66.675" r="1.3891" fill="currentColor"/><use transform="matrix(-.19844 0 0 -.19844 -.033075 77.688)" xlink:href="#g7985"/></g><g id="g7985" transform="matrix(-5.0394 0 0 -5.0394 -.1667 391.5)"><circle cx="4.2333" cy="66.675" r="1.3891" fill="#fff" opacity=".025"/><path transform="scale(-1)" d="m-4.2333-68.064c-0.76954 0-1.3891 0.61952-1.3891 1.3891 0 0.03333 0.0012 0.06649 0.00349 0.09922 0.050496-0.72294 0.64936-1.2898 1.3856-1.2898s1.3351 0.56691 1.3856 1.2898c0.00229-0.03273 0.00349-0.06589 0.00349-0.09922 0-0.76954-0.61952-1.3891-1.3891-1.3891z" fill="#fff" opacity=".05" stroke-linecap="round" stroke-linejoin="round" stroke-width=".39688"/></g><rect x="-56" y="42.5" width="24" height="24" fill="url(#radialGradient27900-3-1)" opacity=".103" stroke-linecap="round" stroke-linejoin="round" stroke-width="1.225"/><circle id="hint-handle-size" cx="-7" cy="39" r="7" fill="#31363b"/><g id="horizontal-slider-hover" transform="matrix(-5.0394 0 0 -5.0394 69.333 384)"><rect transform="scale(-1)" x="-7.0115" y="-69.453" width="5.5563" height="5.5563" opacity=".003"/><circle class="ColorScheme-Highlight" cx="4.2333" cy="66.675" r="1.3891" fill="currentColor"/><use transform="matrix(-.19844 0 0 -.19844 -.033077 77.688)" xlink:href="#g7985"/></g><g id="horizontal-slider-focus" transform="matrix(-5.0394 0 0 -5.0394 101.33 384)"><rect transform="scale(-1)" x="-7.0115" y="-69.453" width="5.5563" height="5.5563" opacity=".003"/><rect transform="scale(1,-1)" x="1.8521" y="-69.056" width="4.7625" height="4.7625" fill="url(#radialGradient73799)" opacity=".35" stroke-linecap="round" stroke-linejoin="round" stroke-width=".24309"/><circle class="ColorScheme-Highlight" cx="4.2333" cy="66.675" r="1.3891" fill="currentColor"/><use transform="matrix(-.19844 0 0 -.19844 -.033078 77.688)" xlink:href="#g7985"/></g><use id="vertical-slider-handle" transform="translate(4.7674e-8 32)" xlink:href="#horizontal-slider-handle"/><use id="vertical-slider-hover" transform="translate(4.7674e-8 32)" xlink:href="#horizontal-slider-hover"/><use id="vertical-slider-focus" transform="translate(4.7674e-8 32)" xlink:href="#horizontal-slider-focus"/></svg>
