<?xml version="1.0" encoding="UTF-8"?>
<svg fill="none" version="1.1" viewBox="0 0 16 16" xmlns="http://www.w3.org/2000/svg">
 <defs>
  <style id="current-color-scheme" type="text/css">.ColorScheme-Text { color:#8a8a8a; }</style>
 </defs>
 <path class="ColorScheme-Text" d="m8.007 1.5c0.489347 0.00533 0.976693 0.062002 1.45471 0.168671a0.500014 0.500014 0 0 1 0.388011 0.432679l0.113336 1.01803a0.922692 0.922692 0 0 0 1.2847 0.744021l0.934026-0.410011a0.500014 0.500014 0 0 1 0.566682 0.116003 6.52818 6.52818 0 0 1 1.46938 2.52807 0.500014 0.500014 0 0 1-0.180672 0.550015l-0.828023 0.610684a0.920692 0.920692 0 0 0 0 1.48404l0.828689 0.610017a0.500014 0.500014 0 0 1 0.181339 0.550682 6.53151 6.53151 0 0 1-1.46938 2.52807 0.500014 0.500014 0 0 1-0.565348 0.11667l-0.938026-0.411345a0.920026 0.920026 0 0 0-1.28404 0.742688l-0.11267 1.01736a0.500014 0.500014 0 0 1-0.381344 0.431345 6.34551 6.34551 0 0 1-2.93742 0 0.500014 0.500014 0 0 1-0.381344-0.431345l-0.112003-1.01603a0.921359 0.921359 0 0 0-1.28404-0.740021l-0.937359 0.410678a0.500014 0.500014 0 0 1-0.566016-0.11667 6.53218 6.53218 0 0 1-1.46937-2.53074 0.500014 0.500014 0 0 1 0.181338-0.550682l0.82869-0.610683a0.920026 0.920026 0 0 0 0-1.48404l-0.82869-0.60935a0.500014 0.500014 0 0 1-0.180672-0.550682 6.52885 6.52885 0 0 1 1.46937-2.52807 0.500014 0.500014 0 0 1 0.566682-0.116003l0.933359 0.410011a0.924692 0.924692 0 0 0 1.2867-0.745354l0.113336-1.01736a0.500014 0.500014 0 0 1 0.388678-0.433345c0.478014-0.106003 0.966694-0.162004 1.46737-0.168005zm0 1.00003a6.09017 6.09017 0 0 0-0.902692 0.078002l-0.0726686 0.651352a1.92405 1.92405 0 0 1-2.68274 1.55071l-0.598683-0.262674a5.52882 5.52882 0 0 0-0.898692 1.54471l0.532015 0.391344a1.92072 1.92072 0 0 1 0 3.09542l-0.532682 0.392011c0.213339 0.56135 0.517348 1.08403 0.898692 1.54804l0.60335-0.264674a1.92139 1.92139 0 0 1 2.67807 1.54538l0.073335 0.656018c0.592683 0.100003 1.1987 0.100003 1.79138 0l0.073335-0.656018a1.92072 1.92072 0 0 1 2.67874-1.54804l0.60335 0.264007a5.53082 5.53082 0 0 0 0.898025-1.54538l-0.532015-0.39201a1.92072 1.92072 0 0 1 0-3.09542l0.530683-0.391344a5.52882 5.52882 0 0 0-0.898692-1.54471l-0.59735 0.262007a1.92272 1.92272 0 0 1-2.68207-1.54938l-0.0733353-0.650685a5.99217 5.99217 0 0 0-0.888691-0.0780021zm-8e-3 3.00008a2.50007 2.50007 0 1 1 0 5.00014 2.50007 2.50007 0 0 1 0-5.00014zm0 1.00003a1.50004 1.50004 0 1 0 0 3.00008 1.50004 1.50004 0 0 0 0-3.00008z" fill="currentColor"/>
</svg>
