<?xml version="1.0" encoding="UTF-8"?>
<svg version="1.1" viewBox="0 0 512 512" xml:space="preserve" xmlns="http://www.w3.org/2000/svg" xmlns:cc="http://creativecommons.org/ns#" xmlns:dc="http://purl.org/dc/elements/1.1/" xmlns:rdf="http://www.w3.org/1999/02/22-rdf-syntax-ns#"><defs><style id="a" type="text/css">
   .ColorScheme-Text { color:#ffffff; } .ColorScheme-Highlight { color:#4285f4; } .ColorScheme-NeutralText { color:#ff9800; } .ColorScheme-PositiveText { color:#4caf50; } .ColorScheme-NegativeText { color:#f44336; }
  </style></defs><metadata><rdf:RDF><cc:Work rdf:about=""><dc:format>image/svg+xml</dc:format><dc:type rdf:resource="http://purl.org/dc/dcmitype/StillImage"/></cc:Work></rdf:RDF></metadata><g transform="translate(0 -540.362)"><path d="m101.806 553.252 290.123 0.21824 4.8742 2.18248 2.40071 4.65595v244.073l27.4264 28.0812 0.21825 126.438-6.91116 4.72868-318.277 2.32798z" style="fill:#ffb800"/><path d="m101.806 553.263 110.702 90.7426 0.41153 253.091-8.64215 13.169 0.2058 127.78-6.99604 3.9095-95.8514-76.106z" style="fill:#faec6d"/><path d="m112.427 959.992 0.582-380.623" style="fill:none;stroke-linecap:round;stroke-width:2.30457px;stroke:#ffb800"/><path d="m120.137 965.531 0.582-380.623" style="fill:none;stroke-linecap:round;stroke-width:2.30457px;stroke:#ffb800"/></g><g transform="matrix(11.9048 0 0 11.9231 176.393 164.526)" style="stroke:#fff"><path class="ColorScheme-Text" d="m11.243 8.17198c-3.03757 0-5.5 2.46243-5.5 5.5 0.0024 0.220141 0.01809 0.439938 0.04687 0.658203-1.22179 0.409382-2.04569 1.55325-2.04688 2.8418 0 1.65685 1.34314 3 3 3h14c1.65685 0 3-1.34315 3-3-0.0013-1.27327-0.806195-2.40702-2.00781-2.82812 0.0038-0.05723 0.0064-0.114534 0.0078-0.171875 0-2.20914-1.79086-4-4-4-0.664662 0.0015-1.31847 0.168682-1.90233 0.486328-1.01566-1.55058-2.74405-2.48525-4.59766-2.48633z" style="fill:#d7f1f8;stroke:#fff"/></g></svg>
