<?xml version="1.0" encoding="UTF-8"?>
<svg version="1.1" viewBox="0 0 512 512" xml:space="preserve" xmlns="http://www.w3.org/2000/svg">
   <defs id="a">
      <style id="current-color-scheme" type="text/css">
         .ColorScheme-Text             { color: #7d7d7d; }
         .ColorScheme-PositiveText     { color: #00aa88; }
         .ColorScheme-NeutralText      { color: #ff6644; }
         .ColorScheme-NegativeText     { color: #ff5577; }
         .ColorScheme-Background       { color: #eff0f1; }
         .ColorScheme-Highlight        { color: #00aaff; }
         .ColorScheme-ViewText         { color: #7d7d7d; }
         .ColorScheme-ViewBackground   { color: #eff0f1; }
         .ColorScheme-ViewHover        { color: #00aaff; }
         .ColorScheme-ViewFocus        { color: #00aaff; }
         .ColorScheme-ButtonText       { color: #7d7d7d; }
         .ColorScheme-ButtonBackground { color: #eff0f1; }
         .ColorScheme-ButtonHover      { color: #00aaff; }
         .ColorScheme-ButtonFocus      { color: #00aaff; }
         .Translucent { opacity:.5; }
      </style>
      <linearGradient id="a" x1="241.716" x2="393.104" y1="270.286" y2="119.331"
                      gradientTransform="translate(-.001125 1e-4)"
                      gradientUnits="userSpaceOnUse">
        <stop style="stop-opacity:.3" offset=".47063"/>
        <stop style="stop-opacity:0" offset="1"/>
      </linearGradient>
  </defs>
  <g id="c">
     <rect width="512" height="512" rx="15%" fill="none"/>
     <rect class="ColorScheme-Text Translucent" x="56" y="398.858" width="57.1429" height="57.1429" rx="12.6154" fill="currentColor"/>
     <rect class="ColorScheme-Text Translucent" x="170.287" y="398.858" width="57.1429" height="57.1429" rx="12.6154" fill="currentColor"/>
     <rect class="ColorScheme-Text Translucent" x="284.572" y="398.858" width="57.1429" height="57.1429" rx="12.6154" fill="currentColor"/>
     <rect class="ColorScheme-Text Translucent" x="398.857" y="398.858" width="57.1429" height="57.1429" rx="12.6154" fill="currentColor"/>
     <rect class="ColorScheme-Text Translucent" x="56" y="284.571" width="57.1429" height="57.1429" rx="12.6154" fill="currentColor"/>
     <rect class="ColorScheme-Text Translucent" x="398.857" y="284.571" width="57.1429" height="57.1429" rx="12.6154" fill="currentColor"/>
     <rect class="ColorScheme-Text Translucent" x="56" y="170.286" width="57.1429" height="57.1429" rx="12.6154" fill="currentColor"/>
     <rect class="ColorScheme-Text Translucent" x="56" y="55.9992" width="57.1429" height="57.1429" rx="12.6154" fill="currentColor"/>
     <rect class="ColorScheme-Text Translucent" x="170.287" y="55.9992" width="57.1429" height="57.1429" rx="12.6154" fill="currentColor"/>
     <rect class="ColorScheme-Highlight" x="156" y="270.286" width="85.7145" height="85.7145" rx="18.9231" fill="currentColor"/>
     <rect class="ColorScheme-Highlight" x="270.285" y="270.286" width="85.7145" height="85.7145" rx="18.9231" fill="currentColor"/>
     <rect class="ColorScheme-Highlight" x="156" y="156" width="85.7145" height="85.7145" rx="18.9231" fill="currentColor"/>
     <rect class="ColorScheme-Highlight" x="270.285" y="55.9992" width="185.715" height="185.715" rx="41.0001" fill="currentColor"/>
     <rect x="156" y="270.286" width="85.7145" height="85.7145" rx="18.9231" fill="url(#a)"/>
     <rect x="270.285" y="270.286" width="85.7145" height="85.7145" rx="18.9231" fill="url(#a)"/>
     <rect x="156" y="156" width="85.7145" height="85.7145" rx="18.9231" fill="url(#a)"/>
     <rect x="270.285" y="55.9992" width="185.715" height="185.715" rx="41.0001" fill="url(#a)"/>
   </g>
</svg>
