<?xml version="1.0" encoding="UTF-8"?>
<svg version="1.1" viewBox="0 0 512 512" xml:space="preserve" xmlns="http://www.w3.org/2000/svg"><defs><radialGradient id="radialGradient2520" cx="32" cy="32" r="26" gradientTransform="scale(8)" gradientUnits="userSpaceOnUse"><stop stop-opacity="0" offset="0"/><stop offset="1"/></radialGradient><radialGradient id="radialGradient7993" cx="32" cy="32" r="25.707" gradientTransform="matrix(9.9832 0 0 9.9832 -63.4536 -63.4536)" gradientUnits="userSpaceOnUse"><stop stop-color="#5e5e5e" offset="0"/><stop stop-color="#53676c" stop-opacity="0" offset="1"/></radialGradient></defs><rect x="64.0024" y="64" width="192" height="192" ry="0" fill="#008080" style="fill:#2c5aa0"/><rect x="64" y="256" width="192" height="192" ry="0" fill="#ffd42a" style="fill:#f55"/><rect x="256" y="64" width="192" height="192" ry="0" fill="#d35f5f" style="fill:#0a8"/><rect x="256" y="256" width="192" height="192" ry="0" fill="#134584" style="fill:#333"/><path d="m174.176 118.352h-28.3568v28.3568h-27.4712v26.5848h27.4712v28.3568h28.3568v-28.3568h27.4712v-26.5848h-27.4712z" color="#000000" style="fill:#f2f2f2"/><path d="m129.872 365.296h60.2584v-26.5848h-60.2584z" color="#000000" style="fill:#f2f2f2"/><path d="m391.48 140.576-20.0512-20.0512-20.0512 20.0512-19.4248-19.4248-18.7984 18.7984 19.4248 19.4248-20.0512 20.0512 20.0512 20.0512 20.0512-20.0512 19.4248 19.4248 18.7984-18.7984-19.4248-19.4248z" color="#000000" style="fill:#f2f2f2"/><path d="m312.12 345.8h79.7544v-26.5848h-79.7544zm0 38.9912h79.7544v-26.5848h-79.7544z" color="#000000" style="fill:#f2f2f2"/><path d="m71.1096 50.344c-11.3832 0-20.7656 9.3824-20.7656 20.7656v369.784c0 11.3832 9.3824 20.7656 20.7656 20.7656h369.784c11.3832 0 20.7656-9.3824 20.7656-20.7656v-369.784c0-11.3832-9.3824-20.7656-20.7656-20.7656zm0 14.3904h369.784c3.65448 0 6.37504 2.72056 6.37504 6.37504v369.784c0 3.65448-2.72056 6.37504-6.37504 6.37504h-369.784c-3.65448 0-6.37504-2.72055-6.37504-6.37504v-369.784c0-3.65448 2.72056-6.37504 6.37504-6.37504z" style="fill:url(#radialGradient7993)"/><rect x="48.0032" y="48.0008" width="416" height="416" ry="21.2472" opacity=".2" style="fill:url(#radialGradient2520)"/></svg>
