<?xml version="1.0" encoding="UTF-8"?>
<svg version="1.1" viewBox="0 0 512 512" xml:space="preserve" xmlns="http://www.w3.org/2000/svg">
 <defs>
  
    <linearGradient id="c" x1="24.944" x2="240.54" y1="123.2" y2="270.16" gradientTransform="matrix(-1.3611 0 0 -1.308 516.11 583.24)" gradientUnits="userSpaceOnUse">
     <stop stop-opacity=".15" offset=".5"/>
     <stop stop-opacity="0" offset="1"/>
    </linearGradient>
    
 </defs>
 
 
 
 
 
 
 
 
 
 
<path d="m234.45 77.346-165.45 0.25099c-14.375-0.25161-25.144 10.15-25.144 25.452v78.175c62.837-5e-3 125.68 3.4e-4 188.52 3.4e-4l44.858-51.634z" fill="#f1c710" opacity=".9"/><path d="m234.45 77.346-165.45 0.25099c-14.375-0.25161-25.144 10.15-25.144 25.452v78.175c62.837-5e-3 125.68 3.4e-4 188.52 3.4e-4l44.858-51.634z" fill-opacity=".14902" opacity=".9"/><path d="m234.45 77.347-165.45 0.25c-14.375-0.25161-25.144 10.149-25.144 25.451v4.582c0-10.882 10.77-18.279 25.144-18.1l161.45-0.17773 42.791 51.152h189.64c4.7222 5.2e-4 8.5501 2.7238 8.5508 6.082v-8.4453a8.5521 8.5521 0 0 0-8.5508-8.5508h-185.64z" fill="#f1c710" opacity=".1"/><path d="m41.141 126.15h429.79c13.117 0 23.754 10.249 23.754 22.899v262.53c0 12.645-10.637 22.899-23.754 22.899h-429.79c-13.117 0-23.754-10.254-23.754-22.899v-262.53c0-12.651 10.637-22.899 23.754-22.899z" fill="#f1c710"/><path d="m17.315 401.95v9.8096c0 12.645 10.637 22.899 23.754 22.899h429.8c13.117 0 23.754-10.254 23.754-22.899v-9.8096c0 12.645-10.637 22.899-23.754 22.899h-429.8c-13.117 0-23.754-10.254-23.754-22.899z" opacity=".1"/><path d="m41.141 126.15c-13.117 0-23.754 10.249-23.754 22.899v9.8096c0-12.651 10.637-22.899 23.754-22.899h429.79c13.117 0 23.754 10.249 23.754 22.899v-9.8096c0-12.651-10.637-22.899-23.754-22.899z" fill="#fff" opacity=".1"/><path d="m470.8 434.49c13.228 0 23.877-10.213 23.877-22.899v-262.53c0-12.686-10.649-22.899-23.877-22.899h-206.98l-246.44 295.64c3.9024 7.5257 11.988 12.681 21.383 12.681z" fill="url(#c)" opacity=".75"/><g transform="translate(3.532 -27.534)" fill="#f5faff"><path d="m426.69 217.72h56.609c2.4125 0 4.3546-2.0026 4.3546-4.49v-26.94c0-2.4874-1.9423-4.49-4.3546-4.49h-56.609zm34.838-8.98v-17.96h17.419v17.96z" color="#000000" stroke-width="1.0546"/><path d="m17.353 181.82v17.96h17.418v-17.96zm17.418 17.96v17.96h17.418v-17.96zm17.418 0h17.42v-17.96h-17.42zm17.42 0v17.96h17.418v-17.96zm17.418 0h17.42v-17.96h-17.42zm17.42 0v17.96h17.418v-17.96zm17.418 0h17.42v-17.96h-17.42zm17.42 0v17.96h17.418v-17.96zm17.418 0h17.42v-17.96h-17.42zm17.42 0v17.96h17.418v-17.96zm17.418 0h17.418v-17.96h-17.418zm17.418 0v17.96h17.42v-17.96zm17.42 0h17.418v-17.96h-17.418zm17.418 0v17.96h17.42v-17.96zm17.42 0h17.418v-17.96h-17.418zm17.418 0v17.96h17.42v-17.96zm17.42 0h17.418v-17.96h-17.418zm17.418 0v17.96h17.42v-17.96zm17.42 0h17.418v-17.96h-17.418zm17.418 0v17.96h17.418v-17.96zm17.418 0h17.42v-17.96h-17.42zm17.42 0v17.96h17.418v-17.96zm17.418 0h17.42v-17.96h-17.42z"/></g></svg>
