<?xml version="1.0" encoding="UTF-8"?>
<svg version="1.1" viewBox="0 0 512 512" xmlns="http://www.w3.org/2000/svg" xmlns:xlink="http://www.w3.org/1999/xlink">
 <defs>
  <linearGradient id="linearGradient27887">
   <stop offset="0"/>
   <stop stop-color="#f2f2f2" stop-opacity="0" offset="1"/>
  </linearGradient>
  <linearGradient id="linearGradient27889" x1="-23.702" x2="18.483" y1="157.85" y2="190.9" gradientTransform="matrix(.17635 0 0 .17635 5.8975 -20.214)" gradientUnits="userSpaceOnUse" xlink:href="#linearGradient27887"/>
  <linearGradient id="linearGradient29159" x1="16.907" x2="23.331" y1="249.13" y2="220.59" gradientTransform="matrix(.17635 0 0 .17635 6.2578 -28.414)" gradientUnits="userSpaceOnUse" xlink:href="#linearGradient27887"/>
  <linearGradient id="linearGradient29438" x1="32.907" x2="60.2" y1="146.96" y2="140.49" gradientTransform="matrix(.17635 0 0 .17635 5.8975 -20.214)" gradientUnits="userSpaceOnUse" xlink:href="#linearGradient27887"/>
 </defs>
 <g transform="translate(16,16)">
  <rect width="480" height="480" fill="none" opacity=".3" stop-color="#000000"/>
  <path d="m230.748 38.722c-53.4001-0.449413-105.698 29.5319-131.448 76.4746-19.708-4.08424-27.2557-16.8707-63.0863 10.6899-13.3529 10.271-28.7467 36.8795-17.0575 50.4889 18.4239 7.96296 39.1047 0.87142 57.5898-3.52608-15.8604 58.1482-25.4953 108.484-11.599 160.189 52.7084 146.735 338.35 141.673 365.932 0.72086-5e-3 -0.02-0.01-0.0397-0.02-0.0595-2.6e-4 -7.9e-4 2e-4 -1e-3 0-3e-3 2.70516-11.4927 4.09104-24.1672 4.00402-38.1041 2.95886-39.0962-6.38659-78.2208-21.2192-114.182 16.6267-5.15859 58.3382 3.2171 50.0948-26.7165-11.5712-34.538-52.6631-47.2772-85.7866-41.6389-35.017-44.8815-89.8373-74.9605-147.41-74.3256z" fill="#ccc" fill-rule="evenodd" stop-color="#000000" stroke-width=".17635"/>
  <g transform="scale(28.347)" fill="#1a1a1a" stroke-width=".00622111">
   <path d="m6.5147 9.5133a0.98541 1.1839 0 0 0 0.10106-0.5209 0.98541 1.1839 0 0 0-0.98541-1.1839 0.98541 1.1839 0 0 0-0.98541 1.1839 0.98541 1.1839 0 0 0 0.28833 0.82629c0.025498-0.00681 0.050351-0.013949 0.076095-0.020596 0.079678-0.020561 0.16049-0.040335 0.24241-0.059418 0.081915-0.019083 0.16489-0.037446 0.24888-0.055044 0.083985-0.0176 0.169-0.034469 0.2549-0.050577 0.085889-0.016101 0.17264-0.03141 0.26028-0.046022 0.087627-0.014619 0.17609-0.028537 0.26528-0.041647 0.077234-0.011357 0.15528-0.021857 0.23358-0.032078z" fill-rule="evenodd" stop-color="#000000" style="stroke-width:.00622111"/>
   <path d="m11.967 7.7727a0.98541 1.1839 0 0 0-0.98541 1.1839 0.98541 1.1839 0 0 0 0.14034 0.59545c0.07059 0.010722 0.14109 0.021545 0.21079 0.033263 0.08889 0.014937 0.17709 0.030738 0.26437 0.047297s0.17366 0.033858 0.25918 0.052036c0.08551 0.01818 0.17013 0.037243 0.25372 0.057049 0.08357 0.019804 0.16613 0.040349 0.2476 0.061786 0.07993 0.021033 0.15874 0.042915 0.23648 0.065523a0.98541 1.1839 0 0 0 0.35833-0.9124 0.98541 1.1839 0 0 0-0.98541-1.1839z" fill-rule="evenodd" stop-color="#000000" style="stroke-width:.00622111"/>
   <path d="m3.1685 4.8806c0.42414 0.27722 0.76121 0.32418 1.1104 0.18653 0.52342-0.20635 0.49956-1.1301 1.0259-1.3403 0.62751-0.25065 1.3726 0.54028 2.0072 0.30761 0.48442-0.1776 0.85346-0.67457 1.0036-1.1645 0.14789-0.48255 0.37409-1.2503-0.17606-1.5038-2.6576 0.035591-4.5223 1.8635-4.9711 3.5145z" style="stroke-width:.00622111"/>
   <path d="m14.729 4.0641c-0.20562 0.4523-0.19853 0.78571 0.04793 1.0209 0.1387 0.13235 0.43576-0.13163 0.57513 0 0.1604 0.15149-0.05846 0.51551 0.11503 0.65182 0.21725 0.1707 0.43065 0.30424 0.92023 0.11982 0.14864-0.64934-0.70784-1.6309-1.6583-1.7926z" style="stroke-width:.00622111"/>
  </g>
  <g transform="scale(28.347)" fill-rule="evenodd" stroke-width=".00622111">
   <path d="m8.1401 1.366c-1.8838-0.015854-3.7287 1.0418-4.6371 2.6978-0.69524-0.14408-0.9615-0.59515-2.2255 0.37711-0.47105 0.36233-1.0141 1.301-0.60174 1.7811 0.64994 0.28091 1.3795 0.030741 2.0316-0.12439-0.55951 2.0513-0.8994 3.827-0.40918 5.651 1.8594 5.1764 11.936 4.9978 12.909 0.02543-1.76e-4 -7.05e-4 -3.53e-4 -0.0014-7.05e-4 -0.0021-9e-6 -2.8e-5 7e-6 -4.8e-5 0-9.4e-5 0.09543-0.40543 0.14432-0.85255 0.14125-1.3442 0.10438-1.3792-0.2253-2.7594-0.74855-4.028 0.58654-0.18198 2.058 0.11349 1.7672-0.94248-0.4082-1.2184-1.8578-1.6678-3.0263-1.4689-1.2353-1.5833-3.1692-2.6444-5.2002-2.622z" fill="url(#linearGradient27889)" opacity=".2" stop-color="#000000" style="fill:url(#linearGradient27889);stroke-width:.00622111"/>
   <path d="m15.206 11.774c-0.96164-3.3175-12.562-3.0673-12.909-0.025478 1.8594 5.1764 11.935 4.9979 12.909 0.02548z" fill="#e6e6e6" stop-color="#000000" style="stroke-width:.00622111"/>
   <path d="m4.7667 11.915a0.71677 0.34753 0 0 0-0.71685 0.34748 0.71677 0.34753 0 0 0 0.71685 0.34757 0.71677 0.34753 0 0 0 0.71676-0.34757 0.71677 0.34753 0 0 0-0.71676-0.34748z" fill="#999" stop-color="#000000" style="stroke-width:.00622111"/>
   <path d="m12.341 11.859a0.71677 0.34753 0 0 0-0.71676 0.34748 0.71677 0.34753 0 0 0 0.71676 0.34757 0.71677 0.34753 0 0 0 0.71676-0.34757 0.71677 0.34753 0 0 0-0.71676-0.34748z" fill="#999" stop-color="#000000" style="stroke-width:.00622111"/>
   <path d="m14.598 6.399c0.58654-0.18198 2.058 0.11349 1.7672-0.94248-0.4082-1.2184-1.8578-1.6678-3.0263-1.4689l1.2592 2.4114z" fill="url(#linearGradient29438)" opacity=".3" stop-color="#000000" style="fill:url(#linearGradient29438);stroke-width:.00622111"/>
   <path d="m15.206 11.774c-0.96164-3.3175-12.562-3.0673-12.909-0.025478 1.8594 5.1764 11.935 4.9979 12.909 0.02548z" fill="url(#linearGradient29159)" opacity=".3" stop-color="#000000" style="fill:url(#linearGradient29159);stroke-width:.00622111"/>
  </g>
 </g>
</svg>
