<?xml version="1.0" encoding="UTF-8"?>
<svg version="1.1" viewBox="0 0 512 512" xmlns="http://www.w3.org/2000/svg" xmlns:cc="http://creativecommons.org/ns#" xmlns:dc="http://purl.org/dc/elements/1.1/" xmlns:rdf="http://www.w3.org/1999/02/22-rdf-syntax-ns#" xmlns:xlink="http://www.w3.org/1999/xlink">
 <metadata>
  <rdf:RDF>
   <cc:Work rdf:about="">
    <dc:format>image/svg+xml</dc:format>
    <dc:type rdf:resource="http://purl.org/dc/dcmitype/StillImage"/>
   </cc:Work>
  </rdf:RDF>
 </metadata>
 <defs>
  <linearGradient id="linearGradient842">
   <stop stop-color="#19a187" offset="0"/>
   <stop stop-color="#0af" offset="1"/>
  </linearGradient>
  <style id="current-color-scheme" type="text/css"/>
  <linearGradient id="linearGradient63735" x1="42.259" x2="32.824" y1="21.189" y2="16.153" gradientUnits="userSpaceOnUse">
   <stop stop-color="#e6e6e6" offset="0"/>
   <stop stop-color="#e6e6e6" stop-opacity="0" offset="1"/>
  </linearGradient>
  <linearGradient id="linearGradient13331" x1="30.64" x2="-23.874" y1="-48.325" y2="-54.778" gradientTransform="matrix(7.49972 0 0 7.49972 .00659619 -.00574081)" gradientUnits="userSpaceOnUse" xlink:href="#linearGradient842"/>
  <linearGradient id="linearGradient13449" x1="33.236" x2="-32.053" y1="-42.014" y2="-43.031" gradientTransform="matrix(7.49972 0 0 7.49972 .00659619 -.00574081)" gradientUnits="userSpaceOnUse" xlink:href="#linearGradient842"/>
 </defs>
 <g transform="translate(16,16)">
  <path d="m0 0v480h480v-480z" fill="none" stroke-width="2"/>
  <circle transform="rotate(127.75)" cx="42.8341" cy="-336.698" r="209.565" fill="url(#linearGradient13331)" fill-rule="evenodd" stop-color="#000000" stroke="url(#linearGradient13449)" stroke-width="4.13791" style="fill:url(#linearGradient13331);stroke:url(#linearGradient13449)"/>
  <g transform="matrix(7.5 0 0 7.5 .00434438 .000200738)" stroke-width=".222227">
   <path class="ColorScheme-Text" d="m32.585 11.5 7.87e-4 29.323c-2.093-0.9027-5.3568-1.3798-7.9477-0.30614-4.3369 1.7954-6.2745 5.7858-5.0074 8.8458 1.267 3.0609 5.2643 4.0356 9.6022 2.2392 3.4219-1.4205 5.0763-5.1898 5.0709-7.414l-0.05135-25.692s8.5012 0.99855 8.5012 8.9958c0 5.998-1.8345 7.6653-6.8345 12.664 4.9999-2.9989 8.8315-6.6656 8.8315-12.664 0-7.9972-5.0393-11.738-7.754-13.174-2.7147-1.4361-4.4117-2.8176-4.4117-2.8176z" fill="#fff" style="stroke-width:.0296302"/>
   <path class="ColorScheme-Text" d="m19.713 45.142c-0.57873 1.4133-0.629 2.9036-0.08333 4.2214 1.267 3.0609 5.2639 4.0347 9.6019 2.2384 2.9556-1.2269 4.5901-4.2036 4.9779-6.426-0.06153 0.1637-0.1275 0.32716-0.20052 0.49219-0.07842 0.17722-0.1635 0.35564-0.25522 0.53256s-0.1905 0.35262-0.29557 0.52736c-0.05253 0.08737-0.10687 0.17525-0.16277 0.26172-0.05588 0.08647-0.11264 0.1725-0.17189 0.25782s-0.12099 0.16997-0.1836 0.2539c-0.06262 0.08395-0.12674 0.16637-0.1927 0.2487-0.06599 0.08234-0.13377 0.16432-0.20314 0.2448-0.06935 0.08047-0.1395 0.1599-0.21224 0.23829-0.07273 0.07838-0.14784 0.15572-0.22397 0.23177-0.07614 0.07605-0.15355 0.15047-0.23307 0.22397-0.07953 0.07348-0.16057 0.14547-0.2435 0.21615s-0.16757 0.1407-0.2539 0.20834c-0.08634 0.06763-0.17457 0.13357-0.26432 0.19792s-0.18157 0.12667-0.27474 0.1875c-0.09319 0.06083-0.18855 0.12-0.28517 0.17709-0.0966 0.05708-0.19424 0.11228-0.29427 0.16537-0.10004 0.05308-0.2025 0.10348-0.30601 0.15235-0.1035 0.04887-0.20817 0.09624-0.31511 0.14064-0.13555 0.05613-0.27014 0.10942-0.40496 0.16015-0.13482 0.05075-0.26972 0.09913-0.40366 0.14454-0.13394 0.0454-0.26684 0.08752-0.39976 0.1276-0.1329 0.04008-0.2654 0.07717-0.39714 0.11198-0.13174 0.03482-0.26284 0.06807-0.39324 0.09765-0.13042 0.0296-0.26039 0.05632-0.38934 0.08074s-0.25679 0.04583-0.38412 0.0651c-0.12734 0.01927-0.25464 0.0366-0.38022 0.05078-0.12557 0.01417-0.25004 0.02473-0.37371 0.03385-0.12367 0.0092-0.24689 0.01673-0.36851 0.02083-0.12162 0.0042-0.24127 0.0048-0.36069 0.0038-0.11942-8.68e-4 -0.2384-0.0033-0.35547-0.0092-0.11707-0.0058-0.23307-0.014-0.34767-0.02473-0.11458-0.01067-0.2279-0.02483-0.33986-0.04037-0.11195-0.0155-0.22157-0.03305-0.33074-0.05339-0.10917-0.02035-0.21667-0.0426-0.32292-0.06772-0.10625-0.0251-0.21194-0.0535-0.31511-0.08333s-0.20474-0.06185-0.30469-0.09635c-0.09995-0.03452-0.19769-0.07153-0.29427-0.11068-0.09659-0.03915-0.19209-0.07995-0.28517-0.1237s-0.18402-0.08972-0.27344-0.13802c-0.08944-0.0483-0.1774-0.09954-0.26302-0.15235-0.08563-0.05282-0.16832-0.10679-0.25-0.16407-0.08169-0.05729-0.162-0.11797-0.23959-0.17969s-0.15322-0.1253-0.22657-0.1914-0.14459-0.13399-0.21355-0.20444c-0.06897-0.07045-0.13609-0.1427-0.20052-0.21746-0.06443-0.07475-0.12645-0.15275-0.1862-0.23177s-0.11695-0.15895-0.17189-0.24219c-0.05493-0.08324-0.10758-0.1691-0.15755-0.25652s-0.09708-0.17669-0.14194-0.26824c-0.04485-0.09155-0.08672-0.1856-0.1263-0.28126-0.0396-0.09564-0.07602-0.19172-0.10938-0.28907-0.03337-0.09735-0.06397-0.1954-0.09115-0.29427-0.02717-0.09889-0.05188-0.19927-0.07292-0.29949-0.02103-0.10022-0.03843-0.20072-0.05338-0.30209-0.015-0.10137-0.02625-0.20367-0.03515-0.30601-0.0088-0.10232-0.01533-0.2042-0.01823-0.30731-3e-3 -0.1031-3e-3 -0.20754 0-0.31121s0.0093-0.20714 0.01823-0.31121c0.0088-0.10407 0.02042-0.20825 0.03515-0.31251 9.26e-4 -0.0065 3e-3 -0.013 0.0038-0.01953z" fill-opacity=".1" style="stroke-width:.0296302"/>
   <path class="ColorScheme-Text" d="m34.253 12.691v5.8047s0.53114 0.06268 1.3281 0.28125c0.09962 0.02732 0.20314 0.05551 0.31055 0.08789 0.1074 0.03239 0.21788 0.06765 0.33203 0.10547 0.11415 0.03781 0.2317 0.07944 0.35156 0.12305 0.11987 0.04361 0.24266 0.0889 0.36719 0.13867 1.2453 0.49772 2.6983 1.3136 3.8398 2.6289 0.05709 0.06577 0.11447 0.13288 0.16992 0.20117s0.1084 0.13812 0.1621 0.20898 0.10638 0.14332 0.1582 0.2168 0.10448 0.14652 0.1543 0.22266 0.09685 0.15553 0.14454 0.23438c0.04767 0.07885 0.09522 0.15863 0.14062 0.24023s0.08982 0.16365 0.13282 0.24805 0.08452 0.17057 0.125 0.25781c0.04047 0.08725 0.07937 0.17549 0.11718 0.26562 0.03782 0.09014 0.07435 0.18232 0.10937 0.27539s0.06945 0.18715 0.10157 0.2832c0.0321 0.09606 0.06273 0.19388 0.0918 0.29297 0.02905 0.09908 0.05615 0.20058 0.08204 0.30273 0.02588 0.10216 0.0497 0.20527 0.07227 0.31055s0.04337 0.21187 0.0625 0.32031 0.03717 0.21842 0.05273 0.33008c0.0155 0.11165 0.02915 0.22493 0.04102 0.33984 0.01183 0.11491 0.02125 0.2314 0.0293 0.34961 8e-3 0.11821 0.0155 0.23781 0.01953 0.35938 0.0042 0.12156 0.0058 0.24614 0.0058 0.37109 0 0.18744-0.0022 0.36962-0.0058 0.54883-0.0037 0.17921-0.01017 0.35394-0.01758 0.52539-0.0073 0.17146-0.01617 0.33974-0.02735 0.50391-0.01117 0.16416-0.02408 0.32508-0.03907 0.48242-0.015 0.15734-0.03185 0.3119-0.05078 0.46289s-0.03953 0.29826-0.0625 0.44336c-0.04592 0.29021-0.09959 0.56842-0.1621 0.83789-0.03127 0.13474-0.06407 0.26819-0.0996 0.39844s-0.07339 0.25853-0.11329 0.38476c-0.15957 0.50494-0.3554 0.97811-0.58789 1.4375-0.05812 0.11485-0.11875 0.23058-0.18164 0.34375s-0.12759 0.22398-0.19531 0.33594-0.13829 0.22472-0.21094 0.33594-0.14695 0.22109-0.22461 0.33203c-0.07765 0.11094-0.15749 0.22285-0.24024 0.33398-0.08273 0.11114-0.16795 0.22219-0.25586 0.33398-0.0879 0.1118-0.17833 0.22301-0.27148 0.33594-0.09315 0.11292-0.19058 0.22728-0.28906 0.3418-0.98485 1.1452-2.2383 2.3814-3.8008 3.9434 0.62499-0.37486 1.2331-0.75922 1.8164-1.1582 0.29164-0.19949 0.57621-0.40264 0.85547-0.60937 0.27926-0.20674 0.55278-0.41802 0.81836-0.63281 0.26558-0.2148 0.52284-0.43258 0.77344-0.65625 3.57e-4 -3.18e-4 0.0016 3.18e-4 2e-3 0 0.25022-0.22337 0.49257-0.45252 0.72656-0.68555 0.23432-0.23336 0.461-0.47294 0.67774-0.7168 0.21674-0.24385 0.42323-0.49289 0.62109-0.74805 1.1872-1.531 2.0236-3.2721 2.3672-5.3125 0.05727-0.34007 0.09962-0.68786 0.1289-1.0449 0.02928-0.35707 0.04492-0.72278 0.04492-1.0977 0-0.74973-0.04443-1.4621-0.12695-2.1387-0.055-0.45102-0.12765-0.88697-0.21484-1.3066-0.21797-1.0492-0.5304-2.0016-0.91016-2.8652-0.07597-0.17269-0.15524-0.34023-0.23633-0.50586-0.0811-0.16563-0.16422-0.3296-0.25-0.48828-0.1715-0.31746-0.35157-0.62171-0.53906-0.91211-0.09349-0.14468-0.19032-0.28569-0.28711-0.42383-0.09708-0.13858-0.19496-0.27414-0.29492-0.40625-3.13e-4 -4.15e-4 3.14e-4 -0.0015 0-2e-3 -0.09967-0.13168-0.20262-0.25939-0.30469-0.38476-0.10239-0.12577-0.20423-0.24764-0.30859-0.36719-0.2087-0.23919-0.42086-0.46666-0.63477-0.68164-0.02665-0.02678-0.05337-0.05171-0.08009-0.07813-0.14589-0.14431-0.29276-0.28054-0.43945-0.41406-0.04235-0.03855-0.0846-0.07952-0.12695-0.11719-0.04373-0.0389-0.08715-0.07531-0.13085-0.11328-0.12777-0.11094-0.25574-0.21722-0.38281-0.32031-0.04368-0.03546-0.08732-0.07287-0.13085-0.10742-0.05763-0.04573-0.11455-0.08865-0.17188-0.13281-0.0976-0.07512-0.1946-0.14814-0.29102-0.21875-0.05675-0.04162-0.11367-0.08492-0.16992-0.125-0.05857-0.04174-0.11589-0.081-0.17383-0.1211-0.0901-0.06224-0.17924-0.12331-0.26758-0.18164-0.05652-0.0374-0.11422-0.0755-0.16992-0.11133-0.19872-0.12783-0.39025-0.24506-0.57617-0.35352-0.18592-0.10845-0.36563-0.20879-0.53516-0.29883-0.30895-0.16409-0.58332-0.31482-0.83398-0.45703-0.02108-0.01195-0.03785-0.02137-0.0586-0.0332-0.16515-0.09395-0.31554-0.18369-0.4707-0.27539-0.0675-0.0399-0.13562-0.07978-0.20117-0.11914-0.4383-0.26318-2.5016-1.7032-2.8472-1.9314z" fill="url(#linearGradient63735)" style="fill:url(#linearGradient63735);stroke-width:.222227"/>
  </g>
 </g>
</svg>
