<?xml version="1.0" encoding="UTF-8"?>
<svg version="1.1" viewBox="0 0 512 512" xml:space="preserve" xmlns="http://www.w3.org/2000/svg">
 <defs>
  <linearGradient id="a" x1="16.82" x2="24.021" y1="7.4399" y2="17.379" gradientTransform="matrix(10.802 0 0 9.3159 -3.3346 16.792)" gradientUnits="userSpaceOnUse">
      <stop stop-color="#fff" offset="0"/>
      <stop stop-color="#e6e6e6" offset="1"/>
    </linearGradient>
    <linearGradient id="c" x1="24.944" x2="240.54" y1="123.2" y2="270.16" gradientTransform="matrix(-1.3611 0 0 -1.308 516.08 610.77)" gradientUnits="userSpaceOnUse">
     <stop stop-opacity=".15" offset=".5"/>
     <stop stop-opacity="0" offset="1"/>
    </linearGradient>
    <linearGradient id="b" x1="254.77" x2="254.77" y1="195.35" y2="250.27" gradientUnits="userSpaceOnUse">
     <stop stop-opacity=".3" offset="0"/>
     <stop stop-opacity=".05" offset="1"/>
    </linearGradient>
 </defs>
 <path d="m234.45 49.806-165.45 0.25099c-14.375-0.25161-25.144 10.15-25.144 25.452v78.175c62.837-5e-3 125.68 3.4e-4 188.52 3.4e-4l44.858-51.634z" fill="#f1c710" opacity=".9"/>
 <path d="m234.45 49.806-165.45 0.25099c-14.375-0.25161-25.144 10.15-25.144 25.452v78.175c62.837-5e-3 125.68 3.4e-4 188.52 3.4e-4l44.858-51.634z" fill-opacity=".14902" opacity=".9"/><path d="m277.24 102.05-44.859 51.635h238.79l0.26367-34.531v-8.5527a8.5521 8.5521 0 0 0-8.5508-8.5508h-185.64z" fill="#f1c710"/><path d="m277.24 102.05-44.859 51.635h238.79l0.26367-34.531v-8.5527a8.5521 8.5521 0 0 0-8.5508-8.5508h-185.64z" fill-opacity=".1"/>
 <path d="m56.194 119.15a8.4814 7.5724 0 0 0-8.482 7.573v26.958h419.86v-26.958a8.4814 7.5724 0 0 0-8.48-7.573z" fill="url(#a)"/>
 <path d="m41.107 153.68h429.79c13.117 0 23.754 10.249 23.754 22.899v262.53c0 12.645-10.637 22.899-23.754 22.899h-429.79c-13.117 0-23.754-10.254-23.754-22.899v-262.53c0-12.651 10.637-22.899 23.754-22.899z" fill="#f1c710"/>
 <path d="m17.281 429.48v9.8096c0 12.645 10.637 22.899 23.754 22.899h429.8c13.117 0 23.754-10.254 23.754-22.899v-9.8096c0 12.645-10.637 22.899-23.754 22.899h-429.8c-13.117 0-23.754-10.254-23.754-22.899z" opacity=".1"/>
 <path d="m41.107 153.68c-13.117 0-23.754 10.249-23.754 22.899v9.8096c0-12.651 10.637-22.899 23.754-22.899h429.79c13.117 0 23.754 10.249 23.754 22.899v-9.8096c0-12.651-10.637-22.899-23.754-22.899z" fill="#fff" opacity=".1"/>
 <path d="m470.77 462.02c13.228 0 23.877-10.213 23.877-22.899v-262.53c0-12.686-10.649-22.899-23.877-22.899h-206.98l-246.44 295.64c3.9024 7.5257 11.988 12.681 21.383 12.681z" fill="url(#c)" opacity=".75"/>
 <path d="m184.89 215.44v4c0 5.82 4.6859 10.506 10.506 10.506h118.75c5.82 0 10.506-4.6859 10.506-10.506v-4c0 5.82-4.6859 10.506-10.506 10.506h-118.75c-5.82 0-10.506-4.6859-10.506-10.506z" opacity=".3"/>
 <rect x="184.89" y="195.35" width="139.76" height="30.594" ry="10.505" fill="url(#b)"/>
 <path d="m234.45 49.807-165.45 0.25c-14.375-0.25161-25.144 10.149-25.144 25.451v4.582c0-10.882 10.77-18.279 25.144-18.1l161.45-0.17773 42.791 51.152h189.64c4.7222 5.2e-4 8.5501 2.7238 8.5508 6.082v-8.4453a8.5521 8.5521 0 0 0-8.5508-8.5508h-185.64z" fill="#f1c710" opacity=".1"/>
</svg>
