<?xml version="1.0" encoding="UTF-8"?>
<svg version="1.1" viewBox="0 0 512 512" xmlns="http://www.w3.org/2000/svg">
 <g transform="matrix(30.9322 0 0 30.9322 7257.39 559.04)" stroke-linecap="round" style="stroke-width:.0323288">
  <path d="m-225.7-16.465c-3.492 0-6.3516 2.8596-6.3516 6.3516s2.8596 6.3496 6.3516 6.3496 6.3496-2.8576 6.3496-6.3496-2.8576-6.3516-6.3496-6.3516zm0 2.541c2.1194 0 3.8086 1.6912 3.8086 3.8105 0 2.1194-1.6892 3.8086-3.8086 3.8086s-3.8106-1.6892-3.8106-3.8086 1.6912-3.8105 3.8106-3.8105z" color="#000000" fill="#0a8" style="-inkscape-stroke:none;stroke-width:.0323288"/>
  <g fill-rule="evenodd" style="stroke-width:.0323288">
   <path d="m-225.73-17.099c-3.826 0-6.9534 3.1405-6.9534 6.9825s3.1275 6.9875 6.9534 6.9875c0.51208 0 1.0117-0.056856 1.493-0.16368l-0.6545-2.4552c-0.2711 0.05148-0.55154 0.079344-0.83846 0.079344-2.4593 0-4.4244-1.9784-4.4244-4.4479s1.9652-4.443 4.4244-4.443c2.0068 0 3.6848 1.3143 4.2343 3.1397l2.4648-0.56917c-0.81989-2.9395-3.5186-5.1101-6.6991-5.1101z" color="#000000" fill="#fd5" stroke-width=".0774144" style="-inkscape-stroke:none"/>
   <path d="m-223.88-17.502c-0.59361-0.15134-1.2143-0.23194-1.8534-0.23194-4.1694 0-7.5776 3.4232-7.5776 7.6169s3.4082 7.6231 7.5776 7.6231c1.9718-7.2e-6 3.772-0.76722 5.1224-2.0193l-1.777-1.7873c-0.88819 0.78876-2.0577 1.2651-3.3454 1.2651-2.8045 0-5.0521-2.2608-5.0521-5.0817 0-2.8208 2.2476-5.0767 5.0521-5.0767 0.39 0 0.76946 0.0438 1.1332 0.1265z" color="#000000" fill="#f95" stroke-width=".0773692" style="-inkscape-stroke:none"/>
   <path d="m-231.9-15.717c-1.3667 1.4739-2.2051 3.4442-2.2051 5.6021 0 4.5441 3.7146 8.255 8.2587 8.255 3.127 0 5.859-1.7579 7.2591-4.3346l-2.2721-1.1162c-0.97575 1.7409-2.837 2.9096-4.987 2.9096-3.1713 0-5.7187-2.5425-5.7187-5.7138 0-1.471 0.54811-2.8067 1.4523-3.8162z" color="#000000" fill="#f55" stroke-width=".077589" style="-inkscape-stroke:none"/>
  </g>
 </g>
</svg>
