<?xml version="1.0" encoding="UTF-8"?>
<svg version="1.1" viewBox="0 0 512 512" xmlns="http://www.w3.org/2000/svg" xmlns:cc="http://creativecommons.org/ns#" xmlns:dc="http://purl.org/dc/elements/1.1/" xmlns:rdf="http://www.w3.org/1999/02/22-rdf-syntax-ns#" xmlns:xlink="http://www.w3.org/1999/xlink">
 <defs>
  <linearGradient id="linearGradient12596" x1="216" x2="302.9" y1="162.3" y2="162.3" gradientTransform="matrix(5.5237 0 0 5.5237 -1177.2 -589.83)" gradientUnits="userSpaceOnUse">
   <stop stop-color="#263ce5" offset="0"/>
   <stop stop-color="#1414e7" offset=".50081"/>
   <stop stop-color="#452fef" offset=".50081"/>
   <stop stop-color="#543bf5" offset="1"/>
  </linearGradient>
  <linearGradient id="linearGradient32107" x1="273.72" x2="278.83" y1="138.28" y2="129.43" gradientTransform="matrix(5.5237 0 0 5.5237 -1177.2 -589.83)" gradientUnits="userSpaceOnUse">
   <stop stop-color="#1d53da" offset="0"/>
   <stop stop-color="#2857e2" offset="1"/>
  </linearGradient>
  <linearGradient id="linearGradient12508" x1="236.03" x2="298.55" y1="162.3" y2="162.3" gradientTransform="matrix(5.5237 0 0 5.5237 -1177.2 -589.83)" gradientUnits="userSpaceOnUse">
   <stop stop-color="#4639f7" offset="0"/>
   <stop stop-color="#4639f7" stop-opacity="0" offset="1"/>
  </linearGradient>
  <linearGradient id="linearGradient16" x1="232.07" x2="242.03" y1="118.59" y2="141.97" gradientTransform="matrix(5.5237 0 0 5.5237 -1177.2 -589.82)" gradientUnits="userSpaceOnUse">
   <stop stop-color="#6143db" offset="0"/>
   <stop stop-color="#8c35c3" offset="1"/>
  </linearGradient>
 </defs>
 <metadata>
  <rdf:RDF>
   <cc:Work rdf:about="">
    <dc:format>image/svg+xml</dc:format>
    <dc:type rdf:resource="http://purl.org/dc/dcmitype/StillImage"/>
   </cc:Work>
  </rdf:RDF>
 </metadata>
 <g stroke-linecap="round" stroke-linejoin="round">
  <path d="m239.75 130.24-217.89 151.54c-7.5161 5.2319-7.9514 16.197-0.87385 22.009l217.89 178.81c9.3301 7.0632 24.828 7.958 34.113 0l217.89-178.81c7.0775-5.8115 6.6422-16.777-0.87385-22.009l-217.89-151.54c-11.821-6.8251-20.437-6.887-32.366 0z" color="#000000" fill="url(#linearGradient12596)" stroke-width=".89108" style="-inkscape-stroke:none"/>
  <path d="m103.05 24.528a16.787 15.455 0 0 0-5.8585 1.6075 16.787 15.455 0 0 0-9.1379 13.766v243.35a16.787 15.455 0 0 0 23.433 14.176l228.9-91.014a16.787 15.455 0 0 0 3.1718-26.712l-228.89-152.32a16.787 15.455 0 0 0-11.619-2.8482z" color="#000000" fill="url(#linearGradient16)" stroke-width="1.0393" style="-inkscape-stroke:none"/>
  <path d="m410.1 23.908a16.107 16.107 0 0 0-11.047 2.5569l-228.89 152.32a16.107 16.107 0 0 0 2.9668 28.374l228.9 91.014a16.107 16.107 0 0 0 22.052-14.964v-243.34a16.107 16.107 0 0 0-8.5015-14.198 16.107 16.107 0 0 0-5.4806-1.7693z" color="#000000" fill="url(#linearGradient32107)" stroke-width="1.0393" style="-inkscape-stroke:none"/>
  <path d="m256.02 125.09c-4.9734-5e-3 -9.9747 1.653-15.719 4.898l-0.0111-0.011c-0.16958 0.0961-0.32534 0.17084-0.49603 0.26972l-13.777 9.5693 0.011 0.011-105.05 73.04-16.107 11.209-16.107 11.198v47.923c0 10.701 10.945 18.079 22.062 22.084 68.604 24.713 126.42 82.911 145.6 154.5 15.495-72.2 74.04-129.78 145.59-154.5 7.4216-2.5637 22.061-10.702 22.062-22.084v-47.297l-16.107-11.198-16.107-11.209-105.49-73.36-14.209-9.8824h-0.011c-5.9104-3.4124-11.017-5.1491-16.14-5.1569z" color="#000000" fill="#2156dc" stroke-width="1.0393" style="-inkscape-stroke:none"/>
  <path d="m255.99 488.23c6.2015 0.11158 12.397-1.654 17.04-5.6331l217.89-178.81c7.0775-5.8115 6.6422-16.777-0.87385-22.009l-217.89-151.54c-5.9104-3.4124-11.02-5.1342-16.142-5.1419z" color="#000000" fill="url(#linearGradient12508)" stroke-width=".89108" style="-inkscape-stroke:none"/>
 </g>
</svg>
