<?xml version="1.0" encoding="UTF-8" standalone="no"?>
<svg
   version="1.1"
   viewBox="0 0 512 512"
   xml:space="preserve"
   id="svg14"
   sodipodi:docname="firefox-nightly.svg"
   inkscape:version="1.4.2 (ebf0e940d0, 2025-05-08)"
   xmlns:inkscape="http://www.inkscape.org/namespaces/inkscape"
   xmlns:sodipodi="http://sodipodi.sourceforge.net/DTD/sodipodi-0.dtd"
   xmlns="http://www.w3.org/2000/svg"
   xmlns:svg="http://www.w3.org/2000/svg"
   xmlns:rdf="http://www.w3.org/1999/02/22-rdf-syntax-ns#"
   xmlns:cc="http://creativecommons.org/ns#"
   xmlns:dc="http://purl.org/dc/elements/1.1/"><sodipodi:namedview
     id="namedview14"
     pagecolor="#ffffff"
     bordercolor="#000000"
     borderopacity="0.25"
     inkscape:showpageshadow="2"
     inkscape:pageopacity="0.0"
     inkscape:pagecheckerboard="0"
     inkscape:deskcolor="#d1d1d1"
     inkscape:zoom="0.55587984"
     inkscape:cx="259.94827"
     inkscape:cy="256.35037"
     inkscape:window-width="1920"
     inkscape:window-height="1008"
     inkscape:window-x="0"
     inkscape:window-y="0"
     inkscape:window-maximized="1"
     inkscape:current-layer="g14" /><defs
     id="defs10"><linearGradient
       id="linearGradient12596"
       x1="216"
       x2="302.9"
       y1="162.3"
       y2="162.3"
       gradientTransform="matrix(5.5237 0 0 5.5237 -1177.2 -589.83)"
       gradientUnits="userSpaceOnUse"><stop
         stop-color="#263ce5"
         offset="0"
         id="stop1"
         style="stop-color:#266de5;stop-opacity:1;" /><stop
         stop-color="#1414e7"
         offset="0.50081003"
         id="stop2"
         style="stop-color:#1470e7;stop-opacity:1;" /><stop
         stop-color="#6654f1"
         offset="0.50081003"
         id="stop3"
         style="stop-color:#54b1f1;stop-opacity:1;" /><stop
         stop-color="#3727f9"
         offset="1"
         id="stop4"
         style="stop-color:#2792f9;stop-opacity:1;" /></linearGradient><linearGradient
       id="linearGradient32107"
       x1="273.72"
       x2="278.83"
       y1="138.28"
       y2="129.43"
       gradientTransform="matrix(5.5237,0,0,5.5237,-1177.2,-589.83)"
       gradientUnits="userSpaceOnUse"><stop
         stop-color="#1743b4"
         offset="0"
         id="stop5"
         style="stop-color:#1756b4;stop-opacity:1;" /><stop
         stop-color="#2857e2"
         offset="1"
         id="stop6"
         style="stop-color:#2879e2;stop-opacity:1;" /></linearGradient><linearGradient
       id="linearGradient12508"
       x1="236.03"
       x2="298.55"
       y1="162.3"
       y2="162.3"
       gradientTransform="matrix(5.5237 0 0 5.5237 -1177.2 -589.83)"
       gradientUnits="userSpaceOnUse"><stop
         stop-color="#6517d0"
         offset="0"
         id="stop7"
         style="stop-color:#171fd0;stop-opacity:1;" /><stop
         stop-color="#5656f8"
         stop-opacity="0"
         offset="1"
         id="stop8"
         style="stop-color:#56acf8;stop-opacity:0;" /></linearGradient><linearGradient
       id="linearGradient16"
       x1="232.07"
       x2="242.03"
       y1="118.59"
       y2="141.97"
       gradientTransform="matrix(5.5237,0,0,5.5237,-1177.2,-589.82)"
       gradientUnits="userSpaceOnUse"><stop
         stop-color="#6143db"
         offset="0"
         id="stop9"
         style="stop-color:#4389db;stop-opacity:1;" /><stop
         stop-color="#6f35c3"
         offset="1"
         id="stop10"
         style="stop-color:#3551c3;stop-opacity:1;" /></linearGradient></defs><metadata
     id="metadata10"><rdf:RDF><cc:Work
         rdf:about=""><dc:format>image/svg+xml</dc:format><dc:type
           rdf:resource="http://purl.org/dc/dcmitype/StillImage" /></cc:Work></rdf:RDF></metadata><g
     stroke-linecap="round"
     stroke-linejoin="round"
     id="g14"><path
       d="m239.75 130.24-217.89 151.54c-7.5161 5.2319-7.9514 16.197-0.87385 22.009l217.89 178.81c9.3301 7.0632 24.828 7.958 34.113 0l217.89-178.81c7.0775-5.8115 6.6422-16.777-0.87385-22.009l-217.89-151.54c-11.821-6.8251-20.437-6.887-32.366 0z"
       color="#000000"
       fill="url(#linearGradient12596)"
       stroke-width=".89108"
       style="-inkscape-stroke:none"
       id="path10" /><path
       d="m 103.05,24.528 a 16.787,15.455 0 0 0 -5.8585,1.6075 16.787,15.455 0 0 0 -9.1379,13.766 v 243.35 a 16.787,15.455 0 0 0 23.433,14.176 l 228.9,-91.014 a 16.787,15.455 0 0 0 3.1718,-26.712 l -228.89,-152.32 a 16.787,15.455 0 0 0 -11.619,-2.8482 z"
       color="#000000"
       fill="url(#linearGradient16)"
       style="fill:url(#linearGradient16);stroke-width:1.0393;-inkscape-stroke:none"
       id="path11" /><path
       d="m 410.1,23.908 a 16.107,16.107 0 0 0 -11.047,2.5569 l -228.89,152.32 a 16.107,16.107 0 0 0 2.9668,28.374 l 228.9,91.014 a 16.107,16.107 0 0 0 22.052,-14.964 v -243.34 a 16.107,16.107 0 0 0 -8.5015,-14.198 16.107,16.107 0 0 0 -5.4806,-1.7693 z"
       color="#000000"
       fill="url(#linearGradient32107)"
       style="fill:url(#linearGradient32107);stroke-width:1.0393;-inkscape-stroke:none"
       id="path12" /><path
       d="m 256.02,125.09 c -4.9734,-0.005 -9.9747,1.653 -15.719,4.898 l -0.0111,-0.011 c -0.16958,0.0961 -0.32534,0.17084 -0.49603,0.26972 l -13.777,9.5693 0.011,0.011 -105.05,73.04 -16.107,11.209 -16.107,11.198 v 47.923 c 0,10.701 10.945,18.079 22.062,22.084 68.604,24.713 126.42,82.911 145.6,154.5 15.495,-72.2 74.04,-129.78 145.59,-154.5 7.4216,-2.5637 22.061,-10.702 22.062,-22.084 v -47.297 l -16.107,-11.198 -16.107,-11.209 -105.49,-73.36 -14.209,-9.8824 h -0.011 c -5.9104,-3.4124 -11.017,-5.1491 -16.14,-5.1569 z"
       color="#000000"
       fill="#1a46bb"
       style="stroke-width:1.0393;-inkscape-stroke:none;fill:#1a54bb;fill-opacity:1"
       id="path13" /><path
       d="m255.99 488.23c6.2015 0.11158 12.397-1.654 17.04-5.6331l217.89-178.81c7.0775-5.8115 6.6422-16.777-0.87385-22.009l-217.89-151.54c-5.9104-3.4124-11.02-5.1342-16.142-5.1419z"
       color="#000000"
       fill="url(#linearGradient12508)"
       stroke-width=".89108"
       style="-inkscape-stroke:none"
       id="path14" /></g></svg>
