<?xml version="1.0" encoding="UTF-8"?>
<svg inkscape:version="1.4.2 (ebf0e940d0, 2025-05-08)" sodipodi:docname="firefox-nightly.svg" version="1.1" viewBox="0 0 512 512" xmlns="http://www.w3.org/2000/svg" xmlns:cc="http://creativecommons.org/ns#" xmlns:dc="http://purl.org/dc/elements/1.1/" xmlns:inkscape="http://www.inkscape.org/namespaces/inkscape" xmlns:rdf="http://www.w3.org/1999/02/22-rdf-syntax-ns#" xmlns:sodipodi="http://sodipodi.sourceforge.net/DTD/sodipodi-0.dtd">
 <sodipodi:namedview bordercolor="#000000" borderopacity="0.25" inkscape:current-layer="g17" inkscape:cx="261.52179" inkscape:cy="265.96944" inkscape:deskcolor="#d1d1d1" inkscape:pagecheckerboard="0" inkscape:pageopacity="0.0" inkscape:showpageshadow="2" inkscape:window-height="1008" inkscape:window-maximized="1" inkscape:window-width="1920" inkscape:window-x="0" inkscape:window-y="0" inkscape:zoom="1.1241893" pagecolor="#ffffff"/>
 <defs>
  <linearGradient id="linearGradient12596" x1="216" x2="302.9" y1="162.3" y2="162.3" gradientTransform="matrix(5.5237,0,0,5.5237,-1177.2,-589.83)" gradientUnits="userSpaceOnUse">
   <stop stop-color="#993df5" offset="0"/>
   <stop stop-color="#661fad" offset=".50081"/>
   <stop stop-color="#951fad" offset=".50081"/>
   <stop stop-color="#993df5" offset="1"/>
  </linearGradient>
  <linearGradient id="linearGradient32107" x1="274.51" x2="278.83" y1="138.79" y2="129.43" gradientTransform="matrix(5.5237,0,0,5.5237,-1177.2,-589.83)" gradientUnits="userSpaceOnUse">
   <stop stop-color="#1c8fbc" offset="0"/>
   <stop stop-color="#19bdbc" offset="1"/>
  </linearGradient>
  <linearGradient id="linearGradient12508" x1="249.11" x2="289.89" y1="153.77" y2="153.77" gradientTransform="matrix(5.5237,0,0,5.5237,-1177.2,-589.83)" gradientUnits="userSpaceOnUse">
   <stop stop-color="#2746b0" offset="0"/>
   <stop stop-color="#51bfe4" stop-opacity="0" offset="1"/>
  </linearGradient>
  <linearGradient id="linearGradient16" x1="232.07" x2="242.03" y1="118.59" y2="141.97" gradientTransform="matrix(5.5237,0,0,5.5237,-1177.2,-589.82)" gradientUnits="userSpaceOnUse">
   <stop stop-color="#43b7db" offset="0"/>
   <stop stop-color="#0fa0f1" offset="1"/>
  </linearGradient>
  <linearGradient id="linearGradient76" x1="256.05" x2="256" y1="459.78" y2="125.1" gradientUnits="userSpaceOnUse" inkscape:collect="always">
   <stop stop-color="#3f5fc7" offset="0"/>
   <stop stop-color="#1368a0" offset=".33269"/>
   <stop stop-color="#0dd0fe" offset="1"/>
  </linearGradient>
 </defs>
 <metadata>
  <rdf:RDF>
   <cc:Work rdf:about="">
    <dc:format>image/svg+xml</dc:format>
    <dc:type rdf:resource="http://purl.org/dc/dcmitype/StillImage"/>
   </cc:Work>
  </rdf:RDF>
 </metadata>
 <g stroke-linecap="round" stroke-linejoin="round">
  <path d="m239.74 130.24-217.89 151.54c-7.5161 5.2319-7.9514 16.197-0.87385 22.009l217.89 178.81c9.3301 7.0632 24.828 7.958 34.113 0l217.89-178.81c7.0775-5.8115 6.6422-16.777-0.87385-22.009l-217.89-151.54c-11.821-6.8251-20.437-6.887-32.366 0z" color="#000000" fill="url(#linearGradient12596)" stroke-width=".89108" style="-inkscape-stroke:none" sodipodi:nodetypes="ccccccccc"/>
  <path d="m410.09 23.908a16.107 16.107 0 0 0-11.047 2.5569l-228.89 152.32a16.107 16.107 0 0 0 2.9668 28.374l228.9 91.014a16.107 16.107 0 0 0 22.052-14.964v-243.34a16.107 16.107 0 0 0-8.5015-14.198 16.107 16.107 0 0 0-5.4806-1.7693z" color="#000000" fill="url(#linearGradient32107)" stroke-width="5.5237" style="-inkscape-stroke:none"/>
  <path d="m103.03 24.526a16.787 15.455 0 0 0-5.8584 1.6075 16.787 15.455 0 0 0-9.1379 13.766v243.35a16.787 15.455 0 0 0 23.433 14.176l228.9-91.014a16.787 15.455 0 0 0 3.1718-26.712l-228.89-152.32a16.787 15.455 0 0 0-11.619-2.8482z" color="#000000" fill="url(#linearGradient16)" stroke-width="1.0393" style="-inkscape-stroke:none"/>
  <path d="m255.65 125.09c-4.9841-5e-3 -9.9962 1.653-15.753 4.898l-0.0111-0.011c-0.16995 0.0961-0.32605 0.17084-0.4971 0.26972l-13.806 9.5693 0.0111 0.011-105.28 73.04-16.142 11.209-16.142 11.198v47.923c0 10.701 10.968 18.079 22.11 22.084 68.752 24.713 126.69 82.911 145.91 154.5 15.528-72.2 74.199-129.78 145.9-154.5 7.4376-2.5637 22.109-10.702 22.11-22.084v-47.297l-16.142-11.198-16.142-11.209-105.72-73.36-14.239-9.8824h-0.0111c-5.9231-3.4124-11.041-5.1491-16.174-5.1569z" color="#000000" fill="url(#linearGradient76)" stroke-width=".17822" style="-inkscape-stroke:none" sodipodi:nodetypes="ccccccccccscccccccccccc"/>
  <path d="m255.98 488.23c6.2015 0.11158 12.397-1.654 17.04-5.6331l217.89-178.81c7.0775-5.8115 6.6422-16.777-0.87385-22.009l-217.89-151.54c-5.9104-3.4124-11.02-5.1342-16.142-5.1419z" color="#000000" fill="url(#linearGradient12508)" stroke-width=".17822" style="-inkscape-stroke:none"/>
 </g>
</svg>
