<?xml version="1.0" encoding="UTF-8"?>
<svg version="1.1" viewBox="0 0 512 512" xml:space="preserve" xmlns="http://www.w3.org/2000/svg">

<g transform="matrix(9.99997 0 0 9.99997 -63.9955 -63.9962)" stroke-width=".0117188"><g fill="#db380e" style="stroke-width:.0117188"><path d="m31.762 16.894c-2.2179 1.5599-4.7317 3.3279-6.0786 6.253-2.3394 5.1033 4.7871 10.67 5.0917 10.904 0.07078 0.05447 0.15553 0.08166 0.24 0.08166 0.08972 0 0.17953-0.03066 0.25247-0.09178 0.14147-0.11831 0.18159-0.31931 0.09666-0.483-0.02578-0.04969-2.5838-5.0184-2.4888-8.583 0.03366-1.2415 1.7711-2.6499 3.6105-4.141 1.6847-1.3658 3.5944-2.9137 4.7117-4.7244 2.4529-3.9859-0.27338-7.9052-0.30122-7.9444-0.10828-0.15206-0.30816-0.20709-0.47906-0.13219-0.17072 0.075375-0.26531 0.25997-0.22631 0.4425 0.0055 0.025969 0.53569 2.6178-0.93956 5.2881-0.60769 1.1034-1.9431 2.0426-3.4895 3.1302z" style="stroke-width:.0117188"/><path d="m41.107 18.652c0.15647-0.11784 0.20241-0.33281 0.10781-0.50438-0.09478-0.17156-0.30103-0.24722-0.48422-0.17766-0.37678 0.14325-9.2265 3.5545-9.2265 7.6763 0 2.8413 1.2137 4.3422 2.0999 5.4384 0.34762 0.42994 0.64772 0.80119 0.74663 1.1182 0.27844 0.91341-0.38119 2.5643-0.6586 3.1235-0.07997 0.16069-0.04078 0.3555 0.09525 0.47288 0.0735 0.06347 0.16528 0.09572 0.25716 0.09572 0.07819 0 0.15675-0.02325 0.22462-0.0705 0.15216-0.10575 3.7188-2.6274 3.0791-5.6656-0.23831-1.1548-0.80578-1.9986-1.3065-2.7431-0.77569-1.1536-1.3359-1.9868-0.486-3.5258 0.99581-1.7951 5.5057-5.2036 5.5513-5.2377z" style="stroke-width:.0117188"/></g><g fill="#73a1fb" style="stroke-width:.0117188"><path d="m18.071 35.96c-0.15169 0.45422-0.08006 0.90478 0.20691 1.3034 0.95934 1.3319 4.3575 2.0652 9.5689 2.0652h6.56e-4c0.70613 0 1.4516-0.01387 2.2152-0.04125 8.332-0.29822 11.422-2.894 11.55-3.0043 0.13894-0.12028 0.17606-0.32053 0.08972-0.48253-0.08644-0.16191-0.27272-0.24328-0.45075-0.19425-2.9345 0.80119-8.4139 1.0856-12.215 1.0856-4.2528 0-6.4186-0.30638-6.9489-0.5326 0.27206-0.37359 1.9502-1.0407 4.0297-1.4498 0.19875-0.039 0.33534-0.22256 0.31566-0.42413-0.01969-0.20156-0.189-0.35531-0.3916-0.35531-1.2189 0-7.3319 0.09787-7.9709 2.0299z" style="stroke-width:.0117188"/><path d="m45.951 33.286c-1.7185 0-3.3482 0.86138-3.4168 0.89784-0.15891 0.08512-0.23953 0.26738-0.19594 0.4425 0.04378 0.17484 0.201 0.29775 0.38128 0.29794 0.03647 0 3.6658 0.02972 3.9945 2.1034 0.29119 1.7889-3.434 4.6875-4.8939 5.6535-0.15769 0.10434-0.21891 0.30591-0.14569 0.48028 0.06234 0.14841 0.20681 0.24122 0.36262 0.24122 0.02719 0 0.05475-0.0028 0.08212-0.0086 0.3465-0.07416 8.4756-1.8655 7.6161-6.5985-0.52434-2.9006-2.3474-3.5095-3.7842-3.5095z" style="stroke-width:.0117188"/><path d="m40.376 42.102c0.02831-0.15159-0.03478-0.30581-0.16097-0.39441l-1.9492-1.3653c-0.09506-0.06656-0.21516-0.08747-0.32672-0.05794-0.02034 0.0052-2.0587 0.54103-5.018 0.86963-1.1745 0.13172-2.49 0.20128-3.8046 0.20128-2.9586 0-4.893-0.34762-5.1747-0.60263-0.03731-0.07162-0.0255-0.10416-0.01884-0.12225 0.05119-0.14231 0.3255-0.31144 0.50231-0.37838 0.19528-0.07228 0.30056-0.28434 0.23981-0.48347-0.06056-0.19941-0.26597-0.31669-0.46866-0.26803-1.9553 0.47184-2.9113 1.1317-2.8418 1.9611 0.12356 1.4706 3.5297 2.2253 6.4092 2.4248 0.41409 0.02831 0.86194 0.04266 1.3308 0.04266h7.5e-4c4.7882 0 10.927-1.5023 10.988-1.5176 0.14991-0.03656 0.26419-0.15759 0.29259-0.30947z" style="stroke-width:.0117188"/><path d="m25.682 45.258c0.14766-0.096 0.21309-0.27853 0.16069-0.44663-0.05222-0.16809-0.20944-0.27853-0.38606-0.27619-0.26203 0.0069-2.564 0.11081-2.7251 1.5764-0.04875 0.438 0.07669 0.83822 0.37303 1.1893 0.8265 0.9795 3.0576 1.5617 6.8195 1.7798 0.44503 0.02672 0.8971 0.04012 1.3438 0.04012 4.7827 0 8.0037-1.4975 8.1386-1.5612 0.13078-0.06188 0.21703-0.19041 0.22472-0.33478 0.0077-0.14438-0.06441-0.28134-0.18778-0.35681l-2.4633-1.5038c-0.0855-0.05212-0.18778-0.06938-0.28528-0.04941-0.01556 0.0033-1.5796 0.32766-3.9399 0.6481-0.44663 0.06075-1.0059 0.09159-1.6622 0.09159-2.3578 0-4.9804-0.38522-5.4834-0.6375-0.0073-0.04706 2e-3 -0.10688 0.07266-0.159z" style="stroke-width:.0117188"/><path d="m29.038 53.642c10.955-0.0093 16.835-1.9575 17.967-3.1835 0.40097-0.43369 0.44428-0.84431 0.41025-1.1125-0.08419-0.66-0.68541-1.0641-0.75356-1.1079-0.16444-0.10575-0.38512-0.07809-0.51338 0.06984-0.12797 0.14794-0.13097 0.36413-0.0025 0.51197 0.06909 0.08887 0.10903 0.23766-0.093 0.43988-0.45281 0.42291-5.0198 1.7066-12.624 2.0923-1.0417 0.05409-2.1342 0.08166-3.2471 0.08184-6.8084 0-11.791-0.93263-12.445-1.476 0.25209-0.36225 2.0146-0.94097 3.8889-1.2683 0.21122-0.03684 0.35391-0.23588 0.32119-0.44775-0.03272-0.21178-0.228-0.35756-0.44147-0.32991-0.05288 0.0072-0.23231 0.01791-0.44006 0.03066-3.0926 0.18881-6.6665 0.60966-6.8529 2.2031-0.05662 0.48553 0.08766 0.92634 0.429 1.31 0.83522 0.93844 3.2359 2.1862 14.396 2.1862 1.88e-4 1.88e-4 1.88e-4 1.88e-4 3.75e-4 1.88e-4z" style="stroke-width:.0117188"/><path d="m49.158 50.804c-0.15488-0.07162-0.33788-0.03544-0.45338 0.08925-0.01603 0.01734-1.6631 1.7396-6.6154 2.751-1.8959 0.37988-5.4547 0.57253-10.577 0.57253-5.1324 0-10.016-0.20194-10.065-0.204-0.204-0.0099-0.37847 0.13838-0.40622 0.33919-0.02784 0.20063 0.10153 0.38981 0.2985 0.43669 0.05081 0.012 5.1689 1.2111 12.167 1.2111 3.3563 0 6.6224-0.27253 9.7076-0.81047 5.7526-1.0085 6.1554-3.8609 6.1697-3.9818 0.02006-0.16903-0.07088-0.33178-0.22547-0.40341z" style="stroke-width:.0117188"/></g></g>















</svg>
