<?xml version="1.0" encoding="UTF-8"?>
<svg version="1" viewBox="0 0 512 512" xmlns="http://www.w3.org/2000/svg" xmlns:cc="http://creativecommons.org/ns#" xmlns:dc="http://purl.org/dc/elements/1.1/" xmlns:rdf="http://www.w3.org/1999/02/22-rdf-syntax-ns#">
 <defs>
  <linearGradient id="linearGradient7259" x1="7.8603" x2="26.761" y1="17.325" y2="17.325" gradientUnits="userSpaceOnUse">
   <stop stop-color="#808080" offset="0"/>
   <stop stop-color="#808080" stop-opacity="0" offset="1"/>
  </linearGradient>
 </defs>
 <metadata>
  <rdf:RDF>
   <cc:Work rdf:about="">
    <dc:format>image/svg+xml</dc:format>
    <dc:type rdf:resource="http://purl.org/dc/dcmitype/StillImage"/>
   </cc:Work>
  </rdf:RDF>
 </metadata>
 <g id="kate" transform="matrix(15,0,0,15,16,16)" style="stroke-width:.133333">
  <rect width="32" height="32" opacity=".00100002" style="stroke-width:.133333"/>
  <path d="m12.316 10.747c-0.91214-3.0282-6.0668-2.2934-6.9284-2.3591 0.96706-0.48005 1.841-0.87575 3.8347-2.32 3.8406-2.7822 7.9068-2.1754 9.9431-1.0706-5.5668 0.21162-4.5063 3.2444-3.6864 4.8424-1.0427 0.30288-2.6887 0.76009-3.163 0.90719z" fill="#aeaeae" style="stroke-width:.133333"/>
  <path d="m26.058 6.5804c-2.0046 2.6478-5.3375 6.2253-8.9851 6.6965s-7.1251-0.05081-7.9306 2.6658c-0.7418 2.5017 1.8672 4.8375 4.5732 4.2745 2.8908-0.6014 2.2665-3.878 0.68534-6.1092 1.201-0.06887 0.97764-0.05104 3.0144-0.1537 3.0358 2.5877 4.0421 3.3255 9.3459 7.101-4.0872-0.42807-5.5748-0.82111-8.5062-2.5746 0.75941 1.9062 2.3826 6.2325 2.7341 9.5893-1.6908-2.4295-2.3317-3.3224-4.952-5.0751-3.3564-2.2451-6.0747-2.3211-7.648-5.6289-1.5699-3.3006 0.50808-5.6782 4.2265-6.7078 5.3139-1.4714 9.8925-2.8665 13.443-4.0778z" fill="#e6e6e6" style="stroke-width:.133333"/>
  <path d="m14.4 14.108c1.201-0.06887 0.97764-0.05104 3.0144-0.1537 3.0358 2.5877 4.0421 3.3255 9.3459 7.101-5.331-0.38136-9.3646-1.9536-12.36-6.9473z" fill="#e6e6e6" style="stroke-width:.133333"/>
  <path d="m26.058 6.5804c-2.0046 2.6478-5.3375 6.2253-8.9851 6.6965s-7.1251-0.05081-7.9306 2.6658c-0.7418 2.5017 1.8672 4.8375 4.5732 4.2745 2.8908-0.6014 2.2665-3.878 0.68534-6.1092 1.201-0.06887 0.97764-0.05104 3.0144-0.1537 3.0358 2.5877 4.0421 3.3255 9.3459 7.101-4.0872-0.42807-5.5748-0.82111-8.5062-2.5746 0.75941 1.9062 2.3826 6.2325 2.7341 9.5893-1.6908-2.4295-2.3317-3.3224-4.952-5.0751-3.3564-2.2451-6.0747-2.3211-7.648-5.6289-1.5699-3.3006 0.50808-5.6782 4.2265-6.7078 5.3139-1.4714 9.8925-2.8665 13.443-4.0778z" fill="url(#linearGradient7259)" style="fill:url(#linearGradient7259);stroke-width:.133333"/>
  <path d="m14.4 14.108c1.201-0.06887 0.97764-0.05104 3.0144-0.1537 3.0358 2.5877 4.0421 3.3255 9.3459 7.101-5.331-0.38136-9.3646-1.9536-12.36-6.9473z" fill="#aeaeae" style="stroke-width:.133333"/>
  <path d="m5.388 8.3882c0.96706-0.48005 1.841-0.87575 3.8347-2.32 3.8406-2.7822 7.9068-2.1754 9.9431-1.0706-5.5668 0.21162-4.8495 1.3208-4.8701 2.1903-3.6986-0.77962-4.7785 0.28113-8.9077 1.2002z" fill="#0af" style="stroke-width:.133333"/>
  <path d="m19.166 4.9976c-5.5668 0.21162-4.5063 3.2444-3.6864 4.8424-0.64962 0.18869-1.3537 0.40365-2.2221 0.63348-3.5039-6.2434 3.0486-7.0556 5.9085-5.4759z" fill="#aeaeae" style="stroke-width:.133333"/>
  <path d="m9.3909 18.921c-2.7241-3.5076-2.2211-6.7226 3.113-8.3931 5.2639-1.6484 10.004-2.7367 13.554-3.9479-9.5804 3.6503-21.577 6.0895-16.667 12.341z" fill="#0af" style="stroke-width:.133333"/>
 </g>
</svg>
