<?xml version="1.0" encoding="UTF-8"?>
<svg version="1.1" viewBox="0 0 512 512" xmlns="http://www.w3.org/2000/svg" xmlns:cc="http://creativecommons.org/ns#" xmlns:dc="http://purl.org/dc/elements/1.1/" xmlns:rdf="http://www.w3.org/1999/02/22-rdf-syntax-ns#">
 <metadata>
  <rdf:RDF>
   <cc:Work rdf:about="">
    <dc:format>image/svg+xml</dc:format>
    <dc:type rdf:resource="http://purl.org/dc/dcmitype/StillImage"/>
   </cc:Work>
  </rdf:RDF>
 </metadata>
 <defs>
  <style id="current-color-scheme" type="text/css">.ColorScheme-Text { color: #7d7d7d; }
   .ColorScheme-PositiveText { color:#00aa88; }
   .ColorScheme-NeutralText { color: #ff6644;}
   .ColorScheme-NegativeText { color:#ff5577; }
   .ColorScheme-Background { color: #eff0f1; }
   .ColorScheme-Highlight { color: #00aaff; }
   .ColorScheme-ViewText { color: #7d7d7d; }
   .ColorScheme-ViewBackground { color: #eff0f1; }
   .ColorScheme-ViewHover { color: #00aaff; }
   .ColorScheme-ViewFocus { color: #00aaff; }
   .ColorScheme-ButtonText { color: #7d7d7d; }
   .ColorScheme-ButtonBackground { color: #eff0f1; }
   .ColorScheme-ButtonHover { color: #00aaff; }
   .ColorScheme-ButtonFocus { color: #00aaff; }</style>
 </defs>
 <g transform="translate(16,16)">
  <rect width="480" height="480" fill="none"/>
  <path class="ColorScheme-Text" d="m160.662 60.9303c-9.0213-0.68379-15.8688 1.40554-22.0413 4.34896v-0.26358l-12.421 7.18239-0.5271 0.296505c-0.0615 0.0381-0.135 0.0609-0.19755 0.099l0.033 0.033c-15.2486 8.82422-25.368 16.9554-29.2569 28.7952-4.05206 12.3388 1.59766 23.0128 5.04084 29.2568 3.40225 6.17031 5.84629 10.5821 6.49052 15.5508 0.66617 5.13858 0.1805 11.6204-6.78704 23.6888-6.96554 12.0649-12.3417 15.7616-17.1322 17.7582-4.61484 1.92289-9.67113 1.9677-16.737 2.1086-7.13994 0.144-19.1562 0.64274-27.8072 10.3123-8.34465 9.32799-10.3782 22.185-10.3782 39.9315 0 17.7459 2.0359 30.5796 10.3782 39.8986 8.6585 9.6729 20.6816 10.1082 27.8072 10.2464 7.03515 0.135 12.0991 0.24375 16.737 2.17451 4.7849 1.99202 10.1675 5.66019 17.1322 17.7254 6.9674 12.0682 7.45326 18.5492 6.78704 23.6888-0.64385 4.96605-3.08268 9.36977-6.49052 15.5508-3.44277 6.2438-9.09333 16.9179-5.04084 29.2568 3.90615 11.8939 14.0554 20.0566 29.4214 28.9272 15.3608 8.86835 27.4761 13.5722 39.7338 11.0042 12.7133-2.66345 19.142-12.8669 22.8321-18.9774 3.64656-6.03825 6.23088-10.3978 10.2135-13.4423 4.11367-3.14423 9.9846-5.93041 23.9193-5.93041 13.9347 0 19.7637 2.77864 23.8864 5.93041 3.98253 3.044 6.56781 7.40384 10.2135 13.4423 3.69006 6.11125 10.1512 16.3144 22.8651 18.9774 12.2608 2.56789 24.4006-2.13363 39.7666-11.0042 15.3652-8.87094 25.4822-17.0334 29.3886-28.9272 4.05783-12.3548-1.60758-23.031-5.04084-29.2568-3.39778-6.16204-5.84368-10.5611-6.4905-15.5508-0.666-5.13849-0.147-11.6204 6.81996-23.6888 5.33109-9.23355 9.94475-13.5595 13.7718-15.9792l46.1584-29.2238h-112.282l-4.4478 8.56615c-12.4918 24.223-37.3638 39.4402-64.6086 39.5361-40.5028 0-72.9441-32.4412-72.9441-72.9441 0-40.5028 32.4412-72.977 72.9441-72.977 27.3434 3e-3 52.3083 15.2034 64.8392 39.5032v0.0345l4.44781 8.56614h112.282l-46.3562-29.2575c-3.85299-2.42799-8.45976-6.72025-13.8047-15.9792-6.96738-12.0682-7.48621-18.5492-6.81994-23.6888 0.64725-4.99185 3.09814-9.39901 6.4905-15.5508 3.43281-6.22654 9.09853-16.9029 5.04084-29.2575-3.90614-11.8939-14.0225-20.0566-29.3886-28.9272-15.372-8.8749-27.5223-13.5364-39.7666-10.9713-12.6966 2.65992-19.1355 12.8225-22.8321 18.9444-3.65213 6.04844-6.2786 10.4096-10.2464 13.4423-4.12494 3.15284-9.95242 5.96337-23.8864 5.96337-10.9949-5e-6 -17.1572-1.7183-21.02-3.78886-3.86293-2.07057-5.98759-4.619-8.69793-8.5332-2.42451-3.50145-4.81572-8.50866-8.96152-13.9365-4.63499-6.06802-12.4818-12.1381-23.0296-12.6845zm-1.1532 16.7698 0.132 0.033h0.1653c4.28624 0.209085 8.11644 3.03762 10.477 6.12808 2.86248 3.74766 5.03318 8.27037 8.50026 13.2775 3.18107 4.59399 7.54358 10.0248 14.5954 13.8047 7.05183 3.77987 16.2354 5.79863 28.9932 5.79863 16.468 0 27.1024-4.04919 34.1328-9.42278 7.18752-5.49345 10.9366-12.334 14.4307-18.1208 3.45015-5.71388 6.45209-10.0358 11.8608-11.1689 5.8611-1.22787 13.6728 0.86205 27.8728 9.06034 14.2068 8.2015 19.9458 13.9247 21.8108 19.6033 1.71339 5.21683-0.5808 9.96951-3.82182 15.8474-3.2818 5.95137-7.27665 12.5845-8.43436 21.5142-1.13851 8.78367 0.6945 20.0354 8.92856 34.2975 5.79587 10.0401 11.8045 15.7761 17.7254 19.9328h-44.9724l0.26371 0.5271c-15.4118-29.846-46.2021-48.6256-79.7976-48.6294-49.5795 0-89.8128 40.2662-89.8128 89.8458 0 49.5795 40.2333 89.8128 89.8128 89.8128h0.0345c33.5031-0.102 64.1649-18.8673 79.5334-48.6294l-0.29655 0.5271h45.2029c-5.91199 4.16537-11.9123 9.88854-17.6925 19.8999-8.23434 14.2625-10.0673 25.5144-8.92856 34.2975 1.158 8.93346 5.1583 15.573 8.43436 21.5142 3.241 5.87718 5.53548 10.6299 3.82182 15.8474-1.86502 5.67843-7.60427 11.3684-21.8108 19.5705-14.2089 8.20265-22.0278 10.3504-27.8728 9.12626-5.39199-1.12935-8.40464-5.47796-11.8608-11.2019-3.50052-5.79794-7.25787-12.6053-14.4307-18.0876-7.03001-5.37464-17.6641-9.42279-34.1328-9.42279-16.4688 0-27.1242 4.04062-34.1658 9.42279-7.17273 5.4831-10.8974 12.2917-14.3977 18.0876-3.45663 5.72386-6.46892 10.0723-11.8608 11.2019-5.84832 1.2249-13.6292-0.9213-27.8409-9.12626-14.208-8.20149-19.947-13.8917-21.812-19.5705-1.7186-5.23264 0.52486-9.98754 3.75592-15.8474 3.26601-5.92386 7.30623-12.5587 8.46731-21.5142 1.13865-8.78362-0.6945-20.0354-8.92857-34.2975-8.23532-14.266-17.0634-21.4719-25.2372-24.8748-8.32126-3.46411-16.1132-3.29395-22.898-3.42647-6.69446-0.12968-11.9057-0.56953-15.5838-4.67843-3.99456-4.4622-6.0622-12.2288-6.0622-28.6308 0-16.401 2.07441-24.2388 6.0622-28.6966 3.68252-4.11611 8.9031-4.54472 15.5838-4.67844 6.75522-0.1335 14.552 0.051 22.898-3.42645 8.169-3.40494 17.001-10.609 25.2372-24.8748 8.23435-14.2625 10.0672-25.5146 8.92857-34.2975-1.1607-8.95239-5.19572-15.6138-8.46731-21.547-3.23097-5.85898-5.47467-10.5808-3.75592-15.8145 1.8652-5.67866 7.60429-11.4014 21.8108-19.6034l0.1653-0.099c10.9124-6.66326 14.0601-10.2005 25.2372-9.29092z" style="fill:currentColor"/>
  <path class="ColorScheme-Highlight" d="m223.46 195c-26.5574 0-47.9145 20.058-47.9145 45s21.357 45 47.9145 45c23.9685 0 43.6712-16.3305 47.2905-37.8516h153.57l-10.1693 9.99024c-3.05835 2.9851-2.96055 7.73361 0.2184 10.6055 3.18699 2.86445 8.24325 2.75954 11.2923-0.23445l22.8966-22.4121c0.096-0.0855 0.1896-0.1737 0.2808-0.2637 0.0525-0.048 0.105-0.0975 0.1566-0.147 0.0855-0.096 0.16875-0.19335 0.2496-0.29295 0.0525-0.0585 0.105-0.117 0.1566-0.1758 0.075-0.096 0.1485-0.19365 0.2184-0.29295 0.1215-0.1617 0.2358-0.32775 0.34305-0.498 0.0435-0.0585 0.084-0.117 0.1245-0.1758 0.066-0.1155 0.1275-0.23295 0.1872-0.3516 0.0315-0.0675 0.0645-0.1365 0.0945-0.20505 0.0795-0.1731 0.1533-0.34905 0.2184-0.5274 0.045-0.1155 0.0855-0.2334 0.1245-0.3516 0.0225-0.0675 0.0435-0.1365 0.063-0.20505 0.0345-0.126 0.0675-0.2532 0.0945-0.38085 0.0225-0.0675 0.0435-0.1365 0.063-0.20505 0.024-0.126 0.045-0.2535 0.063-0.38085 0.0117-0.0675 0.0225-0.1365 0.0315-0.20505 0.0141-0.126 0.024-0.25365 0.0315-0.38085v-0.79095c-7e-3 -0.1275-0.018-0.2541-0.0315-0.38085-0.01-0.069-0.021-0.1365-0.0315-0.20505-0.018-0.1275-0.039-0.2544-0.063-0.38085-0.01-0.069-0.021-0.1365-0.0315-0.20505-0.0285-0.1185-0.0585-0.23505-0.0945-0.3516-0.0195-0.069-0.0405-0.1365-0.063-0.20505-0.039-0.1185-0.0795-0.23535-0.1245-0.3516-0.03-0.069-0.063-0.1365-0.0945-0.20505-0.0495-0.1185-0.1005-0.23565-0.15645-0.3516-0.03-0.069-0.063-0.1365-0.0945-0.20505-0.0495-0.108-0.102-0.21615-0.15645-0.32235-0.0405-0.069-0.081-0.138-0.1245-0.20505-0.0705-0.1095-0.1425-0.2166-0.2184-0.3222-0.0405-0.0585-0.081-0.117-0.1245-0.1758-0.0705-0.099-0.144-0.19695-0.2184-0.29295-0.051-0.06-0.1035-0.1185-0.15645-0.1758-0.0795-0.099-0.16395-0.19725-0.2496-0.29295-0.051-0.0495-0.1035-0.099-0.15645-0.147l-0.2808-0.2637-22.8654-22.793c-1.66122-1.66239-4.03737-2.52486-6.4572-2.34375-1.80955 0.138-3.51492 0.85095-4.83513 2.02149-3.21456 2.83898-3.36825 7.58844-0.34305 10.6055l10.4813 10.4297h-153.945c-3.93895-21.1584-23.4698-37.1484-47.1657-37.1484z" style="fill:currentColor"/>
 </g>
</svg>
