<?xml version="1.0" encoding="UTF-8"?>
<svg version="1.1" viewBox="0 0 512 512" xmlns="http://www.w3.org/2000/svg" xmlns:cc="http://creativecommons.org/ns#" xmlns:dc="http://purl.org/dc/elements/1.1/" xmlns:rdf="http://www.w3.org/1999/02/22-rdf-syntax-ns#">
 <metadata>
  <rdf:RDF>
   <cc:Work rdf:about="">
    <dc:format>image/svg+xml</dc:format>
    <dc:type rdf:resource="http://purl.org/dc/dcmitype/StillImage"/>
   </cc:Work>
  </rdf:RDF>
 </metadata>
 <defs>
  <style id="current-color-scheme" type="text/css">.ColorScheme-Text { color: #7d7d7d; }
   .ColorScheme-PositiveText { color:#00aa88; }
   .ColorScheme-NeutralText { color: #ff6644;}
   .ColorScheme-NegativeText { color:#ff5577; }
   .ColorScheme-Background { color: #eff0f1; }
   .ColorScheme-Highlight { color: #00aaff; }
   .ColorScheme-ViewText { color: #7d7d7d; }
   .ColorScheme-ViewBackground { color: #eff0f1; }
   .ColorScheme-ViewHover { color: #00aaff; }
   .ColorScheme-ViewFocus { color: #00aaff; }
   .ColorScheme-ButtonText { color: #7d7d7d; }
   .ColorScheme-ButtonBackground { color: #eff0f1; }
   .ColorScheme-ButtonHover { color: #00aaff; }
   .ColorScheme-ButtonFocus { color: #00aaff; }</style>
 </defs>
 <rect x="16" y="16" width="480" height="480" fill="none"/>
 <g transform="matrix(1.15409 0 0 1.15409 -58.7276 -39.3501)" style="stroke-width:.866481">
  <path class="ColorScheme-Text" d="m158.5 93.637c-14.9865 8.6523-23.0325 15.675-25.9575 24.5805-2.92455 8.9055 1.07085 16.7175 4.4532 22.851 3.3822 6.13395 6.6732 11.7534 7.5879 18.8085 0.91467 7.05525-0.26466 16.041-7.96875 29.385-7.704 13.344-14.9062 18.855-21.474 21.5925-6.56835 2.7369-13.0642 2.67285-20.0685 2.8125-7.0041 0.1395-15.7515 0.6015-22.002 7.5879-6.2499 6.9864-8.32035 17.4705-8.32035 34.776s2.0682 27.762 8.32035 34.746c6.252 6.98445 14.9982 7.42275 22.002 7.55865 7.0038 0.1365 13.501 0.108 20.0685 2.84175 6.5673 2.73405 13.7708 8.2482 21.474 21.5925 7.70385 13.3438 8.88345 22.329 7.96875 29.385-0.9147 7.05525-4.2057 12.6454-7.5879 18.78-3.3822 6.13395-7.3779 13.9461-4.4532 22.851 2.9247 8.9055 10.9704 15.9285 25.9575 24.5805 14.9868 8.65245 25.0725 12.1176 34.248 10.1954s13.9566-9.29505 17.5785-15.2925 6.8271-11.6458 12.4804-15.9675c5.65335-4.32105 14.0355-7.79295 29.4435-7.79295s23.7615 3.4719 29.4135 7.79295c5.65335 4.32105 8.85885 9.969 12.4804 15.9675 3.6216 5.9979 8.4027 13.3707 17.5785 15.2925s19.29-1.5429 34.278-10.1954c14.9865-8.6523 23.0325-15.675 25.9575-24.5805s-1.1001-16.7175-4.48245-22.851c-3.3822-6.1338-6.64395-11.724-7.55865-18.78-0.9147-7.05525 0.2646-16.041 7.96875-29.385 5.9133-10.242 11.6019-15.8625 16.8165-19.1595l21.855-13.8282h-79.131l-2.1093 4.04295c-14.118 27.3765-42.2655 44.613-73.0665 44.7075-45.6525 0-82.5-36.8475-82.5-82.5s36.8475-82.5 82.5-82.5c30.891 3e-3 59.1435 17.2245 73.3005 44.6775l2.1093 4.0722h79.0425l-21.972-13.8574c-5.23155-3.2967-10.9164-8.88945-16.845-19.1595-7.70385-13.3438-8.88345-22.329-7.96875-29.385 0.9147-7.05525 4.1763-12.6747 7.55865-18.8085 3.3822-6.13395 7.40715-13.9461 4.48245-22.851-2.9247-8.9055-10.9704-15.9285-25.9575-24.5805-14.9868-8.65245-25.1025-12.0882-34.278-10.166s-13.9566 9.2658-17.5785 15.264c-3.6216 5.9979-6.8271 11.6751-12.4804 15.996-5.65335 4.32105-14.0061 7.79295-29.4135 7.79295-24.075-1e-5 -31.1775-7.54785-37.149-16.1715-2.98575-4.31205-5.2959-9.1488-8.8476-13.7988-3.55185-4.65-9.4815-9.183-17.022-9.5508-11.6433-1.71705-21.831 5.6931-30.732 10.6347z" fill="currentColor" style="stroke-width:.866481"/>
  <path class="ColorScheme-Highlight" d="m253.062 211c-26.5574 0-47.9145 20.058-47.9145 45s21.357 45 47.9145 45c23.9685 0 43.6712-16.3305 47.2905-37.8516h153.57l-10.1693 9.99024c-3.05835 2.9851-2.96055 7.73361 0.2184 10.6055 3.18699 2.86445 8.24325 2.75954 11.2923-0.23445l22.8966-22.4121c0.096-0.0855 0.1896-0.1737 0.2808-0.2637 0.0525-0.048 0.105-0.0975 0.1566-0.147 0.0855-0.096 0.16875-0.19335 0.2496-0.29295 0.0525-0.0585 0.105-0.117 0.1566-0.1758 0.075-0.096 0.1485-0.19365 0.2184-0.29295 0.1215-0.1617 0.2358-0.32775 0.34305-0.498 0.0435-0.0585 0.084-0.117 0.1245-0.1758 0.066-0.1155 0.1275-0.23295 0.1872-0.3516 0.0315-0.0675 0.0645-0.1365 0.0945-0.20505 0.0795-0.1731 0.1533-0.34905 0.2184-0.5274 0.045-0.1155 0.0855-0.2334 0.1245-0.3516 0.0225-0.0675 0.0435-0.1365 0.063-0.20505 0.0345-0.126 0.0675-0.2532 0.0945-0.38085 0.0225-0.0675 0.0435-0.1365 0.063-0.20505 0.024-0.126 0.045-0.2535 0.063-0.38085 0.0117-0.0675 0.0225-0.1365 0.0315-0.20505 0.0141-0.126 0.024-0.25365 0.0315-0.38085v-0.79095c-7e-3 -0.1275-0.018-0.2541-0.0315-0.38085-0.01-0.069-0.021-0.1365-0.0315-0.20505-0.018-0.1275-0.039-0.2544-0.063-0.38085-0.01-0.069-0.021-0.1365-0.0315-0.20505-0.0285-0.1185-0.0585-0.23505-0.0945-0.3516-0.0195-0.069-0.0405-0.1365-0.063-0.20505-0.039-0.1185-0.0795-0.23535-0.1245-0.3516-0.03-0.069-0.063-0.1365-0.0945-0.20505-0.0495-0.1185-0.1005-0.23565-0.15645-0.3516-0.03-0.069-0.063-0.1365-0.0945-0.20505-0.0495-0.108-0.102-0.21615-0.15645-0.32235-0.0405-0.069-0.081-0.138-0.1245-0.20505-0.0705-0.1095-0.1425-0.2166-0.2184-0.3222-0.0405-0.0585-0.081-0.117-0.1245-0.1758-0.0705-0.099-0.144-0.19695-0.2184-0.29295-0.051-0.06-0.1035-0.1185-0.15645-0.1758-0.0795-0.099-0.16395-0.19725-0.2496-0.29295-0.051-0.0495-0.1035-0.099-0.15645-0.147l-0.2808-0.2637-22.8654-22.793c-1.66122-1.66239-4.03737-2.52486-6.4572-2.34375-1.80955 0.138-3.51492 0.85095-4.83513 2.02149-3.21456 2.83898-3.36825 7.58844-0.34305 10.6055l10.4813 10.4297h-153.945c-3.93895-21.1584-23.4698-37.1484-47.1657-37.1484z" style="color:#00aaff;fill:currentColor;stroke-width:.866481"/>
 </g>
</svg>
