<?xml version="1.0" encoding="UTF-8"?>
<svg version="1.1" viewBox="0 0 512 512" xmlns="http://www.w3.org/2000/svg" xmlns:cc="http://creativecommons.org/ns#" xmlns:dc="http://purl.org/dc/elements/1.1/" xmlns:rdf="http://www.w3.org/1999/02/22-rdf-syntax-ns#">
 <metadata>
  <rdf:RDF>
   <cc:Work rdf:about="">
    <dc:format>image/svg+xml</dc:format>
    <dc:type rdf:resource="http://purl.org/dc/dcmitype/StillImage"/>
   </cc:Work>
  </rdf:RDF>
 </metadata>
 <defs>
  <style id="current-color-scheme" type="text/css">
   .ColorScheme-Text { color: #7d7d7d; }
   .ColorScheme-PositiveText { color:#00aa88; }
   .ColorScheme-NeutralText { color: #ff6644;}
   .ColorScheme-NegativeText { color:#ff5577; }
   .ColorScheme-Background { color: #eff0f1; }
   .ColorScheme-Highlight { color: #00aaff; }
   .ColorScheme-ViewText { color: #7d7d7d; }
   .ColorScheme-ViewBackground { color: #eff0f1; }
   .ColorScheme-ViewHover { color: #00aaff; }
   .ColorScheme-ViewFocus { color: #00aaff; }
   .ColorScheme-ButtonText { color: #7d7d7d; }
   .ColorScheme-ButtonBackground { color: #eff0f1; }
   .ColorScheme-ButtonHover { color: #00aaff; }
   .ColorScheme-ButtonFocus { color: #00aaff; }
  </style>
 </defs>
 <g transform="translate(16,16)">
  <rect width="480" height="480" fill="none"/>
  <path d="m288.01 59.871c-1.389-0.07309-2.7707-0.06548-4.1504 0.02539-1.5768 0.10385-3.15 0.31817-4.7266 0.64844-13.131 2.7508-19.773 13.264-23.482 19.406-3.6524 6.0489-6.2286 10.283-9.998 13.164-3.9917 3.051-9.4798 5.7578-23.279 5.7578-10.891-5e-6 -16.871-1.6997-20.547-3.6699-3.6964-1.9813-5.6629-4.3406-8.3496-8.2207-2.3457-3.3876-4.775-8.4584-8.9883-13.975-4.7413-6.2072-12.776-12.423-23.58-13.053l-0.0293-0.01172-0.13867-0.0098c-2e-3 -1.83e-4 -8e-3 -9.1e-5 -0.01 0-1e-3 1.1e-5 -3e-3 9.1e-5 -4e-3 0-8.5286-0.64384-15.185 1.1966-21.104 3.8398v-0.49024l-13.916 8.0469-0.52344 0.29102 2e-3 -2e-3v-2e-3h-4e-3c-0.0185 0.0052-0.0954 0.04436-0.22461 0.12305l-1.0859 0.66016 0.0469 0.04687c-14.667 8.6059-24.712 16.779-28.615 28.662-4.1914 12.763 1.6627 23.792 5.1152 30.053 3.4027 6.1712 5.7625 10.472 6.375 15.195 0.64441 4.9708 0.23797 11.109-6.6621 23.061-6.8984 11.949-12.019 15.406-16.65 17.336-4.3806 1.8253-9.3019 1.8902-16.373 2.0312-7.1639 0.14447-19.585 0.64477-28.531 10.645-8.5953 9.6081-10.633 22.777-10.633 40.6 0 17.822 2.0401 30.966 10.633 40.564 8.9554 10.005 21.389 10.442 28.533 10.58 7.0341 0.13498 11.959 0.26103 16.371 2.0976 4.6284 1.9269 9.7533 5.3547 16.65 17.303 6.9 11.951 7.3066 18.089 6.6621 23.061-0.61215 4.7215-2.9667 9.0135-6.375 15.195-3.4521 6.2606-9.3071 17.29-5.1152 30.053 4.0241 12.253 14.44 20.572 29.871 29.48 15.425 8.9056 27.812 13.763 40.439 11.117 13.149-2.7547 19.781-13.311 23.482-19.439 3.6486-6.0416 6.1823-10.273 9.9648-13.164 3.9754-3.0386 9.5111-5.7246 23.312-5.7246 13.802 0 19.293 2.6768 23.279 5.7246 3.7824 2.891 6.3172 7.1224 9.9648 13.164 3.7025 6.1318 10.367 16.685 23.516 19.439 12.63 2.6452 25.042-2.2091 40.473-11.117 15.431-8.9087 25.814-17.229 29.838-29.48 4.1972-12.779-1.6732-23.811-5.1152-30.053-3.3986-6.1635-5.7599-10.45-6.375-15.195-0.64371-4.9665-0.20488-11.108 6.6953-23.061 5.2738-9.1343 9.7606-13.309 13.439-15.635l49.073-31.068h-116.34l-4.7285 9.1055v2e-3c-12.322 23.893-36.847 38.899-63.721 38.994-39.969 0-71.943-31.974-71.943-71.943 0-39.969 31.975-71.977 71.943-71.977 26.901 3e-3 51.447 14.92 63.84 38.777v4e-3l4.8398 9.3223h116.35l-49.281-31.104c-3.7074-2.3363-8.1832-6.4734-13.471-15.633-6.9006-11.953-7.3393-18.093-6.6953-23.061 0.61551-4.747 2.9818-9.044 6.375-15.197 3.4416-6.2424 9.3123-17.274 5.1152-30.053-4.0235-12.252-14.406-20.572-29.838-29.481-11.82-6.8241-21.873-11.246-31.596-11.758zm-132.35 18.693c1.1312-0.02062 2.3598 0.02359 3.7207 0.13281l0.13672 0.03516h0.24023c3.8768 0.18911 7.508 2.8266 9.7305 5.7363 2.7749 3.633 4.9564 8.1601 8.4727 13.238 3.2147 4.6425 7.6933 10.23 14.945 14.117 7.2398 3.8806 16.602 5.918 29.465 5.918 16.632 0 27.516-4.107 34.74-9.6289 7.3724-5.6348 11.202-12.639 14.68-18.398 3.4328-5.6852 6.229-9.6633 11.211-10.707 5.4637-1.1446 13.042 0.79158 27.168 8.9473 14.133 8.1591 19.622 13.761 21.359 19.051 0.78731 2.3972 0.66363 4.6388-0.0605 7.0781-0.72423 2.4394-2.0719 5.0481-3.6856 7.9746-3.2678 5.926-7.3635 12.709-8.5508 21.867-1.1701 9.0273 0.73889 20.522 9.0547 34.926 5.1054 8.8441 10.416 14.347 15.676 18.434h-41.555c-15.768-29.528-46.49-48.098-80.037-48.102-50.121 0-90.812 40.725-90.812 90.846 0 50.12 40.692 90.812 90.812 90.812h0.0371c33.454-0.10185 64.048-18.66 79.771-48.104h41.758c-5.2521 4.0889-10.557 9.579-15.65 18.4-8.3161 14.404-10.225 25.899-9.0547 34.926 1.1876 9.162 5.2888 15.954 8.5508 21.869 1.6136 2.9262 2.9613 5.5333 3.6856 7.9727s0.84995 4.6826 0.0625 7.0801c-1.737 5.2888-7.2272 10.855-21.361 19.016-14.137 8.161-21.728 10.153-27.168 9.0137-4.961-1.0391-7.7699-5.0446-11.209-10.74-3.4852-5.7725-7.3234-12.743-14.68-18.365-7.2241-5.523-18.108-9.627-34.74-9.627-16.632 0-27.537 4.0959-34.773 9.627-7.3574 5.6242-11.163 12.597-14.646 18.365-3.4396 5.6956-6.248 9.7009-11.209 10.74-5.4447 1.1404-12.996-0.84998-27.137-9.0137-14.136-8.1597-19.624-13.726-21.361-19.016-0.79102-2.4084-0.67886-4.6589 0.0312-7.0977 0.71017-2.4388 2.0428-5.0396 3.6504-7.9551 3.2501-5.895 7.391-12.683 8.582-21.869 1.1702-9.0273-0.73693-20.522-9.0527-34.926-8.3171-14.408-17.318-21.8-25.719-25.297-8.5365-3.5537-16.511-3.372-23.264-3.5039-3.3304-0.0645-6.2423-0.21268-8.7031-0.81836-2.4608-0.60567-4.46-1.6346-6.1543-3.5273-3.7243-4.1603-5.8086-11.645-5.8086-27.963 0-16.317 2.0942-23.879 5.8086-28.031 1.6962-1.8959 3.6981-2.923 6.1602-3.5274 2.4621-0.60438 5.3731-0.75182 8.6973-0.81836 6.7218-0.13284 14.702 0.0654 23.264-3.502 8.3951-3.4992 17.401-10.891 25.719-25.299 8.3161-14.404 10.223-25.899 9.0527-34.926-1.1906-9.1827-5.3255-15.994-8.582-21.9-1.6079-2.9157-2.9404-5.5093-3.6504-7.9394s-0.82261-4.6705-0.0312-7.0801c1.7376-5.2901 7.2263-10.891 21.359-19.051l8e-3 -0.0039 0.17578-0.10547 4e-3 -2e-3c5.4869-3.3504 8.9988-5.886 12.41-7.4277 2.5498-1.1524 5.0634-1.7897 8.457-1.8516z" fill="currentColor" class="ColorScheme-Text"/>
  <path d="m219.86 194 0.48828 0.29297c-25.573 1.5301-45.799 21.201-45.799 45.707 0 25.513 21.855 46 48.916 46 24.104 0 43.975-16.254 48.053-37.852h150.36l-8.4238 8.2773c-3.4432 3.363-3.3295 8.8286 0.24805 12.061l2e-3 2e-3c3.5864 3.2235 9.2249 3.1074 12.66-0.26367l2e-3 -2e-3 22.895-22.41c0.0877-0.0791 0.17319-0.15932 0.25586-0.24023l0.0274-0.0274c0.0499-0.046 0.0997-0.0918 0.14648-0.13672l0.0293-0.0273 0.0254-0.0293c0.0944-0.10598 0.1877-0.21528 0.27929-0.32812l-0.0312 0.0391c0.0525-0.0585 0.10755-0.12115 0.16407-0.18555l0.0352-0.043c0.0763-0.0976 0.1542-0.2013 0.23047-0.30859l0.0176-0.0254c0.13116-0.17591 0.25679-0.35451 0.37305-0.53906 0.0357-0.0497 0.0728-0.10083 0.10156-0.14258l0.0234-0.0352 0.0215-0.0351c0.0781-0.13671 0.14639-0.27016 0.21094-0.39844l8e-3 -0.0137 6e-3 -0.0137c0.0268-0.0575 0.0615-0.12912 0.0977-0.21094l6e-3 -0.0156c0.0832-0.18195 0.1625-0.36956 0.23437-0.56445l6e-3 -0.0176c0.0518-0.13423 0.097-0.26431 0.13672-0.38476 0.0276-0.0831 0.0536-0.16488 0.0762-0.24414v-6e-3l4e-3 -4e-3c0.031-0.11301 0.0606-0.23818 0.0898-0.36719 0.0229-0.0707 0.0453-0.1412 0.0645-0.20898l0.01-0.043 0.0117-0.0449c0.0271-0.14248 0.0502-0.28525 0.0703-0.42774 0.0117-0.0693 0.0234-0.14055 0.0332-0.21484v-8e-3l2e-3 -0.01c0.0167-0.14877 0.0269-0.29402 0.0351-0.43359l2e-3 -0.0293v-0.87496c-8e-3 -0.14858-0.0222-0.29204-0.0371-0.43164l-4e-3 -0.039c-0.011-0.076-0.022-0.14144-0.0312-0.20117l-2e-3 -0.0117c-0.0198-0.1392-0.0422-0.27803-0.0684-0.41602-9e-3 -0.061-0.0178-0.12014-0.0254-0.16992l-8e-3 -0.041-0.0117-0.041c-0.0309-0.12868-0.0661-0.26563-0.11133-0.41211-0.0221-0.0766-0.0452-0.15197-0.0684-0.22266-0.0422-0.12835-0.0871-0.26213-0.14063-0.40039l-8e-3 -0.0195-8e-3 -0.0176c-0.0361-0.083-0.0658-0.14205-0.0898-0.19336l-0.0137-0.0312c-0.0449-0.10677-0.094-0.21729-0.14843-0.33203l-0.0156-0.0371c-0.0333-0.0744-0.0651-0.14224-0.0859-0.1875-0.0557-0.12159-0.11464-0.24208-0.17578-0.36133l-0.0137-0.0254-0.0137-0.0234c-0.0399-0.0679-0.088-0.14986-0.14649-0.24024l-2e-3 -4e-3c-0.0769-0.11936-0.15896-0.24011-0.24609-0.36133l0.0117 0.0137c-0.0375-0.0541-0.0826-0.11703-0.13282-0.18555-0.0802-0.11264-0.16138-0.2219-0.24218-0.32617l-0.0137-0.0176-0.0156-0.0176c-0.0469-0.0552-0.0932-0.10433-0.13867-0.15429l-0.041-0.0469c-5e-4 -1e-3 -1e-3 -5e-3 -2e-3 -6e-3h-2e-3c-0.0794-0.0968-0.15862-0.19224-0.23829-0.28125l-0.0234-0.0254-0.0254-0.0254c-0.0538-0.0522-0.11008-0.10543-0.16797-0.1582l-0.0137-0.0117-0.25782-0.24023-22.854-22.781c-1.876-1.8773-4.5342-2.8372-7.2383-2.6348h-2e-3c-2.0219 0.15419-3.9308 0.94978-5.4199 2.2695-3.6175 3.1948-3.7974 8.6629-0.38867 12.062h2e-3l8.7656 8.7227h-150.77c-4.3858-21.232-24.083-37.147-47.914-37.148h-2e-3z" fill="currentColor" class="ColorScheme-Text"/>
 </g>
</svg>
