<?xml version="1.0" encoding="UTF-8"?>
<svg version="1.1" viewBox="0 0 512 512" xml:space="preserve" xmlns="http://www.w3.org/2000/svg" xmlns:xlink="http://www.w3.org/1999/xlink"><defs><linearGradient id="linearGradient30"><stop style="stop-opacity:.199245" offset="0"/><stop style="stop-opacity:0" offset="1"/></linearGradient><linearGradient id="linearGradient5" x1="-256.984" x2="2.03711" y1="373.249" y2="373.249" gradientTransform="matrix(.772137 0 0 .772137 354.427 45.2904)" gradientUnits="userSpaceOnUse"><stop style="stop-opacity:0" offset="0"/><stop style="stop-opacity:.155592" offset=".500256"/><stop style="stop-opacity:0" offset="1"/></linearGradient><radialGradient id="radialGradient33" cx="226.191" cy="209.348" r="34.4266" gradientTransform="matrix(.833615 .488941 -.845954 1.4423 215.671 -201.497)" gradientUnits="userSpaceOnUse" xlink:href="#linearGradient30"/><radialGradient id="radialGradient34" cx="226.191" cy="209.348" r="34.4266" gradientTransform="matrix(-.833615 .488941 .845954 1.4423 296.674 -201.364)" gradientUnits="userSpaceOnUse" xlink:href="#linearGradient30"/></defs><g transform="matrix(1.64251 0 0 1.64529 -164.482 -184.65)" style="stroke-width:.60831"><path d="m256.066 128.641a89.9342 89.2614 0 0 0-89.8139 87.4299h-0.25191v45.1947h45.137v-43.7978a44.9671 44.6307 0 0 1 44.9289-44.196 44.9671 44.6307 0 0 1 44.9576 44.3291v43.6647h44.9727v-43.1945a89.9342 89.2614 0 0 0 4e-3 -0.16849 89.9342 89.2614 0 0 0-4e-3 -0.1848v-0.72967h-0.0164a89.9342 89.2614 0 0 0-89.9139-88.3471z" style="fill:#ccc;stroke-opacity:.334239;stroke-width:1.21662;stroke:#b7c4c8"/><path d="m187.398 216.071v45.1947h23.9235v-43.797c0.23999-24.4646 20.2796-44.1772 44.9297-44.1964v-23.7709c-24.2827 0-67.5972 18.035-68.6013 66.5696z" style="fill:url(#radialGradient33)"/><path d="m324.947 216.203v45.1947h-23.9235v-43.797c-0.23999-24.4646-20.2796-44.1772-44.9297-44.1964v-23.7709c24.2827 0 67.5972 18.035 68.6013 66.5696z" style="fill:url(#radialGradient34)"/><rect transform="scale(1,-1)" x="156.786" y="-407.009" width="198.427" height="147.196" ry="1.57246" style="fill:none;stroke-opacity:.331523;stroke-width:1.21662;stroke:#b7c4c8"/><rect transform="scale(1,-1)" x="156.786" y="-407.009" width="198.427" height="147.196" ry="1.57246" style="fill:#d4aa00"/><path d="m355.831 259.813c-0.25445 0.52421-0.78012 0.89278-1.40403 0.89278h-1.57292c0.87114 0 1.57292 0.70179 1.57292 1.57293v1.13709a99.2135 16.1985 0 0 0 1.57293-2.71002 99.2135 16.1985 0 0 0-0.1689-0.89278zm-1.40403 3.6028a99.2135 16.1985 0 0 1-97.6406 13.4883 99.2135 16.1985 0 0 1-99.2135-16.1983c-0.87114 0-1.57293 0.70179-1.57293 1.57293v144.052c0 0.31474 0.11493 0.59013 0.27297 0.83547a99.2135 16.1985 0 0 1 98.9406-15.4623 99.2135 16.1985 0 0 1 99.0446 15.307c0.10083-0.20773 0.1689-0.43291 0.1689-0.68014zm-196.854-2.71002h1.57293c-0.5564 0-1.02061-0.30374-1.29997-0.73745a99.2135 16.1985 0 0 0-0.27296 0.73745z" style="fill:url(#linearGradient5);stroke-width:0"/><g transform="matrix(.588694 0 0 .587626 227.742 328.372)" style="fill:#ccc;stroke-opacity:.334239;stroke-width:2.06852;stroke:#b7c4c8;white-space:pre" aria-label="10101
00110"><path d="m3.616 0v-3.232l4.416-0.48v-9.504q0-1.248 0.032-2.336t0.096-2.208q-0.48 0.32-0.928 0.608-0.448 0.256-0.8 0.448l-2.176 1.184-2.08-3.744 6.72-3.584h3.776v19.136l4.288 0.48v3.232zm25.248 0.32q-4.16 0-6.112-3.04-1.952-3.072-1.952-8.832 0-5.728 1.92-8.672t5.984-2.944q4.16 0 6.112 3.072 1.984 3.04 1.984 8.832 0 3.392-0.768 6.016-0.736 2.624-2.464 4.096t-4.704 1.472zm-3.584-11.584q0 1.216 0.064 2.208l5.568-9.216q-0.8-1.024-2.144-1.024-1.952 0-2.72 2.08-0.768 2.048-0.768 5.952zm3.488 7.84q1.984 0 2.72-1.952t0.736-5.824q0-0.768-0.032-1.44-0.032-0.704-0.064-1.344l-5.728 9.312q0.832 1.248 2.368 1.248zm13.248 3.424v-3.232l4.416-0.48v-9.504q0-1.248 0.032-2.336t0.096-2.208q-0.48 0.32-0.928 0.608-0.448 0.256-0.8 0.448l-2.176 1.184-2.08-3.744 6.72-3.584h3.776v19.136l4.288 0.48v3.232zm25.248 0.32q-4.16 0-6.112-3.04-1.952-3.072-1.952-8.832 0-5.728 1.92-8.672t5.984-2.944q4.16 0 6.112 3.072 1.984 3.04 1.984 8.832 0 3.392-0.768 6.016-0.736 2.624-2.464 4.096t-4.704 1.472zm-3.584-11.584q0 1.216 0.064 2.208l5.568-9.216q-0.8-1.024-2.144-1.024-1.952 0-2.72 2.08-0.768 2.048-0.768 5.952zm3.488 7.84q1.984 0 2.72-1.952t0.736-5.824q0-0.768-0.032-1.44-0.032-0.704-0.064-1.344l-5.728 9.312q0.832 1.248 2.368 1.248zm13.248 3.424v-3.232l4.416-0.48v-9.504q0-1.248 0.032-2.336t0.096-2.208q-0.48 0.32-0.928 0.608-0.448 0.256-0.8 0.448l-2.176 1.184-2.08-3.744 6.72-3.584h3.776v19.136l4.288 0.48v3.232z"/><path d="m9.664 40.32q-4.16 0-6.112-3.04-1.952-3.072-1.952-8.832 0-5.728 1.92-8.672t5.984-2.944q4.16 0 6.112 3.072 1.984 3.04 1.984 8.832 0 3.392-0.768 6.016-0.736 2.624-2.464 4.096t-4.704 1.472zm-3.584-11.584q0 1.216 0.064 2.208l5.568-9.216q-0.8-1.024-2.144-1.024-1.952 0-2.72 2.08-0.768 2.048-0.768 5.952zm3.488 7.84q1.984 0 2.72-1.952t0.736-5.824q0-0.768-0.032-1.44-0.032-0.704-0.064-1.344l-5.728 9.312q0.832 1.248 2.368 1.248zm19.296 3.744q-4.16 0-6.112-3.04-1.952-3.072-1.952-8.832 0-5.728 1.92-8.672t5.984-2.944q4.16 0 6.112 3.072 1.984 3.04 1.984 8.832 0 3.392-0.768 6.016-0.736 2.624-2.464 4.096t-4.704 1.472zm-3.584-11.584q0 1.216 0.064 2.208l5.568-9.216q-0.8-1.024-2.144-1.024-1.952 0-2.72 2.08-0.768 2.048-0.768 5.952zm3.488 7.84q1.984 0 2.72-1.952t0.736-5.824q0-0.768-0.032-1.44-0.032-0.704-0.064-1.344l-5.728 9.312q0.832 1.248 2.368 1.248zm13.248 3.424v-3.232l4.416-0.48v-9.504q0-1.248 0.032-2.336t0.096-2.208q-0.48 0.32-0.928 0.608-0.448 0.256-0.8 0.448l-2.176 1.184-2.08-3.744 6.72-3.584h3.776v19.136l4.288 0.48v3.232zm19.2 0v-3.232l4.416-0.48v-9.504q0-1.248 0.032-2.336t0.096-2.208q-0.48 0.32-0.928 0.608-0.448 0.256-0.8 0.448l-2.176 1.184-2.08-3.744 6.72-3.584h3.776v19.136l4.288 0.48v3.232zm25.248 0.32q-4.16 0-6.112-3.04-1.952-3.072-1.952-8.832 0-5.728 1.92-8.672t5.984-2.944q4.16 0 6.112 3.072 1.984 3.04 1.984 8.832 0 3.392-0.768 6.016-0.736 2.624-2.464 4.096t-4.704 1.472zm-3.584-11.584q0 1.216 0.064 2.208l5.568-9.216q-0.8-1.024-2.144-1.024-1.952 0-2.72 2.08-0.768 2.048-0.768 5.952zm3.488 7.84q1.984 0 2.72-1.952t0.736-5.824q0-0.768-0.032-1.44-0.032-0.704-0.064-1.344l-5.728 9.312q0.832 1.248 2.368 1.248z"/></g></g></svg>
