<?xml version="1.0" encoding="UTF-8"?>
<svg version="1.1" viewBox="0 0 512 512" xmlns="http://www.w3.org/2000/svg">
 <defs>
  <linearGradient id="a" x2="0" y1="41" y2="7" gradientTransform="matrix(1.4998,0,0,1.4998,-3.9994,-3.9994)" gradientUnits="userSpaceOnUse">
   <stop stop-color="#728790" offset="0"/>
   <stop stop-color="#85969e" offset="1"/>
  </linearGradient>
  <linearGradient id="b" x2="0" y1="36" y2="12" gradientTransform="matrix(1.4998,0,0,1.4998,-3.9994,-3.9994)" gradientUnits="userSpaceOnUse">
   <stop stop-color="#06a370" offset="0"/>
   <stop stop-color="#22d1b0" offset="1"/>
  </linearGradient>
 </defs>
 <g transform="matrix(8 0 0 8 0 .024)" stroke-opacity=".55" stroke-width=".52495">
  <path d="m31.997 2c-16.618 0-29.997 13.379-29.997 29.997h10.499c0-10.802 8.6961-19.498 19.498-19.498zm19.498 29.997c0 10.802-8.6961 19.498-19.498 19.498v10.499c16.618 0 29.997-13.379 29.997-29.997z" fill="#53676c" style="stroke-width:.52495"/>
  <path d="m31.997 6.4996c-14.126 0-25.497 11.372-25.497 25.497 0 14.126 11.372 25.497 25.497 25.497 14.126 0 25.497-11.372 25.497-25.497h-10.499c0 8.3092-6.6893 14.998-14.998 14.998s-14.998-6.6893-14.998-14.998 6.6893-14.998 14.998-14.998z" fill="url(#a)" style="fill:url(#a);stroke-width:.52495"/>
  <path d="m31.997 13.999c-9.971 0-17.998 8.0272-17.998 17.998s8.0272 17.998 17.998 17.998 17.998-8.0272 17.998-17.998-8.0272-17.998-17.998-17.998m0 7.4992c5.8164 0 10.499 4.6825 10.499 10.499 0 5.8164-4.6825 10.499-10.499 10.499-5.8164 0-10.499-4.6825-10.499-10.499 0-5.8164 4.6825-10.499 10.499-10.499" fill="url(#b)" style="fill:url(#b);stroke-width:.52495"/>
  <path d="m2.045 30.497c-0.023998 0.49795-0.037496 0.9959-0.037496 1.4998h4.4996v-1.4998h-2.9997zm59.918 1.4998c-0.77692 15.915-13.844 28.497-29.96 28.497v1.4998c16.618 0 29.997-13.379 29.997-29.997z" fill="none" style="stroke-width:.52495"/>
  <path d="m6.4996 31.997c0 14.126 11.372 25.497 25.497 25.497 14.126 0 25.497-11.372 25.497-25.497h-0.07649c-0.77542 13.418-11.802 23.998-25.421 23.998s-24.623-10.589-25.401-23.998z" fill="none" style="stroke-width:.52495"/>
 </g>
</svg>
