<?xml version="1.0" encoding="UTF-8"?>
<svg version="1.1" viewBox="0 0 512 512" xml:space="preserve" xmlns="http://www.w3.org/2000/svg" xmlns:xlink="http://www.w3.org/1999/xlink">
  <defs>
    <style id="current-color-scheme" type="text/css">
          .ColorScheme-Text             { color: #7d7d7d; }
          .ColorScheme-PositiveText     { color: #00aa88; }
          .ColorScheme-NeutralText      { color: #ff6644; }
          .ColorScheme-NegativeText     { color: #ff5577; }
          .ColorScheme-Background       { color: #eff0f1; }
          .ColorScheme-Highlight        { color: #00aaff; }
          .ColorScheme-ViewText         { color: #7d7d7d; }
          .ColorScheme-ViewBackground   { color: #eff0f1; }
          .ColorScheme-ViewHover        { color: #00aaff; }
          .ColorScheme-ViewFocus        { color: #00aaff; }
          .ColorScheme-ButtonText       { color: #7d7d7d; }
          .ColorScheme-ButtonBackground { color: #eff0f1; }
          .ColorScheme-ButtonHover      { color: #00aaff; }
          .ColorScheme-ButtonFocus      { color: #00aaff; }
    </style>
    <linearGradient id="d" x1="131.308" x2="159.805" y1="204.704" y2="176.644" gradientTransform="translate(-.262559 -.423143)" gradientUnits="userSpaceOnUse">
      <stop stop-color="#b7c4c8" style="stop-opacity:.5" offset="0"/>
      <stop stop-color="#b7c4c8" style="stop-opacity:.5" offset=".48"/>
      <stop stop-color="#b7c4c8" style="stop-opacity:1" offset=".52"/>
    </linearGradient>
    <linearGradient id="c" x1="54.3842" x2="155.616" y1="150.685" y2="150.685" gradientTransform="matrix(1.01564 0 0 1.02362 -283.119 -207.639)" gradientUnits="userSpaceOnUse">
      <stop stop-color="#000" style="stop-opacity:.25" offset=".47"/>
      <stop stop-color="#000" style="stop-opacity:0" offset="1"/>
    </linearGradient>
    <linearGradient id="b" x1="176.643" x2="52.7737" y1="221.711" y2="98.3024" gradientTransform="translate(-8e-6)" gradientUnits="userSpaceOnUse">
      <stop stop-color="#b7c4c8" style="stop-opacity:.5" offset="0"/>
      <stop stop-color="#b7c4c8" style="stop-opacity:1" offset="1"/>
    </linearGradient>
  </defs>

  <g transform="matrix(2.70825 0 0 2.73777 -28.3943 -156.463)">
    <ellipse id="f" class="ColorScheme-Highlight" cx="105.01" cy="150.65" rx="51.6939" ry="51.1365" fill="currentColor" style="stroke-width:1.01965"/>
    <ellipse id="g" transform="matrix(-.785638 -.618686 .629966 -.776623 0 0)" cx="-176.476" cy="-53.3939" rx="51.0361" ry="51.793" fill="url(#c)" style="stroke-width:.748906"/>
    
    <path id="h" class="ColorScheme-Text" transform="matrix(1.18591 0 0 1.18591 -19.9123 -28.1105)" d="m114.976 160.244-13.1419 3.50275-9.63747-9.50713 3.50442-13.0099 13.1419-3.50274 9.6375 9.5071z" fill="currentColor" style="stroke-opacity:.197307;stroke-width:.895577;stroke:#000"/>
    <path id="i" transform="matrix(1.18591 0 0 1.18591 -19.9123 -28.1105)" d="m114.976 160.244-13.1419 3.50275-9.63747-9.50713 3.50442-13.0099 13.1419-3.50274 9.6375 9.5071z" fill="url(#d)" style="stroke-opacity:.197307;stroke-width:.895586;stroke:#000"/>

    <path id="j" class="ColorScheme-Text" d="m29.4825 102.883-1.67038 2.85034c-0.166989 0.28492-0.369981 0.69348-0.547359 1.01018-0.375854 0.64784-0.779089 1.39232-1.24221 2.29064-0.21934 0.42165-0.414695 0.79404-0.634464 1.22926-0.154179 0.31038-0.294681 0.60142-0.450095 0.9218-1.85568 3.74796-3.5165 7.49985-3.54735 8.25337-0.553691 1.57725-0.502334 1.93644-0.03869 2.28149 0.370972 0.27608 2.15264 1.94641 3.95893 3.71096 2.97387 2.90509 3.39495 3.44275 4.45391 5.68894 1.64555 3.49047 2.30077 6.37427 2.30506 10.142 5.88e-4 0.51668-0.04308 0.98347-0.0679 1.47021-1.0726 7.16562-5.57668 13.622-12.4139 16.7113-1.07223 0.48447-2.12751 1.01858-2.34416 1.18639-0.216688 0.16778-0.136903 1.83419 0.176641 3.70292 0.04673 0.27847 0.157816 0.73891 0.222922 1.07137 6.44e-4 3e-3 0.0018 7e-3 0.0025 0.0106 0.804737 4.10464 2.83656 11.7264 3.43446 12.7194 0.01638 0.0272 0.05752 0.0427 0.07724 0.0679l0.735593 2.24029 4.39209 0.0338c3.12196 0.0242 5.1828 0.28855 7.12579 0.9137 4.90491 1.5782 8.86714 4.46512 11.7165 8.3905 2.16169 3.3759 3.19446 7.07802 3.21612 11.5259 0.02118 4.35059-0.574476 7.03982-2.30709 10.4176l-1.13068 2.20333 1.40671 1.39505c1.75693 1.74131 6.42531 5.27651 10.4879 7.94302l3.09603 2.03161 0.07732-0.0759 1.46682 0.92214 3.2599-2.96989c3.61287-3.29117 5.85743-4.51957 10.1455-5.55507 2.89643-0.69947 7.69111-0.63842 10.4385 0.0653 3.37285 1.05805 6.37478 2.92029 9.12316 5.6618 3.48155 3.47286 5.80562 7.8231 6.41558 12.0083 0.32635 2.23916 0.34766 2.25748 2.6285 2.37068 2.76185 0.1371 10.2791-0.31389 13.8768-0.83311l2.74623-0.39627 0.13513-3.14169c0.46419-10.7896 8.76075-19.2126 18.9499-20.8173l-7.85187-7.83226a60.0171 60.6713 89.9991 0 1-48.5748 1.51323 60.0171 60.6713 89.9991 0 1-3.90476-1.56075 60.0171 60.6713 89.9991 0 1-5.75816-3.32036 60.0171 60.6713 89.9991 0 1-3.01892-1.81487 60.0171 60.6713 89.9991 0 1-7.78805-6.51941 60.0171 60.6713 89.9991 0 1 0.357836-84.876 60.0171 60.6713 89.9991 0 1 58.6688-15.2916 60.0171 60.6713 89.9991 0 1 19.0592 8.88742 60.0171 60.6713 89.9991 0 1 8.07313 6.75819 60.0171 60.6713 89.9991 0 1 6.52528 7.75818 60.0171 60.6713 89.9991 0 1 1.81549 3.01051 60.0171 60.6713 89.9991 0 1 3.30082 5.71092 60.0171 60.6713 89.9991 0 1 1.55169 3.89222 60.0171 60.6713 89.9991 0 1-1.81039 47.7921l7.78077 7.76134c1.82734-9.9248 10.3425-17.9034 21.1432-18.2688l3.17695-0.10746 0.42348-2.71322c0.55487-3.5544 1.07346-10.9866 0.95791-13.7197-0.0954-2.25712-0.11375-2.27834-2.37451-2.61984-4.22557-0.63826-8.60367-2.97348-12.0852-6.44634-2.74837-2.74151-4.60581-5.7265-5.64722-9.07169-0.68841-2.72351-0.71014-7.46683 0.0211-10.3261 1.08252-4.23303 2.34298-6.44306 5.70005-9.9894l3.02935-3.19987-0.91992-1.45864 0.0773-0.0759-2.02785-3.07949c-2.6616-4.04084-6.19627-8.68821-7.94184-10.4407l-1.39833-1.40327-2.2367 1.10006c-3.42888 1.6857-6.15229 2.25248-10.55 2.19524-4.49576-0.05853-8.22892-1.11129-11.6233-3.27748-3.94459-2.8513-6.83047-6.79445-8.38496-11.6597-0.61574-1.92719-0.86576-3.96795-0.86419-7.05634l3e-3 -4.34486-2.2585-0.746323c-0.0254-0.01972-0.0407-0.06052-0.0684-0.07662-0.99876-0.599718-8.68638-2.67312-12.8289-3.5034-2e-3 -7.95e-4 -6e-3 -0.0015-8e-3 -0.0023-1e-3 -2.3e-4 -1e-3 -2.81e-4 -2e-3 -7.95e-4 -0.33553-0.06717-0.80005-0.180901-1.08116-0.229444-1.88641-0.325735-3.57025-0.418568-3.74167-0.205618-0.17145 0.212899-0.72016 1.25232-1.21884 2.30891-3.17984 6.73745-9.74399 11.139-16.9964 12.1402-0.492229 0.02049-0.964453 0.05979-1.48674 0.0549-3.80862-0.03567-6.71828-0.707857-10.2329-2.36472-2.26176-1.06624-2.80175-1.48726-5.7136-4.45319-1.76866-1.80147-3.44228-3.57779-3.71826-3.94705-0.344928-0.461511-0.707589-0.515313-2.3066 0.01924-0.761827 0.02423-4.56711 1.6352-8.37058 3.43914-0.325838 0.15137-0.621952 0.288319-0.937616 0.438543-0.441784 0.213761-0.819852 0.403895-1.24791 0.617347-0.911944 0.450622-1.66788 0.843283-2.3259 1.20967-0.321615 0.172819-0.736314 0.370203-1.02572 0.533008l-2.89524 1.62855 0.544752 2.26977c1.86213 7.76602-0.07731 15.1058-5.36993 20.7314-5.73087 5.18845-13.1666 7.04569-21.0011 5.1385z" fill="currentColor" style="stroke-opacity:.197307;stroke-width:1.45087;stroke:#000"/>
    <path id="k" d="m29.4825 102.883-1.67038 2.85034c-0.16699 0.28492-0.36998 0.69348-0.54736 1.01018-0.37585 0.64784-0.77909 1.39232-1.24221 2.29064-0.21934 0.42165-0.4147 0.79404-0.63447 1.22926-0.15418 0.31038-0.29468 0.60142-0.45009 0.9218-1.85569 3.74796-3.51651 7.49985-3.54736 8.25337-0.55369 1.57725-0.50233 1.93644-0.0387 2.28149 0.37098 0.27608 2.15264 1.94641 3.95893 3.71096 2.97387 2.90509 3.39496 3.44275 4.45391 5.68894 1.64555 3.49047 2.30078 6.37427 2.30507 10.142 5.9e-4 0.51668-0.0431 0.98347-0.0679 1.47021-1.07261 7.16562-5.57669 13.622-12.4139 16.7113-1.07223 0.48447-2.12751 1.01858-2.34415 1.18639-0.21669 0.16778-0.13691 1.83419 0.17664 3.70292 0.0467 0.27847 0.15781 0.73891 0.22292 1.07137 6.4e-4 3e-3 2e-3 7e-3 2e-3 0.0106 0.80474 4.10464 2.83656 11.7264 3.43445 12.7194 0.0164 0.0272 0.0575 0.0427 0.0772 0.0679l0.7356 2.24029 4.39208 0.0338c3.12197 0.0242 5.1828 0.28855 7.1258 0.9137 4.90491 1.5782 8.86714 4.46512 11.7165 8.3905 2.16169 3.3759 3.19446 7.07802 3.21612 11.5259 0.0212 4.35059-0.57447 7.03982-2.30708 10.4176l-1.13068 2.20333 1.40671 1.39505c1.75693 1.74131 6.42531 5.27651 10.4878 7.94302l3.09604 2.03161 0.0773-0.0759 1.46681 0.92214 3.2599-2.96989c3.61287-3.29117 5.85743-4.51957 10.1455-5.55507 2.89642-0.69947 7.69109-0.63842 10.4384 0.0653 3.37286 1.05805 6.37478 2.92029 9.12316 5.6618 3.48155 3.47286 5.80563 7.8231 6.41559 12.0083 0.32635 2.23916 0.34766 2.25748 2.6285 2.37068 2.76185 0.1371 10.2791-0.31389 13.8768-0.83311l2.74623-0.39627 0.13513-3.14169c0.46419-10.7896 8.76075-19.2126 18.9499-20.8173l-7.85187-7.83226a60.0171 60.6713 89.9991 0 1-48.5748 1.51323 60.0171 60.6713 89.9991 0 1-3.90476-1.56075 60.0171 60.6713 89.9991 0 1-5.75814-3.32036 60.0171 60.6713 89.9991 0 1-3.01892-1.81487 60.0171 60.6713 89.9991 0 1-7.78805-6.51941 60.0171 60.6713 89.9991 0 1 0.35783-84.876 60.0171 60.6713 89.9991 0 1 58.6688-15.2916 60.0171 60.6713 89.9991 0 1 19.0592 8.88743 60.0171 60.6713 89.9991 0 1 8.07313 6.75819 60.0171 60.6713 89.9991 0 1 6.52528 7.75818 60.0171 60.6713 89.9991 0 1 1.81549 3.01051 60.0171 60.6713 89.9991 0 1 3.30082 5.71092 60.0171 60.6713 89.9991 0 1 1.55169 3.89222 60.0171 60.6713 89.9991 0 1-1.81039 47.7921l7.78077 7.76134c1.82734-9.9248 10.3425-17.9034 21.1432-18.2688l3.17695-0.10746 0.42348-2.71322c0.55487-3.5544 1.07346-10.9866 0.95791-13.7197-0.0954-2.25712-0.11375-2.27834-2.37451-2.61984-4.22557-0.63826-8.60367-2.97348-12.0852-6.44634-2.74837-2.74151-4.60581-5.7265-5.64722-9.07169-0.68841-2.72351-0.71014-7.46683 0.0211-10.3261 1.08252-4.23303 2.34298-6.44306 5.70005-9.9894l3.02935-3.19987-0.91992-1.45864 0.0773-0.0759-2.02785-3.07949c-2.6616-4.04086-6.19627-8.68822-7.94184-10.4407l-1.39833-1.40327-2.2367 1.10006c-3.42888 1.6857-6.15229 2.25248-10.55 2.19524-4.49576-0.0585-8.22892-1.11128-11.6233-3.27747-3.94459-2.8513-6.83047-6.79445-8.38496-11.6597-0.61574-1.92719-0.86576-3.96795-0.86419-7.05633l3e-3 -4.34486-2.2585-0.74632c-0.0254-0.0197-0.0407-0.0605-0.0684-0.0766-0.99876-0.59971-8.68638-2.67312-12.8289-3.50339-2e-3 -8e-4 -6e-3 -2e-3 -8e-3 -2e-3 -1e-3 -2.3e-4 -1e-3 -2.8e-4 -2e-3 -7.9e-4 -0.33553-0.0672-0.80005-0.18091-1.08116-0.22945-1.88641-0.32573-3.57025-0.41857-3.74167-0.20562-0.17145 0.2129-0.72016 1.25232-1.21884 2.30891-3.17984 6.73745-9.74399 11.139-16.9964 12.1402-0.49223 0.0205-0.96445 0.0598-1.48674 0.0549-3.80862-0.0357-6.71828-0.70786-10.233-2.36472-2.26176-1.06624-2.80175-1.48726-5.7136-4.45319-1.76866-1.80147-3.44227-3.57779-3.71826-3.94706-0.34492-0.46151-0.70759-0.51531-2.30658 0.0192-0.76183 0.0242-4.56711 1.6352-8.37059 3.43914-0.32584 0.15137-0.62195 0.28832-0.93761 0.43854-0.44179 0.21376-0.81986 0.4039-1.24791 0.61735-0.91194 0.45062-1.66788 0.84328-2.3259 1.20967-0.32161 0.17282-0.73631 0.3702-1.02572 0.53301l-2.89524 1.62855 0.54475 2.26976c1.86213 7.76603-0.0773 15.1058-5.36992 20.7314-5.73087 5.18846-13.1666 7.0457-21.0011 5.13851z" fill="url(#b)" style="stroke-opacity:.197307;stroke-width:1.45087;stroke:#000"/>
    
    <path id="l" class="ColorScheme-Text" d="m114.994 132.572 12.2292 12.0633-5.88743 21.8571-0.0141 0.0139-22.0787 5.8847-12.1001-11.9366a27.095 27.3903 89.9997 0 0 7.87593 18.2797 27.095 27.3903 89.9997 0 0 25.489 7.32527l39.1549 39.0572c3.1629 3.15499 7.7974 3.64648 10.391 1.10211l11.237-11.0235c2.59365-2.54438 2.13547-7.13284-1.02742-10.2878l-39.1414-39.0437a27.095 27.3903 89.9997 0 0-7.20632-25.2874 27.095 27.3903 89.9997 0 0-18.9217-8.00419z" fill="currentColor" style="stroke-opacity:.197307;stroke-width:1.08969;stroke:#000"/>
    <path id="m" d="m115.046 132.164 12.3644 12.1967-5.95253 22.0988-0.0143 0.0141-22.3228 5.94977-12.2339-12.0686a27.3946 27.6932 89.9997 0 0 7.96302 18.4818 27.3946 27.6932 89.9997 0 0 25.7709 7.40627l39.5879 39.4891c3.19787 3.18988 7.88362 3.6868 10.5059 1.11431l11.3613-11.1454c2.62233-2.57251 2.15909-7.21172-1.03878-10.4016l-39.5742-39.4754a27.3946 27.6932 89.9997 0 0-7.286-25.567 27.3946 27.6932 89.9997 0 0-19.1309-8.09269z" fill="url(#d)" style="stroke-opacity:.197307;stroke-width:.0643688;stroke:#000"/>
</g>
</svg>
