<?xml version="1.0" encoding="UTF-8"?>
<svg fill="none" version="1.1" viewBox="0 0 512 512" xmlns="http://www.w3.org/2000/svg">
 <defs>
  <style id="current-color-scheme" type="text/css">.ColorScheme-Text { color:#8a8a8a; }</style>
 </defs>
 <path class="ColorScheme-Text" d="m256.224 48c15.6591 0.170593 31.2542 1.98407 46.5506 5.39748a16.0004 16.0004 0 0 1 12.4164 13.8457l3.62675 32.5769a29.5262 29.5262 0 0 0 41.1105 23.8087l29.8889-13.1204a16.0004 16.0004 0 0 1 18.1338 3.7121 208.902 208.902 0 0 1 47.02 80.8982 16.0004 16.0004 0 0 1-5.78152 17.6005l-26.4967 19.5419a29.4621 29.4621 0 0 0 0 47.4893l26.518 19.5205a16.0004 16.0004 0 0 1 5.80285 17.6218 209.008 209.008 0 0 1-47.02 80.8983 16.0004 16.0004 0 0 1-18.0911 3.73343l-30.0168-13.163a29.4408 29.4408 0 0 0-41.0891 23.766l-3.60545 32.5556a16.0004 16.0004 0 0 1-12.203 13.8031 203.056 203.056 0 0 1-93.9973 0 16.0004 16.0004 0 0 1-12.203-13.8031l-3.58411-32.5129a29.4835 29.4835 0 0 0-41.0891-23.6807l-29.9955 13.1417a16.0004 16.0004 0 0 1-18.1125-3.73345 209.03 209.03 0 0 1-47.02-80.9836 16.0004 16.0004 0 0 1 5.80283-17.6218l26.5181-19.5418a29.4408 29.4408 0 0 0 0-47.4893l-26.5181-19.4992a16.0004 16.0004 0 0 1-5.7815-17.6218 208.923 208.923 0 0 1 47.02-80.8982 16.0004 16.0004 0 0 1 18.1338-3.71211l29.8675 13.1204a29.5902 29.5902 0 0 0 41.1745-23.8513l3.62679-32.5556a16.0004 16.0004 0 0 1 12.4377-13.867c15.2964-3.3921 30.9342-5.18414 46.956-5.37615zm0 32.0009a194.885 194.885 0 0 0-28.8861 2.49607l-2.32541 20.8432a61.5697 61.5697 0 0 1-85.8477 49.6227l-19.1579-8.40557a176.922 176.922 0 0 0-28.7581 49.4307l17.0245 12.523a61.463 61.463 0 0 1 0 99.0534l-17.0458 12.5444c6.82686 17.9632 16.5551 34.689 28.7581 49.5374l19.3072-8.46955a61.4844 61.4844 0 0 1 85.6984 49.452l2.34673 20.9926c18.9658 3.20008 38.3584 3.20008 57.3243 0l2.34671-20.9926a61.463 61.463 0 0 1 85.7197-49.5374l19.3072 8.44823a176.986 176.986 0 0 0 28.7368-49.4521l-17.0244-12.5443a61.463 61.463 0 0 1 0-99.0534l16.9818-12.523a176.922 176.922 0 0 0-28.7581-49.4307l-19.1152 8.38423a61.527 61.527 0 0 1-85.8264-49.58l-2.34674-20.8219a191.749 191.749 0 0 0-28.4381-2.49607zm-0.25602 96.0026a80.0022 80.0022 0 1 1 0 160.004 80.0022 80.0022 0 0 1 0-160.004zm0 32.0009a48.0013 48.0013 0 1 0 0 96.0027 48.0013 48.0013 0 0 0 0-96.0027z" fill="currentColor"/>
</svg>
