<?xml version="1.0" encoding="UTF-8"?>
<svg version="1.1" viewBox="0 0 512 512" xmlns="http://www.w3.org/2000/svg">
 <defs>
  <linearGradient id="linearGradient959" x1="387.88" x2="426.78" y1="535.07" y2="502.83" gradientTransform="matrix(.11473 0 0 .11473 341.09 443.09)" gradientUnits="userSpaceOnUse">
   <stop stop-color="#0b90cd" offset="0"/>
   <stop stop-color="#02dcf3" offset="1"/>
  </linearGradient>
 </defs>
 <linearGradient id="c" x1="392.04" x2="435.77" y1="545.79" y2="504.96" gradientTransform="matrix(.11473 0 0 .11473 341.09 443.09)" gradientUnits="userSpaceOnUse">
  <stop stop-color="#0c89ca" offset="0"/>
  <stop stop-color="#00ebfa" offset="1"/>
 </linearGradient>
 <linearGradient id="f" x1="409.83" x2="410.06" y1="539.74" y2="507.72" gradientTransform="matrix(.11989 0 0 .11989 338.98 440.39)" gradientUnits="userSpaceOnUse">
  <stop stop-color="#f4f4f4" offset="0"/>
  <stop stop-color="#fff" offset="1"/>
 </linearGradient>
 <g transform="matrix(92.1421 0 0 92.1421 -35491.8 -46109.3)" style="stroke-width:.11797">
  <rect x="385.38" y="500.61" width="5.1678" height="5.1678" ry="2.5839" fill="url(#c)" stroke="url(#linearGradient959)" stroke-width=".0415455" style="fill:url(#c);stroke:url(#linearGradient959)"/>
  <path d="m388.77 501.27-0.0568 7e-3c-0.0237 3e-3 -0.03 0.10981-0.0142 0.23966l0.3532 2.8948a0.24146 0.24146 0 0 0-0.14244 0.24948 0.24146 0.24146 0 0 0 0.26904 0.21077 0.24146 0.24146 0 0 0 0.21053-0.26903 0.24146 0.24146 0 0 0-0.19422-0.20801l-0.35344-2.8954c-0.0158-0.12985-0.048-0.232-0.0717-0.22912zm-1.0695 0.12013-0.0573 7e-3c-0.0237 3e-3 -0.0298 0.11029-0.0139 0.24049l0.0129 0.10791a0.24218 0.24218 0 0 0-0.1422 0.25069 0.24218 0.24218 0 0 0 0.1983 0.20909l0.31207 2.5587c0.0159 0.13021 0.048 0.23271 0.0717 0.22984l0.0573-8e-3c0.0237-3e-3 0.0298-0.11006 0.0139-0.24026l-0.31208-2.5597a0.24218 0.24218 0 0 0 0.13956-0.24926 0.24218 0.24218 0 0 0-0.19543-0.20836l-0.0134-0.1091c-0.0159-0.13032-0.0477-0.2326-0.0714-0.22972zm-1.0769 0.12361-0.0573 7e-3c-0.0238 3e-3 -0.0304 0.11017-0.0143 0.24037l0.24889 2.0404a0.24218 0.24218 0 0 0-0.14147 0.25045 0.24218 0.24218 0 0 0 0.19782 0.20885l0.0764 0.62643c0.0158 0.1302 0.0479 0.23306 0.0717 0.23019l0.0571-7e-3c0.0237-3e-3 0.0304-0.1103 0.0143-0.24038l-0.0766-0.62727a0.24218 0.24218 0 0 0 0.14003-0.24937 0.24218 0.24218 0 0 0-0.19577-0.20861l-0.24938-2.0409c-0.0158-0.1302-0.0476-0.23258-0.0713-0.22971z" fill="url(#f)" stroke-width=".0141434" style="fill:url(#f)"/>
 </g>
</svg>
