<?xml version="1.0" encoding="UTF-8" standalone="no"?>
<svg
   version="1.1"
   viewBox="0 0 512 512"
   xml:space="preserve"
   id="svg21"
   sodipodi:docname="shodo.svg"
   inkscape:version="1.4.2 (ebf0e940d0, 2025-05-08)"
   xmlns:inkscape="http://www.inkscape.org/namespaces/inkscape"
   xmlns:sodipodi="http://sodipodi.sourceforge.net/DTD/sodipodi-0.dtd"
   xmlns="http://www.w3.org/2000/svg"
   xmlns:svg="http://www.w3.org/2000/svg"><sodipodi:namedview
     id="namedview21"
     pagecolor="#ffffff"
     bordercolor="#000000"
     borderopacity="0.25"
     inkscape:showpageshadow="2"
     inkscape:pageopacity="0.0"
     inkscape:pagecheckerboard="0"
     inkscape:deskcolor="#d1d1d1"
     inkscape:zoom="0.78613281"
     inkscape:cx="255.68199"
     inkscape:cy="256.31801"
     inkscape:window-width="1920"
     inkscape:window-height="1008"
     inkscape:window-x="0"
     inkscape:window-y="0"
     inkscape:window-maximized="1"
     inkscape:current-layer="svg21" /><defs
     id="defs2"><radialGradient
       id="radialGradient3361"
       cx="8.4665"
       cy="8.4665"
       r="7.4082"
       gradientTransform="matrix(.73236 -.73236 1.1837 1.1837 -7.7556 4.6455)"
       gradientUnits="userSpaceOnUse"><stop
         stop-color="#a3124a"
         offset="0"
         id="stop1" /><stop
         stop-color="#500c21"
         offset="1"
         id="stop2"
         style="stop-color:#811538;stop-opacity:1;" /></radialGradient></defs><g
     transform="matrix(31.2785 0 0 31.2785 -8.8267 -8.8267)"
     style="stroke-width:.0319708"
     id="g21"><rect
       x=".79373"
       y=".79373"
       width="15.346"
       height="15.346"
       ry="1.477"
       fill="url(#radialGradient3361)"
       stop-color="#000000"
       stroke-linecap="round"
       stroke-linejoin="round"
       stroke-width=".0169177"
       style="fill:url(#radialGradient3361)"
       id="rect2" /><g
       transform="matrix(.23706 0 0 .23706 -8.7319 -5.6779)"
       fill="#fff"
       style="stroke-width:.0320259"
       id="g20"><path
         d="m72.55 59.118a3.7264 3.7264 0 0 0-3.7264 3.7264 3.7264 3.7264 0 0 0 3.7264 3.7264 3.7264 3.7264 0 0 0 3.7264-3.7264 3.7264 3.7264 0 0 0-3.7264-3.7264z"
         stop-color="#000000"
         stroke-linecap="round"
         stroke-linejoin="round"
         stroke-opacity=".9098"
         stroke-width=".0356826"
         id="path2" /><path
         d="m61.342 47.338c0.0704-0.05285 0.14124-0.10522 0.21239-0.1571z"
         stop-color="#000000"
         stroke-linecap="round"
         stroke-linejoin="round"
         stroke-opacity=".9098"
         stroke-width=".0356826"
         id="path3" /><path
         d="m57.069 51.602 3.0293 2.1921c0.94554-1.3006 2.0889-2.4451 3.3884-3.392l-2.144-3.0639c-1.6411 1.1863-3.0836 2.6255-4.2736 4.2638z"
         stop-color="#000000"
         stroke-linecap="round"
         stroke-linejoin="round"
         stroke-opacity=".9098"
         stroke-width=".0356826"
         id="path4" /><path
         d="m56.912 51.814c0.0517-0.07116 0.1039-0.14195 0.15658-0.21239z"
         stop-color="#000000"
         stroke-linecap="round"
         stroke-linejoin="round"
         stroke-opacity=".9098"
         stroke-width=".0356826"
         id="path5" /><path
         d="m56.815 73.743 3.0691-2.1477c-1.7808-2.5713-2.7368-5.6237-2.7409-8.7514 5e-3 -3.1627 0.98248-6.2474 2.8009-8.8351l-3.0324-2.1947c-2.279 3.2267-3.5041 7.0794-3.5073 11.03 2e-3 3.8954 1.1914 7.6976 3.4106 10.899z"
         stop-color="#000000"
         stroke-linecap="round"
         stroke-linejoin="round"
         stroke-opacity=".9098"
         stroke-width=".0356826"
         id="path6" /><path
         d="m56.972 73.956c-0.0529-0.07044-0.10522-0.14123-0.1571-0.21239z"
         stop-color="#000000"
         stroke-linecap="round"
         stroke-linejoin="round"
         stroke-opacity=".9098"
         stroke-width=".0356826"
         id="path7" /><path
         d="m61.245 78.278 2.1916-3.0277c-1.3068-0.96067-2.4536-2.1217-3.3982-3.4401l-3.0654 2.1451c1.1848 1.6592 2.627 3.1185 4.2721 4.3227z"
         stop-color="#000000"
         stroke-linecap="round"
         stroke-linejoin="round"
         stroke-opacity=".9098"
         stroke-width=".0356826"
         id="path8" /><path
         d="m61.457 78.435c-0.0712-0.0517-0.14196-0.1039-0.21239-0.15658z"
         stop-color="#000000"
         stroke-linecap="round"
         stroke-linejoin="round"
         stroke-opacity=".9098"
         stroke-width=".0356826"
         id="path9" /><path
         d="m83.284 78.694-2.1472-3.068c-2.5385 1.7079-5.528 2.6212-8.5876 2.6236-3.1893-0.0048-6.2986-0.99933-8.8987-2.8463l-2.1937 3.0313c3.2386 2.3081 7.1155 3.5504 11.092 3.5543 3.8272-6.65e-4 7.5663-1.1483 10.735-3.2949z"
         stop-color="#000000"
         stroke-linecap="round"
         stroke-linejoin="round"
         stroke-opacity=".9098"
         stroke-width=".0356826"
         id="path10" /><path
         d="m83.499 78.541c-0.0713 0.05148-0.14296 0.10247-0.21497 0.15296z"
         stop-color="#000000"
         stroke-linecap="round"
         stroke-linejoin="round"
         stroke-opacity=".9098"
         stroke-width=".0356826"
         id="path11" /><path
         d="m87.894 74.271-3.0256-2.1906c-0.98414 1.3105-2.1711 2.4556-3.5161 3.392l2.1466 3.0685c1.6848-1.1781 3.1688-2.6199 4.3951-4.27z"
         stop-color="#000000"
         stroke-linecap="round"
         stroke-linejoin="round"
         stroke-opacity=".9098"
         stroke-width=".0356826"
         id="path12" /><path
         d="m88.051 74.059c-0.0519 0.07116-0.10424 0.14196-0.1571 0.21239z"
         stop-color="#000000"
         stroke-linecap="round"
         stroke-linejoin="round"
         stroke-opacity=".9098"
         stroke-width=".0356826"
         id="path13" /><path
         d="m88.333 52.011-3.0701 2.1482c1.7509 2.5581 2.6894 5.5848 2.6929 8.6847-5e-3 3.2412-1.0314 6.3983-2.9342 9.0222l3.0298 2.1926c2.3642-3.2618 3.6393-7.1863 3.6437-11.215-7.4e-4 -3.8677-1.1729-7.6444-3.3621-10.833z"
         stop-color="#000000"
         stroke-linecap="round"
         stroke-linejoin="round"
         stroke-opacity=".9098"
         stroke-width=".0356826"
         id="path14" /><path
         d="m88.176 51.798c0.0529 0.07061 0.10522 0.14158 0.1571 0.21291z"
         stop-color="#000000"
         stroke-linecap="round"
         stroke-linejoin="round"
         stroke-opacity=".9098"
         stroke-width=".0356826"
         id="path15" /><path
         d="m83.915 47.453-2.1911 3.0272c1.3042 0.96887 2.4469 2.1379 3.3858 3.4639l3.0665-2.1461c-1.1797-1.6663-2.6182-3.1331-4.2612-4.345z"
         stop-color="#000000"
         stroke-linecap="round"
         stroke-linejoin="round"
         stroke-opacity=".9098"
         stroke-width=".0356826"
         id="path16" /><path
         d="m83.702 47.297c0.0712 0.0517 0.14196 0.1039 0.21239 0.15658z"
         stop-color="#000000"
         stroke-linecap="round"
         stroke-linejoin="round"
         stroke-opacity=".9098"
         stroke-width=".0356826"
         id="path17" /><path
         d="m72.549 43.699c-3.9357 3e-3 -7.7748 1.2188-10.995 3.482l2.1466 3.0675c2.5902-1.8242 5.6799-2.8055 8.848-2.8102 3.2146 0.0046 6.3473 1.0147 8.9592 2.8887l2.1937-3.0303c-3.2502-2.3355-7.1505-3.5937-11.153-3.5977z"
         stop-color="#000000"
         stroke-linecap="round"
         stroke-linejoin="round"
         stroke-opacity=".9098"
         stroke-width=".0356826"
         id="path18" /><path
         d="m60.706 54.234 1.7441 1.2625c0.75367-1.0406 1.663-1.9604 2.6944-2.7249l-1.232-1.7601c-1.2282 0.90111-2.311 1.9892-3.2065 3.2225z"
         color="#000000"
         stroke-linecap="round"
         stroke-linejoin="round"
         stroke-width=".134866"
         style="-inkscape-stroke:none"
         id="path19" /><path
         d="m84.258 71.639-1.712-1.2392c-0.79516 1.0516-1.7524 1.9733-2.8345 2.728l1.2149 1.7358c1.2734-0.89227 2.3991-1.9814 3.3316-3.2246z"
         color="#000000"
         stroke-linecap="round"
         stroke-linejoin="round"
         stroke-width=".134866"
         style="-inkscape-stroke:none"
         id="path20" /><rect
         x="65.333"
         y="37.345"
         width="14.59"
         height="2.399"
         stop-color="#000000"
         stroke-width=".157341"
         id="rect20" /></g></g></svg>
