<?xml version="1.0" encoding="UTF-8"?>
<svg version="1.1" viewBox="0 0 512 512" xmlns="http://www.w3.org/2000/svg">
 <defs>
  <style id="current-color-scheme" type="text/css">.ColorScheme-Text             { color: #7d7d7d; }
    .ColorScheme-Highlight        { color: #00aaff; }</style>
  <linearGradient id="a" x1="47.554" x2="240.54" y1="149.87" y2="270.16" gradientTransform="matrix(1.34977 0 0 1.38177 -3.14793 -9.4667)" gradientUnits="userSpaceOnUse">
   <stop class="ColorScheme-Text" stop-color="currentColor" stop-opacity="0" offset=".65"/>
   <stop class="ColorScheme-Text" stop-color="currentColor" stop-opacity=".05" offset="1"/>
  </linearGradient>
 </defs>
 <rect x="16" y="64" width="480" height="384" ry="16.9218" style="fill:#444"/>
 <rect x="16" y="64" width="480" height="384" ry="16.9218" style="fill:url(#a)"/>
 <rect class="ColorScheme-Text" x="16" y="64" width="480" height="384" ry="16.9218" style="fill:none;stroke-width:8;stroke:currentColor;stroke-opacity:.5"/>
 <rect x="254" y="90" width="4" height="354" style="fill:#7d7d7d;stroke-width:.999995"/>
 <rect transform="rotate(90)" x="265" y="-492" width="4" height="472" style="fill:#7d7d7d;stroke-width:.999995"/>
 <path class="ColorScheme-Highlight" d="m32.9219 68c-7.22787 0-12.9219 5.694-12.9219 12.9219v9.07812h472v-9.07812c0-7.22787-5.69398-12.9219-12.9219-12.9219z" style="color:#00aaff;fill:currentColor"/>
 <g transform="matrix(.25 0 0 .25 25 80)" style="stroke-width:4">
  <path class="ColorScheme-Highlight" d="m258 224v24h-78v-24z" style="fill:currentColor;stroke-width:4"/>
  <path class="ColorScheme-Highlight" d="m108.793 183.999-48.7929-63.999h46.8708l49.1292 63.999-49.1292 64.001c-22.0492-2e-3 -24.0065-1e-3 -46.0543 0z" style="fill:currentColor;stroke-width:4"/>
 </g>
 <g transform="matrix(.25 0 0 .25 25 259)" style="stroke-width:4">
  <path class="ColorScheme-Highlight" d="m258 224v24h-78v-24z" style="color:#00aaff;fill:currentColor;stroke-width:4"/>
  <path class="ColorScheme-Highlight" d="m108.793 183.999-48.7929-63.999h46.8708l49.1292 63.999-49.1292 64.001c-22.0492-2e-3 -24.0065-1e-3 -46.0543 0z" style="color:#00aaff;fill:currentColor;stroke-width:4"/>
 </g>
 <g transform="matrix(.25 0 0 .25 263 80)" style="stroke-width:4">
  <path class="ColorScheme-Highlight" d="m258 224v24h-78v-24z" style="color:#00aaff;fill:currentColor;stroke-width:4"/>
  <path class="ColorScheme-Highlight" d="m108.793 183.999-48.7929-63.999h46.8708l49.1292 63.999-49.1292 64.001c-22.0492-2e-3 -24.0065-1e-3 -46.0543 0z" style="color:#00aaff;fill:currentColor;stroke-width:4"/>
 </g>
 <g transform="matrix(.25 0 0 .25 263 259)" style="stroke-width:4">
  <path class="ColorScheme-Highlight" d="m258 224v24h-78v-24z" style="color:#00aaff;fill:currentColor;stroke-width:4"/>
  <path class="ColorScheme-Highlight" d="m108.793 183.999-48.7929-63.999h46.8708l49.1292 63.999-49.1292 64.001c-22.0492-2e-3 -24.0065-1e-3 -46.0543 0z" style="color:#00aaff;fill:currentColor;stroke-width:4"/>
 </g>
</svg>
