<?xml version="1.0" encoding="UTF-8"?>
<svg version="1.1" viewBox="0 0 512 512" xml:space="preserve" xmlns="http://www.w3.org/2000/svg"><defs>

        <style id="current-color-scheme" type="text/css">
            .ColorScheme-Text             { color: #7d7d7d; }
            .ColorScheme-PositiveText     { color: #00aa88; }
            .ColorScheme-NeutralText      { color: #ff6644; }
            .ColorScheme-NegativeText     { color: #ff5577; }
            .ColorScheme-Background       { color: #eff0f1; }
            .ColorScheme-Highlight        { color: #00aaff; }
            .ColorScheme-ViewText         { color: #7d7d7d; }
            .ColorScheme-ViewBackground   { color: #eff0f1; }
            .ColorScheme-ViewHover        { color: #00aaff; }
            .ColorScheme-ViewFocus        { color: #00aaff; }
            .ColorScheme-ButtonText       { color: #7d7d7d; }
            .ColorScheme-ButtonBackground { color: #eff0f1; }
            .ColorScheme-ButtonHover      { color: #00aaff; }
            .ColorScheme-ButtonFocus      { color: #00aaff; }
        </style>

        <linearGradient id="linearGradient4282" x2="0" y1="540.8" y2="506.8" gradientTransform="matrix(.343852 0 0 .343808 116.473 -435.102)" gradientUnits="userSpaceOnUse"><stop stop-color="#2a2c2f" offset="0"/><stop stop-color="#3f3f3f" offset="1"/></linearGradient><linearGradient id="linearGradient319" x1="238.08" x2="301.83" y1="275.12" y2="210.93" gradientTransform="matrix(1.16908 0 0 1.1689 -42.3146 -44.2027)" gradientUnits="userSpaceOnUse"><stop stop-color="#1a5a89" style="stop-color:#2583c9" offset="0"/><stop stop-color="#2889d1" style="stop-color:#509fdf" offset="1"/></linearGradient><filter id="filter322" x="-.0479019" y="-.0480986" width="1.0958" height="1.0962" color-interpolation-filters="sRGB"><feGaussianBlur stdDeviation="7.4862377"/></filter><style/></defs><rect class="ColorScheme-Text" x="23.153" y="21.2554" width="467.624" height="467.549" rx="233.817" fill="currentColor" stroke-width="11.192"/><rect x="175.199" y="173.238" width="163.664" height="163.648" rx="81.8318" fill="url(#linearGradient319)" stroke-width="11.192" style="fill:url(#linearGradient319)"/><rect transform="scale(1,-1)" x="251.118" y="-260.875" width="11.6908" height="11.689" rx="5.84532" fill="url(#linearGradient4282)" stroke-width="2.798" style="fill:url(#linearGradient4282)"/><g transform="matrix(1.16908 0 0 1.1689 501.335 -67.142)" fill="none" stroke-width=".0670184"><path d="m-209.81 76.405c110.37 0 199.23 88.855 199.23 199.22 0 110.37-88.854 199.22-199.23 199.22-115.44-3.6002-190.31-88.107-199.22-199.22 0-110.37 88.854-199.22 199.22-199.22z" stroke="#1a1a1a" style="stroke-width:.0670184"/><path d="m-209.81 77.181c109.94 0 198.45 88.508 198.45 198.45s-88.508 198.45-198.45 198.45c-109.94 0-198.45-88.508-198.45-198.45s88.508-198.45 198.45-198.45z" stroke="#666" style="stroke-width:.0670184"/><g stroke="#1a1a1a" style="stroke-width:.0670184"><path d="m-209.81 77.956c109.51 0 197.67 88.163 197.67 197.67 0 109.51-88.162 197.67-197.67 197.67-109.51 0-197.67-88.162-197.67-197.67 0-109.51 88.163-197.67 197.67-197.67z" style="stroke-width:.0670184"/><path d="m-209.81 78.731c109.08 0 196.9 87.817 196.9 196.9s-87.817 196.9-196.9 196.9-196.9-87.817-196.9-196.9 87.817-196.9 196.9-196.9z" style="stroke-width:.0670184"/><path d="m-209.81 79.507c108.65 0 196.12 87.471 196.12 196.12s-87.471 196.12-196.12 196.12c-108.65 0-196.12-87.471-196.12-196.12s87.471-196.12 196.12-196.12z" style="stroke-width:.0670184"/><path d="m-209.81 80.282c108.22 0 195.35 87.125 195.35 195.35s-87.126 195.35-195.35 195.35c-108.22 0-195.35-87.125-195.35-195.35s87.126-195.35 195.35-195.35z" style="stroke-width:.0670184"/><path d="m-209.81 81.057c107.79 0 194.57 86.78 194.57 194.57-1e-4 107.79-86.779 194.57-194.57 194.57-107.79 0-194.57-86.78-194.57-194.57s86.779-194.57 194.57-194.57z" style="stroke-width:.0670184"/><path d="m-209.81 81.833c107.36 0 193.8 86.433 193.8 193.8s-86.434 193.8-193.8 193.8c-107.36 0-193.8-86.434-193.8-193.8s86.434-193.8 193.8-193.8z" style="stroke-width:.0670184"/><path d="m-209.81 82.608c106.94 0 193.02 86.088 193.02 193.02s-86.088 193.02-193.02 193.02c-106.93 0-193.02-86.088-193.02-193.02s86.088-193.02 193.02-193.02z" style="stroke-width:.0670184"/><path d="m-209.81 83.383c106.5 0 192.25 85.742 192.25 192.25s-85.742 192.25-192.25 192.25c-106.5 0-192.25-85.742-192.25-192.25s85.742-192.25 192.25-192.25z" style="stroke-width:.0670184"/><path d="m-209.81 84.159c106.08 0 191.47 85.396 191.47 191.47s-85.396 191.47-191.47 191.47c-106.08 0-191.47-85.397-191.47-191.47s85.396-191.47 191.47-191.47z" style="stroke-width:.0670184"/><path d="m-209.81 84.934c105.65 0 190.7 85.05 190.7 190.7-1e-4 105.65-85.051 190.7-190.7 190.7-105.64 0-190.7-85.05-190.7-190.7s85.051-190.7 190.7-190.7z" style="stroke-width:.0670184"/><path d="m-209.81 85.709c105.22 0 189.92 84.705 189.92 189.92s-84.704 189.92-189.92 189.92c-105.22 0-189.92-84.705-189.92-189.92s84.704-189.92 189.92-189.92z" style="stroke-width:.0670184"/><path d="m-209.81 86.485c104.79 0 189.15 84.358 189.15 189.15s-84.359 189.15-189.15 189.15c-104.79 0-189.14-84.359-189.14-189.15s84.359-189.15 189.14-189.15z" style="stroke-width:.0670184"/><path d="m-209.81 87.26c104.36 0 188.37 84.013 188.37 188.37s-84.014 188.37-188.37 188.37-188.37-84.013-188.37-188.37 84.013-188.37 188.37-188.37z" style="stroke-width:.0670184"/></g><path d="m-209.81 88.035c103.93 0 187.6 83.668 187.6 187.59 0 103.93-83.667 187.6-187.6 187.6-103.93 0-187.6-83.667-187.6-187.6 1e-3 -103.93 83.668-187.59 187.6-187.59z" stroke="#4d4d4d" style="stroke-width:.0670184"/><g stroke="#1a1a1a" style="stroke-width:.0670184"><path d="m-209.81 88.81c103.5 0 186.82 83.322 186.82 186.82-1e-4 103.5-83.322 186.82-186.82 186.82s-186.82-83.322-186.82-186.82 83.321-186.82 186.82-186.82z" style="stroke-width:.0670184"/><path d="m-209.81 89.586c103.07 0 186.04 82.976 186.04 186.04-1e-4 103.07-82.976 186.04-186.04 186.04-103.07 0-186.04-82.975-186.04-186.04 0-103.07 82.976-186.04 186.04-186.04z" style="stroke-width:.0670184"/><path d="m-209.81 90.361c102.64 0 185.27 82.63 185.27 185.27s-82.63 185.27-185.27 185.27-185.27-82.63-185.27-185.27 82.63-185.27 185.27-185.27z" style="stroke-width:.0670184"/><path d="m-209.81 91.136c102.21 0 184.49 82.284 184.49 184.49 0 102.21-82.284 184.49-184.49 184.49-102.21 0-184.49-82.284-184.49-184.49 0-102.21 82.284-184.49 184.49-184.49z" style="stroke-width:.0670184"/><path d="m-209.81 91.912c101.78 0 183.72 81.938 183.72 183.72s-81.939 183.72-183.72 183.72-183.72-81.938-183.72-183.72 81.938-183.72 183.72-183.72z" style="stroke-width:.0670184"/><path d="m-209.81 92.687c101.35 0 182.94 81.593 182.94 182.94-1e-4 101.35-81.592 182.94-182.94 182.94-101.35 0-182.94-81.593-182.94-182.94s81.593-182.94 182.94-182.94z" style="stroke-width:.0670184"/><path d="m-209.81 93.462c100.92 0 182.17 81.247 182.17 182.17-1e-4 100.92-81.247 182.17-182.17 182.17s-182.17-81.247-182.17-182.17 81.247-182.17 182.17-182.17z" style="stroke-width:.0670184"/><path d="m-209.81 94.238c100.49 0 181.39 80.901 181.39 181.39s-80.901 181.39-181.39 181.39c-100.49 0-181.39-80.901-181.39-181.39s80.901-181.39 181.39-181.39z" style="stroke-width:.0670184"/><path d="m-209.81 95.013c100.06 0 180.62 80.555 180.62 180.62s-80.555 180.62-180.62 180.62c-100.06 0-180.62-80.555-180.62-180.62s80.556-180.62 180.62-180.62z" style="stroke-width:.0670184"/><path d="m-209.81 95.788c99.633 0 179.84 80.21 179.84 179.84s-80.209 179.84-179.84 179.84c-99.632 0-179.84-80.21-179.84-179.84s80.209-179.84 179.84-179.84z" style="stroke-width:.0670184"/><path d="m-209.81 96.564c99.203 0 179.07 79.863 179.07 179.07-1e-4 99.203-79.864 179.07-179.07 179.07-99.202 0-179.07-79.863-179.07-179.07s79.864-179.07 179.07-179.07z" style="stroke-width:.0670184"/><path d="m-209.81 97.339c98.774 0 178.29 79.518 178.29 178.29-1e-4 98.773-79.518 178.29-178.29 178.29-98.773 0-178.29-79.518-178.29-178.29s79.518-178.29 178.29-178.29z" style="stroke-width:.0670184"/><path d="m-209.81 98.114c98.344 0 177.52 79.172 177.52 177.52s-79.172 177.52-177.52 177.52c-98.343 0-177.52-79.172-177.52-177.52s79.172-177.52 177.52-177.52z" style="stroke-width:.0670184"/><path d="m-209.81 98.89c97.915 0 176.74 78.826 176.74 176.74s-78.826 176.74-176.74 176.74c-97.914-1e-3 -176.74-78.827-176.74-176.74s78.826-176.74 176.74-176.74z" style="stroke-width:.0670184"/><path d="m-209.81 99.665c97.485 0 175.97 78.48 175.97 175.96-1e-4 97.485-78.48 175.96-175.97 175.96-97.484 0-175.96-78.48-175.96-175.96s78.481-175.96 175.96-175.96z" style="stroke-width:.0670184"/><path d="m-209.81 100.44c97.056 0 175.19 78.135 175.19 175.19-1e-4 97.055-78.134 175.19-175.19 175.19-97.055 0-175.19-78.135-175.19-175.19s78.134-175.19 175.19-175.19z" style="stroke-width:.0670184"/><path d="m-209.81 101.22c96.626 0 174.41 77.788 174.41 174.41-1e-4 96.626-77.789 174.42-174.41 174.42-96.625 0-174.41-77.789-174.41-174.42s77.789-174.41 174.41-174.41z" style="stroke-width:.0670184"/><path d="m-209.81 101.99c96.196 0 173.64 77.443 173.64 173.64s-77.444 173.64-173.64 173.64-173.64-77.443-173.64-173.64 77.443-173.64 173.64-173.64z" style="stroke-width:.0670184"/><path d="m-209.81 102.77c95.767 0 172.86 77.098 172.86 172.86 0 95.767-77.097 172.86-172.86 172.86-95.766 0-172.86-77.097-172.86-172.86s77.097-172.86 172.86-172.86z" style="stroke-width:.0670184"/><path d="m-209.81 103.54c95.337 0 172.09 76.751 172.09 172.09-1e-4 95.337-76.752 172.09-172.09 172.09s-172.09-76.752-172.09-172.09 76.751-172.09 172.09-172.09z" style="stroke-width:.0670184"/></g><path d="m-209.81 104.32c94.908 0 171.31 76.406 171.31 171.31-1e-4 94.908-76.406 171.31-171.31 171.31-94.907 0-171.31-76.405-171.31-171.31 0-94.907 76.406-171.31 171.31-171.31z" stroke="#4d4d4d" style="stroke-width:.0670184"/><g stroke="#1a1a1a" style="stroke-width:.0670184"><path d="m-209.81 105.09c94.478 0 170.54 76.06 170.54 170.54-1e-4 94.478-76.06 170.54-170.54 170.54s-170.54-76.06-170.54-170.54 76.059-170.54 170.54-170.54z" style="stroke-width:.0670184"/><path d="m-209.81 105.87c94.049 0 169.76 75.714 169.76 169.76-1e-4 94.049-75.714 169.76-169.76 169.76-94.048 0-169.76-75.714-169.76-169.76 0-94.048 75.714-169.76 169.76-169.76z" style="stroke-width:.0670184"/><path d="m-209.81 106.64c93.619 0 168.99 75.368 168.99 168.99s-75.369 168.99-168.99 168.99-168.99-75.368-168.99-168.99 75.369-168.99 168.99-168.99z" style="stroke-width:.0670184"/><path d="m-209.81 107.42c93.19 0 168.21 75.023 168.21 168.21-1e-4 93.19-75.022 168.21-168.21 168.21-93.189 0-168.21-75.023-168.21-168.21 1e-3 -93.189 75.023-168.21 168.21-168.21z" style="stroke-width:.0670184"/><path d="m-209.81 108.19c92.76 0 167.44 74.677 167.44 167.44-1e-4 92.76-74.677 167.44-167.44 167.44s-167.44-74.677-167.44-167.44 74.677-167.44 167.44-167.44z" style="stroke-width:.0670184"/><path d="m-209.81 108.97c92.331 0 166.66 74.331 166.66 166.66-1e-4 92.331-74.331 166.66-166.66 166.66-92.33 0-166.66-74.331-166.66-166.66s74.331-166.66 166.66-166.66z" style="stroke-width:.0670184"/><path d="m-209.81 109.74c91.901 0 165.89 73.985 165.89 165.89-1e-4 91.901-73.985 165.89-165.89 165.89s-165.89-73.985-165.89-165.89c1e-3 -91.901 73.986-165.89 165.89-165.89z" style="stroke-width:.0670184"/><path d="m-209.81 110.52c91.472 0 165.11 73.64 165.11 165.11s-73.639 165.11-165.11 165.11-165.11-73.64-165.11-165.11 73.639-165.11 165.11-165.11z" style="stroke-width:.0670184"/><path d="m-209.81 111.3c91.042 0 164.34 73.293 164.34 164.34-1e-4 91.042-73.294 164.34-164.34 164.34-91.041 0-164.34-73.293-164.34-164.34s73.294-164.34 164.34-164.34z" style="stroke-width:.0670184"/><path d="m-209.81 112.07c90.613 0 163.56 72.948 163.56 163.56-1e-4 90.612-72.947 163.56-163.56 163.56-90.612 0-163.56-72.948-163.56-163.56s72.948-163.56 163.56-163.56z" style="stroke-width:.0670184"/><path d="m-209.81 112.84c90.183 0 162.79 72.602 162.79 162.78-1e-4 90.183-72.602 162.78-162.79 162.78-90.182 0-162.78-72.602-162.78-162.78s72.602-162.78 162.78-162.78z" style="stroke-width:.0670184"/><path d="m-209.81 113.62c89.754 0 162.01 72.256 162.01 162.01-1e-4 89.753-72.256 162.01-162.01 162.01-89.753 0-162.01-72.256-162.01-162.01s72.256-162.01 162.01-162.01z" style="stroke-width:.0670184"/><path d="m-209.81 114.4c89.324 0 161.23 71.91 161.23 161.23s-71.91 161.23-161.23 161.23c-89.323 0-161.23-71.91-161.23-161.23s71.911-161.23 161.23-161.23z" style="stroke-width:.0670184"/><path d="m-209.81 115.17c88.895 0 160.46 71.565 160.46 160.46-1e-4 88.894-71.565 160.46-160.46 160.46s-160.46-71.565-160.46-160.46 71.564-160.46 160.46-160.46z" style="stroke-width:.0670184"/><path d="m-209.81 115.95c88.465 0 159.68 71.218 159.68 159.68-1e-4 88.465-71.219 159.68-159.68 159.68-88.464-1e-3 -159.68-71.219-159.68-159.68s71.219-159.68 159.68-159.68z" style="stroke-width:.0670184"/><path d="m-209.81 116.72c88.035 0 158.91 70.873 158.91 158.91-1e-4 88.035-70.874 158.91-158.91 158.91s-158.91-70.873-158.91-158.91 70.873-158.91 158.91-158.91z" style="stroke-width:.0670184"/><path d="m-209.81 117.5c87.606 0 158.13 70.528 158.13 158.13-1e-4 87.606-70.527 158.13-158.13 158.13-87.605 0-158.13-70.527-158.13-158.13s70.527-158.13 158.13-158.13z" style="stroke-width:.0670184"/><path d="m-209.81 118.27c87.176 0 157.36 70.181 157.36 157.36-1e-4 87.176-70.182 157.36-157.36 157.36-87.176-1e-3 -157.36-70.182-157.36-157.36s70.181-157.36 157.36-157.36z" style="stroke-width:.0670184"/><path d="m-209.81 119.05c86.747 0 156.58 69.836 156.58 156.58-1e-4 86.747-69.836 156.58-156.58 156.58-86.746 0-156.58-69.835-156.58-156.58s69.836-156.58 156.58-156.58z" style="stroke-width:.0670184"/><path d="m-209.81 119.82c86.317 0 155.81 69.49 155.81 155.81-1e-4 86.317-69.49 155.81-155.81 155.81s-155.81-69.49-155.81-155.81 69.489-155.81 155.81-155.81z" style="stroke-width:.0670184"/><path d="m-209.81 120.6c85.888 0 155.03 69.144 155.03 155.03-1e-4 85.888-69.144 155.03-155.03 155.03-85.887-1e-3 -155.03-69.145-155.03-155.03s69.144-155.03 155.03-155.03z" style="stroke-width:.0670184"/></g><path d="m-209.81 121.37c85.458 0 154.26 68.798 154.26 154.26-1e-4 85.458-68.799 154.26-154.26 154.26s-154.26-68.798-154.26-154.26 68.799-154.26 154.26-154.26z" stroke="#4d4d4d" style="stroke-width:.0670184"/><g stroke="#1a1a1a" style="stroke-width:.0670184"><path d="m-209.81 122.15c85.029 0 153.48 68.453 153.48 153.48-2e-4 85.029-68.452 153.48-153.48 153.48s-153.48-68.453-153.48-153.48 68.452-153.48 153.48-153.48z" style="stroke-width:.0670184"/><path d="m-209.81 122.92c84.599 0 152.71 68.106 152.71 152.7-1e-4 84.599-68.107 152.71-152.71 152.71s-152.7-68.107-152.7-152.71 68.107-152.7 152.7-152.7z" style="stroke-width:.0670184"/><path d="m-209.81 123.7c84.17 0 151.93 67.761 151.93 151.93-1e-4 84.17-67.761 151.93-151.93 151.93s-151.93-67.761-151.93-151.93 67.761-151.93 151.93-151.93z" style="stroke-width:.0670184"/><path d="m-209.81 124.48c83.74 0 151.16 67.415 151.16 151.16-1e-4 83.74-67.415 151.16-151.16 151.16s-151.16-67.415-151.16-151.16c1e-3 -83.74 67.416-151.16 151.16-151.16z" style="stroke-width:.0670184"/><path d="m-209.81 125.25c83.311 0 150.38 67.069 150.38 150.38-1e-4 83.31-67.069 150.38-150.38 150.38-83.31 0-150.38-67.07-150.38-150.38s67.069-150.38 150.38-150.38z" style="stroke-width:.0670184"/><path d="m-209.81 126.03c82.881 0 149.6 66.723 149.6 149.6-2e-4 82.881-66.724 149.6-149.6 149.6-82.88 0-149.6-66.723-149.6-149.6s66.724-149.6 149.6-149.6z" style="stroke-width:.0670184"/><path d="m-209.81 126.8c82.452 0 148.83 66.378 148.83 148.83-1e-4 82.451-66.377 148.83-148.83 148.83-82.451 0-148.83-66.378-148.83-148.83 1e-3 -82.451 66.378-148.83 148.83-148.83z" style="stroke-width:.0670184"/><path d="m-209.81 127.58c82.022 0 148.05 66.032 148.05 148.05-1e-4 82.022-66.032 148.05-148.05 148.05-82.021 0-148.05-66.032-148.05-148.05s66.032-148.05 148.05-148.05z" style="stroke-width:.0670184"/><path d="m-209.81 128.35c81.593 0 147.28 65.686 147.28 147.28-1e-4 81.592-65.687 147.28-147.28 147.28s-147.28-65.686-147.28-147.28 65.686-147.28 147.28-147.28z" style="stroke-width:.0670184"/><path d="m-209.81 129.13c81.163 0 146.5 65.34 146.5 146.5-1e-4 81.163-65.34 146.5-146.5 146.5-81.162 0-146.5-65.34-146.5-146.5 1e-3 -81.163 65.341-146.5 146.5-146.5z" style="stroke-width:.0670184"/><path d="m-209.81 129.9c80.734 0 145.73 64.995 145.73 145.73-2e-4 80.733-64.995 145.73-145.73 145.73s-145.73-64.995-145.73-145.73 64.994-145.73 145.73-145.73z" style="stroke-width:.0670184"/><path d="m-209.81 130.68c80.304 0 144.95 64.648 144.95 144.95-1e-4 80.304-64.649 144.95-144.95 144.95-80.303 0-144.95-64.648-144.95-144.95s64.649-144.95 144.95-144.95z" style="stroke-width:.0670184"/><path d="m-209.81 131.45c79.874 0 144.18 64.303 144.18 144.18-1e-4 79.874-64.303 144.18-144.18 144.18s-144.18-64.303-144.18-144.18 64.303-144.18 144.18-144.18z" style="stroke-width:.0670184"/><path d="m-209.81 132.23c79.445 0 143.4 63.958 143.4 143.4-1e-4 79.445-63.957 143.4-143.4 143.4-79.444 0-143.4-63.957-143.4-143.4s63.957-143.4 143.4-143.4z" style="stroke-width:.0670184"/><path d="m-209.81 133c79.015 0 142.63 63.611 142.63 142.63-1e-4 79.015-63.612 142.63-142.63 142.63s-142.63-63.611-142.63-142.63 63.611-142.63 142.63-142.63z" style="stroke-width:.0670184"/><path d="m-209.81 133.78c78.586 0 141.85 63.266 141.85 141.85-2e-4 78.586-63.266 141.85-141.85 141.85-78.585 0-141.85-63.266-141.85-141.85 0-78.586 63.266-141.85 141.85-141.85z" style="stroke-width:.0670184"/><path d="m-209.81 134.55c78.156 0 141.08 62.92 141.08 141.08-2e-4 78.156-62.92 141.08-141.08 141.08s-141.08-62.92-141.08-141.08 62.92-141.08 141.08-141.08z" style="stroke-width:.0670184"/><path d="m-209.81 135.33c77.727 0 140.3 62.574 140.3 140.3-1e-4 77.727-62.574 140.3-140.3 140.3-77.726-1e-3 -140.3-62.575-140.3-140.3s62.574-140.3 140.3-140.3z" style="stroke-width:.0670184"/><path d="m-209.81 136.1c77.297 0 139.53 62.228 139.53 139.52-1e-4 77.297-62.228 139.52-139.53 139.52s-139.52-62.228-139.52-139.52 62.229-139.52 139.52-139.52z" style="stroke-width:.0670184"/><path d="m-209.81 136.88c76.868 0 138.75 61.883 138.75 138.75-2e-4 76.868-61.882 138.75-138.75 138.75-76.867 0-138.75-61.883-138.75-138.75s61.882-138.75 138.75-138.75z" style="stroke-width:.0670184"/><path d="m-209.81 137.66c76.438 0 137.97 61.536 137.97 137.97-2e-4 76.438-61.537 137.98-137.97 137.98-76.438-1e-3 -137.97-61.537-137.97-137.98s61.537-137.97 137.97-137.97z" style="stroke-width:.0670184"/><path d="m-209.81 138.43c76.009 0 137.2 61.191 137.2 137.2-2e-4 76.009-61.191 137.2-137.2 137.2-76.008 0-137.2-61.191-137.2-137.2s61.191-137.2 137.2-137.2z" style="stroke-width:.0670184"/></g><path d="m-209.81 139.21c75.579 0 136.42 60.845 136.42 136.42-1e-4 75.579-60.845 136.42-136.42 136.42s-136.42-60.845-136.42-136.42 60.845-136.42 136.42-136.42z" stroke="#4d4d4d" style="stroke-width:.0670184"/><g stroke="#1a1a1a" style="stroke-width:.0670184"><path d="m-209.81 139.98c75.15 0 135.65 60.499 135.65 135.65-1e-4 75.15-60.499 135.65-135.65 135.65-75.149-1e-3 -135.65-60.5-135.65-135.65s60.499-135.65 135.65-135.65z" style="stroke-width:.0670184"/><path d="m-209.81 140.76c74.72 0 134.87 60.153 134.87 134.87-2e-4 74.72-60.154 134.87-134.87 134.87s-134.87-60.153-134.87-134.87 60.154-134.87 134.87-134.87z" style="stroke-width:.0670184"/><path d="m-209.81 141.53c74.291 0 134.1 59.808 134.1 134.1-2e-4 74.29-59.807 134.1-134.1 134.1-74.29 0-134.1-59.808-134.1-134.1s59.807-134.1 134.1-134.1z" style="stroke-width:.0670184"/><path d="m-209.81 142.31c73.861 0 133.32 59.461 133.32 133.32-2e-4 73.861-59.462 133.32-133.32 133.32-73.86-1e-3 -133.32-59.462-133.32-133.32s59.462-133.32 133.32-133.32z" style="stroke-width:.0670184"/><path d="m-209.81 143.08c73.432 0 132.55 59.116 132.55 132.55-1e-4 73.431-59.117 132.55-132.55 132.55s-132.55-59.116-132.55-132.55 59.116-132.55 132.55-132.55z" style="stroke-width:.0670184"/><path d="m-209.81 143.86c73.002 0 131.77 58.77 131.77 131.77-1e-4 73.002-58.77 131.77-131.77 131.77-73.001 0-131.77-58.77-131.77-131.77 1e-3 -73.002 58.771-131.77 131.77-131.77z" style="stroke-width:.0670184"/><path d="m-209.81 144.63c72.573 0 131 58.425 131 131-2e-4 72.572-58.425 131-131 131s-131-58.425-131-131 58.424-131 131-131z" style="stroke-width:.0670184"/><path d="m-209.81 145.41c72.143 0 130.22 58.078 130.22 130.22-2e-4 72.143-58.079 130.22-130.22 130.22-72.142 0-130.22-58.078-130.22-130.22s58.079-130.22 130.22-130.22z" style="stroke-width:.0670184"/><path d="m-209.81 146.18c71.713 0 129.45 57.733 129.45 129.45-2e-4 71.713-57.733 129.45-129.45 129.45s-129.45-57.733-129.45-129.45c1e-3 -71.713 57.733-129.45 129.45-129.45z" style="stroke-width:.0670184"/><path d="m-209.81 146.96c71.284 0 128.67 57.388 128.67 128.67-1e-4 71.284-57.387 128.67-128.67 128.67s-128.67-57.387-128.67-128.67 57.387-128.67 128.67-128.67z" style="stroke-width:.0670184"/><path d="m-209.81 147.74c70.854 0 127.9 57.041 127.9 127.9-1e-4 70.854-57.042 127.9-127.9 127.9s-127.9-57.041-127.9-127.9 57.041-127.9 127.9-127.9z" style="stroke-width:.0670184"/><path d="m-209.81 148.51c70.425 0 127.12 56.696 127.12 127.12-2e-4 70.425-56.695 127.12-127.12 127.12-70.424 0-127.12-56.696-127.12-127.12 1e-3 -70.425 56.696-127.12 127.12-127.12z" style="stroke-width:.0670184"/><path d="m-209.81 149.28c69.995 0 126.35 56.35 126.35 126.34-2e-4 69.995-56.35 126.34-126.35 126.34s-126.34-56.35-126.34-126.34 56.35-126.34 126.34-126.34z" style="stroke-width:.0670184"/><path d="m-209.81 150.06c69.566 0 125.57 56.004 125.57 125.57-2e-4 69.566-56.004 125.57-125.57 125.57-69.565 0-125.57-56.004-125.57-125.57s56.004-125.57 125.57-125.57z" style="stroke-width:.0670184"/><path d="m-209.81 150.84c69.136 0 124.79 55.658 124.79 124.79-2e-4 69.136-55.658 124.79-124.79 124.79s-124.79-55.658-124.79-124.79c1e-3 -69.136 55.659-124.79 124.79-124.79z" style="stroke-width:.0670184"/><path d="m-209.81 151.61c68.707 0 124.02 55.313 124.02 124.02-1e-4 68.707-55.312 124.02-124.02 124.02-68.706 0-124.02-55.313-124.02-124.02s55.312-124.02 124.02-124.02z" style="stroke-width:.0670184"/><path d="m-209.81 152.39c68.277 0 123.24 54.966 123.24 123.24-2e-4 68.277-54.967 123.24-123.24 123.24-68.277-1e-3 -123.24-54.967-123.24-123.24s54.967-123.24 123.24-123.24z" style="stroke-width:.0670184"/><path d="m-209.81 153.16c67.848 0 122.47 54.621 122.47 122.47-2e-4 67.848-54.62 122.47-122.47 122.47-67.847 0-122.47-54.621-122.47-122.47s54.621-122.47 122.47-122.47z" style="stroke-width:.0670184"/><path d="m-209.81 153.94c67.418 0 121.69 54.275 121.69 121.69-2e-4 67.418-54.275 121.69-121.69 121.69s-121.69-54.275-121.69-121.69 54.275-121.69 121.69-121.69z" style="stroke-width:.0670184"/><path d="m-209.81 154.71c66.989 0 120.92 53.929 120.92 120.92-2e-4 66.989-53.929 120.92-120.92 120.92-66.988-1e-3 -120.92-53.93-120.92-120.92s53.929-120.92 120.92-120.92z" style="stroke-width:.0670184"/><path d="m-209.81 155.49c66.559 0 120.14 53.583 120.14 120.14-2e-4 66.559-53.584 120.14-120.14 120.14s-120.14-53.583-120.14-120.14 53.584-120.14 120.14-120.14z" style="stroke-width:.0670184"/><path d="m-209.81 156.26c66.13 0 119.37 53.238 119.37 119.37-2e-4 66.13-53.238 119.37-119.37 119.37s-119.37-53.238-119.37-119.37 53.237-119.37 119.37-119.37z" style="stroke-width:.0670184"/></g><path d="m-209.81 157.04c65.7 0 118.59 52.891 118.59 118.59-2e-4 65.7-52.892 118.59-118.59 118.59-65.699-1e-3 -118.59-52.892-118.59-118.59s52.892-118.59 118.59-118.59z" stroke="#666" style="stroke-width:.0670184"/><g stroke="#1a1a1a" style="stroke-width:.0670184"><path d="m-209.81 157.81c65.271 0 117.82 52.546 117.82 117.82-2e-4 65.27-52.547 117.82-117.82 117.82s-117.82-52.546-117.82-117.82 52.546-117.82 117.82-117.82z" style="stroke-width:.0670184"/><path d="m-209.81 158.59c64.841 0 117.04 52.2 117.04 117.04-2e-4 64.841-52.2 117.04-117.04 117.04s-117.04-52.2-117.04-117.04 52.2-117.04 117.04-117.04z" style="stroke-width:.0670184"/><path d="m-209.81 159.36c64.412 0 116.27 51.854 116.27 116.26-2e-4 64.411-51.855 116.27-116.27 116.27-64.411-1e-3 -116.26-51.855-116.26-116.27s51.854-116.26 116.26-116.26z" style="stroke-width:.0670184"/><path d="m-209.81 160.14c63.982 0 115.49 51.509 115.49 115.49-2e-4 63.982-51.509 115.49-115.49 115.49s-115.49-51.508-115.49-115.49 51.509-115.49 115.49-115.49z" style="stroke-width:.0670184"/><path d="m-209.81 160.92c63.552 0 114.72 51.163 114.72 114.72-2e-4 63.552-51.163 114.72-114.72 114.72s-114.72-51.163-114.72-114.72c1e-3 -63.552 51.163-114.72 114.72-114.72z" style="stroke-width:.0670184"/><path d="m-209.81 161.69c63.123 0 113.94 50.818 113.94 113.94-2e-4 63.123-50.817 113.94-113.94 113.94-63.122-1e-3 -113.94-50.818-113.94-113.94 0-63.123 50.817-113.94 113.94-113.94z" style="stroke-width:.0670184"/><path d="m-209.81 162.47c62.693 0 113.16 50.471 113.16 113.16-2e-4 62.693-50.472 113.16-113.16 113.16s-113.16-50.471-113.16-113.16 50.472-113.16 113.16-113.16z" style="stroke-width:.0670184"/><path d="m-209.81 163.24c62.264 0 112.39 50.126 112.39 112.39-3e-4 62.264-50.125 112.39-112.39 112.39-62.263 0-112.39-50.126-112.39-112.39 1e-3 -62.264 50.126-112.39 112.39-112.39z" style="stroke-width:.0670184"/><path d="m-209.81 164.02c61.834 0 111.61 49.78 111.61 111.61-2e-4 61.834-49.78 111.61-111.61 111.61s-111.61-49.78-111.61-111.61 49.78-111.61 111.61-111.61z" style="stroke-width:.0670184"/><path d="m-209.81 164.79c61.405 0 110.84 49.434 110.84 110.84-2e-4 61.405-49.434 110.84-110.84 110.84-61.404 0-110.84-49.434-110.84-110.84 0-61.405 49.434-110.84 110.84-110.84z" style="stroke-width:.0670184"/><path d="m-209.81 165.57c60.975 0 110.06 49.088 110.06 110.06-2e-4 60.975-49.088 110.06-110.06 110.06s-110.06-49.088-110.06-110.06c1e-3 -60.975 49.089-110.06 110.06-110.06z" style="stroke-width:.0670184"/><path d="m-209.81 166.34c60.546 0 109.29 48.743 109.29 109.29 0 60.546-48.742 109.29-109.29 109.29-60.545 0-109.29-48.743-109.29-109.29s48.742-109.29 109.29-109.29z" style="stroke-width:.0670184"/><path d="m-209.81 167.12c60.116 0 108.51 48.396 108.51 108.51v1e-3c0 60.115-48.397 108.51-108.51 108.51s-108.51-48.396-108.51-108.51 48.397-108.51 108.51-108.51z" style="stroke-width:.0670184"/><path d="m-209.81 167.89c59.687 0 107.74 48.051 107.74 107.74v1e-3c0 59.686-48.05 107.74-107.74 107.74-59.686 0-107.74-48.051-107.74-107.74 1e-3 -59.686 48.051-107.74 107.74-107.74z" style="stroke-width:.0670184"/><path d="m-209.81 168.67c59.257 0 106.96 47.705 106.96 106.96v1e-3c0 59.256-47.705 106.96-106.96 106.96s-106.96-47.705-106.96-106.96 47.705-106.96 106.96-106.96z" style="stroke-width:.0670184"/><path d="m-209.81 169.44c58.828 0 106.19 47.359 106.19 106.19v1e-3c0 58.827-47.359 106.18-106.19 106.18-58.827 0-106.19-47.359-106.19-106.19s47.359-106.19 106.19-106.19z" style="stroke-width:.0670184"/><path d="m-209.81 170.22c58.398 0 105.41 47.013 105.41 105.41v1e-3c0 58.397-47.013 105.41-105.41 105.41s-105.41-47.013-105.41-105.41c1e-3 -58.398 47.014-105.41 105.41-105.41z" style="stroke-width:.0670184"/><path d="m-209.81 170.99c57.969 0 104.64 46.668 104.64 104.64v1e-3c0 57.968-46.668 104.64-104.64 104.64s-104.64-46.668-104.64-104.64 46.667-104.64 104.64-104.64z" style="stroke-width:.0670184"/><path d="m-209.81 171.77c57.539 0 103.86 46.321 103.86 103.86v1e-3c0 57.538-46.322 103.86-103.86 103.86-57.539-1e-3 -103.86-46.322-103.86-103.86s46.322-103.86 103.86-103.86z" style="stroke-width:.0670184"/><path d="m-209.81 172.54c57.11 0 103.09 45.976 103.09 103.08v1e-3c-1e-3 57.108-45.977 103.08-103.09 103.08s-103.08-45.976-103.08-103.08c1e-3 -57.109 45.976-103.08 103.08-103.08z" style="stroke-width:.0670184"/><path d="m-209.81 173.32c56.68 0 102.31 45.63 102.31 102.31v1e-3c0 56.679-45.63 102.31-102.31 102.31-56.679 0-102.31-45.63-102.31-102.31s45.63-102.31 102.31-102.31z" style="stroke-width:.0670184"/><path d="m-209.81 174.1c56.251 0 101.54 45.284 101.54 101.53v1e-3c0 56.249-45.285 101.53-101.54 101.53-56.25-1e-3 -101.53-45.285-101.53-101.54s45.284-101.53 101.53-101.53z" style="stroke-width:.0670184"/><path d="m-209.81 174.87c55.821 0 100.76 44.939 100.76 100.76v1e-3c-1e-3 55.82-44.939 100.76-100.76 100.76-55.82 0-100.76-44.938-100.76-100.76s44.939-100.76 100.76-100.76z" style="stroke-width:.0670184"/></g><path d="m-209.81 175.65c55.391 0 99.984 44.593 99.984 99.984v1e-3c0 55.39-44.593 99.983-99.984 99.983s-99.983-44.593-99.983-99.984 44.592-99.984 99.983-99.984z" stroke="#666" style="stroke-width:.0670184"/><g stroke="#1a1a1a" style="stroke-width:.0670184"><path d="m-209.81 176.42c54.962 0 99.209 44.247 99.209 99.208v1e-3c0 54.961-44.247 99.208-99.209 99.208-54.961-1e-3 -99.208-44.248-99.208-99.209 0-54.962 44.247-99.208 99.208-99.208z" style="stroke-width:.0670184"/><path d="m-209.81 177.2c54.532 0 98.434 43.901 98.434 98.433v1e-3c-1e-3 54.531-43.902 98.432-98.434 98.432s-98.433-43.901-98.433-98.433 43.902-98.433 98.433-98.433z" style="stroke-width:.0670184"/><path d="m-209.81 177.97c54.103 0 97.658 43.556 97.658 97.658v1e-3c0 54.102-43.555 97.657-97.658 97.657-54.102 0-97.657-43.556-97.657-97.658 0-54.103 43.555-97.658 97.657-97.658z" style="stroke-width:.0670184"/><path d="m-209.81 178.75c53.673 0 96.883 43.209 96.883 96.882v1e-3c0 53.672-43.21 96.882-96.883 96.882-53.673-1e-3 -96.882-43.21-96.882-96.883s43.21-96.882 96.882-96.882z" style="stroke-width:.0670184"/><path d="m-209.81 179.52c53.244 0 96.108 42.864 96.108 96.107v1e-3c-1e-3 53.243-42.864 96.106-96.108 96.106-53.243 0-96.107-42.864-96.107-96.107 0-53.244 42.864-96.107 96.107-96.107z" style="stroke-width:.0670184"/><path d="m-209.81 180.3c52.814 0 95.332 42.518 95.332 95.332v1e-3c0 52.813-42.518 95.331-95.332 95.331s-95.332-42.518-95.332-95.332c1e-3 -52.814 42.519-95.332 95.332-95.332z" style="stroke-width:.0670184"/><path d="m-209.81 181.07c52.385 0 94.557 42.173 94.557 94.557v1e-3c0 52.384-42.172 94.556-94.557 94.556-52.384-1e-3 -94.556-42.173-94.556-94.557 0-52.385 42.172-94.557 94.556-94.557z" style="stroke-width:.0670184"/><path d="m-209.81 181.85c51.955 0 93.782 41.826 93.782 93.781v1e-3c-1e-3 51.954-41.827 93.78-93.782 93.78s-93.781-41.826-93.781-93.781 41.827-93.781 93.781-93.781z" style="stroke-width:.0670184"/><path d="m-209.81 182.62c51.526 0 93.006 41.481 93.006 93.006v1e-3c0 51.525-41.48 93.005-93.006 93.005-51.525 0-93.006-41.481-93.006-93.006 1e-3 -51.525 41.481-93.006 93.006-93.006z" style="stroke-width:.0670184"/><path d="m-209.81 183.4c51.096 0 92.231 41.135 92.231 92.231v1e-3c0 51.095-41.135 92.23-92.231 92.23-51.096-1e-3 -92.23-41.135-92.23-92.231s41.135-92.231 92.23-92.231z" style="stroke-width:.0670184"/><path d="m-209.81 184.18c50.667 0 91.456 40.789 91.456 91.455v1e-3c-1e-3 50.666-40.79 91.454-91.456 91.454s-91.455-40.789-91.455-91.455 40.789-91.455 91.455-91.455z" style="stroke-width:.0670184"/><path d="m-209.81 184.95c50.237 0 90.68 40.443 90.68 90.68v1e-3c0 50.236-40.443 90.679-90.68 90.679s-90.68-40.443-90.68-90.68c1e-3 -50.237 40.444-90.68 90.68-90.68z" style="stroke-width:.0670184"/><path d="m-209.81 185.72c49.808 0 89.905 40.098 89.905 89.905v1e-3c0 49.807-40.098 89.904-89.905 89.904s-89.904-40.098-89.904-89.905 40.097-89.905 89.904-89.905z" style="stroke-width:.0670184"/><path d="m-209.81 186.5c49.378 0 89.13 39.751 89.13 89.129v1e-3c0 49.377-39.752 89.128-89.13 89.128s-89.129-39.751-89.129-89.129 39.752-89.129 89.129-89.129z" style="stroke-width:.0670184"/><path d="m-209.81 187.28c48.949 0 88.354 39.406 88.354 88.354v1e-3c0 48.948-39.406 88.353-88.354 88.353s-88.354-39.406-88.354-88.354c1e-3 -48.948 39.406-88.354 88.354-88.354z" style="stroke-width:.0670184"/><path d="m-209.81 188.05c48.519 0 87.579 39.06 87.579 87.579v1e-3c0 48.518-39.06 87.578-87.579 87.578-48.518 0-87.578-39.06-87.578-87.579s39.06-87.579 87.578-87.579z" style="stroke-width:.0670184"/><path d="m-209.81 188.83c48.089 0 86.804 38.714 86.804 86.803v1e-3c0 48.088-38.715 86.803-86.804 86.803-48.089-1e-3 -86.803-38.715-86.803-86.804s38.714-86.803 86.803-86.803z" style="stroke-width:.0670184"/><path d="m-209.81 189.6c47.66 0 86.029 38.369 86.029 86.028v1e-3c-1e-3 47.659-38.369 86.027-86.029 86.027-47.659 0-86.028-38.369-86.028-86.028 1e-3 -47.66 38.369-86.028 86.028-86.028z" style="stroke-width:.0670184"/><path d="m-209.81 190.38c47.23 0 85.253 38.023 85.253 85.253v1e-3c0 47.229-38.023 85.252-85.253 85.252s-85.252-38.023-85.252-85.253 38.023-85.253 85.252-85.253z" style="stroke-width:.0670184"/><path d="m-209.81 191.15c46.801 0 84.478 37.677 84.478 84.477v1e-3c0 46.8-37.677 84.477-84.478 84.477-46.8-1e-3 -84.477-37.678-84.477-84.478 0-46.801 37.677-84.477 84.477-84.477z" style="stroke-width:.0670184"/></g><path d="m-209.81 191.93c46.371 0 83.703 37.331 83.703 83.702v1e-3c-1e-3 46.37-37.332 83.701-83.703 83.701s-83.702-37.331-83.702-83.702c1e-3 -46.371 37.332-83.702 83.702-83.702z" stroke="#4d4d4d" style="stroke-width:.0670184"/></g><g transform="matrix(1.16908 0 0 1.1689 -42.3146 -44.2027)" fill="#4c5053" filter="url(#filter322)" opacity=".3" style="stroke-width:.916626"><g opacity=".4" style="stroke-width:.957406"><path d="m393.94 118.82c-8.7926-8.7929-18.26-16.43-28.081-23.333l-64.022 90.436c4.7851 3.3412 9.3886 7.0603 13.665 11.337 4.2766 4.277 7.9957 8.8806 11.337 13.666l90.433-64.025c-6.9027-9.8216-14.539-19.289-23.333-28.082z" opacity="1" stroke-width="10.6205"/><path d="m117.88 393.34c-9.0601-9.0605-16.929-18.816-24.042-28.937l93.184-65.972c3.4427 4.9309 7.2748 9.6746 11.682 14.081 4.4069 4.4069 9.1505 8.2392 14.081 11.682l-65.97 93.188c-10.12-7.113-19.875-14.982-28.936-24.043z" opacity="1" stroke-width="10.9432"/></g><g opacity="1" style="stroke-width:.957406"><path d="m350.23 85.323c-10.769-6.2176-21.89-11.144-33.163-15.27l-38.434 103.93c5.4867 1.9888 10.896 4.3896 16.133 7.4138 5.2375 3.0242 10.022 6.5085 14.487 10.266l70.782-85.249c-9.2094-7.7002-19.036-14.869-29.805-21.086z" opacity="1" stroke-width="10.6205"/><path d="m162.8 427.86c-11.096-6.4068-21.223-13.793-30.712-21.727l72.935-87.843c4.6016 3.8718 9.5308 7.4621 14.928 10.578s10.971 5.5901 16.624 7.6394l-39.603 107.09c-11.615-4.2512-23.075-9.3277-34.172-15.734z" opacity="1" stroke-width="10.9432"/></g><g opacity=".2" style="stroke-width:.957406"><path d="m427.44 162.53c-6.2173-10.769-13.386-20.597-21.085-29.806l-85.246 70.785c3.7574 4.4659 7.2415 9.2498 10.266 14.488 3.0241 5.238 5.4248 10.647 7.4135 16.134l103.92-38.436c-4.1255-11.273-9.0519-22.395-15.269-33.164z" opacity="1" stroke-width="10.6205"/><path d="m83.364 348.42c-6.4064-11.097-11.483-22.557-15.734-34.173l107.08-39.605c2.0492 5.6538 4.5229 11.228 7.639 16.625s6.7064 10.327 10.578 14.928l-87.839 72.938c-7.9342-9.49-15.321-19.616-21.727-30.713z" opacity="1" stroke-width="10.9432"/></g></g><rect class="ColorScheme-Text" x="22.1846" y="22.2226" width="467.624" height="467.549" rx="233.817" fill="currentColor" stroke-width="11.192" style="color:#7d7d7d;fill:#000;opacity:.2"/></svg>
