<?xml version="1.0" encoding="UTF-8"?>
<svg version="1.1" viewBox="0 0 512 512" xml:space="preserve" xmlns="http://www.w3.org/2000/svg" xmlns:cc="http://creativecommons.org/ns#" xmlns:dc="http://purl.org/dc/elements/1.1/" xmlns:rdf="http://www.w3.org/1999/02/22-rdf-syntax-ns#"><defs><style id="c" type="text/css">
   .ColorScheme-Text { color:#ffffff; } .ColorScheme-Highlight { color:#4285f4; } .ColorScheme-NeutralText { color:#ff9800; } .ColorScheme-PositiveText { color:#4caf50; } .ColorScheme-NegativeText { color:#f44336; }
  </style><style type="text/css">
   .ColorScheme-Text { color:#ffffff; } .ColorScheme-Highlight { color:#4285f4; } .ColorScheme-NeutralText { color:#ff9800; } .ColorScheme-PositiveText { color:#4caf50; } .ColorScheme-NegativeText { color:#f44336; }
  </style><style type="text/css">.ColorScheme-Text { color:#ffffff; } .ColorScheme-Highlight { color:#4285f4; } .ColorScheme-NeutralText { color:#ff9800; } .ColorScheme-PositiveText { color:#4caf50; } .ColorScheme-NegativeText { color:#f44336; }</style><linearGradient id="b" x1="-3.9307" x2="-15.005" y1="-35.057" y2="-34.067" gradientTransform="matrix(2.6667,0,0,2.6667,-26.293,-76.895)" gradientUnits="userSpaceOnUse"><stop stop-color="#0af" offset="0"/><stop stop-color="#0af" stop-opacity=".8" offset="1"/></linearGradient><radialGradient id="a" cx="5.7073" cy="-44.894" r="25.788" gradientTransform="translate(0,3.885e-4)" gradientUnits="userSpaceOnUse"><stop stop-color="#0af" offset="0"/><stop stop-color="#0af" stop-opacity=".96471" offset="1"/></radialGradient></defs><metadata><rdf:RDF><cc:Work rdf:about=""><dc:format>image/svg+xml</dc:format><dc:type rdf:resource="http://purl.org/dc/dcmitype/StillImage"/></cc:Work></rdf:RDF></metadata><g transform="translate(0 -540.362)"><path d="m101.806 553.252 290.123 0.21824 4.8742 2.18248 2.40071 4.65595v244.073l27.4264 28.0812 0.21825 126.438-6.91116 4.72868-318.277 2.32798z" style="fill:#ffb800"/><path d="m101.806 553.263 110.702 90.7426 0.41153 253.091-8.64215 13.169 0.2058 127.78-6.99604 3.9095-95.8514-76.106z" style="fill:#faec6d"/><path d="m112.427 959.992 0.582-380.623" style="fill:none;stroke-linecap:round;stroke-width:2.30457px;stroke:#ffb800"/><path d="m120.137 965.531 0.582-380.623" style="fill:none;stroke-linecap:round;stroke-width:2.30457px;stroke:#ffb800"/></g><g transform="matrix(3.90625,0,0,3.90625,215,256)"><rect width="64" height="64" rx="69.196" ry="4.7796e-8" fill="none" stop-color="#000000"/><g transform="matrix(1.1638,0,0,1.1638,-5.2441,-5.2377)" fill-rule="evenodd" style="stroke:#fff"><circle transform="rotate(127.75)" cx="5.7073" cy="-44.894" r="24.01" fill="url(#a)" stop-color="#000000" stroke="url(#b)" stroke-width="3.5556" style="fill:url(#a);stroke:#fff"/><path d="m32.001 26.245c-3.1698-6.12e-4 -5.7386 2.5799-5.7346 5.7607 2e-3 3.1766 2.569 5.7506 5.7346 5.75 3.1656 6.1e-4 5.7327-2.5734 5.7346-5.75 4e-3 -3.1808-2.5648-5.7613-5.7346-5.7607zm5.7346 5.7607c0.0013 2.381 1.9242 4.3109 4.2969 4.3127 2.3748 0.0012 4.301-1.9296 4.3023-4.3127 0.0014-2.385-1.9256-4.3189-4.3023-4.3177-2.3746 0.0018-4.2983 1.9348-4.2969 4.3177zm-11.469 0c0.0014-2.3829-1.9223-4.3159-4.2969-4.3177-2.3768-0.0012-4.3037 1.9327-4.3023 4.3177 0.0013 2.3831 1.9275 4.3139 4.3023 4.3127 2.3727-0.0018 4.2956-1.9317 4.2969-4.3127zm5.7346-2.8804c1.5838 0.0012 2.8665 1.291 2.8646 2.8804-0.0011 1.5873-1.2829 2.8738-2.8646 2.875-1.5817-0.0012-2.8636-1.2877-2.8646-2.875-2e-3 -1.5894 1.2808-2.8792 2.8646-2.8804zm-10.032 1.4375c0.79293 6.07e-4 1.4347 0.64711 1.4323 1.4428-4.94e-4 0.79362-0.64143 1.4369-1.4323 1.4375-0.7929 0.0023-1.437-0.64184-1.4375-1.4375-0.0024-0.79774 0.64254-1.4451 1.4375-1.4428zm20.063 0c0.79496-0.0023 1.4399 0.64506 1.4375 1.4428-4.92e-4 0.79566-0.6446 1.4398-1.4375 1.4375-0.79086-6.08e-4 -1.4318-0.64388-1.4323-1.4375-0.0024-0.79569 0.63937-1.4422 1.4323-1.4428z" color="#000000" fill="#fff" stroke-linecap="round" stroke-width=".50964" style="-inkscape-stroke:none;stroke:#fff"/></g></g></svg>
